<svg width="573" height="392" viewBox="0 0 573 392" fill="none" xmlns="http://www.w3.org/2000/svg">
<g clip-path="url(#clip0_55_681)">
<path d="M483.612 62.1007C446.008 39.3647 403.392 29.9567 360.692 24.0845C301.03 16.014 240.362 25.5313 185.774 51.5245C170.372 58.8784 155.405 72.128 138.567 75.5149L155.482 51.2893C158.736 46.6402 161.968 39.984 158.148 35.7269C156.62 34.0021 154.275 33.2808 152.036 32.9437C143.326 31.6266 134.586 34.8645 126.694 38.8472C90.3048 57.185 60.5929 91.3752 37.9937 125.213C0.764029 181.033 4.88199 272.667 47.4903 317.567C90.0985 362.467 181.228 384.317 219.108 379.456C247.857 375.771 216.877 358.249 210.513 347.626C209.886 346.74 209.527 345.685 209.481 344.592C209.565 342.733 211.215 341.401 212.782 340.468C225.922 332.628 242.708 334.98 257.254 333.764C280.41 331.808 303.656 331.221 326.877 332.008C330.025 332.126 366.376 333.02 363.496 340.632C361.204 346.669 352.173 351.546 347.452 355.246C343.808 358.084 320.231 374.533 327.038 380.146C328.917 381.714 331.461 382.02 333.868 382.255C373.688 386.214 414.661 384.999 453.877 376.485C488.02 369.076 525.693 357.018 546.084 325.697C566.857 293.757 568.126 251.1 560.203 214.698C558.329 206.021 555.821 197.501 552.701 189.211C549.79 181.527 545.16 175.052 541.294 167.87C539.766 164.977 538.666 161.488 539.766 158.392C544.709 144.726 559.08 171.986 562.999 157.349C564.902 150.238 561.234 139.693 558.904 132.982C554.71 120.893 547.612 110.011 539.109 100.658C522.851 82.7826 503.583 74.1507 483.612 62.1007Z" fill="#92E3A9"/>
<path opacity="0.7" d="M483.612 62.1007C446.008 39.3647 403.392 29.9567 360.692 24.0845C301.03 16.014 240.362 25.5313 185.774 51.5245C170.372 58.8784 155.405 72.128 138.567 75.5149L155.482 51.2893C158.736 46.6402 161.968 39.984 158.148 35.7269C156.62 34.0021 154.275 33.2808 152.036 32.9437C143.326 31.6266 134.586 34.8645 126.694 38.8472C90.3048 57.185 60.5929 91.3752 37.9937 125.213C0.764029 181.033 4.88199 272.667 47.4903 317.567C90.0985 362.467 181.228 384.317 219.108 379.456C247.857 375.771 216.877 358.249 210.513 347.626C209.886 346.74 209.527 345.685 209.481 344.592C209.565 342.733 211.215 341.401 212.782 340.468C225.922 332.628 242.708 334.98 257.254 333.764C280.41 331.808 303.656 331.221 326.877 332.008C330.025 332.126 366.376 333.02 363.496 340.632C361.204 346.669 352.173 351.546 347.452 355.246C343.808 358.084 320.231 374.533 327.038 380.146C328.917 381.714 331.461 382.02 333.868 382.255C373.688 386.214 414.661 384.999 453.877 376.485C488.02 369.076 525.693 357.018 546.084 325.697C566.857 293.757 568.126 251.1 560.203 214.698C558.329 206.021 555.821 197.501 552.701 189.211C549.79 181.527 545.16 175.052 541.294 167.87C539.766 164.977 538.666 161.488 539.766 158.392C544.709 144.726 559.08 171.986 562.999 157.349C564.902 150.238 561.234 139.693 558.904 132.982C554.71 120.893 547.612 110.011 539.109 100.658C522.851 82.7826 503.583 74.1507 483.612 62.1007Z" fill="white"/>
<path d="M524.585 93.8445C524.267 93.6408 523.938 93.4549 523.6 93.2879C518.473 90.7869 514.317 92.7861 511.872 96.5493C509.428 100.313 508.702 102.312 506.99 100.563C505.279 98.8151 502.59 96.2984 498.686 98.5564C494.782 100.814 495.507 103.064 493.338 103.566C491.168 104.068 489.678 101.81 486.255 102.563C482.833 103.315 480.907 106.075 480.143 106.577C479.379 107.078 473.542 109.336 473.542 109.336H549.515C549.515 109.336 548.3 102.28 544.388 100.313C540.477 98.3447 537.55 101.81 535.35 103.315C533.15 104.821 532.661 103.566 532.661 103.566C531.261 100.903 529.522 98.443 527.489 96.2514" stroke="#263238" stroke-linecap="round" stroke-linejoin="round"/>
<path d="M250.539 101.802C250.222 101.598 249.893 101.415 249.553 101.253C244.427 98.7447 240.27 100.752 237.826 104.507C235.381 108.262 234.655 110.277 232.944 108.521C231.232 106.765 228.543 104.272 224.616 106.514C220.689 108.756 221.438 111.03 219.268 111.524C217.098 112.018 215.601 109.76 212.178 110.544C208.755 111.328 206.83 114.048 206.066 114.55C205.302 115.052 199.473 117.31 199.473 117.31H275.445C275.445 117.31 274.223 110.254 270.311 108.286C266.399 106.318 263.481 109.76 261.288 111.281C259.095 112.802 258.599 111.524 258.599 111.524C257.202 108.858 255.463 106.398 253.426 104.209" stroke="#263238" stroke-linecap="round" stroke-linejoin="round"/>
<path d="M68.1258 119.003C67.8074 118.799 67.4784 118.614 67.1403 118.447C62.0138 115.946 57.8577 117.953 55.4129 121.708C52.9681 125.463 52.2423 127.478 50.5309 125.722C48.8196 123.966 46.1303 121.457 42.2262 123.715C38.3222 125.973 39.048 128.223 36.8782 128.725C34.7085 129.227 33.1881 127.008 29.796 127.721C26.4038 128.435 24.448 131.234 23.684 131.735C22.92 132.237 17.083 134.495 17.083 134.495H93.0552C93.0552 134.495 91.8328 127.439 87.9287 125.471C84.0247 123.503 81.0527 126.976 78.8906 128.474C76.7285 129.971 76.2013 128.725 76.2013 128.725C74.8015 126.062 73.0621 123.602 71.029 121.41" stroke="#263238" stroke-linecap="round" stroke-linejoin="round"/>
<path d="M240.66 36.7067C240.05 36.3191 239.42 35.9657 238.773 35.6483C228.933 30.8424 220.972 34.684 216.288 41.9203C211.605 49.1566 210.176 52.9747 206.914 49.6114C203.652 46.248 198.51 41.4421 190.985 45.7698C183.459 50.0974 184.873 54.3938 180.678 55.3816C176.484 56.3694 173.65 52.0182 167.094 53.4608C160.539 54.9034 156.78 60.164 155.375 61.1518C153.969 62.1397 142.723 66.436 142.723 66.436H288.425C288.425 66.436 286.087 52.9747 278.585 49.1331C271.082 45.2915 265.467 51.9947 261.288 54.8798C257.109 57.765 256.139 55.3581 256.139 55.3581C253.454 50.246 250.113 45.5262 246.207 41.3245" stroke="#263238" stroke-linecap="round" stroke-linejoin="round"/>
<path d="M87.2259 269.649C87.2259 289.484 75.7659 305.556 61.693 305.556C47.6202 305.556 36.1602 289.484 36.1602 269.649C36.1602 249.814 47.6202 181.668 61.693 181.668C75.7659 181.668 87.2259 249.822 87.2259 269.649Z" fill="#92E3A9"/>
<path opacity="0.53" d="M87.2259 269.649C87.2259 289.484 75.7659 305.556 61.693 305.556C47.6202 305.556 36.1602 289.484 36.1602 269.649C36.1602 249.814 47.6202 181.668 61.693 181.668C75.7659 181.668 87.2259 249.822 87.2259 269.649Z" fill="white"/>
<path d="M47.8952 271.437L56.0394 274.353L60.0734 279.974L59.3705 297.207L54.6795 293.937L59.2253 300.774L58.1557 326.803H63.137L62.48 287.681L76.0104 280.029L68.2787 282.961L69.8296 278.187L66.1319 283.777L62.4418 285.18L62.1744 269.492L75.6131 251.178L68.4086 258.571L69.631 253.428L66.1854 260.853L62.1056 265.039L61.693 240.539L60.2262 276.274L47.4979 262.436L54.4885 272.189L47.8952 271.437Z" fill="#B2B2B2"/>
<path d="M75.7354 240.617C75.931 242.094 75.5551 243.591 74.6882 244.787C73.8213 245.982 72.5325 246.782 71.0979 247.015C70.8983 245.537 71.2726 244.038 72.1402 242.842C73.0078 241.645 74.299 240.846 75.7354 240.617Z" fill="white"/>
<path d="M83.4365 251.711C83.636 253.19 83.2606 254.689 82.3915 255.886C81.5223 257.083 80.2292 257.882 78.7914 258.108C78.5939 256.63 78.9701 255.131 79.8389 253.935C80.7077 252.738 81.9996 251.94 83.4365 251.711Z" fill="white"/>
<path d="M83.4288 273.318C83.1303 274.778 82.2849 276.06 81.0746 276.887C79.8643 277.714 78.3859 278.02 76.9578 277.74C77.2527 276.277 78.0973 274.993 79.3086 274.165C80.5199 273.338 82.0003 273.033 83.4288 273.318Z" fill="white"/>
<path d="M41.1643 273.318C41.5513 274.745 42.3899 276 43.548 276.885C44.7911 277.629 46.239 277.929 47.6659 277.74C47.288 276.314 46.4605 275.057 45.3128 274.165C44.0596 273.419 42.6004 273.121 41.1643 273.318Z" fill="white"/>
<path d="M74.5436 264.349C74.741 265.827 74.3648 267.326 73.496 268.523C72.6273 269.719 71.3353 270.518 69.8984 270.747C69.701 269.268 70.0772 267.769 70.946 266.573C71.8147 265.376 73.1067 264.578 74.5436 264.349Z" fill="white"/>
<path d="M72.5801 228.544C72.7795 230.023 72.4042 231.522 71.535 232.719C70.6659 233.916 69.3727 234.715 67.9349 234.941C67.7375 233.463 68.1137 231.964 68.9825 230.768C69.8512 229.571 71.1432 228.773 72.5801 228.544Z" fill="white"/>
<path d="M67.996 237.748C68.1936 239.227 67.8177 240.727 66.949 241.925C66.0804 243.123 64.7884 243.923 63.3509 244.153C63.1533 242.674 63.5293 241.174 64.3979 239.977C65.2665 238.779 66.5585 237.979 67.996 237.748Z" fill="white"/>
<path d="M78.8448 231.053C79.0444 232.53 78.6701 234.029 77.8025 235.226C76.9349 236.423 75.6437 237.222 74.2073 237.45C74.0077 235.973 74.382 234.474 75.2496 233.277C76.1171 232.08 77.4084 231.281 78.8448 231.053Z" fill="white"/>
<path d="M43.4793 231.053C43.28 232.533 43.6564 234.033 44.5271 235.231C45.3978 236.428 46.6929 237.225 48.1321 237.45C48.2421 235.977 47.8741 234.508 47.0854 233.271C46.1568 232.142 44.8881 231.361 43.4793 231.053Z" fill="white"/>
<path d="M73.5426 217.293C73.7382 218.77 73.3623 220.267 72.4954 221.463C71.6286 222.659 70.3398 223.458 68.9052 223.691C68.7055 222.213 69.0799 220.715 69.9474 219.518C70.815 218.321 72.1063 217.522 73.5426 217.293Z" fill="white"/>
<path d="M71.2889 205.337C71.8452 206.717 71.8501 208.266 71.3026 209.649C70.7551 211.033 69.6991 212.14 68.3628 212.731C67.8106 211.35 67.8077 209.803 68.3548 208.421C68.9019 207.039 69.9553 205.932 71.2889 205.337Z" fill="white"/>
<path d="M55.1456 202.217C56.458 202.861 57.4714 204.008 57.9673 205.412C58.4631 206.815 58.4019 208.362 57.7967 209.72C56.4857 209.074 55.4736 207.927 54.9779 206.524C54.4822 205.121 54.5424 203.575 55.1456 202.217Z" fill="white"/>
<path d="M62.6481 216.509C63.6065 217.632 64.0971 219.095 64.0142 220.585C63.9313 222.075 63.2816 223.472 62.205 224.475C61.3225 223.308 60.8416 221.875 60.8374 220.398C61.0107 218.933 61.6467 217.568 62.6481 216.509Z" fill="white"/>
<path d="M62.2737 195.216C63.2321 196.338 63.7227 197.802 63.6398 199.292C63.5569 200.781 62.9072 202.178 61.8306 203.181C60.8722 202.059 60.3816 200.595 60.4645 199.106C60.5473 197.616 61.1971 196.219 62.2737 195.216Z" fill="white"/>
<path d="M45.374 240.617C45.1766 242.096 45.5528 243.594 46.4215 244.791C47.2903 245.987 48.5822 246.786 50.0191 247.015C50.1292 245.544 49.7611 244.077 48.9725 242.844C48.0462 241.713 46.7806 240.93 45.374 240.617Z" fill="white"/>
<path d="M40.9886 253.71C40.7912 255.188 41.1674 256.687 42.0362 257.884C42.9049 259.08 44.1969 259.879 45.6338 260.107C45.7438 258.637 45.3757 257.17 44.5871 255.937C43.6608 254.806 42.3952 254.023 40.9886 253.71Z" fill="white"/>
<path d="M52.632 258.461C52.4329 259.944 52.8114 261.447 53.6853 262.644C54.5592 263.842 55.858 264.638 57.3 264.859C57.4974 263.381 57.1213 261.882 56.2525 260.685C55.3837 259.489 54.0918 258.69 52.6549 258.461H52.632Z" fill="white"/>
<path d="M55.8179 240.319C55.2176 241.677 55.1598 243.222 55.6568 244.624C56.1538 246.025 57.1662 247.17 58.4766 247.814C59.081 246.457 59.1409 244.91 58.6435 243.508C58.146 242.106 57.1311 240.96 55.8179 240.319Z" fill="white"/>
<path d="M47.5743 288.598C49.0111 288.586 50.4042 288.09 51.5395 287.187C52.5598 286.145 53.2153 284.786 53.4037 283.322C51.9662 283.329 50.5716 283.825 49.4385 284.733C48.4182 285.775 47.7627 287.134 47.5743 288.598Z" fill="white"/>
<path d="M70.1887 285.949C70.5355 287.398 71.4213 288.649 72.6565 289.436C73.8918 290.223 75.3781 290.483 76.7973 290.159C76.4541 288.708 75.5689 287.453 74.3327 286.666C73.0965 285.878 71.6082 285.621 70.1887 285.949Z" fill="white"/>
<path d="M50.2025 228.544C50.003 230.023 50.3784 231.522 51.2475 232.719C52.1167 233.916 53.4098 234.715 54.8476 234.941C55.0451 233.463 54.6689 231.964 53.8001 230.768C52.9313 229.571 51.6394 228.773 50.2025 228.544Z" fill="white"/>
<path d="M50.1643 217.905C49.9666 219.383 50.3415 220.882 51.2085 222.079C52.0756 223.277 53.3657 224.078 54.8018 224.31C54.9995 222.832 54.6246 221.333 53.7575 220.136C52.8905 218.938 51.6004 218.137 50.1643 217.905Z" fill="white"/>
<path d="M542.279 287.485C542.279 307.32 530.82 323.392 516.747 323.392C502.674 323.392 491.252 307.328 491.252 287.485C491.252 267.642 502.712 199.497 516.785 199.497C530.858 199.497 542.279 267.658 542.279 287.485Z" fill="#92E3A9"/>
<path opacity="0.53" d="M542.279 287.485C542.279 307.32 530.82 323.392 516.747 323.392C502.674 323.392 491.252 307.328 491.252 287.485C491.252 267.642 502.712 199.497 516.785 199.497C530.858 199.497 542.279 267.658 542.279 287.485Z" fill="white"/>
<path d="M502.956 289.265L511.101 292.181L515.135 297.81L514.432 315.043L509.733 311.773L514.287 318.61L513.217 344.639H518.198L517.541 305.509L531.064 297.865L523.332 300.797L524.883 296.023L521.193 301.613L517.503 303.008L517.236 287.328L530.667 269.014L523.47 276.399L524.685 271.264L521.247 278.688L517.159 282.875L516.747 258.375L515.287 294.11L502.559 280.264L509.55 290.017L502.956 289.265Z" fill="#B2B2B2"/>
<path d="M530.797 258.453C530.994 259.931 530.618 261.43 529.749 262.627C528.88 263.823 527.588 264.622 526.151 264.851C525.952 263.372 526.327 261.872 527.197 260.675C528.066 259.478 529.359 258.68 530.797 258.453Z" fill="white"/>
<path d="M538.49 269.547C538.688 271.025 538.311 272.524 537.443 273.721C536.574 274.917 535.282 275.716 533.845 275.944C533.648 274.466 534.024 272.967 534.893 271.771C535.761 270.574 537.053 269.776 538.49 269.547Z" fill="white"/>
<path d="M538.49 291.146C538.195 292.608 537.351 293.892 536.139 294.72C534.928 295.548 533.448 295.852 532.019 295.568C532.318 294.107 533.163 292.826 534.373 291.999C535.584 291.172 537.062 290.865 538.49 291.146Z" fill="white"/>
<path d="M496.226 291.146C496.52 292.612 497.367 293.898 498.582 294.727C499.797 295.555 501.281 295.857 502.712 295.568C502.414 294.107 501.568 292.826 500.358 291.999C499.148 291.172 497.669 290.865 496.241 291.146H496.226Z" fill="white"/>
<path d="M529.597 282.185C529.793 283.662 529.417 285.159 528.55 286.354C527.683 287.55 526.394 288.35 524.96 288.583C524.76 287.105 525.134 285.606 526.002 284.409C526.87 283.213 528.161 282.414 529.597 282.185Z" fill="white"/>
<path d="M527.603 246.38C527.803 247.857 527.428 249.356 526.561 250.553C525.693 251.75 524.402 252.549 522.966 252.777C522.77 251.3 523.146 249.804 524.013 248.608C524.88 247.412 526.169 246.612 527.603 246.38Z" fill="white"/>
<path d="M523.019 255.584C523.217 257.062 522.842 258.561 521.975 259.758C521.108 260.956 519.818 261.757 518.382 261.989C518.18 260.511 518.553 259.01 519.421 257.811C520.289 256.613 521.581 255.813 523.019 255.584Z" fill="white"/>
<path d="M533.906 248.881C534.104 250.36 533.728 251.86 532.859 253.058C531.991 254.255 530.699 255.056 529.261 255.286C529.063 253.807 529.439 252.307 530.308 251.109C531.177 249.912 532.469 249.111 533.906 248.881Z" fill="white"/>
<path d="M498.533 248.881C498.335 250.36 498.711 251.86 499.58 253.058C500.449 254.255 501.74 255.056 503.178 255.286C503.376 253.807 503 252.307 502.131 251.109C501.262 249.912 499.97 249.111 498.533 248.881Z" fill="white"/>
<path d="M528.604 235.129C528.801 236.608 528.425 238.106 527.556 239.303C526.688 240.5 525.396 241.298 523.959 241.527C523.761 240.049 524.138 238.55 525.006 237.353C525.875 236.157 527.167 235.358 528.604 235.129Z" fill="white"/>
<path d="M526.35 223.173C526.902 224.553 526.905 226.101 526.358 227.483C525.811 228.865 524.758 229.972 523.424 230.566C522.872 229.186 522.869 227.639 523.416 226.257C523.963 224.875 525.017 223.767 526.35 223.173Z" fill="white"/>
<path d="M510.207 220.053C511.519 220.697 512.533 221.845 513.029 223.248C513.524 224.651 513.463 226.199 512.858 227.556C511.544 226.914 510.529 225.766 510.033 224.362C509.537 222.958 509.6 221.41 510.207 220.053Z" fill="white"/>
<path d="M517.732 234.345C518.691 235.467 519.181 236.931 519.098 238.421C519.015 239.911 518.366 241.308 517.289 242.311C516.331 241.188 515.84 239.725 515.923 238.235C516.006 236.745 516.656 235.348 517.732 234.345Z" fill="white"/>
<path d="M517.335 213.067C518.296 214.189 518.788 215.654 518.704 217.145C518.619 218.636 517.965 220.033 516.884 221.033C515.929 219.909 515.441 218.445 515.525 216.956C515.609 215.466 516.259 214.07 517.335 213.067Z" fill="white"/>
<path d="M500.42 258.453C500.223 259.931 500.599 261.43 501.468 262.627C502.336 263.823 503.628 264.622 505.065 264.851C505.265 263.372 504.889 261.872 504.02 260.675C503.151 259.478 501.858 258.68 500.42 258.453Z" fill="white"/>
<path d="M496.05 271.546C495.852 273.025 496.229 274.523 497.097 275.72C497.966 276.917 499.258 277.715 500.695 277.944C500.894 276.465 500.519 274.965 499.65 273.768C498.781 272.571 497.488 271.773 496.05 271.546Z" fill="white"/>
<path d="M507.693 276.297C507.496 277.776 507.872 279.274 508.741 280.471C509.61 281.668 510.902 282.466 512.338 282.695C512.536 281.216 512.16 279.718 511.291 278.521C510.422 277.325 509.13 276.526 507.693 276.297Z" fill="white"/>
<path d="M510.871 258.155C510.27 259.514 510.212 261.061 510.711 262.462C511.209 263.864 512.225 265.009 513.538 265.65C514.14 264.292 514.197 262.745 513.699 261.343C513.2 259.941 512.185 258.796 510.871 258.155Z" fill="white"/>
<path d="M502.628 306.434C504.08 306.514 505.505 306.006 506.597 305.02C507.688 304.033 508.359 302.647 508.465 301.158C507.012 301.078 505.587 301.586 504.496 302.573C503.405 303.559 502.734 304.946 502.628 306.434Z" fill="white"/>
<path d="M525.25 303.785C525.597 305.233 526.483 306.485 527.718 307.272C528.953 308.059 530.439 308.318 531.859 307.995C531.515 306.544 530.63 305.289 529.394 304.502C528.158 303.714 526.67 303.457 525.25 303.785Z" fill="white"/>
<path d="M505.264 246.38C505.068 247.857 505.444 249.353 506.311 250.549C507.178 251.745 508.467 252.545 509.901 252.777C510.097 251.3 509.721 249.804 508.854 248.608C507.987 247.412 506.698 246.612 505.264 246.38Z" fill="white"/>
<path d="M505.218 235.741C505.018 237.219 505.394 238.719 506.263 239.916C507.132 241.113 508.425 241.911 509.863 242.138C510.06 240.66 509.684 239.161 508.815 237.965C507.947 236.768 506.655 235.969 505.218 235.741Z" fill="white"/>
<path d="M482.52 236.995C482.52 256.823 471.06 272.902 456.987 272.902C442.914 272.902 431.454 256.823 431.454 236.995C431.454 217.168 442.914 149.007 456.987 149.007C471.06 149.007 482.52 217.168 482.52 236.995Z" fill="#92E3A9"/>
<path opacity="0.53" d="M482.52 236.995C482.52 256.823 471.06 272.902 456.987 272.902C442.914 272.902 431.454 256.823 431.454 236.995C431.454 217.168 442.914 149.007 456.987 149.007C471.06 149.007 482.52 217.168 482.52 236.995Z" fill="white"/>
<path d="M443.196 238.775L451.333 241.691L455.375 247.32L454.664 264.553L449.973 261.283L454.519 268.12L453.457 294.149H458.438L457.781 255.019L471.304 247.367L463.572 250.307L465.123 245.525L461.425 251.115L457.735 252.518L457.476 236.838L470.907 218.524L463.71 225.909L464.925 220.774L461.479 228.191L457.399 232.385L456.987 207.885L455.52 243.62L442.792 229.775L449.79 239.527L443.196 238.775Z" fill="#B2B2B2"/>
<path d="M471.037 207.956C471.234 209.435 470.858 210.935 469.99 212.133C469.121 213.331 467.829 214.131 466.391 214.361C466.194 212.882 466.57 211.382 467.438 210.185C468.307 208.987 469.599 208.187 471.037 207.956Z" fill="white"/>
<path d="M478.73 219.057C478.927 220.535 478.551 222.034 477.683 223.231C476.814 224.427 475.522 225.226 474.085 225.455C473.888 223.976 474.264 222.477 475.132 221.281C476.001 220.084 477.293 219.286 478.73 219.057Z" fill="white"/>
<path d="M478.722 240.688C478.424 242.148 477.578 243.43 476.368 244.257C475.158 245.084 473.679 245.39 472.251 245.11C472.553 243.651 473.4 242.372 474.609 241.546C475.818 240.719 477.295 240.411 478.722 240.688Z" fill="white"/>
<path d="M436.458 240.688C436.76 242.146 437.606 243.425 438.816 244.252C440.025 245.078 441.501 245.386 442.929 245.11C442.631 243.649 441.785 242.368 440.575 241.541C439.365 240.714 437.886 240.407 436.458 240.688Z" fill="white"/>
<path d="M469.86 231.688C470.058 233.167 469.682 234.666 468.813 235.864C467.944 237.062 466.652 237.862 465.215 238.093C465.017 236.614 465.393 235.114 466.262 233.916C467.13 232.718 468.422 231.918 469.86 231.688Z" fill="white"/>
<path d="M467.843 195.89C468.041 197.368 467.664 198.867 466.796 200.064C465.927 201.26 464.635 202.059 463.198 202.288C463.001 200.809 463.377 199.31 464.246 198.114C465.114 196.917 466.406 196.119 467.843 195.89Z" fill="white"/>
<path d="M463.259 205.094C463.458 206.573 463.083 208.073 462.214 209.27C461.345 210.467 460.052 211.265 458.614 211.492C458.416 210.013 458.793 208.515 459.661 207.318C460.53 206.122 461.822 205.323 463.259 205.094Z" fill="white"/>
<path d="M474.146 198.391C474.346 199.87 473.97 201.37 473.101 202.567C472.232 203.764 470.939 204.562 469.501 204.789C469.304 203.31 469.68 201.811 470.548 200.615C471.417 199.418 472.709 198.62 474.146 198.391Z" fill="white"/>
<path d="M438.773 198.391C438.573 199.869 438.948 201.367 439.815 202.564C440.683 203.761 441.974 204.56 443.41 204.789C443.61 203.311 443.236 201.812 442.368 200.615C441.5 199.419 440.209 198.62 438.773 198.391Z" fill="white"/>
<path d="M468.844 184.64C469.041 186.118 468.665 187.617 467.796 188.813C466.928 190.01 465.636 190.808 464.199 191.037C463.999 189.558 464.375 188.059 465.244 186.862C466.113 185.665 467.406 184.866 468.844 184.64Z" fill="white"/>
<path d="M466.59 172.684C467.144 174.064 467.147 175.613 466.598 176.996C466.049 178.379 464.993 179.486 463.656 180.077C463.103 178.696 463.1 177.147 463.649 175.764C464.197 174.381 465.254 173.275 466.59 172.684Z" fill="white"/>
<path d="M450.439 169.563C451.75 170.207 452.762 171.353 453.257 172.755C453.753 174.157 453.693 175.702 453.09 177.059C451.78 176.415 450.768 175.269 450.272 173.867C449.776 172.465 449.836 170.92 450.439 169.563Z" fill="white"/>
<path d="M457.972 183.856C458.928 184.98 459.416 186.444 459.332 187.933C459.247 189.422 458.597 190.818 457.521 191.821C456.566 190.697 456.078 189.233 456.162 187.744C456.246 186.255 456.896 184.859 457.972 183.856Z" fill="white"/>
<path d="M457.567 162.578C458.526 163.7 459.016 165.164 458.933 166.654C458.85 168.144 458.201 169.54 457.124 170.544C456.166 169.421 455.675 167.958 455.758 166.468C455.841 164.978 456.491 163.581 457.567 162.578Z" fill="white"/>
<path d="M440.675 207.956C440.477 209.434 440.852 210.933 441.719 212.13C442.586 213.328 443.877 214.129 445.313 214.361C445.51 212.883 445.135 211.385 444.268 210.187C443.401 208.989 442.111 208.188 440.675 207.956Z" fill="white"/>
<path d="M436.29 221.088C436.088 222.567 436.461 224.067 437.329 225.266C438.197 226.465 439.489 227.265 440.927 227.493C441.125 226.015 440.75 224.516 439.883 223.319C439.016 222.121 437.726 221.32 436.29 221.088Z" fill="white"/>
<path d="M447.926 225.792C447.728 227.27 448.104 228.769 448.973 229.966C449.842 231.162 451.134 231.961 452.571 232.189C452.768 230.711 452.392 229.212 451.523 228.016C450.654 226.819 449.362 226.021 447.926 225.792Z" fill="white"/>
<path d="M451.111 207.666C450.51 209.025 450.452 210.571 450.951 211.973C451.449 213.375 452.465 214.52 453.778 215.161C454.38 213.802 454.437 212.256 453.939 210.854C453.44 209.452 452.425 208.307 451.111 207.666Z" fill="white"/>
<path d="M442.868 255.937C444.319 256.017 445.743 255.51 446.834 254.525C447.925 253.54 448.597 252.155 448.705 250.668C447.253 250.584 445.827 251.09 444.735 252.075C443.642 253.061 442.972 254.448 442.868 255.937Z" fill="white"/>
<path d="M465.49 253.295C465.831 254.745 466.715 255.998 467.951 256.785C469.186 257.571 470.673 257.827 472.091 257.497C471.749 256.047 470.866 254.793 469.63 254.007C468.395 253.22 466.908 252.964 465.49 253.295Z" fill="white"/>
<path d="M445.496 195.89C445.299 197.368 445.675 198.867 446.543 200.064C447.412 201.26 448.704 202.059 450.141 202.288C450.339 200.809 449.962 199.31 449.094 198.114C448.225 196.917 446.933 196.119 445.496 195.89Z" fill="white"/>
<path d="M445.458 185.251C445.26 186.73 445.637 188.229 446.505 189.425C447.374 190.622 448.666 191.42 450.103 191.649C450.3 190.171 449.924 188.672 449.056 187.475C448.187 186.279 446.895 185.48 445.458 185.251Z" fill="white"/>
<path d="M295.546 226.654C295.546 246.49 284.086 262.562 270.013 262.562C255.94 262.562 244.48 246.49 244.48 226.654C244.48 206.819 255.94 138.666 270.02 138.666C284.101 138.666 295.546 206.827 295.546 226.654Z" fill="#92E3A9"/>
<path opacity="0.53" d="M295.546 226.654C295.546 246.49 284.086 262.562 270.013 262.562C255.94 262.562 244.48 246.49 244.48 226.654C244.48 206.819 255.94 138.666 270.02 138.666C284.101 138.666 295.546 206.827 295.546 226.654Z" fill="white"/>
<path d="M256.215 228.442L264.359 231.351L268.393 236.98L267.69 254.212L262.992 250.943L267.545 257.779L266.476 283.808H271.457L270.8 244.679L284.323 237.027L276.599 239.967L278.149 235.192L274.452 240.782L270.762 242.178L270.494 226.498L283.925 208.183L276.728 215.569L277.951 210.433L274.505 217.858L270.418 222.044L270.013 197.544L268.546 233.279L255.818 219.434L262.808 229.187L256.215 228.442Z" fill="#B2B2B2"/>
<path d="M284.055 197.623C284.253 199.101 283.877 200.6 283.008 201.797C282.139 202.993 280.847 203.792 279.41 204.02C279.211 202.542 279.586 201.042 280.455 199.845C281.324 198.648 282.617 197.85 284.055 197.623Z" fill="white"/>
<path d="M291.749 208.716C291.948 210.194 291.574 211.693 290.706 212.889C289.839 214.086 288.548 214.885 287.111 215.114C286.916 213.637 287.292 212.14 288.158 210.944C289.025 209.749 290.314 208.949 291.749 208.716Z" fill="white"/>
<path d="M291.749 230.316C291.454 231.778 290.609 233.062 289.398 233.89C288.187 234.718 286.706 235.022 285.278 234.738C285.576 233.277 286.422 231.996 287.632 231.169C288.842 230.342 290.321 230.035 291.749 230.316Z" fill="white"/>
<path d="M249.484 230.316C249.779 231.778 250.624 233.062 251.835 233.89C253.046 234.718 254.527 235.022 255.955 234.738C255.657 233.277 254.811 231.996 253.601 231.169C252.391 230.342 250.912 230.035 249.484 230.316Z" fill="white"/>
<path d="M282.863 221.354C283.061 222.833 282.685 224.332 281.816 225.528C280.947 226.725 279.655 227.523 278.218 227.752C278.019 226.273 278.394 224.773 279.263 223.576C280.132 222.379 281.426 221.581 282.863 221.354Z" fill="white"/>
<path d="M280.869 185.549C281.067 187.028 280.691 188.526 279.822 189.723C278.953 190.919 277.661 191.718 276.224 191.947C276.027 190.468 276.403 188.97 277.272 187.773C278.141 186.577 279.432 185.778 280.869 185.549Z" fill="white"/>
<path d="M276.278 194.753C276.48 196.232 276.106 197.733 275.238 198.932C274.371 200.13 273.078 200.93 271.64 201.159C271.443 199.681 271.817 198.182 272.685 196.984C273.552 195.787 274.842 194.986 276.278 194.753Z" fill="white"/>
<path d="M287.165 188.05C287.356 189.525 286.978 191.017 286.112 192.21C285.245 193.402 283.959 194.2 282.527 194.432C282.325 192.953 282.699 191.453 283.566 190.254C284.434 189.055 285.727 188.255 287.165 188.027V188.05Z" fill="white"/>
<path d="M251.792 188.05C251.594 189.53 251.97 191.029 252.839 192.227C253.707 193.425 254.999 194.225 256.437 194.456C256.634 192.976 256.258 191.477 255.39 190.279C254.521 189.081 253.229 188.281 251.792 188.05Z" fill="white"/>
<path d="M281.863 174.299C282.06 175.777 281.684 177.276 280.815 178.472C279.946 179.669 278.654 180.468 277.217 180.696C277.02 179.218 277.396 177.719 278.265 176.523C279.134 175.326 280.426 174.528 281.863 174.299Z" fill="white"/>
<path d="M279.624 162.343C280.176 163.723 280.179 165.27 279.632 166.652C279.085 168.035 278.031 169.142 276.698 169.736C276.146 168.356 276.143 166.808 276.69 165.426C277.237 164.044 278.29 162.937 279.624 162.343Z" fill="white"/>
<path d="M263.465 159.223C264.778 159.867 265.791 161.014 266.287 162.417C266.783 163.821 266.722 165.368 266.117 166.726C264.805 166.08 263.793 164.933 263.298 163.53C262.802 162.127 262.862 160.58 263.465 159.223Z" fill="white"/>
<path d="M270.991 173.515C271.949 174.637 272.44 176.101 272.357 177.59C272.274 179.08 271.624 180.477 270.548 181.48C269.589 180.358 269.099 178.894 269.182 177.404C269.265 175.915 269.914 174.518 270.991 173.515Z" fill="white"/>
<path d="M270.593 152.237C271.552 153.359 272.042 154.823 271.96 156.313C271.877 157.802 271.227 159.199 270.15 160.202C269.192 159.08 268.701 157.616 268.784 156.127C268.867 154.637 269.517 153.24 270.593 152.237Z" fill="white"/>
<path d="M253.694 197.623C253.496 199.101 253.873 200.6 254.741 201.797C255.61 202.993 256.902 203.792 258.339 204.02C258.538 202.542 258.163 201.042 257.294 199.845C256.425 198.648 255.132 197.85 253.694 197.623Z" fill="white"/>
<path d="M249.308 210.716C249.111 212.194 249.487 213.693 250.356 214.889C251.225 216.086 252.517 216.885 253.954 217.113C254.153 215.635 253.778 214.135 252.909 212.938C252.039 211.741 250.746 210.943 249.308 210.716Z" fill="white"/>
<path d="M260.952 215.467C260.754 216.945 261.131 218.444 261.999 219.64C262.868 220.837 264.16 221.636 265.597 221.864C265.794 220.386 265.418 218.887 264.55 217.691C263.681 216.494 262.389 215.696 260.952 215.467Z" fill="white"/>
<path d="M264.138 197.325C263.533 198.682 263.473 200.229 263.971 201.631C264.468 203.033 265.483 204.179 266.796 204.82C267.401 203.462 267.461 201.916 266.963 200.513C266.466 199.111 265.451 197.966 264.138 197.325Z" fill="white"/>
<path d="M255.894 245.604C257.345 245.682 258.768 245.173 259.858 244.186C260.948 243.2 261.618 241.815 261.723 240.327C260.271 240.246 258.846 240.753 257.755 241.74C256.665 242.727 255.996 244.115 255.894 245.604Z" fill="white"/>
<path d="M278.509 242.954C278.855 244.402 279.741 245.654 280.976 246.441C282.212 247.228 283.698 247.487 285.117 247.164C284.774 245.713 283.889 244.458 282.653 243.671C281.416 242.883 279.928 242.625 278.509 242.954Z" fill="white"/>
<path d="M258.522 185.549C258.325 187.028 258.701 188.526 259.57 189.723C260.439 190.919 261.731 191.718 263.167 191.947C263.365 190.468 262.989 188.97 262.12 187.773C261.251 186.577 259.959 185.778 258.522 185.549Z" fill="white"/>
<path d="M258.477 174.91C258.371 176.383 258.739 177.851 259.523 179.089C260.451 180.215 261.717 180.996 263.122 181.308C263.319 179.829 262.943 178.331 262.074 177.134C261.205 175.937 259.913 175.139 258.477 174.91Z" fill="white"/>
<path d="M171.358 245.204C171.358 265.039 159.898 281.111 145.825 281.111C131.752 281.111 120.292 265.039 120.292 245.204C120.292 225.368 131.752 157.215 145.825 157.215C159.898 157.215 171.358 225.376 171.358 245.204Z" fill="#92E3A9"/>
<path opacity="0.53" d="M171.358 245.204C171.358 265.039 159.898 281.111 145.825 281.111C131.752 281.111 120.292 265.039 120.292 245.204C120.292 225.368 131.752 157.215 145.825 157.215C159.898 157.215 171.358 225.376 171.358 245.204Z" fill="white"/>
<path d="M132.034 246.991L140.179 249.9L144.213 255.529L143.51 272.761L138.811 269.492L143.365 276.328L142.295 302.357H147.276L146.619 263.228L160.142 255.584L152.41 258.516L153.961 253.741L150.271 259.331L146.573 260.727L146.314 245.047L159.745 226.733L152.548 234.118L153.763 228.983L150.317 236.407L146.237 240.594L145.825 216.094L144.365 251.828L131.637 237.991L138.628 247.744L132.034 246.991Z" fill="#B2B2B2"/>
<path d="M159.875 216.172C160.072 217.651 159.696 219.149 158.827 220.346C157.958 221.543 156.666 222.341 155.229 222.57C155.032 221.091 155.408 219.593 156.277 218.396C157.146 217.2 158.438 216.401 159.875 216.172Z" fill="white"/>
<path d="M167.568 227.266C167.766 228.744 167.389 230.243 166.521 231.439C165.652 232.636 164.36 233.434 162.923 233.663C162.726 232.185 163.102 230.686 163.97 229.489C164.839 228.293 166.131 227.494 167.568 227.266Z" fill="white"/>
<path d="M167.568 248.865C167.271 250.327 166.427 251.61 165.216 252.439C164.006 253.267 162.526 253.575 161.097 253.294C161.394 251.833 162.239 250.549 163.449 249.721C164.66 248.892 166.139 248.585 167.568 248.865Z" fill="white"/>
<path d="M125.296 248.865C125.593 250.327 126.438 251.61 127.648 252.439C128.859 253.267 130.338 253.575 131.767 253.294C131.47 251.833 130.626 250.549 129.415 249.721C128.205 248.892 126.725 248.585 125.296 248.865Z" fill="white"/>
<path d="M158.675 239.904C158.871 241.381 158.495 242.877 157.628 244.073C156.761 245.269 155.472 246.069 154.038 246.301C153.834 244.823 154.207 243.322 155.075 242.124C155.943 240.927 157.237 240.129 158.675 239.904Z" fill="white"/>
<path d="M156.681 204.099C156.881 205.576 156.506 207.075 155.639 208.272C154.771 209.469 153.48 210.267 152.044 210.496C151.848 209.019 152.224 207.523 153.091 206.327C153.958 205.131 155.247 204.331 156.681 204.099Z" fill="white"/>
<path d="M152.097 213.303C152.295 214.782 151.919 216.282 151.05 217.479C150.181 218.677 148.89 219.477 147.452 219.708C147.254 218.229 147.63 216.729 148.499 215.531C149.368 214.333 150.66 213.533 152.097 213.303Z" fill="white"/>
<path d="M162.984 206.6C163.182 208.079 162.806 209.579 161.937 210.776C161.069 211.974 159.777 212.774 158.339 213.005C158.141 211.526 158.517 210.026 159.386 208.828C160.255 207.63 161.547 206.83 162.984 206.6Z" fill="white"/>
<path d="M127.588 206.6C127.391 208.079 127.766 209.579 128.635 210.776C129.504 211.974 130.796 212.774 132.233 213.005C132.431 211.526 132.055 210.026 131.186 208.828C130.318 207.63 129.026 206.83 127.588 206.6Z" fill="white"/>
<path d="M157.682 192.864C157.879 194.342 157.503 195.841 156.634 197.037C155.766 198.234 154.474 199.033 153.037 199.261C152.839 197.783 153.216 196.284 154.084 195.088C154.953 193.891 156.245 193.092 157.682 192.864Z" fill="white"/>
<path d="M155.428 180.892C155.98 182.272 155.983 183.82 155.436 185.202C154.889 186.584 153.836 187.691 152.502 188.285C151.946 186.906 151.941 185.357 152.488 183.973C153.036 182.59 154.092 181.483 155.428 180.892Z" fill="white"/>
<path d="M139.277 177.772C140.592 178.413 141.608 179.56 142.105 180.965C142.601 182.369 142.538 183.918 141.928 185.275C140.617 184.629 139.605 183.482 139.11 182.079C138.614 180.676 138.674 179.13 139.277 177.772Z" fill="white"/>
<path d="M146.81 192.08C147.769 193.202 148.259 194.666 148.176 196.156C148.094 197.646 147.444 199.042 146.367 200.046C145.409 198.923 144.918 197.46 145.001 195.97C145.084 194.48 145.734 193.083 146.81 192.08Z" fill="white"/>
<path d="M146.413 170.787C147.369 171.911 147.857 173.375 147.772 174.864C147.688 176.353 147.038 177.749 145.962 178.752C145.007 177.628 144.519 176.164 144.603 174.675C144.687 173.186 145.337 171.79 146.413 170.787Z" fill="white"/>
<path d="M129.513 216.172C129.316 217.651 129.692 219.149 130.561 220.346C131.43 221.543 132.722 222.341 134.158 222.57C134.356 221.091 133.98 219.593 133.111 218.396C132.242 217.2 130.95 216.401 129.513 216.172Z" fill="white"/>
<path d="M125.128 229.265C124.93 230.743 125.307 232.242 126.175 233.439C127.044 234.635 128.336 235.434 129.773 235.663C129.97 234.184 129.594 232.685 128.726 231.489C127.857 230.292 126.565 229.494 125.128 229.265Z" fill="white"/>
<path d="M136.756 234.016C136.557 235.495 136.932 236.995 137.801 238.192C138.67 239.389 139.963 240.187 141.401 240.414C141.599 238.935 141.222 237.436 140.354 236.24C139.485 235.043 138.193 234.245 136.756 234.016Z" fill="white"/>
<path d="M139.95 215.875C139.348 217.233 139.29 218.78 139.789 220.182C140.287 221.584 141.303 222.728 142.616 223.37C143.218 222.011 143.275 220.464 142.777 219.062C142.278 217.66 141.263 216.516 139.95 215.875Z" fill="white"/>
<path d="M131.706 264.153C133.156 264.231 134.577 263.722 135.664 262.735C136.752 261.748 137.418 260.363 137.52 258.877C136.082 258.883 134.687 259.379 133.555 260.288C132.542 261.334 131.892 262.692 131.706 264.153Z" fill="white"/>
<path d="M154.328 261.503C154.675 262.952 155.561 264.204 156.796 264.991C158.031 265.778 159.517 266.037 160.937 265.713C160.59 264.264 159.704 263.013 158.469 262.226C157.234 261.439 155.747 261.179 154.328 261.503Z" fill="white"/>
<path d="M134.342 204.099C134.138 205.577 134.511 207.078 135.379 208.276C136.247 209.473 137.541 210.271 138.979 210.496C139.175 209.019 138.799 207.523 137.932 206.327C137.065 205.131 135.776 204.331 134.342 204.099Z" fill="white"/>
<path d="M134.296 193.46C134.097 194.939 134.472 196.438 135.341 197.635C136.21 198.832 137.503 199.631 138.941 199.857C139.139 198.379 138.762 196.88 137.894 195.684C137.025 194.487 135.733 193.689 134.296 193.46Z" fill="white"/>
<path d="M524.868 191.821C524.868 222.091 507.418 246.631 485.904 246.631C464.39 246.631 446.94 222.091 446.94 191.821C446.94 161.551 464.39 57.5142 485.904 57.5142C507.418 57.5142 524.868 161.551 524.868 191.821Z" fill="#92E3A9"/>
<path opacity="0.3" d="M524.868 191.821C524.868 222.091 507.418 246.631 485.904 246.631C464.39 246.631 446.94 222.091 446.94 191.821C446.94 161.551 464.39 57.5142 485.904 57.5142C507.418 57.5142 524.868 161.551 524.868 191.821Z" fill="white"/>
<path d="M464.863 194.542L477.294 198.995L483.452 207.58L482.374 233.883L475.208 228.897L482.153 239.324L480.525 279.057H488.127L487.126 219.34L507.77 207.658L495.973 212.135L498.342 204.851L492.696 213.381L487.065 215.522L486.66 191.578L507.166 163.629L496.18 174.903L498.036 167.063L492.78 178.391L486.546 184.781L485.919 147.384L483.688 201.927L464.252 180.806L474.925 195.687L464.863 194.542Z" fill="#B2B2B2"/>
<path d="M507.357 147.501C507.357 147.501 507.724 151.171 505.76 153.875C503.797 156.58 500.275 157.27 500.275 157.27C500.275 157.27 499.908 153.593 501.872 150.896C503.835 148.199 507.357 147.501 507.357 147.501Z" fill="white"/>
<path d="M519.108 164.436C519.108 164.436 519.467 168.113 517.511 170.81C515.555 173.507 512.018 174.205 512.018 174.205C512.018 174.205 511.659 170.528 513.614 167.831C515.57 165.134 519.108 164.436 519.108 164.436Z" fill="white"/>
<path d="M519.1 197.411C519.1 197.411 518.236 201.002 515.509 202.86C512.782 204.718 509.221 204.161 509.221 204.161C509.221 204.161 510.092 200.578 512.82 198.673C515.547 196.768 519.1 197.411 519.1 197.411Z" fill="white"/>
<path d="M454.58 197.411C454.58 197.411 455.443 201.002 458.171 202.86C460.898 204.718 464.459 204.161 464.459 204.161C464.459 204.161 463.595 200.578 460.868 198.673C458.14 196.768 454.58 197.411 454.58 197.411Z" fill="white"/>
<path d="M505.531 183.723C505.531 183.723 505.898 187.4 503.934 190.097C501.971 192.794 498.449 193.491 498.449 193.491C498.449 193.491 498.09 189.822 500.046 187.125C502.001 184.428 505.531 183.723 505.531 183.723Z" fill="white"/>
<path d="M502.49 129.078C502.49 129.078 502.85 132.747 500.894 135.444C498.938 138.141 495.401 138.846 495.401 138.846C495.401 138.846 495.041 135.169 496.997 132.472C498.953 129.775 502.49 129.078 502.49 129.078Z" fill="white"/>
<path d="M495.492 143.127C495.492 143.127 495.851 146.804 493.896 149.501C491.94 152.198 488.402 152.896 488.402 152.896C488.402 152.896 488.043 149.219 489.999 146.522C491.955 143.825 495.492 143.127 495.492 143.127Z" fill="white"/>
<path d="M512.109 132.896C512.109 132.896 512.468 136.573 510.513 139.27C508.557 141.967 505.004 142.688 505.004 142.688C505.004 142.688 504.645 139.011 506.601 136.314C508.557 133.617 512.109 132.896 512.109 132.896Z" fill="white"/>
<path d="M458.11 132.896C458.11 132.896 457.751 136.573 459.707 139.27C461.662 141.967 465.2 142.688 465.2 142.688C465.2 142.688 465.559 139.011 463.603 136.314C461.647 133.617 458.11 132.896 458.11 132.896Z" fill="white"/>
<path d="M504.011 111.9C504.011 111.9 504.37 115.577 502.414 118.274C500.458 120.971 496.928 121.669 496.928 121.669C496.928 121.669 496.562 117.992 498.525 115.295C500.489 112.598 504.011 111.9 504.011 111.9Z" fill="white"/>
<path d="M500.573 93.6567C500.573 93.6567 501.818 97.122 500.573 100.234C499.327 103.347 496.088 104.939 496.088 104.939C496.088 104.939 494.843 101.473 496.088 98.3607C497.333 95.2483 500.573 93.6567 500.573 93.6567Z" fill="white"/>
<path d="M475.926 88.8896C475.926 88.8896 479.112 90.5988 480.235 93.7583C481.358 96.9178 479.975 100.336 479.975 100.336C479.975 100.336 476.782 98.6191 475.666 95.4596C474.551 92.3001 475.926 88.8896 475.926 88.8896Z" fill="white"/>
<path d="M487.432 110.701C487.432 110.701 489.724 113.57 489.518 116.926C489.311 120.281 486.752 122.861 486.752 122.861C486.752 122.861 484.46 119.999 484.674 116.643C484.888 113.288 487.432 110.701 487.432 110.701Z" fill="white"/>
<path d="M486.813 78.2275C486.813 78.2275 489.105 81.0891 488.891 84.4525C488.677 87.8159 486.133 90.3874 486.133 90.3874C486.133 90.3874 483.841 87.5179 484.048 84.1624C484.254 80.8069 486.813 78.2275 486.813 78.2275Z" fill="white"/>
<path d="M461.013 147.501C461.013 147.501 460.654 151.171 462.61 153.875C464.566 156.58 468.103 157.27 468.103 157.27C468.103 157.27 468.462 153.593 466.506 150.896C464.55 148.199 461.013 147.501 461.013 147.501Z" fill="white"/>
<path d="M454.32 167.486C454.32 167.486 453.961 171.163 455.917 173.86C457.873 176.557 461.41 177.254 461.41 177.254C461.41 177.254 461.769 173.578 459.813 170.881C457.858 168.184 454.32 167.486 454.32 167.486Z" fill="white"/>
<path d="M472.091 174.746C472.091 174.746 471.732 178.415 473.688 181.112C475.643 183.809 479.181 184.514 479.181 184.514C479.181 184.514 479.54 180.837 477.584 178.14C475.628 175.443 472.091 174.746 472.091 174.746Z" fill="white"/>
<path d="M476.95 147.047C476.95 147.047 475.582 150.465 476.705 153.625C477.829 156.784 481.014 158.493 481.014 158.493C481.014 158.493 482.39 155.075 481.267 151.916C480.143 148.756 476.95 147.047 476.95 147.047Z" fill="white"/>
<path d="M464.367 220.743C464.367 220.743 467.965 220.806 470.425 218.587C472.885 216.368 473.275 212.691 473.275 212.691C473.275 212.691 469.677 212.621 467.217 214.847C464.756 217.074 464.367 220.743 464.367 220.743Z" fill="white"/>
<path d="M498.892 216.698C498.892 216.698 499.87 220.257 502.659 222.029C505.447 223.801 508.977 223.127 508.977 223.127C508.977 223.127 507.999 219.567 505.218 217.795C502.437 216.023 498.892 216.698 498.892 216.698Z" fill="white"/>
<path d="M468.378 129.078C468.378 129.078 468.019 132.747 469.975 135.444C471.931 138.141 475.468 138.846 475.468 138.846C475.468 138.846 475.827 135.169 473.871 132.472C471.915 129.775 468.378 129.078 468.378 129.078Z" fill="white"/>
<path d="M468.332 112.833C468.332 112.833 467.973 116.51 469.929 119.207C471.885 121.904 475.422 122.602 475.422 122.602C475.422 122.602 475.781 118.933 473.825 116.236C471.869 113.539 468.332 112.833 468.332 112.833Z" fill="white"/>
<path d="M389.036 181.057C389.036 204.577 375.46 223.699 358.713 223.699C341.966 223.699 328.39 204.624 328.39 181.057C328.39 157.49 341.966 76.5732 358.713 76.5732C375.46 76.5732 389.036 157.513 389.036 181.057Z" fill="#92E3A9"/>
<path opacity="0.3" d="M389.036 181.057C389.036 204.577 375.46 223.699 358.713 223.699C341.966 223.699 328.39 204.624 328.39 181.057C328.39 157.49 341.966 76.5732 358.713 76.5732C375.46 76.5732 389.036 157.513 389.036 181.057Z" fill="white"/>
<path d="M342.333 183.174L352.005 186.639L356.796 193.326L355.955 213.781L350.386 209.9L355.787 218.015L354.519 248.928H360.432L359.653 202.468L375.712 193.381L366.537 196.862L368.378 191.194L363.985 197.834L359.607 199.497L359.294 180.869L375.239 159.128L366.697 167.893L368.141 161.794L364.046 170.606L359.202 175.585L358.713 146.482L356.979 188.928L341.859 172.488L350.164 184.067L342.333 183.174Z" fill="#B2B2B2"/>
<path d="M375.391 146.608C375.631 148.364 375.187 150.146 374.156 151.569C373.125 152.992 371.59 153.941 369.883 154.213C369.644 152.457 370.088 150.675 371.118 149.252C372.149 147.829 373.684 146.879 375.391 146.608Z" fill="white"/>
<path d="M384.536 159.755C384.769 161.511 384.322 163.289 383.29 164.71C382.259 166.13 380.726 167.079 379.02 167.352C378.788 165.597 379.235 163.818 380.266 162.398C381.298 160.977 382.831 160.029 384.536 159.755Z" fill="white"/>
<path d="M384.529 185.408C384.175 187.143 383.171 188.666 381.733 189.649C380.296 190.631 378.539 190.995 376.843 190.661C377.197 188.926 378.201 187.403 379.638 186.421C381.076 185.438 382.832 185.075 384.529 185.408Z" fill="white"/>
<path d="M334.342 185.408C334.692 187.144 335.694 188.668 337.131 189.651C338.568 190.634 340.324 190.997 342.02 190.661C341.67 188.926 340.668 187.402 339.231 186.419C337.794 185.436 336.037 185.073 334.342 185.408Z" fill="white"/>
<path d="M373.978 174.761C374.211 176.516 373.763 178.295 372.732 179.716C371.701 181.136 370.168 182.085 368.462 182.358C368.225 180.602 368.671 178.821 369.703 177.4C370.735 175.978 372.271 175.031 373.978 174.761Z" fill="white"/>
<path d="M371.61 132.245C371.842 134 371.395 135.779 370.364 137.2C369.332 138.62 367.799 139.569 366.094 139.842C365.857 138.086 366.303 136.305 367.335 134.884C368.367 133.462 369.902 132.515 371.61 132.245Z" fill="white"/>
<path d="M366.162 143.174C366.397 144.93 365.951 146.711 364.919 148.133C363.888 149.556 362.353 150.505 360.646 150.779C360.411 149.022 360.858 147.241 361.889 145.819C362.921 144.397 364.455 143.447 366.162 143.174Z" fill="white"/>
<path d="M379.089 135.216C379.322 136.972 378.875 138.75 377.843 140.171C376.812 141.591 375.279 142.54 373.573 142.813C373.34 141.058 373.788 139.279 374.819 137.859C375.851 136.438 377.384 135.49 379.089 135.216Z" fill="white"/>
<path d="M337.084 135.216C336.848 136.971 337.292 138.751 338.323 140.172C339.353 141.593 340.887 142.542 342.593 142.813C342.83 141.059 342.385 139.279 341.355 137.857C340.324 136.436 338.79 135.488 337.084 135.216Z" fill="white"/>
<path d="M372.832 118.878C373.067 120.634 372.621 122.415 371.589 123.837C370.557 125.26 369.023 126.21 367.316 126.483C367.079 124.726 367.525 122.944 368.557 121.521C369.589 120.099 371.124 119.149 372.832 118.878Z" fill="white"/>
<path d="M370.112 104.688C370.771 106.326 370.776 108.165 370.125 109.808C369.475 111.451 368.222 112.765 366.636 113.468C365.981 111.829 365.979 109.992 366.628 108.35C367.278 106.709 368.529 105.394 370.112 104.688Z" fill="white"/>
<path d="M350.936 100.979C352.495 101.742 353.699 103.104 354.29 104.769C354.88 106.435 354.808 108.273 354.091 109.885C352.532 109.122 351.328 107.761 350.737 106.095C350.147 104.429 350.218 102.592 350.936 100.979Z" fill="white"/>
<path d="M359.882 117.953C361.02 119.285 361.602 121.024 361.502 122.793C361.402 124.561 360.628 126.219 359.348 127.408C358.21 126.075 357.628 124.337 357.728 122.568C357.828 120.799 358.602 119.141 359.882 117.953Z" fill="white"/>
<path d="M359.409 92.6846C360.544 94.0192 361.125 95.7574 361.026 97.5264C360.928 99.2953 360.158 100.954 358.881 102.147C357.833 100.761 357.261 99.0573 357.254 97.3023C357.459 95.5621 358.216 93.9393 359.409 92.6846Z" fill="white"/>
<path d="M339.338 146.608C339.103 148.364 339.55 150.145 340.581 151.567C341.613 152.99 343.147 153.939 344.854 154.213C345.089 152.456 344.643 150.675 343.611 149.253C342.58 147.831 341.045 146.881 339.338 146.608Z" fill="white"/>
<path d="M334.128 162.131C333.895 163.887 334.343 165.665 335.374 167.086C336.405 168.506 337.938 169.455 339.644 169.728C339.881 167.972 339.435 166.191 338.403 164.77C337.371 163.349 335.835 162.401 334.128 162.131Z" fill="white"/>
<path d="M347.956 167.776C347.724 169.531 348.171 171.31 349.202 172.73C350.234 174.151 351.767 175.1 353.472 175.373C353.705 173.618 353.258 171.839 352.226 170.418C351.195 168.998 349.662 168.049 347.956 167.776Z" fill="white"/>
<path d="M351.738 146.224C351.023 147.837 350.954 149.675 351.546 151.34C352.137 153.006 353.342 154.366 354.901 155.13C355.614 153.516 355.682 151.679 355.091 150.014C354.499 148.349 353.296 146.989 351.738 146.224Z" fill="white"/>
<path d="M341.943 203.558C343.67 203.655 345.364 203.051 346.66 201.878C347.956 200.704 348.751 199.055 348.873 197.286C347.147 197.189 345.453 197.792 344.156 198.965C342.86 200.139 342.065 201.788 341.943 203.558Z" fill="white"/>
<path d="M368.806 200.414C369.214 202.136 370.266 203.624 371.733 204.558C373.201 205.492 374.967 205.797 376.652 205.408C376.242 203.687 375.19 202.2 373.723 201.266C372.256 200.332 370.49 200.026 368.806 200.414Z" fill="white"/>
<path d="M345.068 132.245C344.836 134 345.283 135.779 346.314 137.2C347.346 138.62 348.879 139.569 350.584 139.842C350.817 138.087 350.37 136.308 349.338 134.888C348.307 133.467 346.774 132.518 345.068 132.245Z" fill="white"/>
<path d="M345.022 119.607C344.784 121.364 345.228 123.147 346.261 124.57C347.293 125.993 348.83 126.942 350.539 127.212C350.773 125.455 350.327 123.674 349.295 122.252C348.264 120.83 346.73 119.88 345.022 119.607Z" fill="white"/>
<path d="M145.099 195.059C145.099 225.949 127.29 250.99 105.325 250.99C83.3601 250.99 65.5513 225.949 65.5513 195.059C65.5513 164.17 83.3601 58.0161 105.325 58.0161C127.29 58.0161 145.099 164.17 145.099 195.059Z" fill="#92E3A9"/>
<path opacity="0.3" d="M145.099 195.059C145.099 225.949 127.29 250.99 105.325 250.99C83.3601 250.99 65.5513 225.949 65.5513 195.059C65.5513 164.17 83.3601 58.0161 105.325 58.0161C127.29 58.0161 145.099 164.17 145.099 195.059Z" fill="white"/>
<path d="M83.8414 197.834L96.5238 202.374L102.811 211.139L101.711 237.983L94.3999 232.887L101.482 243.534L99.8243 284.082H107.587L106.563 223.134L127.626 211.217L115.586 215.788L118 208.348L112.247 217.058L106.494 219.238L106.081 194.808L127.007 166.286L115.792 177.795L117.694 169.791L112.331 181.347L105.967 187.878L105.325 149.712L103.048 205.376L83.2225 183.816L94.1095 199.002L83.8414 197.834Z" fill="#B2B2B2"/>
<path d="M127.206 149.83C127.206 149.83 127.573 153.578 125.579 156.329C123.585 159.081 119.971 159.795 119.971 159.795C119.971 159.795 119.604 156.047 121.606 153.295C123.608 150.544 127.206 149.83 127.206 149.83Z" fill="white"/>
<path d="M139.193 167.109C139.193 167.109 139.56 170.865 137.566 173.617C135.572 176.368 131.966 177.082 131.966 177.082C131.966 177.082 131.591 173.334 133.593 170.575C135.595 167.815 139.193 167.109 139.193 167.109Z" fill="white"/>
<path d="M139.193 200.767C139.193 200.767 138.307 204.42 135.526 206.325C132.745 208.23 129.108 207.65 129.108 207.65C129.108 207.65 129.995 203.997 132.776 202.092C135.557 200.187 139.193 200.767 139.193 200.767Z" fill="white"/>
<path d="M73.344 200.767C73.344 200.767 74.2302 204.42 77.0112 206.325C79.7922 208.23 83.4288 207.65 83.4288 207.65C83.4288 207.65 82.5426 203.997 79.7616 202.092C76.9806 200.187 73.344 200.767 73.344 200.767Z" fill="white"/>
<path d="M125.342 186.796C125.342 186.796 125.709 190.543 123.715 193.295C121.72 196.047 118.114 196.784 118.114 196.784C118.114 196.784 117.74 193.037 119.742 190.285C121.743 187.533 125.342 186.796 125.342 186.796Z" fill="white"/>
<path d="M122.24 131.03C122.24 131.03 122.607 134.777 120.613 137.529C118.619 140.281 115.005 140.994 115.005 140.994C115.005 140.994 114.638 137.247 116.632 134.495C118.626 131.743 122.24 131.03 122.24 131.03Z" fill="white"/>
<path d="M115.097 145.369C115.097 145.369 115.463 149.117 113.469 151.869C111.475 154.62 107.862 155.334 107.862 155.334C107.862 155.334 107.495 151.586 109.497 148.834C111.498 146.083 115.097 145.369 115.097 145.369Z" fill="white"/>
<path d="M132.05 134.926C132.05 134.926 132.424 138.674 130.423 141.426C128.421 144.177 124.822 144.899 124.822 144.899C124.822 144.899 124.456 141.143 126.45 138.392C128.444 135.64 132.05 134.926 132.05 134.926Z" fill="white"/>
<path d="M76.9501 134.926C76.9501 134.926 76.5834 138.674 78.585 141.426C80.5867 144.177 84.1852 144.899 84.1852 144.899C84.1852 144.899 84.5519 141.143 82.5578 138.392C80.5638 135.64 76.9501 134.926 76.9501 134.926Z" fill="white"/>
<path d="M123.768 113.5C123.768 113.5 124.135 117.247 122.141 120.007C120.147 122.766 116.533 123.472 116.533 123.472C116.533 123.472 116.166 119.717 118.168 116.965C120.17 114.213 123.768 113.5 123.768 113.5Z" fill="white"/>
<path d="M120.284 94.8638C120.284 94.8638 121.552 98.3996 120.284 101.583C119.016 104.766 115.7 106.381 115.7 106.381C115.7 106.381 114.424 102.845 115.7 99.6697C116.976 96.4945 120.284 94.8638 120.284 94.8638Z" fill="white"/>
<path d="M95.1333 90.0186C95.1333 90.0186 98.3803 91.7669 99.5263 94.9891C100.672 98.2114 99.2589 101.7 99.2589 101.7C99.2589 101.7 96.0042 99.9518 94.8659 96.7296C93.7275 93.5074 95.1333 90.0186 95.1333 90.0186Z" fill="white"/>
<path d="M106.861 112.284C106.861 112.284 109.153 115.201 108.985 118.627C108.817 122.053 106.196 124.656 106.196 124.656C106.196 124.656 103.904 121.731 104.072 118.305C104.24 114.879 106.861 112.284 106.861 112.284Z" fill="white"/>
<path d="M106.242 79.1367C106.242 79.1367 108.534 82.061 108.366 85.4871C108.198 88.9132 105.539 91.5474 105.539 91.5474C105.539 91.5474 103.247 88.6231 103.415 85.197C103.583 81.771 106.242 79.1367 106.242 79.1367Z" fill="white"/>
<path d="M79.9145 149.83C79.9145 149.83 79.5477 153.578 81.5418 156.329C83.5358 159.081 87.1495 159.795 87.1495 159.795C87.1495 159.795 87.5163 156.047 85.5222 153.295C83.5282 150.544 79.9145 149.83 79.9145 149.83Z" fill="white"/>
<path d="M73.0843 170.222C73.0843 170.222 72.7175 173.978 74.7116 176.729C76.7056 179.481 80.3193 180.195 80.3193 180.195C80.3193 180.195 80.6861 176.439 78.6844 173.687C76.6827 170.936 73.0843 170.222 73.0843 170.222Z" fill="white"/>
<path d="M91.2216 177.631C91.2216 177.631 90.8472 181.378 92.8489 184.13C94.8506 186.882 98.449 187.595 98.449 187.595C98.449 187.595 98.8158 183.848 96.8217 181.096C94.8277 178.344 91.2216 177.631 91.2216 177.631Z" fill="white"/>
<path d="M96.1799 149.368C96.1799 149.368 94.7742 152.856 95.9202 156.079C97.0662 159.301 100.321 161.049 100.321 161.049C100.321 161.049 101.727 157.56 100.581 154.338C99.4346 151.116 96.1799 149.368 96.1799 149.368Z" fill="white"/>
<path d="M83.3372 224.569C83.3372 224.569 87.0044 224.64 89.5179 222.366C92.0315 220.092 92.444 216.384 92.444 216.384C92.444 216.384 88.7768 216.313 86.2633 218.587C83.7497 220.861 83.3372 224.569 83.3372 224.569Z" fill="white"/>
<path d="M118.573 220.445C118.573 220.445 119.566 224.075 122.393 225.878C125.22 227.681 128.849 226.999 128.849 226.999C128.849 226.999 127.848 223.369 125.029 221.558C122.21 219.747 118.573 220.445 118.573 220.445Z" fill="white"/>
<path d="M87.4322 131.03C87.4322 131.03 87.0654 134.777 89.0595 137.529C91.0535 140.281 94.6672 140.994 94.6672 140.994C94.6672 140.994 95.034 137.247 93.0323 134.495C91.0306 131.743 87.4322 131.03 87.4322 131.03Z" fill="white"/>
<path d="M87.3711 114.464C87.3711 114.464 86.9968 118.211 88.9984 120.963C91.0001 123.715 94.5986 124.436 94.5986 124.436C94.5986 124.436 94.9653 120.681 92.9712 117.929C90.9772 115.177 87.3711 114.464 87.3711 114.464Z" fill="white"/>
<path d="M242.624 183.989C242.624 207.548 229.047 226.639 212.293 226.639C195.538 226.639 181.97 207.548 181.97 183.989C181.97 160.43 195.546 79.4819 212.293 79.4819C229.04 79.4819 242.624 160.438 242.624 183.989Z" fill="#92E3A9"/>
<path opacity="0.3" d="M242.624 183.989C242.624 207.548 229.047 226.639 212.293 226.639C195.538 226.639 181.97 207.548 181.97 183.989C181.97 160.43 195.546 79.4819 212.293 79.4819C229.04 79.4819 242.624 160.438 242.624 183.989Z" fill="white"/>
<path d="M195.913 186.106L205.585 189.571L210.375 196.251L209.542 216.721L203.965 212.84L209.367 220.955L208.098 251.876H214.019L213.24 205.4L229.299 196.313L220.116 199.794L221.957 194.126L217.572 200.767L213.187 202.429L212.873 183.801L228.826 162.053L220.276 170.826L221.72 164.726L217.633 173.538L212.782 178.509L212.293 149.407L210.558 191.852L195.439 175.412L203.744 187L195.913 186.106Z" fill="#B2B2B2"/>
<path d="M228.978 149.501C229.215 151.258 228.77 153.04 227.738 154.462C226.706 155.885 225.17 156.834 223.462 157.106C223.227 155.349 223.674 153.568 224.705 152.146C225.737 150.724 227.271 149.774 228.978 149.501Z" fill="white"/>
<path d="M238.124 162.68C238.358 164.436 237.912 166.217 236.88 167.639C235.849 169.061 234.315 170.011 232.607 170.284C232.369 168.527 232.813 166.744 233.846 165.321C234.878 163.898 236.415 162.949 238.124 162.68Z" fill="white"/>
<path d="M238.116 188.34C237.762 190.075 236.758 191.598 235.32 192.58C233.883 193.563 232.126 193.927 230.43 193.593C230.784 191.858 231.788 190.335 233.226 189.353C234.663 188.37 236.419 188.006 238.116 188.34Z" fill="white"/>
<path d="M187.944 188.34C188.298 190.075 189.302 191.598 190.74 192.58C192.177 193.563 193.933 193.927 195.63 193.593C195.276 191.858 194.272 190.335 192.834 189.353C191.397 188.37 189.641 188.006 187.944 188.34Z" fill="white"/>
<path d="M227.557 177.686C227.796 179.443 227.352 181.226 226.319 182.649C225.287 184.072 223.75 185.021 222.041 185.29C221.809 183.534 222.256 181.754 223.287 180.333C224.318 178.911 225.851 177.961 227.557 177.686Z" fill="white"/>
<path d="M225.189 135.162C225.428 136.919 224.983 138.702 223.951 140.125C222.919 141.548 221.382 142.497 219.673 142.766C219.438 141.01 219.884 139.229 220.916 137.807C221.948 136.385 223.482 135.435 225.189 135.162Z" fill="white"/>
<path d="M219.742 146.098C219.981 147.854 219.537 149.636 218.506 151.059C217.476 152.482 215.941 153.432 214.233 153.703C213.994 151.947 214.438 150.165 215.469 148.742C216.499 147.319 218.034 146.369 219.742 146.098Z" fill="white"/>
<path d="M232.676 138.141C232.909 139.896 232.462 141.675 231.43 143.095C230.399 144.516 228.866 145.464 227.16 145.738C226.927 143.982 227.375 142.203 228.406 140.783C229.438 139.363 230.971 138.414 232.676 138.141Z" fill="white"/>
<path d="M190.656 138.141C190.424 139.896 190.871 141.675 191.902 143.095C192.934 144.516 194.467 145.464 196.172 145.738C196.409 143.982 195.963 142.201 194.931 140.779C193.899 139.358 192.364 138.41 190.656 138.141Z" fill="white"/>
<path d="M226.373 121.802C226.61 123.558 226.164 125.339 225.132 126.761C224.1 128.182 222.564 129.13 220.857 129.399C220.624 127.644 221.072 125.865 222.103 124.445C223.135 123.024 224.668 122.075 226.373 121.802Z" fill="white"/>
<path d="M223.699 107.604C224.354 109.243 224.357 111.081 223.707 112.722C223.057 114.364 221.806 115.678 220.223 116.385C219.564 114.746 219.559 112.907 220.21 111.264C220.86 109.622 222.113 108.307 223.699 107.604Z" fill="white"/>
<path d="M204.523 103.896C206.081 104.66 207.283 106.022 207.872 107.688C208.461 109.354 208.388 111.19 207.67 112.802C206.111 112.039 204.907 110.677 204.318 109.01C203.729 107.344 203.803 105.507 204.523 103.896Z" fill="white"/>
<path d="M213.462 120.869C214.599 122.203 215.181 123.942 215.083 125.711C214.984 127.481 214.213 129.14 212.934 130.332C211.797 128.998 211.215 127.26 211.313 125.49C211.412 123.72 212.183 122.061 213.462 120.869Z" fill="white"/>
<path d="M212.988 95.5933C214.125 96.9271 214.707 98.6657 214.609 100.435C214.51 102.205 213.739 103.864 212.461 105.056C211.325 103.721 210.744 101.983 210.843 100.214C210.941 98.4454 211.711 96.7864 212.988 95.5933Z" fill="white"/>
<path d="M192.918 149.501C192.685 151.257 193.132 153.037 194.163 154.459C195.194 155.88 196.728 156.831 198.434 157.106C198.669 155.349 198.222 153.568 197.191 152.146C196.159 150.724 194.625 149.774 192.918 149.501Z" fill="white"/>
<path d="M187.707 165.056C187.474 166.811 187.922 168.59 188.953 170.01C189.985 171.431 191.518 172.379 193.223 172.653C193.456 170.897 193.009 169.119 191.977 167.698C190.946 166.278 189.413 165.329 187.707 165.056Z" fill="white"/>
<path d="M201.536 170.7C201.303 172.455 201.75 174.234 202.782 175.655C203.813 177.075 205.346 178.024 207.052 178.297C207.284 176.542 206.837 174.763 205.806 173.343C204.774 171.922 203.241 170.973 201.536 170.7Z" fill="white"/>
<path d="M205.317 149.148C204.602 150.762 204.533 152.599 205.125 154.264C205.716 155.93 206.921 157.291 208.48 158.054C209.195 156.44 209.264 154.603 208.673 152.938C208.081 151.272 206.876 149.911 205.317 149.148Z" fill="white"/>
<path d="M195.523 206.49C197.249 206.587 198.943 205.983 200.239 204.81C201.536 203.637 202.331 201.987 202.452 200.218C200.726 200.121 199.032 200.724 197.736 201.897C196.44 203.071 195.645 204.72 195.523 206.49Z" fill="white"/>
<path d="M222.393 203.346C222.801 205.068 223.852 206.557 225.32 207.493C226.787 208.428 228.553 208.735 230.239 208.348C229.83 206.626 228.779 205.137 227.312 204.201C225.845 203.266 224.078 202.959 222.393 203.346Z" fill="white"/>
<path d="M198.64 135.162C198.405 136.918 198.852 138.699 199.883 140.121C200.915 141.543 202.449 142.493 204.156 142.766C204.391 141.01 203.945 139.229 202.913 137.807C201.881 136.385 200.347 135.435 198.64 135.162Z" fill="white"/>
<path d="M198.64 122.531C198.407 124.286 198.855 126.065 199.886 127.486C200.917 128.906 202.451 129.855 204.156 130.128C204.389 128.373 203.941 126.594 202.91 125.174C201.879 123.753 200.346 122.804 198.64 122.531Z" fill="white"/>
<path d="M234.548 239.363C136.664 253.279 54.7024 296.799 0.229248 356.5V391.639H573.046V329.884C488.907 258.351 363.397 221.088 234.548 239.363Z" fill="#92E3A9" stroke="#263238" stroke-miterlimit="10"/>
<path d="M150.837 391.639L145.282 374.478L121.293 372.071L105.913 383.713C105.913 383.713 98.1434 389.201 94.0942 391.208C93.7808 391.369 93.4595 391.513 93.1316 391.639H150.837Z" fill="white" stroke="#263238" stroke-miterlimit="10"/>
<path d="M152.082 390.04L146.528 372.879L122.538 370.472L107.159 382.114C107.159 382.114 99.3888 387.602 95.3396 389.617C95.0696 389.753 94.7488 389.894 94.377 390.04H152.082Z" fill="white" stroke="#263238" stroke-miterlimit="10"/>
<path d="M98.7853 359.072L95.4008 371.922L110.245 369.813L129.636 340.139L129.697 328.496L153.824 323.604L158.011 314.282L182.856 308.567L182.749 296.219L200.932 292.903C200.932 292.903 212.744 285.408 215.364 285.063C217.985 284.718 231.011 286.474 231.011 286.474L246.008 293.044L264.344 290.441L278.302 280.453L298.724 279.01C298.724 279.01 304.607 281.08 308.969 280.461C313.332 279.841 325.311 273.044 325.311 273.044L353.526 282.13L365.452 286.983L367.851 297.552L381.274 297.097L384.2 290.135L396.516 292.754L396.929 298.516L372.022 307.877L390.404 321.268L425.044 330.895L441.355 343.126L460.875 341.824L463.641 334.157L470.311 331.758L444.396 320.891L430.132 321.44L440.828 317.011L427.611 306.544L442.295 303.73L463.427 309.453L471.648 325.744L483.337 333.537L495.836 352.839L517.618 361.377L522.905 384.638L545.397 392.353L545.626 394.368H566.537L550.844 380.664L542.539 360.021L558.744 359.895L557.98 352.73L546.466 353.639L555.275 348.747L564.627 342.326L563.022 335.27L549.981 325.486L544.289 310.637C461.716 253.671 349.469 225.792 234.548 242.092C182.321 249.516 134.655 265.376 93.2539 287.564L116.013 296.188L106.677 310.605L90.7251 315.788L93.3074 335.058L86.7981 338.194L79.8304 347.187L83.5893 359.731L98.7853 359.072Z" fill="white" stroke="#263238" stroke-miterlimit="10"/>
<path d="M98.7852 356.352L95.4007 369.201L110.245 367.092L129.636 337.418L129.697 325.768L153.824 320.883L158.011 311.562L182.856 305.846L182.749 293.491L200.932 290.182C200.932 290.182 212.743 282.679 215.364 282.342C217.985 282.005 231.011 283.753 231.011 283.753L246.008 290.315L264.344 287.728L278.302 277.74L298.724 276.274C298.724 276.274 304.607 278.351 308.969 277.732C313.332 277.113 325.311 270.315 325.311 270.315L353.526 279.402L365.452 284.255L367.851 294.823L381.274 294.369L384.2 287.407L396.516 290.025L396.929 295.78L372.015 305.141L390.404 318.539L425.044 328.159L441.355 340.397L460.883 339.072L463.649 331.405L470.318 329.006L444.404 318.139L430.109 318.712L440.805 314.282L427.611 303.792L442.295 300.978L463.427 306.701L471.648 323.008L483.337 330.801L495.836 350.103L517.618 358.649L522.905 381.902L545.404 389.648L545.634 391.663H566.544L550.844 377.935L542.539 357.292L558.744 357.167L557.98 350.001L546.466 350.903L555.275 346.019L564.627 339.598L563.022 332.542L549.981 322.757L544.289 307.908C461.716 250.943 349.469 223.025 234.548 239.363C182.352 246.78 134.686 262.64 93.2844 284.874L116.044 293.498L106.708 307.916L90.7556 313.098L93.3379 332.416L86.8286 335.552L79.861 344.552L83.6198 357.096L98.7852 356.352Z" fill="white" stroke="#263238" stroke-miterlimit="10"/>
<path d="M271.587 390.714L279.891 375.716L295.401 384.419L310.329 391.639H381.641L378.218 379.926L384.223 366.7L371.732 355.379L309.443 343.141L284.277 347.445L281.213 361.706L268.645 354.031L250.241 360.287L253.786 383.792L271.587 390.714Z" fill="white" stroke="#263238" stroke-miterlimit="10"/>
<path d="M271.35 388.762L279.655 373.756L295.156 382.467L310.092 389.687H381.396L377.981 377.966L383.986 364.748L371.495 353.427L309.206 341.189L284.04 345.493L280.976 359.746L268.409 352.079L250.004 358.335L253.549 381.832L271.35 388.762Z" fill="white" stroke="#263238" stroke-miterlimit="10"/>
<path d="M422.416 364.184L408.679 363.227L399.091 372.588L409.848 392.157L421.201 390.542L422.416 364.184Z" fill="white" stroke="#263238" stroke-miterlimit="10"/>
<path d="M422.416 361.981L408.679 361.024L399.091 370.393L409.848 389.962L421.201 388.347L422.416 361.981Z" fill="white" stroke="#263238" stroke-miterlimit="10"/>
<path d="M506.677 366.026L474.1 357.559L466.063 349.978L459.561 353.082L468.882 366.308L478.287 383.886L492.344 386.253L494.323 383.062L484.063 373.607L508.373 377.425L506.677 366.026Z" fill="white" stroke="#263238" stroke-miterlimit="10"/>
<path d="M506.677 364.317L474.1 355.85L466.063 348.269L459.561 351.373L468.882 364.599L478.287 382.177L492.344 384.536L494.323 381.353L484.063 371.898L508.373 375.716L506.677 364.317Z" fill="white" stroke="#263238" stroke-miterlimit="10"/>
<path d="M365.192 235.106C365.192 235.106 363.045 243.377 362.839 243.902C362.633 244.428 356.108 250.08 355.497 250.606C354.886 251.131 353.969 253.436 354.985 254.69C356.001 255.945 359.982 256.054 363.045 256.156C366.109 256.258 370.494 254.588 371.824 254.165C373.153 253.742 375.086 253.953 376.11 252.385C376.961 250.864 377.316 249.103 377.126 247.36C377.026 245.996 376.721 243.487 376.927 242.656C377.133 241.825 377.745 237.207 377.745 237.207C377.745 237.207 368.63 232.386 365.192 235.106Z" fill="#263238" stroke="#263238" stroke-miterlimit="10"/>
<path d="M371.793 254.165C373.122 253.75 375.055 253.954 376.079 252.386C376.546 251.625 376.856 250.774 376.988 249.885C374.941 250.143 371.549 251.884 369.035 253.021C366.521 254.158 364.451 253.131 360.768 253.131C358.685 253.13 356.603 252.999 354.534 252.739C354.466 253.077 354.468 253.427 354.541 253.764C354.613 254.102 354.754 254.42 354.954 254.699C355.971 255.953 359.951 256.063 363.015 256.165C366.078 256.267 370.464 254.589 371.793 254.165Z" fill="white" stroke="#263238" stroke-miterlimit="10"/>
<path d="M382 152.48L372.832 197.827L365.49 231.437C365.49 231.437 364.061 232.699 364.367 233.224C364.675 233.835 364.948 234.463 365.184 235.106C365.184 235.106 369.264 235.419 369.768 235.521C371.638 236.363 373.446 237.343 375.178 238.454C376.194 239.191 378.646 238.25 379.051 237.411C379.456 236.572 378.646 233.115 378.646 233.115L378.852 228.928L386.706 198.979L401.1 166.302L404.156 166.827L412.423 198.14L431.309 197.827L424.058 153.923L383.031 148.262L382 152.48Z" fill="#263238" stroke="#263238" stroke-miterlimit="10"/>
<path d="M415.013 88.4509C415.013 88.4509 395.584 87.3925 392.482 88.7723C389.38 90.1522 370.983 103.3 369.952 104.782C368.92 106.263 367.889 108.388 368.195 109.87C368.5 111.352 369.952 116.142 369.952 116.142L379.257 113.382L378.837 110.089C378.837 110.089 380.594 111.257 381.733 110.873C382.871 110.489 393.307 106.953 393.307 106.953L388.876 131.83L380.602 150.065C380.602 150.065 380.296 153.248 382.894 156.855C385.492 160.461 390.954 164.279 390.954 164.279L397.777 157.6L400.26 167.792C400.26 167.792 412.041 166.631 416.892 163.339C420.113 161.047 423.002 158.3 425.472 155.177L422.37 139.497L428.054 127.51L428.986 145.432L427.336 162.186L436.427 163.566C436.427 163.566 440.049 148.717 440.354 146.49C440.66 144.264 443.456 119.764 442.112 114.15C441.042 109.501 438.584 105.311 435.083 102.163L432.401 99.811L415.013 88.4509Z" fill="#92E3A9" stroke="#263238" stroke-miterlimit="10"/>
<path d="M420.437 139.599C420.437 139.599 411.85 146.083 400.833 147.439" stroke="#263238" stroke-miterlimit="10"/>
<path d="M417.526 138.431C417.526 138.431 415.417 140.595 406.502 142.422" stroke="#263238" stroke-miterlimit="10"/>
<path d="M417.496 88.451C416.938 88.2161 416.332 88.1317 415.734 88.2058C415.136 88.2799 414.567 88.5101 414.08 88.8744C412.552 90.1445 407.365 103.088 407.365 103.088L412.224 103.614L411.185 106.797L415.326 113.374L425.655 110.082L426.274 107.643C426.274 107.643 430.208 112.104 430.621 111.36C431.034 110.615 431.24 100.54 431.24 100.54C431.24 100.54 433.096 97.3573 429.895 92.8022C426.694 88.2472 417.496 88.451 417.496 88.451Z" stroke="#263238" stroke-miterlimit="10"/>
<path d="M418.107 86.1694C418.107 86.1694 417.282 83.9115 416.403 85.605C415.524 87.2984 416.074 90.0032 416.074 90.0032C414.65 91.7211 413.668 93.7776 413.217 95.9851C412.224 100.046 415.509 107.377 415.853 108.059C416.197 108.741 416.181 112.23 416.181 112.23L423.004 106.248C423.548 106.515 424.153 106.625 424.753 106.565C425.354 106.506 425.927 106.279 426.411 105.911C428.39 104.672 431.683 102.414 433.333 99.9365C434.983 97.459 438.834 90.6853 438.834 90.6853L424.104 83.104L418.107 86.1694Z" fill="white" stroke="#263238" stroke-miterlimit="10"/>
<path d="M418.107 86.1696L419.482 88.8509C419.482 88.8509 418.382 91.5244 418.932 91.6655C419.482 91.8066 420.857 90.2621 420.857 90.2621C420.857 90.2621 422.095 90.2621 422.507 89.6976C422.913 89.0626 423.28 88.4028 423.607 87.722C423.607 87.722 428.276 88.1453 429.651 88.8509C431.026 89.5565 433.089 91.8066 435.702 92.0888C438.314 92.3711 440.507 92.0888 441.607 89.8387C442.707 87.5887 442.157 84.4762 442.157 84.4762C442.157 84.4762 441.607 78.8314 439.545 77.1458C437.482 75.4602 436.489 76.0168 436.489 76.0168C436.489 76.0168 432.363 72.3477 430.575 72.4888C430.071 72.5203 429.585 72.6954 429.172 72.9945C428.759 73.2937 428.435 73.705 428.237 74.1823C428.237 74.1823 427 73.7589 423.844 74.8879C420.689 76.0168 419.719 79.9604 419.581 81.3716C419.236 83.0144 418.742 84.6206 418.107 86.1696Z" fill="#263238" stroke="#263238" stroke-miterlimit="10"/>
<path d="M423.004 95.4209C423.508 94.2684 426.931 96.2049 428.497 98.0159" stroke="#263238" stroke-miterlimit="10"/>
<path d="M430.896 98.1256C430.896 98.1256 433.425 97.5611 434.632 97.9061" stroke="#263238" stroke-miterlimit="10"/>
<path d="M424.211 97.2163C424.381 97.7018 424.727 98.1017 425.176 98.3337C425.625 98.5656 426.144 98.6118 426.625 98.4629" stroke="#263238" stroke-miterlimit="10"/>
<path d="M425.968 101.74C426.411 102.641 428.39 103.998 429.154 103.206C429.918 102.414 430.147 99.4819 430.147 99.4819" stroke="#263238" stroke-miterlimit="10"/>
<path d="M422.668 100.352C422.718 100.804 422.859 101.24 423.083 101.633C423.307 102.025 423.609 102.366 423.969 102.631C424.328 102.897 424.738 103.083 425.172 103.176C425.606 103.27 426.054 103.269 426.488 103.174" stroke="#263238" stroke-miterlimit="10"/>
<path d="M431.133 98.9175C431.133 98.9175 431.683 100.485 433.425 99.1448" stroke="#263238" stroke-miterlimit="10"/>
<path d="M416.625 90.9443L417.503 91.6264C417.503 91.6264 417.144 94.5194 417.144 96.4323C417.144 98.3453 419.344 102.634 420.001 104.1C420.658 105.566 422.973 106.24 422.973 106.24" stroke="#263238" stroke-miterlimit="10"/>
<path d="M420.032 104.107L417.725 105.464" stroke="#263238" stroke-miterlimit="10"/>
<path d="M393.307 106.906C394.601 104.263 395.34 101.37 395.477 98.4155" stroke="#263238" stroke-miterlimit="10"/>
<path d="M427.84 128.435C427.84 128.435 431.049 123.982 431.767 119.208" stroke="#263238" stroke-miterlimit="10"/>
<path d="M379.257 113.374L384.009 124.507C384.009 124.507 387.829 127.157 388.143 127.479C388.456 127.8 389.487 130.34 389.174 131.085C388.861 131.83 387.829 128.537 387.111 128.96C386.743 129.2 386.438 129.528 386.221 129.916C386.004 130.304 385.882 130.74 385.866 131.187C385.973 131.83 389.075 137.874 388.761 138.086C388.507 138.263 388.219 138.383 387.916 138.437C387.613 138.491 387.302 138.478 387.004 138.4C386.179 138.188 386.179 137.976 385.66 137.976C384.589 138.002 383.517 137.931 382.458 137.765C381.633 137.553 379.975 135.326 379.563 134.582C379.15 133.837 378.531 127.479 378.531 127.479L369.952 116.134C369.952 116.134 374.91 111.783 379.257 113.374Z" fill="white" stroke="#263238" stroke-miterlimit="10"/>
<path d="M382.871 131.618C382.871 131.618 384.941 135.326 385.247 136.173C385.449 136.757 385.588 137.361 385.66 137.976" stroke="#263238" stroke-miterlimit="10"/>
<path d="M380.801 133.633C380.801 133.633 382.458 136.494 384.216 137.663" stroke="#263238" stroke-miterlimit="10"/>
<path d="M393.978 142.985L392.3 143.783L413.709 191.22L415.387 190.422L393.978 142.985Z" fill="white" stroke="#263238" stroke-miterlimit="10"/>
<path d="M391.733 144.037L385.576 130.968C385.485 130.777 385.433 130.57 385.423 130.359C385.413 130.148 385.444 129.936 385.516 129.738C385.587 129.539 385.697 129.358 385.838 129.204C385.98 129.05 386.15 128.927 386.34 128.843C386.705 128.666 387.125 128.645 387.506 128.784C387.887 128.924 388.198 129.213 388.372 129.588L394.53 142.688L391.733 144.037Z" fill="#263238" stroke="#263238" stroke-miterlimit="10"/>
<path d="M425.548 184.624C425.548 184.624 414.424 191.539 410.444 195.937C406.463 200.336 394.621 214.267 392.581 216.462C390.542 218.658 386.76 224.005 385.644 225.086C384.529 226.168 382.886 226.027 383.398 228.536C383.91 231.045 384.216 231.264 384.216 231.892C384.216 232.519 384.109 234.612 384.109 234.612C384.109 234.612 379.311 239.747 378.7 241.213C378.088 242.679 378.7 245.612 379.418 247.18C380.136 248.748 381.557 249.798 381.557 250.112C381.557 250.425 380.335 254.722 380.029 255.874C379.723 257.027 380.64 259.747 380.64 259.747C380.64 259.747 378.295 263.306 379.93 264.984C381.565 266.662 384.514 266.976 385.025 266.552C385.537 266.129 420.75 264.671 423.5 263.518C426.251 262.366 428.711 261.213 430.751 258.704C431.876 257.279 433.178 256.011 434.624 254.933C434.624 254.933 436.466 253.154 436.466 251.366C436.466 249.579 436.259 249.171 436.359 248.646C436.587 248.078 436.899 247.549 437.283 247.078L437.994 244.357C437.994 244.357 437.382 244.984 438.505 238.908C439.629 232.832 439.835 231.264 439.835 231.264L439.629 227.391L439.216 223.409C439.216 223.409 435.747 205.706 433.914 201.104C432.08 196.502 431.056 193.46 430.858 192.825C430.678 191.576 430.575 190.316 430.552 189.054C430.552 189.054 432.393 185.808 432.08 185.079C431.767 184.35 426.495 183.158 425.548 184.624Z" fill="#9C9C9C" stroke="#263238" stroke-miterlimit="10"/>
<path d="M427.313 162.155L426.671 173.264C426.671 173.264 424.486 180.665 424.677 182.029C424.868 183.393 427.046 186.898 427.046 186.898C427.046 186.898 427.71 188.748 428.283 188.066C428.856 187.384 429.322 187 429.047 185.824L428.765 184.656C428.765 184.656 430.759 185.244 430.85 186.122C430.942 187 430.377 189.532 431.041 189.72C431.706 189.908 433.891 185.338 434.097 184.758C434.304 184.177 432.569 181.622 432.195 180.759C431.821 179.897 430.3 177.937 430.3 177.357C430.3 176.776 436.412 163.535 436.412 163.535L427.313 162.155Z" fill="white" stroke="#263238" stroke-miterlimit="10"/>
<path d="M428.757 184.656L427.427 181.543" stroke="#263238" stroke-miterlimit="10"/>
<path d="M420.781 197.615C420.411 198.818 420.102 200.04 419.856 201.277C419.704 202.301 419.5 203.316 419.245 204.318L418.634 205.471C418.634 205.471 416.495 207.251 416.495 208.293C416.584 209.456 416.752 210.612 416.999 211.751C416.999 211.751 422.408 213.319 423.111 213.319C423.814 213.319 424.639 212.268 424.639 212.268C424.639 212.268 425.25 213.421 425.968 213.421C426.686 213.421 427.603 212.997 427.702 213.421C427.802 213.844 428.107 214.675 428.107 214.675C428.751 213.777 429.333 212.834 429.849 211.853C430.254 210.904 431.171 211.327 430.461 209.548C430.159 208.593 429.634 207.729 428.933 207.031C428.627 206.717 429.544 206.929 428.627 206.717C427.922 206.554 427.237 206.306 426.587 205.981C425.993 205.698 425.415 205.384 424.853 205.04L424.448 203.37C424.448 203.37 424.753 201.692 424.753 201.269C424.702 200.839 424.6 200.418 424.448 200.014L423.424 199.285L420.781 197.615Z" fill="white" stroke="#263238" stroke-miterlimit="10"/>
<path d="M423.432 200.445C423.432 200.445 422.209 204.844 422.003 205.259C421.797 205.675 424.555 208.928 424.86 208.928C425.166 208.928 427.618 208.191 428.023 208.505C428.579 209.1 428.997 209.815 429.246 210.598" stroke="#263238" stroke-miterlimit="10"/>
<path d="M422.492 209.657C421.98 209.242 420.857 209.132 419.734 207.454C418.791 206.236 418.287 204.721 418.305 203.166L418.405 202.013L420.452 200.547C420.452 200.547 420.551 200.547 420.345 199.497C420.139 198.446 419.696 198.509 419.696 198.509L415.922 190.144L413.125 191.476L416.9 199.834C416.9 199.834 415.96 203.479 416.777 206.2C417.595 208.92 420.956 210.81 421.575 210.81C422.194 210.81 423.027 210.112 422.492 209.657Z" fill="#263238" stroke="#263238" stroke-miterlimit="10"/>
<path d="M426.075 187.541L421.308 194.809" stroke="#263238" stroke-miterlimit="10"/>
<path d="M426.847 190.316L426.335 200.893" stroke="#263238" stroke-miterlimit="10"/>
<path d="M404.79 236.439C407.112 237.152 409.366 238.084 411.521 239.222" stroke="#263238" stroke-miterlimit="10"/>
<path d="M386.79 233.938C391.517 233.873 396.236 234.359 400.856 235.388" stroke="#263238" stroke-miterlimit="10"/>
<path d="M404.92 234.33C404.92 234.33 415.868 238.031 421.277 242.789" stroke="#263238" stroke-miterlimit="10"/>
<path d="M381.511 248.607C382.708 245.767 384.565 243.271 386.92 241.339" stroke="#263238" stroke-miterlimit="10"/>
<path d="M388.341 238.43C388.341 238.43 384.857 240.672 383.574 242.523" stroke="#263238" stroke-miterlimit="10"/>
<path d="M397.135 217.38L395.034 219.661" stroke="#263238" stroke-miterlimit="10"/>
<path d="M413.194 199.701C413.194 199.701 404.943 208.811 399.152 215.169" stroke="#263238" stroke-miterlimit="10"/>
<path d="M437.321 230.606C437.316 232.785 437.129 234.959 436.764 237.105" stroke="#263238" stroke-miterlimit="10"/>
<path d="M430.713 202.609C430.713 202.609 435.862 222.303 436.893 226.537C436.955 226.764 437 227 437.046 227.243" stroke="#263238" stroke-miterlimit="10"/>
<path d="M425.731 223.354C427.848 223.824 428.528 224.687 428.528 224.687" stroke="#263238" stroke-miterlimit="10"/>
<path d="M398.258 224.02C398.258 224.02 408.817 225.345 417.58 223.628C419.155 223.304 420.756 223.117 422.362 223.072" stroke="#263238" stroke-miterlimit="10"/>
<path d="M420.024 220.586C420.024 220.586 412.812 221.37 410.092 221.911" stroke="#263238" stroke-miterlimit="10"/>
<path d="M209.336 180.547C209.336 180.547 203.392 186.506 204.08 188.913C204.767 191.32 218.313 209.054 218.313 209.054C218.313 209.054 220.246 212.88 221.491 214.863C222.737 216.847 225.777 218.979 226.74 218.548C227.703 218.117 231.721 214.299 232.271 213.444C232.821 212.589 229.506 210.183 227.985 209.336C226.465 208.489 221.491 205.651 220.108 202.1C218.726 198.548 214.409 190.512 214.409 190.512L216.892 182.288L209.336 180.547Z" fill="white" stroke="#263238" stroke-miterlimit="10"/>
<path d="M226.702 218.548C227.672 218.124 231.683 214.298 232.233 213.444C232.783 212.589 229.467 210.182 227.947 209.336C226.686 208.63 223.05 206.552 221.071 203.848L217.35 207.815L218.29 209.061C218.29 209.061 220.223 212.887 221.468 214.871C222.714 216.854 225.739 218.979 226.702 218.548Z" fill="#92E3A9" stroke="#263238" stroke-miterlimit="10"/>
<path d="M227.534 212.174C227.534 212.174 224.081 216.564 223.944 218.125C223.806 219.685 222.973 225.925 222.973 225.925C222.973 225.925 217.029 234.291 217.029 236.415C217.029 238.54 222.423 243.51 226.014 246.341C229.605 249.171 245.114 251.876 247.291 251.876C249.469 251.876 265.673 250.598 266.919 249.038C268.164 247.477 268.447 243.079 266.919 239.253C265.391 235.427 255.306 226.631 254.481 225.784C253.656 224.937 251.425 216.282 249.232 214.299C247.039 212.315 237.344 211.884 235.824 212.025C234.303 212.166 228.78 212.025 227.534 212.174Z" fill="#9C9C9C" stroke="#263238" stroke-miterlimit="10"/>
<path d="M255.069 246.388C260.532 248.944 262.411 249.869 263.733 248.317C264.623 247.368 265.138 246.113 265.177 244.796" stroke="#263238" stroke-miterlimit="10"/>
<path d="M227.511 214.22C227.511 214.22 225.41 221.151 226.297 225.925C227.183 230.7 243.907 241.268 251.883 244.906L252.609 245.243" stroke="#263238" stroke-miterlimit="10"/>
<path d="M250.905 230.371C252.311 232.315 253.434 233.773 253.434 233.773" stroke="#263238" stroke-miterlimit="10"/>
<path d="M236.076 214.22C236.076 214.22 244.824 221.151 247.261 225.016C248.025 226.239 248.934 227.556 249.805 228.795" stroke="#263238" stroke-miterlimit="10"/>
<path d="M233.608 214.557C233.608 214.557 237.596 220.131 239.033 224.906" stroke="#263238" stroke-miterlimit="10"/>
<path d="M223.416 226.725C223.125 228.029 223.248 229.393 223.766 230.621C224.284 231.848 225.171 232.873 226.297 233.546" stroke="#263238" stroke-miterlimit="10"/>
<path d="M225.044 208.913L229.33 208.34C229.33 208.34 232.386 211.32 233.058 211.602C233.73 211.884 234.716 213.17 233.753 213.585C232.791 214.001 229.467 211.743 229.467 211.743C228.449 212.125 227.373 212.319 226.289 212.315L225.044 212.174" fill="#92E3A9"/>
<path d="M225.044 208.913L229.33 208.34C229.33 208.34 232.386 211.32 233.058 211.602C233.73 211.884 234.716 213.17 233.753 213.585C232.791 214.001 229.467 211.743 229.467 211.743C228.449 212.125 227.373 212.319 226.289 212.315L225.044 212.174" stroke="#263238" stroke-miterlimit="10"/>
<path d="M231.263 158.588C231.263 158.588 223.768 154.973 210.879 149.885C197.991 144.797 188.181 143.323 177.263 146.044C166.346 148.764 158.423 154.864 158.859 165.604C159.294 176.345 170.433 206.192 169.662 208.121C168.89 210.049 161.724 216.745 159.63 224.059C157.537 231.374 154.787 249.273 154.458 250.637C154.13 252.001 151.807 251.311 151.593 254.933C151.379 258.555 150.508 262.397 150.508 263.424C150.508 264.451 157.384 265.235 162.732 265.776C168.08 266.317 172.985 266.231 174.528 264.874C176.072 263.518 175.957 262.162 174.964 261.738C172.841 260.588 170.995 258.965 169.562 256.987C167.691 254.385 165.047 252.809 164.719 251.107C164.39 249.406 165.483 244.89 165.483 244.89C165.483 244.89 171.763 228.379 174.735 223.409C177.707 218.438 183.001 215.036 183.903 209.61C184.461 205.3 184.683 200.95 184.567 196.604C184.567 196.604 190.19 209.273 190.626 211.649C191.061 214.024 187.57 217.411 189.098 226.545C190.626 235.678 192.734 250.739 192.918 251.413C193.101 252.087 191.596 251.868 191.703 254.016C191.81 256.164 191.046 262.499 191.596 262.836C192.146 263.173 198.098 263.518 200.413 262.954C202.728 262.389 208.014 261.707 209.665 262.17C211.315 262.632 216.831 262.844 218.153 261.825C219.474 260.805 219.474 257.756 219.031 257.756C216.878 257.262 214.827 256.381 212.973 255.153C210.108 253.35 204.485 251.876 203.499 250.519C202.514 249.163 202.178 248.489 202.178 247.917C202.178 247.344 202.728 232.425 202.284 228.583C201.841 224.741 202.728 214.22 202.728 211.508C202.728 208.795 204.156 205.973 203.278 201.104C202.399 196.235 198.762 183.017 197.876 180.187C196.99 177.357 195.584 173.288 195.584 173.288C197.798 176.18 200.567 178.573 203.721 180.32C206.461 181.714 209.381 182.699 212.392 183.244L222.324 191.382L224.746 183.919L225.189 181.096C226.171 180.219 227.093 179.274 227.947 178.266C229.154 176.8 230.812 175.436 231.767 173.515C232.722 171.594 231.263 158.588 231.263 158.588Z" fill="white" stroke="#263238" stroke-miterlimit="10"/>
<path d="M202.284 228.583C201.841 224.741 202.727 214.22 202.727 211.507C202.727 208.795 204.156 205.972 203.277 201.104C202.399 196.235 198.762 183.017 197.876 180.187C196.99 177.356 195.584 173.287 195.584 173.287C196.78 174.833 198.129 176.246 199.61 177.505L197.188 169.226C197.188 169.226 186.63 168.442 181.351 163.973C177.531 160.79 174.016 152.213 172.32 147.604C164.069 150.826 158.522 156.572 158.889 165.636C159.332 176.376 170.464 206.223 169.692 208.152C168.92 210.08 161.754 216.776 159.661 224.091C158.133 229.437 156.269 240.351 155.229 246.427C156.418 247.734 157.934 248.68 159.612 249.163C161.289 249.645 163.064 249.645 164.741 249.163C164.915 247.727 165.17 246.303 165.505 244.898C165.505 244.898 171.785 228.387 174.757 223.416C177.729 218.446 183.024 215.043 183.925 209.618C184.484 205.307 184.706 200.958 184.59 196.611C184.59 196.611 190.213 209.281 190.649 211.656C191.084 214.032 187.593 217.419 189.121 226.552C190.175 232.785 191.481 241.738 192.276 247.038C195.683 247.595 199.435 247.532 202.3 245.674C202.368 241.237 202.628 231.57 202.284 228.583Z" fill="#263238" stroke="#263238" stroke-miterlimit="10"/>
<path d="M210.864 149.885C197.975 144.797 188.165 143.323 177.248 146.044C172.114 147.321 167.637 149.352 164.382 152.261C163.786 154.534 164.237 157.749 168.324 161.755C176.591 169.783 180.441 172.95 186.615 172.95C192.788 172.95 194.659 171.931 194.659 171.931C194.659 171.931 195.332 173.374 196.187 175.067C195.828 174.048 195.584 173.264 195.584 173.264C197.795 176.165 200.565 178.567 203.72 180.32C206.46 181.714 209.38 182.699 212.392 183.244L222.324 191.382L224.746 183.919L225.189 181.096C226.171 180.219 227.092 179.274 227.947 178.266C229.154 176.8 230.812 175.436 231.767 173.515C232.722 171.594 231.217 158.619 231.217 158.619C231.217 158.619 223.768 154.973 210.864 149.885Z" fill="#92E3A9" stroke="#263238" stroke-miterlimit="10"/>
<path d="M236.221 159.834C236.221 159.834 239.086 155.31 246.474 154.864C253.862 154.417 258.813 156.102 262.228 165.056C265.643 174.009 263.549 179.638 263.549 182.578C263.549 185.518 264.871 193.436 263.442 195.906C262.014 198.376 259.806 199.183 259.691 200.539C259.659 200.924 259.735 201.31 259.911 201.65C260.087 201.991 260.356 202.273 260.684 202.46C260.684 202.46 259.363 203.597 256.055 201.331C252.746 199.065 252.999 196.243 252.861 194.659C252.724 193.076 251.333 195.679 248.231 194.095C245.129 192.511 245.939 189.234 246.031 188.215C246.123 187.196 244.816 187.313 243.051 186.749C241.286 186.184 240.301 181.888 240.851 179.74C241.401 177.592 240.186 174.871 238.093 174.871C236 174.871 234.792 171.821 234.792 167.862C234.875 165.128 235.357 162.422 236.221 159.834Z" fill="#263238" stroke="#263238" stroke-miterlimit="10"/>
<path d="M257.926 176.455C257.392 177.834 256.368 178.955 255.061 179.591C252.769 180.838 251.096 180.838 250.218 181.943C249.339 183.048 249.454 184.773 248.781 184.993C248.109 185.212 246.359 184.209 246.359 184.209C246.359 184.209 244.488 184.554 241.844 184.891C239.201 185.228 237.986 184.554 237.764 183.08C237.543 181.606 237.543 175.961 238.093 174.824C238.447 174.117 238.853 173.438 239.308 172.794C239.308 172.794 238.314 169.854 240.186 168.38C242.058 166.906 243.166 167.478 243.609 168.725C243.838 169.697 243.799 170.715 243.494 171.665L247.024 170.646C247.024 170.646 249.316 173.241 251.539 174.15C253.763 175.06 257.376 174.377 257.376 174.377L257.926 176.455Z" fill="white" stroke="#263238" stroke-miterlimit="10"/>
<path d="M243.823 183.456C243.891 182.684 244.154 181.944 244.587 181.308" stroke="#263238" stroke-miterlimit="10"/>
<path d="M250.546 179.622L248.346 179.85C248.139 179.735 247.958 179.576 247.816 179.384C247.674 179.191 247.573 178.97 247.521 178.735C247.469 178.5 247.467 178.256 247.514 178.019C247.561 177.783 247.657 177.559 247.796 177.364" stroke="#263238" stroke-miterlimit="10"/>
<path d="M249.996 176.8C249.996 176.8 252.089 177.701 251.646 179.74" stroke="#263238" stroke-miterlimit="10"/>
<path d="M241.623 159.497C241.623 159.497 237.879 159.16 236.221 159.834C234.563 160.508 231.263 158.587 231.263 158.587C231.263 158.587 229.391 158.368 228.971 162.547C228.689 164.981 229.193 167.444 230.407 169.556C230.407 169.556 227.764 167.752 227.985 170.465C228.207 173.178 230.514 176.572 231.179 177.364C231.843 178.156 229.857 177.137 230.415 179.167C230.972 181.198 234.93 183.464 236.695 183.809C238.46 184.154 238.681 183.127 238.788 178.948C238.79 176.899 238.974 174.855 239.338 172.841C239.338 172.841 238.124 167.752 239.781 165.487C241.439 163.221 244.297 162.547 244.518 160.289" fill="#263238"/>
<path d="M241.623 159.497C241.623 159.497 237.879 159.16 236.221 159.834C234.563 160.508 231.263 158.587 231.263 158.587C231.263 158.587 229.391 158.368 228.971 162.547C228.689 164.981 229.193 167.444 230.407 169.556C230.407 169.556 227.764 167.752 227.985 170.465C228.207 173.178 230.514 176.572 231.179 177.364C231.843 178.156 229.857 177.137 230.415 179.167C230.972 181.198 234.93 183.464 236.695 183.809C238.46 184.154 238.681 183.127 238.788 178.948C238.79 176.899 238.974 174.855 239.338 172.841C239.338 172.841 238.124 167.752 239.781 165.487C241.439 163.221 244.297 162.547 244.518 160.289" stroke="#263238" stroke-miterlimit="10"/>
<path d="M182.779 156.157C182.779 156.157 188.952 165.769 192.918 169.485" stroke="#263238" stroke-miterlimit="10"/>
<path d="M188.402 155.82C188.402 155.82 189.609 162.264 191.924 166.451" stroke="#263238" stroke-miterlimit="10"/>
<path d="M172.419 160.344C172.419 160.344 181.786 168.709 189.724 169.164" stroke="#263238" stroke-miterlimit="10"/>
<path d="M210.215 173.57L212.644 181.598" stroke="#263238" stroke-miterlimit="10"/>
<path d="M174.52 264.882C176.048 263.526 175.949 262.169 174.956 261.746C172.833 260.596 170.987 258.972 169.554 256.995C167.683 254.392 165.039 252.816 164.711 251.115C164.693 251.022 164.68 250.928 164.673 250.833C163.672 250.731 161.914 250.66 160.891 251.178C159.363 251.962 159.569 253.89 157.751 253.89C155.932 253.89 155.459 253.381 155.359 252.62C155.225 252.071 154.903 251.589 154.45 251.264L154.213 251.131C153.526 251.915 151.784 251.852 151.6 254.964C151.379 258.579 150.493 262.42 150.493 263.44C150.493 264.459 157.369 265.251 162.717 265.792C168.065 266.332 172.977 266.238 174.52 264.882Z" fill="white" stroke="#263238" stroke-miterlimit="10"/>
<path d="M219.031 257.756C216.878 257.262 214.826 256.381 212.973 255.153C210.169 253.381 204.721 251.938 203.575 250.605C202.402 251.474 201.132 252.198 199.794 252.761C197.731 253.545 194.759 253.608 194.346 252.761C194.005 252.183 193.509 251.718 192.918 251.421C193.139 252.103 191.596 251.876 191.703 254.024C191.81 256.172 191.046 262.507 191.596 262.844C192.146 263.181 198.097 263.526 200.412 262.961C202.727 262.397 208.014 261.715 209.664 262.177C211.315 262.64 216.831 262.852 218.152 261.832C219.474 260.813 219.474 257.756 219.031 257.756Z" fill="white" stroke="#263238" stroke-miterlimit="10"/>
<path d="M213.194 180.359C213.194 180.359 211.666 197.662 212.751 207.384C213.836 217.105 215.731 243.683 215.731 243.683L221.346 242.774L220.582 206.137L222.675 190.536L213.194 180.359Z" fill="white" stroke="#263238" stroke-miterlimit="10"/>
<path d="M226.182 253.318C226.182 253.318 230.613 254.228 231.614 254C232.615 253.773 236.045 253.216 236.489 253.091C236.932 252.966 241.584 251.39 242.914 252.981C244.243 254.573 244.442 258.093 242.692 259.802C240.943 261.511 237.482 261.848 234.38 261.37C231.278 260.892 230.048 260.641 228.176 260.461C226.304 260.28 227.328 259.191 224.876 259.826C222.423 260.461 217.656 260.343 215.44 260.116C213.225 259.888 210.566 258.414 211.124 254.432C211.681 250.449 214.248 249.971 215.066 250.551C215.883 251.131 226.182 253.318 226.182 253.318Z" fill="white" stroke="#263238" stroke-miterlimit="10"/>
<path d="M243.578 254.227C243.578 254.227 247.673 254.118 247.78 254.682C247.879 255.598 247.804 256.524 247.559 257.41C247.337 257.865 244.021 257.983 244.021 257.983L243.578 254.227Z" fill="#92E3A9" stroke="#263238" stroke-miterlimit="10"/>
<path d="M221.239 240.516L214.623 242.436C214.623 242.436 214.294 249.336 215.066 250.574C215.749 251.949 216.302 253.388 216.716 254.871C216.716 254.871 216.831 258.83 217.274 259.849C217.717 260.868 219.665 260.547 220.689 260.978C221.919 261.503 223.745 257.881 224.058 256.69C224.211 256.07 224.983 259.167 224.876 259.826C224.859 260.005 224.903 260.185 225 260.335C225.098 260.485 225.242 260.595 225.41 260.649C225.578 260.702 225.758 260.695 225.921 260.628C226.084 260.56 226.219 260.438 226.304 260.28C226.954 258.383 226.994 256.322 226.419 254.4C225.754 252.832 222.561 245.58 222.339 244.788C222.118 243.997 221.239 240.516 221.239 240.516Z" fill="#92E3A9" stroke="#263238" stroke-miterlimit="10"/>
<path d="M221.399 256.744C221.365 257.683 221.25 258.617 221.056 259.535C220.795 260.039 220.451 260.492 220.04 260.876" stroke="#263238" stroke-miterlimit="10"/>
<path d="M219.184 256.368C219.184 256.368 219.077 258.642 218.962 259.277C218.839 259.787 218.649 260.277 218.397 260.735" stroke="#263238" stroke-miterlimit="10"/>
<path d="M328.069 247.58H283.627L279.7 166.279H331.996L328.069 247.58Z" fill="#92E3A9" stroke="#263238" stroke-miterlimit="10"/>
<path d="M334.632 164.381H277.065V168.176H334.632V164.381Z" fill="#92E3A9" stroke="#263238" stroke-miterlimit="10"/>
<path d="M327.626 205.408L320.269 217.599C319.954 218.151 319.497 218.602 318.949 218.904C318.4 219.205 317.781 219.345 317.159 219.308C315.585 219.308 314.012 219.308 312.285 219.308V222.923L312.04 222.977C311.613 222.193 311.185 221.48 310.765 220.727C309.672 218.775 308.572 216.807 307.51 214.847C307.433 214.708 307.386 214.553 307.372 214.394C307.357 214.235 307.376 214.074 307.426 213.922C308.954 210.982 310.482 208.058 312.132 204.914V209.336H319.199L313.706 199.489L322.637 194.181C324.31 197.317 325.968 200.406 327.626 203.495V205.408Z" fill="white"/>
<path d="M301.215 181.198C301.601 181.279 301.991 181.336 302.383 181.371C305.852 181.426 309.328 181.488 312.797 181.512C313.48 181.466 314.162 181.629 314.754 181.981C315.347 182.333 315.825 182.857 316.128 183.488C316.892 184.883 317.656 186.224 318.504 187.651L321.644 185.808L321.766 185.91C320.987 187.379 320.205 188.84 319.421 190.293C318.741 191.578 318.061 192.864 317.35 194.126C317.284 194.258 317.192 194.375 317.08 194.469C316.969 194.563 316.84 194.634 316.701 194.675C313.454 194.871 310.214 195.012 306.899 194.989C308.037 194.291 309.191 193.601 310.39 192.88L306.799 186.608C304.943 190.034 303.155 193.342 301.352 196.659L292.367 191.571C292.826 190.724 293.246 189.924 293.674 189.124C294.484 187.627 295.355 186.153 296.088 184.616C296.425 183.817 296.924 183.099 297.55 182.512C298.177 181.924 298.918 181.479 299.725 181.206L301.215 181.198Z" fill="white"/>
<path d="M288.654 198.007L285.514 196.055V195.89H288.991C290.572 195.89 292.154 195.984 293.727 195.89C294.219 195.807 294.723 195.895 295.16 196.139C295.597 196.384 295.943 196.77 296.142 197.239C297.578 199.826 299.152 202.335 300.58 205.008L296.997 202.797L293.452 209.108H304.53V219.685H303.002C300.71 219.685 298.357 219.685 296.027 219.685C295.123 219.721 294.228 219.483 293.456 218.998C292.684 218.514 292.068 217.806 291.688 216.964C289.9 213.413 288.112 209.861 286.255 206.341C285.85 205.699 285.643 204.947 285.659 204.182C285.675 203.418 285.915 202.676 286.347 202.052C287.134 200.767 287.837 199.418 288.654 198.007Z" fill="white"/>
</g>
<defs>
<clipPath id="clip0_55_681">
<rect width="573" height="392" fill="white"/>
</clipPath>
</defs>
</svg>
