<svg width="23" height="23" viewBox="0 0 23 23" fill="none" xmlns="http://www.w3.org/2000/svg">
<g clip-path="url(#clip0_75_937)">
<path d="M8.67082 7.69046C8.31969 6.6892 8.89239 5.54073 8.89776 5.52923L8.99742 5.33296L8.82799 5.1942C8.81342 5.1827 7.41042 4.0051 8.04599 2.58523C8.75362 1.00436 11.1272 0.813464 12.8959 1.60466C15.6145 2.82136 16.9271 5.23866 17.2491 5.86426C16.2524 6.5052 13.014 10.0802 9.84382 8.86423C9.22972 8.6281 8.84869 8.2003 8.67082 7.69046Z" fill="#BAE0BD"/>
<path d="M11.2127 9.4997C10.7174 9.4997 10.2129 9.41613 9.7077 9.22217C9.0223 8.9592 8.5393 8.47313 8.31007 7.81763C7.9597 6.8179 8.3898 5.72693 8.5209 5.4333C8.21653 5.1504 7.0305 3.91837 7.6975 2.42873C8.0793 1.5762 8.90117 1.00733 10.0136 0.8264C10.9842 0.668466 12.0943 0.8241 13.0542 1.25497C15.6072 2.3973 16.9926 4.52327 17.5913 5.6886L17.75 5.99757L17.4579 6.18617C17.2962 6.29043 17.0386 6.5051 16.7403 6.75503C15.5282 7.76933 13.4613 9.4997 11.2127 9.4997ZM10.7849 1.5325C10.5633 1.5325 10.3456 1.54937 10.1355 1.5831C9.64407 1.66283 8.7647 1.9189 8.39747 2.74153C7.88687 3.88233 9.0269 4.85983 9.07597 4.90047L9.48 5.23167L9.24003 5.7024C9.23697 5.71007 8.74017 6.72667 9.03303 7.56387C9.18867 8.00623 9.5076 8.32287 9.98217 8.5061C12.3642 9.41843 14.8904 7.30397 16.2481 6.16777C16.4398 6.00753 16.6077 5.86647 16.7541 5.75147C16.1998 4.7663 14.9302 2.93397 12.7406 1.95417C12.1235 1.6774 11.4373 1.5325 10.7849 1.5325Z" fill="#5E9C76"/>
<path d="M6.23123 7.73876L5.62939 7.26419C7.58516 4.78096 9.63599 4.07716 13.1903 4.66289L13.0653 5.41883C9.79393 4.87756 8.00529 5.48629 6.23123 7.73876Z" fill="#5E9C76"/>
<path d="M16.597 13.5806C17.645 13.7485 18.3818 14.7996 18.3895 14.8103L18.5144 14.9913L18.7168 14.9085C18.7345 14.9016 20.4372 14.2284 21.3833 15.4643C22.4359 16.8389 21.6141 19.221 20.0462 20.3595C17.7294 22.0415 14.7693 21.8698 14.0662 21.8545C13.9773 20.673 12.7698 16.4847 14.849 14.1656C15.2891 13.6757 16.0642 13.4947 16.597 13.5806Z" fill="#BAE0BD"/>
<path d="M14.7307 22.2496C14.506 22.2496 14.3174 22.2442 14.1741 22.2404L13.7102 22.2297L13.6842 21.8824C13.6696 21.6869 13.6221 21.4055 13.5653 21.062C13.2702 19.2811 12.7205 15.966 14.5643 13.9098C15.1017 13.3103 16.0256 13.0994 16.6581 13.2022C17.7069 13.3708 18.4559 14.2632 18.6545 14.5231C19.0386 14.392 20.6861 13.9236 21.6882 15.2315C22.1512 15.8357 22.3276 16.6215 22.1995 17.5055C22.0224 18.7229 21.2841 19.935 20.2721 20.6695C18.3156 22.0901 15.9719 22.2496 14.7307 22.2496ZM14.4079 21.4799C15.4414 21.5021 17.8709 21.4653 19.8213 20.05C20.6593 19.4413 21.2949 18.4002 21.4405 17.3958C21.5088 16.9259 21.5019 16.2497 21.0794 15.6977C20.3181 14.7048 18.8753 15.2591 18.8607 15.2653L18.3739 15.4631L18.0741 15.0291C18.0687 15.0207 17.4132 14.1015 16.5369 13.9604C16.1137 13.8937 15.4736 14.0463 15.1362 14.4227C13.5385 16.2044 14.0491 19.2834 14.3228 20.9371C14.355 21.1387 14.3849 21.3219 14.4079 21.4799Z" fill="#5E9C76"/>
<path d="M17.0715 19.0364L16.5356 18.4882C18.5811 16.4895 19.0166 14.2217 17.8673 11.556L18.5711 11.2524C19.843 14.2018 19.3386 16.8207 17.0715 19.0364Z" fill="#5E9C76"/>
<path d="M8.69914 17.6004C8.07661 18.4599 6.80701 18.6446 6.79398 18.6469L6.57548 18.6768L6.55784 18.8953C6.55631 18.9137 6.38994 20.7376 4.86044 21.0259C3.15844 21.3464 1.64734 19.5056 1.28854 17.6012C0.737309 14.6748 1.97394 12.2177 2.30361 11.5967C3.39841 12.0498 8.18241 12.6708 8.99201 15.9682C9.14994 16.6061 9.01654 17.1627 8.69914 17.6004Z" fill="#BAE0BD"/>
<path d="M4.47178 21.4451C3.70588 21.4451 2.94764 21.0886 2.29598 20.4132C1.61134 19.7048 1.10764 18.705 0.91291 17.6716C0.39541 14.9254 1.35068 12.5732 1.96708 11.4163L2.13038 11.1089L2.45161 11.2423C2.62871 11.3159 2.95301 11.4041 3.32868 11.5068C5.18861 12.0159 8.65011 12.9619 9.36541 15.8768C9.54098 16.5898 9.41754 17.2637 9.00968 17.8264C8.38944 18.6828 7.26244 18.9504 6.93201 19.0125C6.84001 19.773 6.32558 21.1392 4.93254 21.4022C4.77921 21.4305 4.62588 21.4451 4.47178 21.4451ZM2.49531 12.0672C2.00234 13.0846 1.22188 15.1738 1.66578 17.529C1.83368 18.4198 2.26454 19.277 2.84798 19.8803C3.19374 20.2384 3.90521 20.8134 4.79071 20.6478C6.01891 20.4162 6.17148 18.9235 6.17761 18.8607L6.21901 18.3378L6.74341 18.2657C6.75414 18.2642 7.86888 18.094 8.39021 17.3749C8.66544 16.9961 8.74364 16.5522 8.62251 16.0577C8.01454 13.5814 4.83594 12.712 3.12781 12.2443C2.88554 12.1799 2.67394 12.1224 2.49531 12.0672Z" fill="#5E9C76"/>
<path d="M9.95956 19.9327C6.65062 19.7801 5.11346 18.7306 3.63379 15.6148L4.32609 15.2852C5.82952 18.4515 7.29002 19.0411 9.99482 19.1668L9.95956 19.9327Z" fill="#5E9C76"/>
</g>
<defs>
<clipPath id="clip0_75_937">
<rect width="23" height="23" fill="white"/>
</clipPath>
</defs>
</svg>
