<svg width="98" height="97" viewBox="0 0 98 97" fill="none" xmlns="http://www.w3.org/2000/svg">
<path d="M91.0422 25.3287C90.7312 24.8113 90.4046 24.3005 90.0622 23.7961C85.5209 17.1322 77.7025 12.5751 70.0114 10.5148C66.6371 9.62638 63.1705 9.12579 59.6803 9.02298C36.8228 8.25668 27.7186 26.095 20.1647 30.687C12.6109 35.2789 0.980232 43.1495 1.76423 59.6376C2.54823 76.1256 14.5474 91.6476 37.791 92.6176C61.0346 93.5876 62.585 83.226 75.5621 79.3848C84.1509 76.8473 90.2622 68.2764 93.2413 60.3554C97.3142 49.5612 97.1222 35.5408 91.0422 25.3287Z" fill="#92E3A9"/>
<path opacity="0.7" d="M91.0422 25.3287C90.7312 24.8113 90.4046 24.3005 90.0622 23.7961C85.5209 17.1322 77.7025 12.5751 70.0114 10.5148C66.6371 9.62638 63.1705 9.12579 59.6803 9.02298C36.8228 8.25668 27.7186 26.095 20.1647 30.687C12.6109 35.2789 0.980232 43.1495 1.76423 59.6376C2.54823 76.1256 14.5474 91.6476 37.791 92.6176C61.0346 93.5876 62.585 83.226 75.5621 79.3848C84.1509 76.8473 90.2622 68.2764 93.2413 60.3554C97.3142 49.5612 97.1222 35.5408 91.0422 25.3287Z" fill="white"/>
<path opacity="0.2" d="M90.5518 52.3857H82.3198V55.6837H90.5518V52.3857Z" fill="black"/>
<path opacity="0.2" d="M63.7745 25.7593H55.5425V29.0573H63.7745V25.7593Z" fill="black"/>
<path opacity="0.2" d="M58.7037 30.7432H50.4717V34.0412H58.7037V30.7432Z" fill="black"/>
<path opacity="0.2" d="M64.2799 8.8501H56.0479V12.1481H64.2799V8.8501Z" fill="black"/>
<path opacity="0.2" d="M57.6236 48.8472H49.3916V52.1452H57.6236V48.8472Z" fill="black"/>
<path opacity="0.2" d="M41.3951 19.3979H33.1631V22.6959H41.3951V19.3979Z" fill="black"/>
<path opacity="0.2" d="M50.4112 19.3979H42.1792V22.6959H50.4112V19.3979Z" fill="black"/>
<path opacity="0.2" d="M43.5118 73.2349H35.2798V76.5329H43.5118V73.2349Z" fill="black"/>
<path opacity="0.2" d="M39.1998 77.3086H30.9678V80.6066H39.1998V77.3086Z" fill="black"/>
<path opacity="0.1" d="M54.1959 35.3018H45.9639V38.5998H54.1959V35.3018Z" fill="black"/>
<path opacity="0.1" d="M42.0181 11.1938H33.7861V14.4918H42.0181V11.1938Z" fill="black"/>
<path opacity="0.1" d="M95.2559 60.293H87.0239V63.591H95.2559V60.293Z" fill="black"/>
<path opacity="0.1" d="M47.0396 65.3369H38.8076V68.6349H47.0396V65.3369Z" fill="black"/>
<path opacity="0.1" d="M56.4478 65.3369H48.2158V68.6349H56.4478V65.3369Z" fill="black"/>
<path opacity="0.1" d="M57.232 60.6812H49V63.9792H57.232V60.6812Z" fill="black"/>
<path opacity="0.1" d="M63.6036 35.3018H55.3716V38.5998H63.6036V35.3018Z" fill="black"/>
<path opacity="0.2" d="M67.816 76.9771H59.584V80.2751H67.816V76.9771Z" fill="black"/>
<path opacity="0.1" d="M63.3077 81.5361H55.0757V84.8341H63.3077V81.5361Z" fill="black"/>
<path opacity="0.1" d="M72.7159 81.5361H64.4839V84.8341H72.7159V81.5361Z" fill="black"/>
<path opacity="0.2" d="M27.9083 35.9287H19.6763V39.2267H27.9083V35.9287Z" fill="black"/>
<path opacity="0.1" d="M23.4005 40.4878H15.1685V43.7858H23.4005V40.4878Z" fill="black"/>
<path opacity="0.1" d="M32.8082 40.4878H24.5762V43.7858H32.8082V40.4878Z" fill="black"/>
<path opacity="0.2" d="M24.6959 60.4873H16.4639V63.7853H24.6959V60.4873Z" fill="black"/>
<path opacity="0.1" d="M61.1519 44.7168H52.9199V48.0148H61.1519V44.7168Z" fill="black"/>
<path opacity="0.1" d="M48.8038 77.1147H40.5718V80.4127H48.8038V77.1147Z" fill="black"/>
<path opacity="0.1" d="M46.0992 15.3237H37.8672V18.6217H46.0992V15.3237Z" fill="black"/>
<path opacity="0.2" d="M19.9918 49.5669H11.7598V52.8649H19.9918V49.5669Z" fill="black"/>
<path opacity="0.1" d="M24.6959 45.4927H16.4639V48.7907H24.6959V45.4927Z" fill="black"/>
<path opacity="0.1" d="M45.6675 25.6641H37.4355V28.9621H45.6675V25.6641Z" fill="black"/>
<path opacity="0.1" d="M33.6666 27.6001H25.4346V30.8981H33.6666V27.6001Z" fill="black"/>
<path opacity="0.2" d="M74.2838 52.3857H66.0518V55.6837H74.2838V52.3857Z" fill="black"/>
<path opacity="0.2" d="M14.2159 70.6274H5.98389V73.9254H14.2159V70.6274Z" fill="black"/>
<path opacity="0.1" d="M10.6602 24.2886H2.42822V27.5866H10.6602V24.2886Z" fill="black"/>
<path opacity="0.1" d="M20.0684 24.2886H11.8364V27.5866H20.0684V24.2886Z" fill="black"/>
<path opacity="0.1" d="M20.8521 19.6328H12.6201V22.9308H20.8521V19.6328Z" fill="black"/>
<path opacity="0.1" d="M14.6998 32.8828H6.46777V36.1808H14.6998V32.8828Z" fill="black"/>
<path opacity="0.2" d="M25.3878 74.0225H17.1558V77.3205H25.3878V74.0225Z" fill="black"/>
<path d="M92.1079 83.9204H90.436V88.9605H92.1079V83.9204Z" fill="#263238" stroke="#263238" stroke-miterlimit="10" stroke-linecap="round"/>
<path d="M76.9082 83.9204H75.2363V88.9605H76.9082V83.9204Z" fill="#263238" stroke="#263238" stroke-miterlimit="10" stroke-linecap="round"/>
<path d="M75.4891 54.0327H91.5317C91.7792 54.0327 92.0165 54.13 92.1914 54.3032C92.3664 54.4764 92.4647 54.7112 92.4647 54.9562V55.5731H74.5542V54.9562C74.5542 54.8347 74.5784 54.7145 74.6254 54.6023C74.6724 54.4902 74.7413 54.3883 74.8281 54.3025C74.915 54.2167 75.0181 54.1487 75.1315 54.1025C75.2449 54.0562 75.3664 54.0325 75.4891 54.0327Z" fill="#263238" stroke="#263238" stroke-miterlimit="10" stroke-linecap="round"/>
<path d="M76.5869 55.5146H90.6519V88.417C90.6519 88.6002 90.5784 88.7759 90.4475 88.9054C90.3166 89.0349 90.1392 89.1077 89.9541 89.1077H77.2847C77.0996 89.1077 76.9221 89.0349 76.7913 88.9054C76.6604 88.7759 76.5869 88.6002 76.5869 88.417V55.5146Z" fill="#92E3A9" stroke="#263238" stroke-miterlimit="10" stroke-linecap="round"/>
<path d="M80.8516 73.2832H86.3827V88.4152C86.3827 88.5984 86.3092 88.774 86.1783 88.9036C86.0475 89.0331 85.87 89.1058 85.6849 89.1058H81.5493C81.3643 89.1058 81.1868 89.0331 81.0559 88.9036C80.9251 88.774 80.8516 88.5984 80.8516 88.4152V73.2832Z" fill="#92E3A9" stroke="#263238" stroke-miterlimit="10" stroke-linecap="round"/>
<path d="M92.2628 69.6669L90.6811 71.8785H76.5769L74.9756 69.6669V55.5146H92.2628V69.6669Z" fill="#92E3A9" stroke="#263238" stroke-miterlimit="10" stroke-linecap="round"/>
<path d="M81.2772 66.1363C81.1804 66.1416 81.0843 66.1165 81.0028 66.0646C80.9339 66.0127 80.8832 65.9408 80.8577 65.8589C80.826 65.7565 80.8108 65.6498 80.8127 65.5427V64.9607C80.8111 64.8525 80.8256 64.7446 80.8558 64.6406C80.8818 64.5569 80.9357 64.4845 81.0087 64.435C81.0992 64.3822 81.2036 64.3572 81.3085 64.3632C81.4076 64.3583 81.5062 64.379 81.5947 64.4233C81.6629 64.4619 81.716 64.522 81.7456 64.594C81.7791 64.6813 81.795 64.7742 81.7927 64.8676V64.9568H81.4889V64.8579C81.4895 64.8104 81.4856 64.763 81.4771 64.7163C81.4722 64.6811 81.4549 64.6487 81.4281 64.6251C81.3954 64.6012 81.3549 64.5901 81.3144 64.594C81.2921 64.592 81.2696 64.5946 81.2484 64.6016C81.2271 64.6087 81.2076 64.6199 81.1909 64.6348C81.1657 64.6654 81.1494 64.7023 81.1439 64.7415C81.1374 64.7897 81.1342 64.8383 81.1341 64.887V65.6106C81.1338 65.6627 81.139 65.7148 81.1498 65.7658C81.1569 65.8047 81.1769 65.8402 81.2066 65.8667C81.2396 65.8919 81.2807 65.9043 81.3223 65.9016C81.3435 65.9035 81.3649 65.901 81.3851 65.8943C81.4054 65.8877 81.424 65.8769 81.4399 65.8628C81.4697 65.8338 81.4901 65.7966 81.4987 65.7561C81.5095 65.7031 81.5148 65.6491 81.5143 65.5951V65.4321H81.3183V65.2381H81.7927V66.115H81.5967L81.5731 65.9443C81.5507 65.9991 81.5142 66.0473 81.4673 66.084C81.4118 66.1224 81.3447 66.1409 81.2772 66.1363Z" fill="#263238"/>
<path d="M82.0435 66.1133V64.3848H82.3629V65.896H82.7863V66.1133H82.0435Z" fill="#263238"/>
<path d="M82.8628 66.1133L83.2136 64.3848H83.5547L83.9036 66.1133H83.6076L83.539 65.7137H83.2352L83.1627 66.1133H82.8628ZM83.2666 65.5138H83.4959L83.3783 64.7883L83.2666 65.5138Z" fill="#263238"/>
<path d="M84.509 66.1361C84.4176 66.14 84.3268 66.1192 84.2464 66.076C84.1752 66.0347 84.1189 65.9723 84.0857 65.8975C84.0469 65.8059 84.0263 65.7078 84.0249 65.6085L84.2993 65.5561C84.3009 65.6157 84.3095 65.6749 84.3248 65.7326C84.3338 65.7772 84.3555 65.8183 84.3875 65.851C84.4017 65.8654 84.4188 65.8767 84.4377 65.884C84.4567 65.8914 84.4769 65.8947 84.4973 65.8936C84.5181 65.8959 84.5391 65.8928 84.5583 65.8846C84.5775 65.8765 84.5943 65.8635 84.607 65.8471C84.6304 65.8128 84.6421 65.772 84.6403 65.7307C84.6449 65.662 84.6263 65.5938 84.5874 65.5367C84.5476 65.4836 84.5015 65.4354 84.4502 65.3931L84.2307 65.1991C84.1715 65.1489 84.1211 65.0892 84.0817 65.0226C84.0435 64.9482 84.0246 64.8655 84.0269 64.782C84.0233 64.7238 84.0323 64.6655 84.0532 64.611C84.0742 64.5565 84.1066 64.507 84.1484 64.4658C84.2395 64.3881 84.3576 64.3485 84.4777 64.3552C84.5481 64.3536 84.6181 64.3662 84.6835 64.3921C84.7353 64.4149 84.78 64.451 84.8128 64.4968C84.8466 64.5415 84.8713 64.5922 84.8853 64.6462C84.901 64.7047 84.9115 64.7644 84.9167 64.8247L84.6443 64.8713C84.641 64.8231 84.6351 64.7752 84.6266 64.7277C84.6201 64.6898 84.6024 64.6547 84.5757 64.6268C84.5616 64.6162 84.5455 64.6084 84.5283 64.6041C84.5111 64.5998 84.4932 64.5989 84.4757 64.6016C84.455 64.6004 84.4343 64.604 84.4153 64.612C84.3962 64.6201 84.3793 64.6325 84.3659 64.6482C84.3416 64.6814 84.3286 64.7215 84.3287 64.7626C84.3264 64.8131 84.3394 64.8631 84.3659 64.9062C84.3955 64.9497 84.4311 64.9889 84.4718 65.0226L84.6893 65.2166C84.7614 65.2765 84.8235 65.3472 84.8736 65.4261C84.9263 65.514 84.9528 65.6149 84.95 65.7171C84.9519 65.7943 84.933 65.8707 84.8951 65.9383C84.8582 66.0004 84.8055 66.0519 84.7423 66.0876C84.6702 66.124 84.5897 66.1407 84.509 66.1361Z" fill="#263238"/>
<path d="M85.5559 66.1361C85.4645 66.1395 85.3739 66.1188 85.2933 66.076C85.2228 66.0344 85.1672 65.972 85.1345 65.8975C85.0946 65.8062 85.074 65.7079 85.0737 65.6085L85.3481 65.5561C85.3491 65.6156 85.357 65.6749 85.3717 65.7326C85.3815 65.7769 85.4032 65.8178 85.4344 65.851C85.4489 65.8655 85.4663 65.8769 85.4856 65.8842C85.5048 65.8916 85.5255 65.8948 85.5461 65.8936C85.5669 65.8957 85.5878 65.8925 85.607 65.8844C85.6262 65.8762 85.643 65.8634 85.6559 65.8471C85.6785 65.8126 85.6895 65.7718 85.6872 65.7307C85.6924 65.6622 85.6745 65.594 85.6363 65.5367C85.5959 65.4841 85.5499 65.4359 85.4991 65.3931L85.2776 65.1991C85.2195 65.1483 85.1699 65.0887 85.1306 65.0226C85.0914 64.9485 85.0725 64.8656 85.0757 64.782C85.0717 64.7238 85.0806 64.6653 85.1015 64.6108C85.1225 64.5562 85.1551 64.5067 85.1972 64.4658C85.2884 64.3881 85.4064 64.3485 85.5265 64.3552C85.5936 64.3545 85.6603 64.367 85.7225 64.3921C85.7746 64.4154 85.8198 64.4514 85.8538 64.4968C85.8869 64.5419 85.9114 64.5925 85.9263 64.6462C85.9423 64.7046 85.9522 64.7644 85.9557 64.8247L85.6853 64.8713C85.6824 64.823 85.6759 64.775 85.6657 64.7277C85.6597 64.69 85.6426 64.655 85.6167 64.6268C85.6029 64.6138 85.5866 64.6038 85.5687 64.5974C85.5508 64.5911 85.5317 64.5885 85.5128 64.59C85.4921 64.5886 85.4713 64.5921 85.4522 64.6002C85.4332 64.6083 85.4163 64.6207 85.403 64.6365C85.3771 64.669 85.3639 64.7096 85.3658 64.751C85.3639 64.8011 85.3761 64.8508 85.4011 64.8945C85.4317 64.9372 85.4673 64.9763 85.5069 65.0109L85.7264 65.2049C85.7974 65.2659 85.8594 65.3365 85.9107 65.4145C85.9634 65.5024 85.9899 65.6033 85.9871 65.7055C85.988 65.7826 85.9691 65.8587 85.9322 65.9266C85.895 65.9892 85.8416 66.0408 85.7774 66.076C85.71 66.1146 85.6337 66.1354 85.5559 66.1361Z" fill="#263238"/>
<path d="M85.6659 69.0737C85.419 69.4617 85.174 69.8632 84.925 70.2571C84.8938 70.3108 84.8482 70.3548 84.7931 70.3843C84.7381 70.4137 84.6759 70.4275 84.6134 70.4239H84.1214V70.775H84.0979L83.9685 70.5558C83.8588 70.3618 83.749 70.1678 83.6412 69.9855C83.635 69.971 83.6318 69.9555 83.6318 69.9399C83.6318 69.9242 83.635 69.9087 83.6412 69.8943C83.7921 69.6091 83.9489 69.3259 84.1155 69.0193V69.452H84.8251L84.2723 68.4955L85.172 67.9814L85.6737 68.8855L85.6659 69.0737Z" fill="white"/>
<path d="M83.008 66.7202C83.0472 66.7202 83.0864 66.7357 83.1256 66.7377L84.1742 66.7512C84.2432 66.7468 84.312 66.7629 84.3717 66.7975C84.4315 66.8321 84.4794 66.8835 84.5093 66.9452C84.5819 67.081 84.6661 67.211 84.7485 67.3488L85.064 67.1703L85.0758 67.1819L84.8406 67.6068C84.772 67.731 84.7034 67.8571 84.6328 67.9793C84.6191 68.0026 84.5897 68.0317 84.5662 68.0317C84.2389 68.0511 83.9135 68.0646 83.5862 68.0627L83.937 67.8571C83.8175 67.6631 83.7018 67.4691 83.5764 67.2479C83.3804 67.5796 83.2079 67.8997 83.0276 68.2179L82.124 67.7271L82.2553 67.4885C82.3357 67.343 82.4239 67.2013 82.4984 67.052C82.532 66.9743 82.5819 66.9046 82.6447 66.8474C82.7076 66.7902 82.7819 66.7469 82.8629 66.7202H83.008Z" fill="white"/>
<path d="M81.7438 68.3518L81.4282 68.1578V68.1403H81.7791C81.9378 68.1403 82.0966 68.15 82.2553 68.1403C82.3049 68.132 82.3559 68.1405 82.4 68.1645C82.4441 68.1884 82.4788 68.2264 82.4984 68.2722C82.6434 68.5225 82.8022 68.7669 82.9453 69.0249L82.5846 68.8115L82.2279 69.4246H83.3392V70.4508H82.4807C82.3898 70.4538 82.3 70.4305 82.2224 70.3836C82.1447 70.3367 82.0826 70.2684 82.0437 70.187C81.8633 69.8417 81.685 69.4964 81.4968 69.1549C81.4566 69.0926 81.4361 69.0198 81.4378 68.9459C81.4396 68.8719 81.4635 68.8002 81.5066 68.7398C81.5909 68.6195 81.6615 68.4817 81.7438 68.3518Z" fill="white"/>
<path d="M89.3504 63.6044H77.8864L76.875 55.5146H90.3618L89.3504 63.6044Z" stroke="#263238" stroke-miterlimit="10" stroke-linecap="round"/>
<path d="M93.2585 55.5146H73.98V57.313H93.2585V55.5146Z" fill="#92E3A9" stroke="#263238" stroke-miterlimit="10" stroke-linecap="round"/>
<path d="M78.9409 63.5095V60.2251" stroke="#263238" stroke-miterlimit="10" stroke-linecap="round"/>
<path d="M81.1792 63.5098V59.6143" stroke="#263238" stroke-miterlimit="10" stroke-linecap="round"/>
<path d="M83.4175 63.5098V58.3921" stroke="#263238" stroke-miterlimit="10" stroke-linecap="round"/>
<path d="M85.6577 63.5098V59.6143" stroke="#263238" stroke-miterlimit="10" stroke-linecap="round"/>
<path d="M87.896 63.5095V60.2251" stroke="#263238" stroke-miterlimit="10" stroke-linecap="round"/>
<path d="M70.8462 83.9204H69.1743V88.9605H70.8462V83.9204Z" fill="#263238" stroke="#263238" stroke-miterlimit="10" stroke-linecap="round"/>
<path d="M55.6465 83.9204H53.9746V88.9605H55.6465V83.9204Z" fill="#263238" stroke="#263238" stroke-miterlimit="10" stroke-linecap="round"/>
<path d="M54.2274 54.0327H70.2759C70.5238 54.0327 70.7616 54.1302 70.937 54.3038C71.1123 54.4773 71.2108 54.7127 71.2108 54.9581V55.575H53.2925V54.9581C53.2925 54.7127 53.391 54.4773 53.5663 54.3038C53.7416 54.1302 53.9794 54.0327 54.2274 54.0327Z" fill="#263238" stroke="#263238" stroke-miterlimit="10" stroke-linecap="round"/>
<path d="M55.3252 55.5146H69.3843V88.417C69.3843 88.6002 69.3108 88.7759 69.1799 88.9054C69.0491 89.0349 68.8716 89.1077 68.6865 89.1077H56.023C55.8379 89.1077 55.6604 89.0349 55.5296 88.9054C55.3987 88.7759 55.3252 88.6002 55.3252 88.417V55.5146Z" fill="#92E3A9" stroke="#263238" stroke-miterlimit="10" stroke-linecap="round"/>
<path d="M59.584 73.2832H65.1151V88.4152C65.1151 88.5984 65.0416 88.774 64.9107 88.9036C64.7799 89.0331 64.6024 89.1058 64.4173 89.1058H60.2876C60.196 89.1058 60.1053 89.088 60.0206 89.0533C59.9359 89.0186 59.859 88.9677 59.7942 88.9036C59.7294 88.8394 59.678 88.7633 59.643 88.6795C59.6079 88.5957 59.5899 88.5059 59.5899 88.4152V73.2832H59.584Z" fill="#92E3A9" stroke="#263238" stroke-miterlimit="10" stroke-linecap="round"/>
<path d="M71.0011 69.6669L69.4213 71.8785H55.3172L53.7139 69.6669V55.5146H71.0011V69.6669Z" fill="#92E3A9" stroke="#263238" stroke-miterlimit="10" stroke-linecap="round"/>
<path d="M58.9727 65.96V64.2314H59.4862C59.5749 64.2276 59.6629 64.2477 59.741 64.2896C59.8063 64.3282 59.8572 64.3867 59.886 64.4565C59.9186 64.5412 59.9339 64.6316 59.9311 64.7222C59.935 64.816 59.9155 64.9093 59.8743 64.9938C59.8381 65.0605 59.781 65.1136 59.7116 65.1452C59.6335 65.1777 59.5493 65.1935 59.4646 65.1917H59.2921V65.9677L58.9727 65.96ZM59.2921 64.9706H59.4117C59.4582 64.9733 59.5046 64.9647 59.5469 64.9453C59.5632 64.9376 59.5775 64.9265 59.589 64.9128C59.6005 64.899 59.6089 64.883 59.6136 64.8658C59.6278 64.8186 59.6344 64.7695 59.6332 64.7203C59.634 64.6688 59.6287 64.6173 59.6175 64.567C59.6143 64.5495 59.6075 64.5328 59.5973 64.5181C59.5872 64.5034 59.574 64.491 59.5587 64.4817C59.513 64.46 59.4623 64.4506 59.4117 64.4545H59.2921V64.9706Z" fill="#263238"/>
<path d="M60.0996 65.96V64.2314H60.4191V65.7427H60.8425V65.96H60.0996Z" fill="#263238"/>
<path d="M60.9189 65.96L61.2678 64.2314H61.6089L61.9577 65.96H61.6637L61.5932 65.5603H61.2894L61.2188 65.96H60.9189ZM61.3227 65.3605H61.5599L61.4403 64.635L61.3227 65.3605Z" fill="#263238"/>
<path d="M62.5652 65.9775C62.4731 65.9811 62.3818 65.9604 62.3006 65.9174C62.2301 65.8758 62.1746 65.8134 62.1418 65.7389C62.1033 65.6479 62.0827 65.5504 62.0811 65.4518L62.3555 65.3974C62.3563 65.457 62.3642 65.5162 62.379 65.574C62.3888 65.6183 62.4105 65.6591 62.4417 65.6923C62.4564 65.7066 62.4739 65.7178 62.4931 65.7251C62.5123 65.7324 62.5328 65.7358 62.5534 65.735C62.5742 65.7371 62.5952 65.7339 62.6144 65.7257C62.6336 65.7176 62.6504 65.7048 62.6632 65.6884C62.6865 65.6542 62.6982 65.6134 62.6965 65.572C62.6996 65.5065 62.681 65.4418 62.6436 65.3877C62.6043 65.3336 62.5582 65.2847 62.5064 65.2422L62.2869 65.0482C62.2272 64.9985 62.1768 64.9387 62.1379 64.8717C62.0996 64.7973 62.0808 64.7146 62.083 64.6311C62.0797 64.5729 62.0888 64.5147 62.1098 64.4602C62.1307 64.4057 62.163 64.3562 62.2045 64.3149C62.2957 64.2373 62.4137 64.1976 62.5338 64.2043C62.6044 64.2024 62.6747 64.2156 62.7396 64.2431C62.7918 64.2645 62.8366 64.3002 62.869 64.346C62.9024 64.3908 62.927 64.4415 62.9415 64.4953C62.9575 64.5537 62.9673 64.6135 62.9709 64.6738L62.7004 64.7204C62.6974 64.6721 62.6909 64.6241 62.6808 64.5768C62.6748 64.5392 62.6578 64.5041 62.6318 64.4759C62.6178 64.4633 62.6014 64.4535 62.5836 64.4472C62.5658 64.4409 62.5469 64.4381 62.5279 64.4391C62.5072 64.4379 62.4865 64.4414 62.4675 64.4495C62.4484 64.4576 62.4316 64.47 62.4182 64.4856C62.3923 64.5181 62.3791 64.5588 62.3809 64.6001C62.3784 64.6506 62.3914 64.7006 62.4182 64.7437C62.4477 64.7872 62.4834 64.8264 62.524 64.8601L62.7416 65.0541C62.8131 65.1145 62.8752 65.1851 62.9258 65.2636C62.9785 65.3515 63.0051 65.4524 63.0023 65.5546C63.0032 65.6317 62.9843 65.7078 62.9474 65.7757C62.911 65.8383 62.8582 65.8899 62.7945 65.9251C62.7239 65.9619 62.6449 65.9799 62.5652 65.9775Z" fill="#263238"/>
<path d="M63.3647 65.96V64.4642H63.0864V64.2314H63.9567V64.4642H63.6823V65.96H63.3647Z" fill="#263238"/>
<path d="M64.1255 65.96V64.2314H64.4391V65.96H64.1255Z" fill="#263238"/>
<path d="M65.1797 65.9773C65.0739 65.983 64.9689 65.9573 64.8779 65.9036C64.8077 65.8568 64.7548 65.7887 64.7269 65.7096C64.6964 65.613 64.6819 65.5121 64.6838 65.4109V64.7939C64.6815 64.6901 64.6961 64.5867 64.7269 64.4874C64.7526 64.4072 64.806 64.3385 64.8779 64.2934C64.9691 64.2404 65.0741 64.2154 65.1797 64.2216C65.2777 64.2167 65.3753 64.2382 65.4619 64.2837C65.5296 64.3227 65.5816 64.3837 65.6089 64.4564C65.6386 64.5412 65.6532 64.6305 65.6521 64.7202V64.8638H65.3444V64.7144C65.3444 64.6659 65.3444 64.6232 65.3444 64.5825C65.3404 64.5475 65.3261 64.5144 65.3032 64.4874C65.2872 64.4743 65.2688 64.4645 65.2489 64.4585C65.2291 64.4525 65.2082 64.4505 65.1875 64.4525C65.1661 64.4505 65.1446 64.4528 65.124 64.4591C65.1035 64.4654 65.0845 64.4757 65.068 64.4894C65.0414 64.5171 65.0242 64.5524 65.019 64.5902C65.0115 64.6371 65.0082 64.6845 65.0092 64.7319V65.4826C65.0078 65.5347 65.0124 65.5868 65.0229 65.6378C65.0301 65.6736 65.0495 65.7057 65.0778 65.729C65.1097 65.7515 65.1484 65.7625 65.1875 65.7601C65.208 65.7621 65.2288 65.7599 65.2484 65.7536C65.2679 65.7472 65.286 65.7369 65.3012 65.7232C65.3241 65.6947 65.3383 65.6604 65.3424 65.6243C65.3457 65.5778 65.3457 65.5311 65.3424 65.4846V65.3294H65.6599V65.4691C65.6613 65.5612 65.6474 65.653 65.6188 65.7407C65.5948 65.8196 65.5443 65.8881 65.4757 65.9347C65.3833 65.9771 65.2805 65.9919 65.1797 65.9773Z" fill="#263238"/>
<path d="M64.349 69.0732L63.6081 70.2566C63.577 70.3103 63.5313 70.3543 63.4762 70.3838C63.4212 70.4133 63.359 70.427 63.2965 70.4234H62.8045V70.7746H62.781L62.6517 70.5553C62.5419 70.3613 62.4321 70.1673 62.3243 69.985C62.3181 69.9706 62.3149 69.9551 62.3149 69.9394C62.3149 69.9237 62.3181 69.9082 62.3243 69.8938C62.4753 69.6086 62.6321 69.3254 62.7967 69.0189V69.4515H63.5043L62.9515 68.4951L63.8512 67.981L64.3529 68.885L64.349 69.0732Z" fill="white"/>
<path d="M61.6891 66.7202C61.7303 66.7202 61.7695 66.7357 61.8087 66.7377L62.8573 66.7512C62.9263 66.7471 62.995 66.7633 63.0547 66.7978C63.1143 66.8324 63.1623 66.8837 63.1925 66.9452C63.265 67.081 63.3473 67.211 63.4316 67.3488L63.7471 67.1703L63.7589 67.1819L63.5237 67.6068C63.4551 67.7309 63.3865 67.857 63.314 67.9793C63.3003 68.0025 63.2728 68.0316 63.2493 68.0316C62.922 68.051 62.5966 68.0646 62.2693 68.0627L62.6221 67.857C62.5025 67.663 62.3869 67.469 62.2595 67.2479C62.0733 67.5796 61.893 67.8997 61.7126 68.2179L60.8071 67.7232L60.9404 67.4845C61.0208 67.339 61.109 67.1974 61.1815 67.048C61.2157 66.9705 61.2661 66.9008 61.3292 66.8437C61.3923 66.7865 61.4669 66.7432 61.548 66.7163L61.6891 66.7202Z" fill="white"/>
<path d="M60.4269 68.3518L60.1094 68.1578V68.1403H60.4583C60.619 68.1403 60.7777 68.15 60.9365 68.1403C60.9861 68.132 61.0371 68.1405 61.0812 68.1645C61.1253 68.1884 61.1599 68.2264 61.1795 68.2722C61.3226 68.5225 61.4814 68.7669 61.6245 69.0249L61.2658 68.8115L60.9071 69.4246H62.0204V70.4508H61.1619C61.0709 70.4541 60.981 70.4308 60.9033 70.3839C60.8256 70.337 60.7635 70.2685 60.7248 70.187C60.5445 69.8417 60.3642 69.4964 60.178 69.1549C60.1373 69.0928 60.1164 69.0199 60.1182 68.9459C60.1199 68.8718 60.1442 68.8 60.1878 68.7398C60.274 68.6195 60.3446 68.4817 60.4269 68.3518Z" fill="white"/>
<path d="M68.0887 63.6044H56.6246L55.6133 55.5146H69.1L68.0887 63.6044Z" stroke="#263238" stroke-miterlimit="10" stroke-linecap="round"/>
<path d="M71.9968 55.5146H52.7183V57.313H71.9968V55.5146Z" fill="#92E3A9" stroke="#263238" stroke-miterlimit="10" stroke-linecap="round"/>
<path d="M57.6792 63.5095V60.2251" stroke="#263238" stroke-miterlimit="10" stroke-linecap="round"/>
<path d="M59.9175 63.5098V59.6143" stroke="#263238" stroke-miterlimit="10" stroke-linecap="round"/>
<path d="M62.1577 63.5098V58.3921" stroke="#263238" stroke-miterlimit="10" stroke-linecap="round"/>
<path d="M64.396 63.5098V59.6143" stroke="#263238" stroke-miterlimit="10" stroke-linecap="round"/>
<path d="M66.6343 63.5095V60.2251" stroke="#263238" stroke-miterlimit="10" stroke-linecap="round"/>
<path d="M49.8704 55.3987H32.7831C32.7831 55.3987 31.7286 38.8078 32.7831 37.6244C34.8176 35.341 48.2064 35.7542 49.8704 37.6244C51.0366 38.932 49.8704 55.3987 49.8704 55.3987Z" fill="#263238" stroke="#263238" stroke-miterlimit="10" stroke-linecap="round"/>
<path d="M44.8761 40.0146H37.8279C36.2507 40.0146 34.9722 41.2802 34.9722 42.8412V50.1512C34.9722 51.7122 36.2507 52.9777 37.8279 52.9777H44.8761C46.4532 52.9777 47.7318 51.7122 47.7318 50.1512V42.8412C47.7318 41.2802 46.4532 40.0146 44.8761 40.0146Z" fill="#263238" stroke="white" stroke-miterlimit="10" stroke-linecap="round"/>
<path d="M49.7153 83.9204H48.0435V88.9605H49.7153V83.9204Z" fill="#263238" stroke="#263238" stroke-miterlimit="10" stroke-linecap="round"/>
<path d="M34.5156 83.9204H32.8438V88.9605H34.5156V83.9204Z" fill="#263238" stroke="#263238" stroke-miterlimit="10" stroke-linecap="round"/>
<path d="M34.1944 55.5151H48.2593V88.4175C48.2593 88.5082 48.2413 88.598 48.2062 88.6818C48.1711 88.7656 48.1197 88.8418 48.0549 88.9059C47.9901 88.97 47.9132 89.0209 47.8286 89.0556C47.7439 89.0903 47.6532 89.1082 47.5615 89.1082H34.8882C34.7031 89.1082 34.5257 89.0354 34.3948 88.9059C34.2639 88.7764 34.1904 88.6007 34.1904 88.4175V55.5151H34.1944Z" fill="#92E3A9" stroke="#263238" stroke-miterlimit="10" stroke-linecap="round"/>
<path d="M38.4609 73.2837H43.9921V88.4157C43.9921 88.5989 43.9185 88.7745 43.7877 88.904C43.6568 89.0336 43.4794 89.1063 43.2943 89.1063H39.1587C38.9736 89.1063 38.7962 89.0336 38.6653 88.904C38.5345 88.7745 38.4609 88.5989 38.4609 88.4157V73.2837Z" fill="#92E3A9" stroke="#263238" stroke-miterlimit="10" stroke-linecap="round"/>
<path d="M49.8702 69.6674L48.2904 71.879H34.1863L32.583 69.6674V55.5151H49.8702V69.6674Z" fill="#92E3A9" stroke="#263238" stroke-miterlimit="10" stroke-linecap="round"/>
<path d="M38.6514 65.9599V64.2314H39.1629C39.2522 64.2276 39.3409 64.2477 39.4197 64.2896C39.485 64.3277 39.5354 64.3865 39.5628 64.4564C39.5961 64.5411 39.6121 64.6314 39.6098 64.7222C39.6141 64.8163 39.5939 64.9098 39.551 64.9938C39.516 65.0613 39.4585 65.1147 39.3883 65.1451C39.3104 65.1781 39.2261 65.194 39.1414 65.1917H38.9689V65.9677L38.6514 65.9599ZM38.9689 64.9705H39.0904C39.1369 64.9729 39.1832 64.9643 39.2256 64.9453C39.2417 64.9373 39.2558 64.9261 39.2673 64.9124C39.2788 64.8987 39.2873 64.8828 39.2923 64.8658C39.3057 64.8185 39.3116 64.7694 39.3099 64.7203C39.3112 64.6688 39.3066 64.6174 39.2962 64.567C39.2927 64.5494 39.2855 64.5326 39.275 64.5179C39.2646 64.5032 39.2511 64.4909 39.2354 64.4817C39.1905 64.4597 39.1404 64.4503 39.0904 64.4545H38.9689V64.9705Z" fill="#263238"/>
<path d="M39.606 65.96L39.9548 64.2314H40.2959L40.6448 65.96H40.3488L40.2802 65.5603H39.9842L39.9058 65.96H39.606ZM40.0097 65.3605H40.2469L40.1273 64.635L40.0097 65.3605Z" fill="#263238"/>
<path d="M40.811 65.96V64.2314H41.3246C41.4132 64.2276 41.5013 64.2477 41.5794 64.2896C41.6447 64.3282 41.6956 64.3867 41.7244 64.4565C41.7561 64.5415 41.7713 64.6316 41.7695 64.7222C41.7734 64.816 41.7539 64.9093 41.7126 64.9938C41.6765 65.0605 41.6194 65.1136 41.55 65.1452C41.4718 65.1777 41.3877 65.1935 41.303 65.1917H41.1305V65.9677L40.811 65.96ZM41.1305 64.9706H41.2501C41.2965 64.9729 41.3429 64.9643 41.3853 64.9453C41.4013 64.9373 41.4155 64.9261 41.427 64.9124C41.4384 64.8987 41.4469 64.8829 41.452 64.8658C41.4653 64.8185 41.4713 64.7694 41.4696 64.7203C41.4709 64.6689 41.4663 64.6174 41.4559 64.567C41.4524 64.5494 41.4452 64.5326 41.4347 64.5179C41.4242 64.5032 41.4107 64.4909 41.3951 64.4817C41.3502 64.4597 41.3 64.4503 41.2501 64.4545H41.1305V64.9706Z" fill="#263238"/>
<path d="M41.9438 65.96V64.2314H42.6769V64.4545H42.2574V64.9512H42.5828V65.1704H42.2574V65.7524H42.6749V65.96H41.9438Z" fill="#263238"/>
<path d="M42.8613 65.9598V64.2313H43.2788C43.3805 64.2286 43.4819 64.243 43.5787 64.274C43.6554 64.2975 43.7209 64.3478 43.7629 64.4156C43.8104 64.4988 43.8329 64.5937 43.8276 64.6891C43.8283 64.7543 43.8217 64.8194 43.808 64.8831C43.7967 64.9346 43.7739 64.983 43.7414 65.0247C43.7085 65.0665 43.6643 65.0981 43.614 65.1159L43.857 65.9676H43.5375L43.3259 65.1761H43.1808V65.9598H42.8613ZM43.1808 64.9704H43.2788C43.3299 64.9723 43.3807 64.963 43.4278 64.9433C43.4638 64.9255 43.4917 64.8951 43.5062 64.8579C43.5235 64.8093 43.5314 64.758 43.5297 64.7066C43.5348 64.6384 43.5177 64.5704 43.4807 64.5126C43.4576 64.4877 43.4288 64.4687 43.3967 64.4572C43.3647 64.4457 43.3303 64.4421 43.2964 64.4466H43.1808V64.9704Z" fill="#263238"/>
<path d="M43.3456 69.0737L42.6067 70.2571C42.575 70.3108 42.529 70.3548 42.4736 70.3842C42.4183 70.4137 42.3558 70.4274 42.2931 70.4239H41.8011V70.7751H41.7776L41.6482 70.5559C41.5385 70.3619 41.4287 70.1679 41.3209 69.9855C41.3147 69.9711 41.3115 69.9556 41.3115 69.9399C41.3115 69.9242 41.3147 69.9087 41.3209 69.8943C41.4718 69.6091 41.6286 69.3259 41.7952 69.0194V69.452H42.5048L41.9442 68.4995L42.8438 67.9854L43.3456 68.8894V69.0737Z" fill="white"/>
<path d="M40.6877 66.7207C40.7269 66.7207 40.7661 66.7362 40.8053 66.7381L41.8539 66.7517C41.9229 66.7473 41.9917 66.7634 42.0514 66.798C42.1112 66.8325 42.1591 66.884 42.189 66.9457C42.2616 67.0815 42.3458 67.2115 42.4282 67.3492L42.7437 67.1708L42.7555 67.1824L42.5203 67.6073C42.4517 67.7314 42.3831 67.8575 42.3125 67.9797C42.2988 68.003 42.2694 68.0321 42.2459 68.0321C41.9205 68.0515 41.5932 68.0651 41.2659 68.0632L41.6167 67.8575C41.4972 67.6635 41.3815 67.4695 41.2561 67.2484C41.0601 67.5801 40.8876 67.9002 40.7073 68.2184L39.8037 67.7237L39.935 67.485C40.0154 67.3395 40.1036 67.1979 40.1781 67.0485C40.2117 66.9709 40.2616 66.9012 40.3244 66.844C40.3872 66.7868 40.4616 66.7434 40.5426 66.7168L40.6877 66.7207Z" fill="white"/>
<path d="M39.4235 68.3522L39.1079 68.1582V68.1408H39.4588C39.6175 68.1408 39.7763 68.1505 39.935 68.1408C39.9846 68.1325 40.0356 68.141 40.0797 68.1649C40.1238 68.1889 40.1585 68.2269 40.1781 68.2727C40.3231 68.523 40.4819 68.7674 40.625 69.0254L40.2643 68.812L39.9076 69.4251H41.0189V70.4513H40.1604C40.0695 70.4543 39.9797 70.4309 39.9021 70.3841C39.8244 70.3372 39.7623 70.2689 39.7234 70.1875C39.543 69.8422 39.3647 69.4969 39.1785 69.1554C39.1363 69.0942 39.1138 69.0219 39.1138 68.9478C39.1138 68.8738 39.1363 68.8014 39.1785 68.7402C39.2706 68.62 39.3412 68.4822 39.4235 68.3522Z" fill="white"/>
<path d="M46.9598 63.6049H35.4938L34.4824 55.5151H47.9711L46.9598 63.6049Z" stroke="#263238" stroke-miterlimit="10" stroke-linecap="round"/>
<path d="M50.866 55.5151H31.5874V57.3135H50.866V55.5151Z" fill="#92E3A9" stroke="#263238" stroke-miterlimit="10" stroke-linecap="round"/>
<path d="M36.5483 63.51V60.2256" stroke="#263238" stroke-miterlimit="10" stroke-linecap="round"/>
<path d="M38.7866 63.5098V59.6143" stroke="#263238" stroke-miterlimit="10" stroke-linecap="round"/>
<path d="M41.0269 63.5098V58.3921" stroke="#263238" stroke-miterlimit="10" stroke-linecap="round"/>
<path d="M43.2651 63.5098V59.6143" stroke="#263238" stroke-miterlimit="10" stroke-linecap="round"/>
<path d="M45.5034 63.51V60.2256" stroke="#263238" stroke-miterlimit="10" stroke-linecap="round"/>
<path d="M66.6401 4.97607V46.1177H92.8081V4.97607H66.6401ZM91.8555 14.8584H80.3229V6.47375H91.8555V14.8584ZM80.3229 26.0348H91.8555V35.0189H80.3229V26.0348ZM80.3229 24.9387V15.9545H91.8555V24.9387H80.3229ZM67.5966 6.47375H79.1293V14.8584H67.6554V15.9545H79.1293V24.9387H67.6554V26.0348H79.1293V35.0189H67.6554V36.115H79.1293V44.62H67.5966V6.47375ZM80.3229 44.62V36.115H91.8555V44.62H80.3229Z" stroke="#263238" stroke-miterlimit="10" stroke-linecap="round"/>
<path d="M77.477 8.98047L71.6577 13.747" stroke="#263238" stroke-miterlimit="10" stroke-linecap="round"/>
<path d="M89.0136 18.3154L83.1943 23.0801" stroke="#263238" stroke-miterlimit="10" stroke-linecap="round"/>
<path d="M75.8715 38.4722L70.0522 43.2387" stroke="#263238" stroke-miterlimit="10" stroke-linecap="round"/>
<path d="M74.4254 10.3711L71.7578 12.5555" stroke="#263238" stroke-miterlimit="10" stroke-linecap="round"/>
<path d="M88.5704 17.2231L85.9028 19.4076" stroke="#263238" stroke-miterlimit="10" stroke-linecap="round"/>
<path d="M75.5284 39.9619L72.8608 42.1464" stroke="#263238" stroke-miterlimit="10" stroke-linecap="round"/>
<path d="M74.7252 29.4355L72.0596 31.62" stroke="#263238" stroke-miterlimit="10" stroke-linecap="round"/>
<path d="M88.3687 38.6699L85.7031 40.8563" stroke="#263238" stroke-miterlimit="10" stroke-linecap="round"/>
<path d="M94.4309 46.0903H65.1367V49.6929H94.4309V46.0903Z" stroke="#263238" stroke-miterlimit="10" stroke-linecap="round"/>
<path d="M29.7178 78.5874C29.3258 79.0394 29.4434 79.6001 29.4159 80.1976C29.4216 80.4725 29.4072 80.7474 29.3728 81.0202C29.2591 80.6516 29.1337 80.2636 28.9808 79.895C28.9808 79.4546 28.9632 78.9056 28.9318 78.4904C28.8887 77.8968 28.7358 77.0626 28.1145 77.0936C27.6559 77.1188 27.5265 77.5321 27.5971 77.9395C27.6911 78.4536 28.0518 78.8047 28.4163 79.2373C28.5918 79.4339 28.753 79.6427 28.8985 79.862C28.9122 79.8872 28.9671 80.0308 28.9769 80.056V80.0657C29.0808 80.3334 29.1729 80.6167 29.2591 80.8902C29.0808 80.5449 28.826 80.1045 28.628 79.798C28.3027 79.2994 27.6343 78.6514 27.1267 79.1888C26.7523 79.5865 27.0718 80.0288 27.3521 80.3218C27.7068 80.6943 28.1067 80.7583 28.6339 80.8824C28.8674 80.9155 29.095 80.9808 29.3101 81.0764C29.3219 81.0764 29.3297 81.1211 29.3317 81.1327C29.333 81.1417 29.333 81.1509 29.3317 81.1599H29.3473C29.4898 81.6777 29.5959 82.2047 29.6649 82.7371C29.6649 82.7778 29.6649 82.8205 29.6766 82.8612C29.414 82.5023 29.1259 82.124 28.8397 81.7923C28.4751 81.3674 27.7205 80.8689 27.3011 81.4547C26.9934 81.8874 27.3207 82.2656 27.6304 82.5023C28.0224 82.803 28.4281 82.7992 28.9514 82.8205C29.0788 82.8205 29.5179 82.7856 29.6747 82.8865V82.9L29.659 82.9175H29.6766C29.6943 83.205 29.6943 83.4933 29.6766 83.7808C29.6374 84.0698 29.5218 84.3628 29.4532 84.6402C29.3316 84.3027 29.1634 83.9834 28.9534 83.6916C28.6417 83.2512 27.9616 82.6789 27.452 83.1231C27.0757 83.4529 27.2991 83.8603 27.5598 84.1261C27.8911 84.4617 28.2909 84.4908 28.7809 84.5743C29.002 84.5867 29.2203 84.6291 29.4297 84.7004C29.3179 85.131 29.1768 85.5559 29.0749 85.9924C28.9085 85.6818 28.7051 85.392 28.4693 85.1291C28.1106 84.7586 27.403 84.4831 26.9738 84.9448C26.6563 85.2862 26.8542 85.6413 27.1502 85.845C27.5226 86.101 27.893 86.0389 28.3752 86.0118C28.4908 86.0118 28.9142 85.9303 29.0612 86.0118C28.9233 86.5032 28.8729 87.0146 28.9122 87.5231C28.9065 87.5213 28.9003 87.5213 28.8946 87.5231C28.8946 87.5231 28.9063 87.5231 28.9103 87.5231C28.9142 87.5231 28.9357 87.5657 28.9103 87.5502C28.6104 87.3252 28.4438 87.0613 28.1263 86.7917C27.7343 86.4696 27.0326 86.3047 26.6621 86.8246C26.3877 87.2126 26.7013 87.5425 27.0267 87.6821C27.4383 87.8587 27.7676 87.7694 28.238 87.6608C28.3556 87.6336 28.7495 87.5017 28.9122 87.5638C29.0517 88.1489 29.2658 88.7141 29.5492 89.2458L29.5963 89.205C29.3153 88.6798 29.1058 88.1201 28.973 87.5405C29.3303 87.6417 29.6945 87.7175 30.0627 87.7675C30.6194 87.8179 31.4347 87.6724 31.5935 86.9915C31.7131 86.4929 31.3093 86.3144 30.9016 86.3591C30.3861 86.4173 30.0314 86.7471 29.5747 87.0749C29.3914 87.2391 29.1895 87.3817 28.973 87.4998C28.8867 87.0051 29.0083 86.5084 29.118 86.0118C29.4695 86.113 29.8278 86.1895 30.1901 86.2407C30.7409 86.3028 31.5445 86.0913 31.7013 85.422C31.815 84.9293 31.4445 84.7081 31.0427 84.7683C30.5351 84.8459 30.2489 85.1776 29.8021 85.5132C29.6962 85.5947 29.3179 85.9439 29.1298 85.9885C29.2239 85.5811 29.363 85.1562 29.4728 84.745C29.4375 84.745 29.4101 84.745 29.5414 84.7198C29.9242 84.6845 30.304 84.6229 30.6782 84.5355C31.1309 84.4055 31.9189 83.8506 31.7621 83.1775C31.6464 82.6731 31.227 82.6187 30.8703 82.8748C30.4175 83.1969 30.345 83.6062 30.0392 84.0893C29.9569 84.2154 29.6982 84.6712 29.4845 84.7333C29.5571 84.4268 29.6923 84.099 29.7354 83.7944C29.755 83.4985 29.755 83.2017 29.7354 82.9059C30.0864 82.8325 30.4292 82.7246 30.7585 82.5838C31.3191 82.3239 31.8307 81.6914 31.6268 81.0221C31.4759 80.5274 31.0388 80.4615 30.6703 80.7408C30.2117 81.0958 30.1764 81.5634 29.9804 82.1163C29.9229 82.3591 29.8394 82.5951 29.7315 82.8205C29.7266 82.7922 29.7233 82.7637 29.7217 82.7351C29.6522 82.1911 29.5422 81.6529 29.3924 81.1249C29.7006 80.9052 29.9964 80.6688 30.2783 80.4168C30.7429 79.9803 31.0957 79.1733 30.7272 78.601C30.4587 78.1703 30.0196 78.2305 29.7178 78.5874Z" fill="#263238"/>
<path d="M22.9987 83.1811C22.8988 83.5264 23.1006 83.8116 23.2359 84.1511C23.3091 84.3021 23.3707 84.4584 23.4201 84.6187C23.2633 84.4421 23.0967 84.2578 22.9223 84.0891C22.8125 83.8446 22.6636 83.5439 22.5303 83.3131C22.3578 82.9949 22.0618 82.57 21.7247 82.7311C21.4758 82.8572 21.5072 83.119 21.6502 83.3286C21.8325 83.5905 22.1206 83.6972 22.4342 83.8466C22.5815 83.9123 22.7237 83.9889 22.8596 84.0755C22.8733 84.0852 22.9399 84.1511 22.9517 84.1608C23.0771 84.285 23.2026 84.4189 23.3162 84.5488C23.1202 84.4014 22.8792 84.219 22.691 84.0968C22.3852 83.9028 21.8502 83.7088 21.711 84.1298C21.6012 84.4421 21.8913 84.609 22.1226 84.7118C22.4127 84.8301 22.6498 84.768 22.9752 84.7118C23.1143 84.6737 23.2581 84.6547 23.4025 84.6555C23.4025 84.6555 23.424 84.6769 23.426 84.6827C23.4273 84.6884 23.4273 84.6944 23.426 84.7002C23.6352 84.9529 23.8271 85.2193 24.0003 85.4975L24.0375 85.5634C23.8004 85.4296 23.5456 85.2899 23.3025 85.1754C22.9928 85.0299 22.448 84.9388 22.3637 85.3694C22.301 85.6876 22.5773 85.8157 22.8106 85.8719C23.1026 85.9418 23.328 85.8389 23.624 85.7225C23.7531 85.6486 23.8956 85.6005 24.0434 85.5809V85.5945H24.0532C24.1351 85.7508 24.2084 85.9114 24.2727 86.0756C24.3125 86.2518 24.3432 86.4299 24.3648 86.6091C24.2117 86.4514 24.0376 86.315 23.8474 86.2037C23.5632 86.0368 23.0418 85.8855 22.8674 86.2599C22.74 86.5354 22.9674 86.7061 23.179 86.7895C23.4476 86.8943 23.6769 86.8128 23.963 86.7372C24.0888 86.6894 24.2208 86.6593 24.355 86.6479C24.4021 86.9137 24.4295 87.1853 24.4824 87.453C24.3118 87.3211 24.1256 87.2103 23.9278 87.1232C23.6377 87.0049 23.1732 87.0262 23.0516 87.389C22.9615 87.6567 23.1594 87.8061 23.375 87.8468C23.6475 87.8973 23.8376 87.7712 24.0983 87.6373C24.161 87.6043 24.3786 87.4588 24.4903 87.4666C24.5368 87.7739 24.6377 88.0707 24.7882 88.3435C24.7882 88.3435 24.8117 88.3609 24.7882 88.3571C24.5648 88.3047 24.3962 88.1999 24.161 88.1281C23.867 88.0428 23.4299 88.1281 23.3554 88.5161C23.2986 88.7974 23.5514 88.9041 23.7729 88.9041C24.0473 88.9041 24.2061 88.7703 24.4413 88.5937C24.5001 88.5511 24.6863 88.3803 24.7921 88.3745C25.0194 88.6649 25.2828 88.9256 25.5761 89.1505L25.5938 89.1156C25.3046 88.8918 25.0469 88.6308 24.8274 88.3396C25.0514 88.3083 25.2728 88.261 25.4899 88.198C25.8133 88.0874 26.2268 87.81 26.1465 87.3909C26.0877 87.0825 25.8192 87.0844 25.6036 87.2105C25.3311 87.3696 25.2116 87.6354 25.045 87.9361C24.9849 88.0738 24.9086 88.2041 24.8176 88.3241C24.6647 88.0576 24.5649 87.7645 24.5236 87.4608C24.7442 87.4302 24.9623 87.3842 25.1763 87.323C25.4977 87.2221 25.8936 86.9059 25.8113 86.4966C25.7506 86.1939 25.4879 86.161 25.2802 86.3026C25.0175 86.4714 24.943 86.7255 24.7784 87.0223C24.7143 87.1766 24.6293 87.3215 24.5256 87.453C24.4746 87.2028 24.4452 86.9331 24.4021 86.677C24.3825 86.677 24.3668 86.6906 24.4334 86.646C24.6385 86.5307 24.835 86.401 25.0214 86.258C25.241 86.0756 25.5389 85.5731 25.2802 85.2317C25.0842 84.9814 24.8411 85.0532 24.7078 85.2841C24.5373 85.5751 24.6 85.8195 24.551 86.1629C24.5373 86.2541 24.5099 86.5723 24.406 86.6596C24.3688 86.4656 24.3629 86.256 24.308 86.0776C24.2449 85.9082 24.1695 85.7435 24.0826 85.5848C24.2593 85.4576 24.4228 85.3133 24.5706 85.1541C24.8176 84.8709 24.9411 84.3917 24.6608 84.0716C24.6248 84.0206 24.5753 83.9805 24.5177 83.9554C24.4602 83.9304 24.3968 83.9215 24.3345 83.9297C24.2722 83.9379 24.2134 83.9629 24.1645 84.002C24.1156 84.041 24.0784 84.0926 24.0571 84.1511C23.8925 84.4615 23.9905 84.7331 24.0199 85.0862C24.0496 85.235 24.0634 85.3865 24.061 85.5382C24.061 85.5285 24.0434 85.5091 24.0336 85.4936C23.8568 85.209 23.6603 84.9367 23.4456 84.6788C23.5608 84.481 23.6648 84.2769 23.7572 84.0677C23.9062 83.7107 23.8984 83.1753 23.5495 82.9464C23.3064 82.766 23.0771 82.9095 22.9987 83.1811Z" fill="#263238"/>
<path d="M22.3776 29.7477C22.3776 29.7477 22.6501 30.6673 22.5325 31.0902C22.4148 31.4365 22.3487 31.7979 22.3365 32.163C22.3365 32.551 23.1205 33.4299 22.6853 33.7752C22.4458 33.9776 22.1469 34.0987 21.8327 34.1205C21.679 34.6967 21.4824 35.2608 21.2447 35.8083C20.9351 36.4601 20.9351 36.5746 20.5078 36.5746C20.0805 36.5746 19.4337 36.2778 19.4337 36.2778C19.4337 36.2778 18.6203 37.5718 18.5811 38.4545C18.5524 39.0515 18.6321 39.6487 18.8163 40.2179C18.9319 40.6796 21.6465 45.2445 21.6073 46.0496C21.5681 46.8547 21.0644 47.4308 20.986 47.7762C20.9076 48.1215 20.251 57.2822 20.2902 58.1319C20.3294 58.9816 20.0942 62.8888 20.0942 62.8888L17.9617 63.1196L11.6035 62.5046C11.6035 62.5046 11.0625 62.3902 10.7137 59.0922C10.3648 55.7942 11.7211 53.9124 12.3797 53.0685C13.0382 52.2246 13.5811 50.69 13.5811 50.69C12.7189 48.3317 12.3755 45.8183 12.5737 43.318C12.9226 39.244 14.6278 37.4883 15.0531 36.6813C15.4815 35.8754 15.7823 35.0091 15.9449 34.1127C16.0233 33.4609 15.402 33.3367 15.4804 32.1553C15.5588 30.9738 16.6819 30.6595 17.7285 30.161C18.7751 29.6624 22.3776 29.7477 22.3776 29.7477Z" fill="white" stroke="#263238" stroke-miterlimit="10" stroke-linecap="round"/>
<path d="M20.0923 62.8888C20.0923 62.8888 20.3235 58.9758 20.2883 58.1319C20.2687 57.7439 20.4 55.5808 20.5529 53.3304C17.8245 53.2198 14.4592 52.502 12.9481 52.1509C12.7873 52.4729 12.5977 52.78 12.3816 53.0685C11.7231 53.9124 10.3667 55.7845 10.7156 59.0922C11.0645 62.3999 11.6055 62.5047 11.6055 62.5047L17.9617 63.1196L20.0923 62.8888Z" fill="#9E9E9E" stroke="#263238" stroke-miterlimit="10" stroke-linecap="round"/>
<path d="M17.96 63.12L18.6969 58.6309" stroke="#263238" stroke-miterlimit="10" stroke-linecap="round"/>
<path d="M14.3946 54.2192C14.3946 54.2192 13.3088 56.5977 13.2323 59.0925C13.1559 61.5874 13.348 62.2373 13.348 62.2373" stroke="#263238" stroke-miterlimit="10" stroke-linecap="round"/>
<path d="M14.0454 56.4057C14.0454 56.4057 16.2151 55.3329 16.4092 53.7983" stroke="#263238" stroke-miterlimit="10" stroke-linecap="round"/>
<path d="M21.7563 32.3011C21.7113 32.5184 21.5839 32.6775 21.4682 32.6542C21.3526 32.6309 21.2938 32.4369 21.3369 32.2177C21.38 31.9985 21.5113 31.8413 21.627 31.8646C21.7426 31.8879 21.7975 32.0819 21.7563 32.3011Z" fill="#263238"/>
<path d="M21.1387 31.4282C21.2597 31.3211 21.4144 31.2587 21.5766 31.2517C21.7388 31.2446 21.8984 31.2932 22.0285 31.3894" stroke="#263238" stroke-miterlimit="10" stroke-linecap="round"/>
<path d="M20.4409 34.2739C20.6366 34.4719 20.8972 34.5944 21.1759 34.6192" stroke="#263238" stroke-miterlimit="10" stroke-linecap="round"/>
<path d="M14.9374 28.7119C14.9374 28.7119 13.5027 27.4451 12.805 27.2918C12.1072 27.1385 11.0998 28.0212 10.8685 29.0572C10.6372 30.0932 11.2174 31.2804 12.2248 31.5501C13.2322 31.8198 13.6968 31.4725 14.0456 31.0515C14.3945 30.6305 14.9374 28.7119 14.9374 28.7119Z" fill="#263238" stroke="#263238" stroke-miterlimit="10" stroke-linecap="round"/>
<path d="M13.5811 36.1149C14.5493 34.7724 15.6351 34.6948 15.6351 34.6948C15.0106 35.2759 14.4985 35.9649 14.124 36.7279" stroke="#263238" stroke-miterlimit="10" stroke-linecap="round"/>
<path d="M19.4337 36.2781C19.4337 36.2781 18.3871 35.8183 17.999 35.5021C17.7442 35.2746 17.5566 34.9829 17.4561 34.6582C17.4561 34.6582 17.5717 35.9638 17.8481 36.5012C18.1013 36.9548 18.3862 37.3905 18.7007 37.8049L19.4337 36.2781Z" fill="#263238" stroke="#263238" stroke-miterlimit="10" stroke-linecap="round"/>
<path d="M19.3415 41.281C19.169 41.4051 18.873 41.4226 18.3869 41.217C17.0306 40.635 16.6425 39.7581 15.4469 38.6853C14.8766 38.1731 14.4101 38.1401 14.0749 38.2449C13.4634 39.3177 12.7813 40.9182 12.5755 43.3257C12.3773 45.826 12.7208 48.3394 13.583 50.6977C13.3334 51.3872 13.0212 52.0527 12.65 52.6862C15.3235 53.6562 19.1592 53.8114 20.5194 53.8386C20.7056 51.0741 20.9408 47.9817 20.9839 47.7839C21.0623 47.4385 21.5719 46.8624 21.6053 46.0573C21.6307 45.4539 20.1588 42.8097 19.3415 41.281Z" fill="#92E3A9" stroke="#263238" stroke-miterlimit="10" stroke-linecap="round"/>
<path d="M17.6107 32.204C17.6107 32.204 18.4633 32.204 18.773 31.6666C19.0827 31.1292 19.0847 30.9003 19.704 30.7082C20.3234 30.5162 20.6331 30.9759 22.107 30.0564C23.5809 29.1368 23.773 28.3298 23.5025 28.0233C23.232 27.7167 20.7115 26.1046 17.9988 26.4111C15.2862 26.7176 13.8828 29.7867 13.8828 31.5521C13.8828 33.3175 14.7354 34.5048 15.6272 34.6969C16.519 34.8889 16.9051 33.0867 16.9835 32.9703C17.0619 32.8539 17.6107 32.204 17.6107 32.204Z" fill="#263238" stroke="#263238" stroke-miterlimit="10" stroke-linecap="round"/>
<path d="M17.9204 32.433C17.9204 32.433 17.107 30.8984 16.4485 31.397C15.7899 31.8956 15.8605 32.7395 16.3701 33.2769C16.8797 33.8142 17.3501 33.5446 17.3501 33.5446" fill="white"/>
<path d="M17.9204 32.433C17.9204 32.433 17.107 30.8984 16.4485 31.397C15.7899 31.8956 15.8605 32.7395 16.3701 33.2769C16.8797 33.8142 17.3501 33.5446 17.3501 33.5446" stroke="#263238" stroke-miterlimit="10" stroke-linecap="round"/>
<path d="M30.0803 45.3765H24.2983V53.0084H30.0803V45.3765Z" fill="white" stroke="#263238" stroke-miterlimit="10" stroke-linecap="round"/>
<path d="M27.4569 45.191L21.9468 46.9253L24.2834 54.1984L29.7935 52.4641L27.4569 45.191Z" fill="#92E3A9" stroke="#263238" stroke-miterlimit="10" stroke-linecap="round"/>
<path d="M26.9999 45.8443L21.4897 47.5786L23.8263 54.8517L29.3365 53.1174L26.9999 45.8443Z" fill="#92E3A9" stroke="#263238" stroke-miterlimit="10" stroke-linecap="round"/>
<path d="M23.7395 56.171L21.7109 47.7358L27.6968 46.5815L28.2554 48.6399L28.0515 49.1423L29.3706 54.8149L23.7395 56.171Z" fill="white" stroke="#263238" stroke-miterlimit="10" stroke-linecap="round"/>
<path d="M23.0301 56.7237L21.0015 48.2886L26.9873 47.1343L27.5439 49.1926L27.3421 49.6951L28.6611 55.3676L23.0301 56.7237Z" fill="white" stroke="#263238" stroke-miterlimit="10" stroke-linecap="round"/>
<path d="M28.3555 50.8996C28.3555 50.8996 28.5515 49.0411 29.1179 48.1371C29.6843 47.233 30.7918 46.5308 30.7918 46.5308C30.7918 46.5308 32.2108 46.8315 33.2261 47.4852C33.824 47.8667 34.3695 48.3232 34.8489 48.8432C34.8489 48.8432 32.1598 49.7958 31.6032 50.9016L28.3555 50.8996Z" fill="white" stroke="#263238" stroke-miterlimit="10" stroke-linecap="round"/>
<path d="M30.7919 46.5308C30.7919 46.5308 30.9428 46.4299 31.5014 46.3814C31.9247 46.3573 32.3494 46.3736 32.7695 46.4299C32.7695 46.4299 32.109 46.6821 30.4352 48.0381C28.7613 49.3942 28.6104 49.8947 28.6104 49.8947C28.6104 49.8947 28.5085 49.2429 29.118 48.1371C29.51 47.4548 30.0908 46.8975 30.7919 46.5308Z" fill="white" stroke="#263238" stroke-miterlimit="10" stroke-linecap="round"/>
<path d="M31.0449 47.6851L32.7188 48.5891" stroke="#263238" stroke-miterlimit="10" stroke-linecap="round"/>
<path d="M30.3862 48.4399L31.5524 49.0918" stroke="#263238" stroke-miterlimit="10" stroke-linecap="round"/>
<path d="M29.5239 49.2935L30.3863 49.7435" stroke="#263238" stroke-miterlimit="10" stroke-linecap="round"/>
<path d="M20.6138 50.4922V60.0118H32.1445V50.4922H20.6138ZM28.7164 52.2944C28.7164 52.5105 28.6297 52.7178 28.4753 52.8706C28.3209 53.0234 28.1115 53.1093 27.8932 53.1093H24.8611C24.6428 53.1093 24.4334 53.0234 24.279 52.8706C24.1246 52.7178 24.0379 52.5105 24.0379 52.2944C24.0379 52.0784 24.1246 51.8711 24.279 51.7183C24.4334 51.5655 24.6428 51.4796 24.8611 51.4796H27.8932C28.1115 51.4796 28.3209 51.5655 28.4753 51.7183C28.6297 51.8711 28.7164 52.0784 28.7164 52.2944Z" fill="white" stroke="#263238" stroke-miterlimit="10" stroke-linecap="round"/>
<path d="M13.2324 47.6986C13.2324 47.6986 13.8518 53.6835 14.3183 53.798C14.7847 53.9125 15.9451 53.7592 15.9451 53.7592C15.9451 53.7592 23.3088 51.7649 23.4636 51.7649C23.6185 51.7649 24.4711 52.3469 24.8199 52.4167C25.0865 52.5048 25.3766 52.4909 25.6333 52.3779C25.7785 52.3083 25.9367 52.2693 26.0979 52.2635C26.0979 52.2635 26.6016 52.57 26.8348 52.4167C27.0681 52.2635 27.1445 52.2635 27.1053 52.0287C26.9915 51.6978 26.8492 51.3772 26.68 51.0704L26.4467 50.5718C26.7251 50.6685 27.01 50.7456 27.2993 50.8026C27.4542 50.8026 27.9971 50.5718 27.8423 50.3041C27.6874 50.0363 27.2229 49.9587 26.4467 49.6503C25.6706 49.3418 25.0904 49.2623 24.8964 49.4563C24.7023 49.6503 24.5044 49.7628 24.4319 49.8773C24.3593 49.9917 23.3852 50.1838 23.0755 50.2653C22.7659 50.3467 16.8035 50.5718 16.8035 50.5718L16.5331 47.4678L13.2324 47.6986Z" fill="white" stroke="#263238" stroke-miterlimit="10" stroke-linecap="round"/>
<path d="M14.1613 39.3818C14.1613 39.3818 13.2323 39.6515 12.9226 40.8795C12.6129 42.1075 12.3797 44.323 12.4189 45.0078C12.4581 45.6927 12.6893 47.4251 12.6893 47.4251L16.8053 47.1942C16.8053 47.1942 16.6505 41.9776 16.6505 42.092" fill="#92E3A9"/>
<path d="M14.1613 39.3818C14.1613 39.3818 13.2323 39.6515 12.9226 40.8795C12.6129 42.1075 12.3797 44.323 12.4189 45.0078C12.4581 45.6927 12.6893 47.4251 12.6893 47.4251L16.8053 47.1942C16.8053 47.1942 16.6505 41.9776 16.6505 42.092" stroke="#263238" stroke-miterlimit="10" stroke-linecap="round"/>
<path d="M12.4189 46.7792L12.6894 48.0828L17.1465 47.7375L17.0681 46.4707L12.4189 46.7792Z" fill="white" stroke="#263238" stroke-miterlimit="10" stroke-linecap="round"/>
<path d="M19.6648 63.1196C19.6648 63.1196 19.1219 68.6758 18.6201 72.1328C18.1183 75.5899 17.1873 79.6523 17.0325 81.2625C16.8777 82.8727 16.7581 85.482 16.7973 85.7478C16.8365 86.0135 19.0454 87.4744 19.5413 87.7052C20.0372 87.9361 21.1681 87.8585 20.9741 88.3183C20.78 88.778 20.5821 88.6636 19.7353 88.778C18.8886 88.8925 17.3324 88.7024 16.5562 88.7024C15.7801 88.7024 14.5021 88.8168 14.1925 88.6636C13.8828 88.5103 14.2317 87.6276 14.4257 86.9758C14.6197 86.3239 14.6589 85.901 14.6589 84.7137C14.6589 83.5265 14.9294 80.3778 14.5413 77.3417C14.1533 74.3056 14.7373 71.0891 14.8138 70.6681C14.8902 70.2472 15.4841 68.7184 15.4841 68.5283C15.4841 68.3382 15.6389 63.042 15.6389 63.042L19.6648 63.1196Z" fill="white" stroke="#263238" stroke-miterlimit="10" stroke-linecap="round"/>
<path d="M19.7432 88.7802C20.5958 88.6658 20.7898 88.7802 20.9819 88.3204C21.174 87.8607 20.0529 87.9324 19.5491 87.7074C19.3276 87.5954 19.1124 87.4717 18.9043 87.3369L18.6201 88.0139C18.6201 88.0139 15.8761 87.7617 14.3257 87.3291C14.1415 87.9111 13.9455 88.5397 14.2023 88.6658C14.5119 88.819 15.7918 88.7046 16.566 88.7046C17.3402 88.7046 18.8906 88.8966 19.7432 88.7802Z" fill="#263238" stroke="#263238" stroke-miterlimit="10" stroke-linecap="round"/>
<path d="M18.0381 62.3517L20.7116 62.084L20.7508 63.5797L17.8833 63.733L18.0381 62.3517Z" fill="white" stroke="#263238" stroke-miterlimit="10" stroke-linecap="round"/>
<path d="M11.333 62.3901L11.8759 71.7797C11.8759 71.7797 10.1707 74.4647 9.39452 76.1913C8.87316 77.3553 7.98724 79.7124 7.06996 81.4856C6.68017 82.1898 6.22618 82.8574 5.71364 83.4799C5.36476 83.7088 4.7062 83.9397 4.20248 84.2074C3.69876 84.4751 3.41848 84.6691 3.50472 85.2821C3.59096 85.8952 4.90024 87.1698 5.29224 88.2445C5.48824 88.7858 5.68424 89.0108 6.53096 89.0496C7.37768 89.0884 8.19892 89.2436 8.12052 88.8188C8.04212 88.3939 7.38356 87.8216 7.22872 87.4375C7.07388 87.0534 7.15228 86.3647 7.22872 85.5208C7.31104 84.6264 7.30712 84.5993 7.42472 84.4072C7.54232 84.2151 12.656 78.1992 13.8927 75.7781C15.1295 73.357 15.3647 72.6314 15.5215 72.1716C15.6783 71.7118 17.4188 63.2728 17.4188 63.2728L11.333 62.3901Z" fill="white" stroke="#263238" stroke-miterlimit="10" stroke-linecap="round"/>
<path d="M8.11657 88.8188C8.06757 88.5589 7.79905 88.2368 7.56189 87.9419C6.97389 87.9672 6.82101 88.0739 6.29573 87.5539C5.83905 87.1058 5.02565 84.9058 4.70421 83.9785C4.53369 84.0561 4.36513 84.1337 4.21029 84.2152C3.70657 84.4849 3.42629 84.6769 3.51253 85.29C3.59877 85.903 4.90021 87.1698 5.29221 88.2446C5.48821 88.7858 5.68421 89.0109 6.53093 89.0497C7.37765 89.0885 8.19497 89.2398 8.11657 88.8188Z" fill="#263238" stroke="#263238" stroke-miterlimit="10" stroke-linecap="round"/>
<path d="M10.79 61.2788L11.0233 62.889L17.8833 63.7329L18.0381 62.3516L10.79 61.2788Z" fill="white" stroke="#263238" stroke-miterlimit="10" stroke-linecap="round"/>
<path d="M2.09131 89.1079H96.5123" stroke="#263238" stroke-miterlimit="10" stroke-linecap="round"/>
</svg>
