<svg width="97" height="97" viewBox="0 0 97 97" fill="none" xmlns="http://www.w3.org/2000/svg">
<path d="M92.5379 39.8282C89.6977 29.1117 81.7806 20.3487 72.2261 15.553C63.1081 10.9766 51.4817 8.48173 42.4956 14.777C36.5805 18.917 33.0827 25.7458 27.6371 30.4289C24.9308 32.7569 22.0267 33.4456 18.8548 34.7862C11.1277 38.0473 4.52786 44.62 3.70918 53.5576C2.35118 68.4956 13.6517 79.2296 26.541 83.0456C43.5723 88.0896 56.417 88.5184 68.3713 84.0602C74.5793 81.7439 80.9231 78.764 85.5112 73.6987C92.4525 66.0415 94.6719 54.902 93.4788 44.7345C93.2821 43.0788 92.9676 41.4393 92.5379 39.8282Z" fill="#92E3A9"/>
<path opacity="0.8" d="M92.5379 39.8282C89.6977 29.1117 81.7806 20.3487 72.2261 15.553C63.1081 10.9766 51.4817 8.48173 42.4956 14.777C36.5805 18.917 33.0827 25.7458 27.6371 30.4289C24.9308 32.7569 22.0267 33.4456 18.8548 34.7862C11.1277 38.0473 4.52786 44.62 3.70918 53.5576C2.35118 68.4956 13.6517 79.2296 26.541 83.0456C43.5723 88.0896 56.417 88.5184 68.3713 84.0602C74.5793 81.7439 80.9231 78.764 85.5112 73.6987C92.4525 66.0415 94.6719 54.902 93.4788 44.7345C93.2821 43.0788 92.9676 41.4393 92.5379 39.8282Z" fill="white"/>
<path d="M49.7163 26.8228C47.6793 25.7111 46.752 26.6288 46.0109 25.7111C45.2698 24.7935 48.0499 22.3743 42.4898 19.9668C42.4898 19.9668 42.1193 14.7773 34.5222 14.593C26.9252 14.4087 28.9641 19.7883 26.9252 21.0784C24.8863 22.3685 24.3314 20.3373 22.2925 21.6333C20.2535 22.9292 21.1809 25.5249 19.5144 25.9013C17.8479 26.2776 15.6228 24.229 13.5799 25.5249C11.5371 26.8208 11.5468 27.9363 10.6195 27.9363C9.69217 27.9363 7.83947 27.1952 6.72785 27.9363C5.61623 28.6774 4.32031 29.6028 4.32031 29.6028H51.1985C51.1985 29.6028 51.7553 27.9363 49.7163 26.8228Z" fill="#92E3A9"/>
<g opacity="0.5">
<path d="M49.7163 26.8228C47.6793 25.7111 46.752 26.6288 46.0109 25.7111C45.2698 24.7935 48.0499 22.3743 42.4898 19.9668C42.4898 19.9668 42.1193 14.7773 34.5222 14.593C26.9252 14.4087 28.9641 19.7883 26.9252 21.0784C24.8863 22.3685 24.3314 20.3373 22.2925 21.6333C20.2535 22.9292 21.1809 25.5249 19.5144 25.9013C17.8479 26.2776 15.6228 24.229 13.5799 25.5249C11.5371 26.8208 11.5468 27.9363 10.6195 27.9363C9.69217 27.9363 7.83947 27.1952 6.72785 27.9363C5.61623 28.6774 4.32031 29.6028 4.32031 29.6028H51.1985C51.1985 29.6028 51.7553 27.9363 49.7163 26.8228Z" fill="white"/>
</g>
<path d="M82.5295 13.6208C81.4373 13.0253 80.9406 13.5219 80.5429 13.0253C80.1452 12.5286 81.6352 11.2366 78.6553 9.94647C78.6553 9.94647 78.4613 7.16645 74.3873 7.06557C70.3133 6.96469 71.4075 9.84753 70.3133 10.5421C69.2192 11.2366 68.9243 10.1444 67.8321 10.8408C66.7398 11.5373 67.2345 12.9263 66.348 13.1242C65.4614 13.3221 64.2625 12.2299 63.1702 12.9302C62.078 13.6305 62.0761 14.2203 61.5814 14.2203C61.0867 14.2203 60.0914 13.8323 59.4959 14.2203C58.9003 14.6083 58.2 15.1108 58.2 15.1108H83.323C83.323 15.1108 83.614 14.2164 82.5295 13.6208Z" fill="#92E3A9"/>
<g opacity="0.5">
<path d="M82.5295 13.6208C81.4373 13.0253 80.9406 13.5219 80.5429 13.0253C80.1452 12.5286 81.6352 11.2366 78.6553 9.94647C78.6553 9.94647 78.4613 7.16645 74.3873 7.06557C70.3133 6.96469 71.4075 9.84753 70.3133 10.5421C69.2192 11.2366 68.9243 10.1444 67.8321 10.8408C66.7398 11.5373 67.2345 12.9263 66.348 13.1242C65.4614 13.3221 64.2625 12.2299 63.1702 12.9302C62.078 13.6305 62.0761 14.2203 61.5814 14.2203C61.0867 14.2203 60.0914 13.8323 59.4959 14.2203C58.9003 14.6083 58.2 15.1108 58.2 15.1108H83.323C83.323 15.1108 83.614 14.2164 82.5295 13.6208Z" fill="white"/>
</g>
<path d="M81.2433 28.5898C80.7699 28.3318 80.5546 28.5472 80.3819 28.3318C80.2093 28.1165 80.8572 27.5558 79.5632 26.9952C79.5632 26.9952 79.4779 25.7904 77.7105 25.7458C75.9432 25.7012 76.4185 26.9525 75.9432 27.2551C75.4679 27.5578 75.3399 27.0825 74.8665 27.3832C74.3931 27.6839 74.6085 28.2891 74.2205 28.3745C73.8325 28.4599 73.3145 27.9865 72.8411 28.2891C72.3678 28.5918 72.3678 28.8498 72.1524 28.8498C71.9371 28.8498 71.5045 28.6771 71.2465 28.8498C70.9884 29.0225 70.6858 29.2378 70.6858 29.2378H81.5886C81.5886 29.2378 81.7186 28.8498 81.2433 28.5898Z" fill="#92E3A9"/>
<g opacity="0.5">
<path d="M81.2433 28.5898C80.7699 28.3318 80.5546 28.5472 80.3819 28.3318C80.2093 28.1165 80.8572 27.5558 79.5632 26.9952C79.5632 26.9952 79.4779 25.7904 77.7105 25.7458C75.9432 25.7012 76.4185 26.9525 75.9432 27.2551C75.4679 27.5578 75.3399 27.0825 74.8665 27.3832C74.3931 27.6839 74.6085 28.2891 74.2205 28.3745C73.8325 28.4599 73.3145 27.9865 72.8411 28.2891C72.3678 28.5918 72.3678 28.8498 72.1524 28.8498C71.9371 28.8498 71.5045 28.6771 71.2465 28.8498C70.9884 29.0225 70.6858 29.2378 70.6858 29.2378H81.5886C81.5886 29.2378 81.7186 28.8498 81.2433 28.5898Z" fill="white"/>
</g>
<path d="M47.951 75.9123C50.5525 75.9123 52.6614 73.8035 52.6614 71.202C52.6614 68.6006 50.5525 66.4917 47.951 66.4917C45.3496 66.4917 43.2407 68.6006 43.2407 71.202C43.2407 73.8035 45.3496 75.9123 47.951 75.9123Z" fill="white" stroke="#263238" stroke-linecap="round" stroke-linejoin="round"/>
<path d="M47.951 75.2297C50.1753 75.2297 51.9785 73.4265 51.9785 71.2022C51.9785 68.9779 50.1753 67.1748 47.951 67.1748C45.7267 67.1748 43.9236 68.9779 43.9236 71.2022C43.9236 73.4265 45.7267 75.2297 47.951 75.2297Z" fill="#263238" stroke="#263238" stroke-linecap="round" stroke-linejoin="round"/>
<path d="M90.9316 88.3342V81.3715H54.6381C53.8236 81.3715 53.0425 81.0479 52.4666 80.472C51.8907 79.8961 51.5671 79.115 51.5671 78.3005V72.9868H44.4686V78.3005C44.4686 79.115 44.1451 79.8961 43.5692 80.472C42.9932 81.0479 42.2121 81.3715 41.3976 81.3715H7.03052V88.3342" fill="#92E3A9"/>
<path d="M90.9316 88.3342V81.3715H54.6381C53.8236 81.3715 53.0425 81.0479 52.4666 80.472C51.8907 79.8961 51.5671 79.115 51.5671 78.3005V72.9868H44.4686V78.3005C44.4686 79.115 44.1451 79.8961 43.5692 80.472C42.9932 81.0479 42.2121 81.3715 41.3976 81.3715H7.03052V88.3342" stroke="#263238" stroke-linecap="round" stroke-linejoin="round"/>
<path d="M14.8721 83.7905H22.6185" stroke="#263238" stroke-linecap="round" stroke-linejoin="round"/>
<path d="M23.7397 83.7905H25.1656" stroke="#263238" stroke-linecap="round" stroke-linejoin="round"/>
<path d="M56.0486 83.7905H63.7931" stroke="#263238" stroke-linecap="round" stroke-linejoin="round"/>
<path d="M64.9143 83.7905H66.3421" stroke="#263238" stroke-linecap="round" stroke-linejoin="round"/>
<path d="M24.0461 85.2168H31.7906" stroke="#263238" stroke-linecap="round" stroke-linejoin="round"/>
<path d="M32.9121 85.2168H34.3399" stroke="#263238" stroke-linecap="round" stroke-linejoin="round"/>
<path d="M40.6584 85.2168H48.4029" stroke="#263238" stroke-linecap="round" stroke-linejoin="round"/>
<path d="M49.5242 85.2168H50.952" stroke="#263238" stroke-linecap="round" stroke-linejoin="round"/>
<path d="M75.3108 85.2168H83.0553" stroke="#263238" stroke-linecap="round" stroke-linejoin="round"/>
<path d="M84.1765 85.2168H85.6044" stroke="#263238" stroke-linecap="round" stroke-linejoin="round"/>
<path d="M18.7463 86.6445H14.2979" stroke="#263238" stroke-linecap="round" stroke-linejoin="round"/>
<path d="M13.6536 86.6445H12.835" stroke="#263238" stroke-linecap="round" stroke-linejoin="round"/>
<path d="M38.926 86.6445H34.4775" stroke="#263238" stroke-linecap="round" stroke-linejoin="round"/>
<path d="M33.8336 86.6445H33.0149" stroke="#263238" stroke-linecap="round" stroke-linejoin="round"/>
<path d="M56.5569 86.6445H46.6648" stroke="#263238" stroke-linecap="round" stroke-linejoin="round"/>
<path d="M45.233 86.6445H43.4094" stroke="#263238" stroke-linecap="round" stroke-linejoin="round"/>
<path d="M77.2468 86.6445H67.3528" stroke="#263238" stroke-linecap="round" stroke-linejoin="round"/>
<path d="M65.9213 86.6445H64.0996" stroke="#263238" stroke-linecap="round" stroke-linejoin="round"/>
<path d="M45.7549 73.0898V76.0445" stroke="#263238" stroke-linecap="round" stroke-linejoin="round"/>
<path d="M47.2837 79.9185V80.8341" stroke="#263238" stroke-linecap="round" stroke-linejoin="round"/>
<path d="M47.2837 75.9434V79.2045" stroke="#263238" stroke-linecap="round" stroke-linejoin="round"/>
<path d="M49.1169 74.1079V75.9431" stroke="#263238" stroke-linecap="round" stroke-linejoin="round"/>
<path d="M50.5447 75.4331V79.2045" stroke="#263238" stroke-linecap="round" stroke-linejoin="round"/>
<path d="M10.6254 71.7163C10.6254 72.5098 9.84937 72.5098 9.84937 73.3013C9.84937 74.0928 10.6254 74.0947 10.6254 74.8863C10.6254 75.6778 9.84937 75.6778 9.84937 76.4712C9.84937 77.2647 10.6254 77.2628 10.6254 78.0562C10.6254 78.8497 9.84937 78.8497 9.84937 79.6412" stroke="#263238" stroke-linecap="round" stroke-linejoin="round"/>
<path d="M14.777 74.8843C14.777 75.6758 14.001 75.6758 14.001 76.4693C14.001 77.2627 14.777 77.2608 14.777 78.0542C14.777 78.8477 14.001 78.8477 14.001 79.6392" stroke="#263238" stroke-linecap="round" stroke-linejoin="round"/>
<path d="M18.2554 71.7163C18.2554 72.5098 19.0314 72.5098 19.0314 73.3013C19.0314 74.0928 18.2554 74.0947 18.2554 74.8863C18.2554 75.6778 19.0314 75.6778 19.0314 76.4712C19.0314 77.2647 18.2554 77.2628 18.2554 78.0562C18.2554 78.8497 19.0314 78.8497 19.0314 79.6412" stroke="#263238" stroke-linecap="round" stroke-linejoin="round"/>
<path d="M23.183 74.8843C23.183 75.6758 22.407 75.6758 22.407 76.4693C22.407 77.2627 23.183 77.2608 23.183 78.0542C23.183 78.8477 22.407 78.8477 22.407 79.6392" stroke="#263238" stroke-linecap="round" stroke-linejoin="round"/>
<path d="M27.4393 71.7163C27.4393 72.5098 26.6633 72.5098 26.6633 73.3013C26.6633 74.0928 27.4393 74.0947 27.4393 74.8863C27.4393 75.6778 26.6633 75.6778 26.6633 76.4712C26.6633 77.2647 27.4393 77.2628 27.4393 78.0562C27.4393 78.8497 26.6633 78.8497 26.6633 79.6412" stroke="#263238" stroke-linecap="round" stroke-linejoin="round"/>
<path d="M30.8149 74.8843C30.8149 75.6758 31.5909 75.6758 31.5909 76.4693C31.5909 77.2627 30.8149 77.2608 30.8149 78.0542C30.8149 78.8477 31.5909 78.8477 31.5909 79.6392" stroke="#263238" stroke-linecap="round" stroke-linejoin="round"/>
<path d="M35.8453 71.7163C35.8453 72.5098 35.0693 72.5098 35.0693 73.3013C35.0693 74.0928 35.8453 74.0947 35.8453 74.8863C35.8453 75.6778 35.0693 75.6778 35.0693 76.4712C35.0693 77.2647 35.8453 77.2628 35.8453 78.0562C35.8453 78.8497 35.0693 78.8497 35.0693 79.6412" stroke="#263238" stroke-linecap="round" stroke-linejoin="round"/>
<path d="M39.9969 74.8843C39.9969 75.6758 39.2209 75.6758 39.2209 76.4693C39.2209 77.2627 39.9969 77.2608 39.9969 78.0542C39.9969 78.8477 39.2209 78.8477 39.2209 79.6392" stroke="#263238" stroke-linecap="round" stroke-linejoin="round"/>
<path d="M57.1349 71.7163C57.1349 72.5098 56.3589 72.5098 56.3589 73.3013C56.3589 74.0928 57.1349 74.0947 57.1349 74.8863C57.1349 75.6778 56.3589 75.6778 56.3589 76.4712C56.3589 77.2647 57.1349 77.2628 57.1349 78.0562C57.1349 78.8497 56.3589 78.8497 56.3589 79.6412" stroke="#263238" stroke-linecap="round" stroke-linejoin="round"/>
<path d="M61.2865 74.8843C61.2865 75.6758 60.5105 75.6758 60.5105 76.4693C60.5105 77.2627 61.2865 77.2608 61.2865 78.0542C61.2865 78.8477 60.5105 78.8477 60.5105 79.6392" stroke="#263238" stroke-linecap="round" stroke-linejoin="round"/>
<path d="M64.7649 71.7163C64.7649 72.5098 65.5409 72.5098 65.5409 73.3013C65.5409 74.0928 64.7649 74.0947 64.7649 74.8863C64.7649 75.6778 65.5409 75.6778 65.5409 76.4712C65.5409 77.2647 64.7649 77.2628 64.7649 78.0562C64.7649 78.8497 65.5409 78.8497 65.5409 79.6412" stroke="#263238" stroke-linecap="round" stroke-linejoin="round"/>
<path d="M69.6925 74.8843C69.6925 75.6758 68.9165 75.6758 68.9165 76.4693C68.9165 77.2627 69.6925 77.2608 69.6925 78.0542C69.6925 78.8477 68.9165 78.8477 68.9165 79.6392" stroke="#263238" stroke-linecap="round" stroke-linejoin="round"/>
<path d="M73.9489 71.7163C73.9489 72.5098 73.1729 72.5098 73.1729 73.3013C73.1729 74.0928 73.9489 74.0947 73.9489 74.8863C73.9489 75.6778 73.1729 75.6778 73.1729 76.4712C73.1729 77.2647 73.9489 77.2628 73.9489 78.0562C73.9489 78.8497 73.1729 78.8497 73.1729 79.6412" stroke="#263238" stroke-linecap="round" stroke-linejoin="round"/>
<path d="M77.3245 74.8843C77.3245 75.6758 78.1005 75.6758 78.1005 76.4693C78.1005 77.2627 77.3245 77.2608 77.3245 78.0542C77.3245 78.8477 78.1005 78.8477 78.1005 79.6392" stroke="#263238" stroke-linecap="round" stroke-linejoin="round"/>
<path d="M82.3549 71.7163C82.3549 72.5098 81.5789 72.5098 81.5789 73.3013C81.5789 74.0928 82.3549 74.0947 82.3549 74.8863C82.3549 75.6778 81.5789 75.6778 81.5789 76.4712C81.5789 77.2647 82.3549 77.2628 82.3549 78.0562C82.3549 78.8497 81.5789 78.8497 81.5789 79.6412" stroke="#263238" stroke-linecap="round" stroke-linejoin="round"/>
<path d="M86.5065 74.8843C86.5065 75.6758 85.7305 75.6758 85.7305 76.4693C85.7305 77.2627 86.5065 77.2608 86.5065 78.0542C86.5065 78.8477 85.7305 78.8477 85.7305 79.6392" stroke="#263238" stroke-linecap="round" stroke-linejoin="round"/>
<path d="M28.3142 34.8833C30.9263 34.8833 33.0439 32.7657 33.0439 30.1535C33.0439 27.5414 30.9263 25.4238 28.3142 25.4238C25.702 25.4238 23.5845 27.5414 23.5845 30.1535C23.5845 32.7657 25.702 34.8833 28.3142 34.8833Z" fill="#92E3A9"/>
<path d="M23.4644 28.9739C24.5862 28.5129 25.1219 27.2297 24.6609 26.1079C24.1999 24.986 22.9168 24.4503 21.7949 24.9114C20.6731 25.3724 20.1374 26.6555 20.5984 27.7773C21.0594 28.8992 22.3426 29.4349 23.4644 28.9739Z" fill="#92E3A9"/>
<path d="M31.7673 24.2619C32.8666 23.1626 32.8666 21.3803 31.7673 20.281C30.668 19.1817 28.8857 19.1817 27.7864 20.281C26.6871 21.3803 26.6871 23.1626 27.7864 24.2619C28.8857 25.3613 30.668 25.3612 31.7673 24.2619Z" fill="#92E3A9"/>
<path d="M28.1422 22.193C28.4124 21.0425 27.6989 19.8908 26.5484 19.6205C25.3979 19.3502 24.2462 20.0638 23.9759 21.2143C23.7057 22.3647 24.4192 23.5165 25.5697 23.7867C26.7202 24.057 27.8719 23.3434 28.1422 22.193Z" fill="#92E3A9"/>
<path d="M23.5419 24.7894C24.7237 24.7894 25.6817 23.8314 25.6817 22.6496C25.6817 21.4678 24.7237 20.5098 23.5419 20.5098C22.3601 20.5098 21.4021 21.4678 21.4021 22.6496C21.4021 23.8314 22.3601 24.7894 23.5419 24.7894Z" fill="#92E3A9"/>
<path d="M29.8876 21.1693C31.0694 21.1693 32.0274 20.2113 32.0274 19.0295C32.0274 17.8477 31.0694 16.8896 29.8876 16.8896C28.7058 16.8896 27.7478 17.8477 27.7478 19.0295C27.7478 20.2113 28.7058 21.1693 29.8876 21.1693Z" fill="#92E3A9"/>
<path d="M34.0567 27.7886C35.052 27.7886 35.8589 26.9817 35.8589 25.9863C35.8589 24.991 35.052 24.1841 34.0567 24.1841C33.0613 24.1841 32.2544 24.991 32.2544 25.9863C32.2544 26.9817 33.0613 27.7886 34.0567 27.7886Z" fill="#92E3A9"/>
<path d="M37.2653 22.3836C38.7267 22.3836 39.9115 21.1989 39.9115 19.7375C39.9115 18.276 38.7267 17.0913 37.2653 17.0913C35.8039 17.0913 34.6191 18.276 34.6191 19.7375C34.6191 21.1989 35.8039 22.3836 37.2653 22.3836Z" fill="#92E3A9"/>
<path d="M43.2892 14.22C43.2895 14.4543 43.2204 14.6833 43.0905 14.8782C42.9606 15.0731 42.7758 15.2251 42.5595 15.3149C42.3432 15.4047 42.1051 15.4283 41.8754 15.3827C41.6456 15.3371 41.4346 15.2244 41.269 15.0588C41.1034 14.8931 40.9906 14.6821 40.945 14.4524C40.8994 14.2226 40.923 13.9845 41.0128 13.7682C41.1026 13.5519 41.2546 13.3671 41.4495 13.2372C41.6444 13.1073 41.8735 13.0382 42.1077 13.0386C42.2629 13.0386 42.4165 13.0691 42.5598 13.1285C42.7032 13.1879 42.8334 13.2749 42.9431 13.3846C43.0528 13.4943 43.1399 13.6246 43.1992 13.7679C43.2586 13.9113 43.2892 14.0649 43.2892 14.22Z" fill="#92E3A9"/>
<path d="M39.799 14.1078C39.7994 14.2975 39.7435 14.4831 39.6383 14.641C39.5332 14.7989 39.3835 14.922 39.2083 14.9948C39.0331 15.0675 38.8403 15.0867 38.6542 15.0498C38.4681 15.0128 38.2972 14.9215 38.163 14.7874C38.0289 14.6532 37.9376 14.4823 37.9006 14.2962C37.8637 14.1101 37.8829 13.9173 37.9556 13.7421C38.0284 13.5669 38.1516 13.4172 38.3095 13.3121C38.4674 13.2069 38.6529 13.151 38.8426 13.1514C38.9682 13.1514 39.0926 13.1761 39.2086 13.2242C39.3247 13.2722 39.4301 13.3427 39.5189 13.4315C39.6077 13.5203 39.6782 13.6257 39.7262 13.7418C39.7743 13.8578 39.799 13.9822 39.799 14.1078Z" fill="#92E3A9"/>
<path d="M46.2166 10.5613C46.2162 10.7392 46.1631 10.9131 46.0639 11.0609C45.9648 11.2086 45.8241 11.3237 45.6596 11.3915C45.495 11.4594 45.3141 11.4769 45.1396 11.442C44.9651 11.407 44.8049 11.3211 44.6792 11.1952C44.5535 11.0692 44.468 10.9088 44.4334 10.7342C44.3988 10.5597 44.4168 10.3788 44.485 10.2144C44.5532 10.05 44.6685 9.90958 44.8165 9.81075C44.9645 9.71192 45.1385 9.65918 45.3164 9.65918C45.4348 9.65918 45.552 9.68253 45.6613 9.72789C45.7707 9.77324 45.87 9.83972 45.9536 9.92352C46.0372 10.0073 46.1035 10.1068 46.1486 10.2162C46.1937 10.3256 46.2168 10.4429 46.2166 10.5613Z" fill="#92E3A9"/>
<path d="M40.7555 18.8934C41.7198 18.8934 42.5015 18.1117 42.5015 17.1474C42.5015 16.1831 41.7198 15.4014 40.7555 15.4014C39.7912 15.4014 39.0095 16.1831 39.0095 17.1474C39.0095 18.1117 39.7912 18.8934 40.7555 18.8934Z" fill="#92E3A9"/>
<path d="M33.4941 22.958C34.6513 22.958 35.5893 22.0199 35.5893 20.8628C35.5893 19.7056 34.6513 18.7676 33.4941 18.7676C32.337 18.7676 31.3989 19.7056 31.3989 20.8628C31.3989 22.0199 32.337 22.958 33.4941 22.958Z" fill="#92E3A9"/>
<path d="M36.2742 26.6245C37.052 26.6245 37.6826 25.9939 37.6826 25.2161C37.6826 24.4382 37.052 23.8076 36.2742 23.8076C35.4963 23.8076 34.8657 24.4382 34.8657 25.2161C34.8657 25.9939 35.4963 26.6245 36.2742 26.6245Z" fill="#92E3A9"/>
<path d="M36.2217 23.5825C36.9995 23.5825 37.6301 22.9519 37.6301 22.1741C37.6301 21.3962 36.9995 20.7656 36.2217 20.7656C35.4438 20.7656 34.8132 21.3962 34.8132 22.1741C34.8132 22.9519 35.4438 23.5825 36.2217 23.5825Z" fill="#92E3A9"/>
<path d="M39.8398 25.2085C40.6177 25.2085 41.2483 24.5779 41.2483 23.8C41.2483 23.0222 40.6177 22.3916 39.8398 22.3916C39.062 22.3916 38.4314 23.0222 38.4314 23.8C38.4314 24.5779 39.062 25.2085 39.8398 25.2085Z" fill="#92E3A9"/>
<path d="M32.3398 19.2817C33.1177 19.2817 33.7483 18.6511 33.7483 17.8733C33.7483 17.0954 33.1177 16.4648 32.3398 16.4648C31.562 16.4648 30.9314 17.0954 30.9314 17.8733C30.9314 18.6511 31.562 19.2817 32.3398 19.2817Z" fill="#92E3A9"/>
<path d="M29.0631 25.9351C29.3158 24.3697 28.2516 22.8958 26.6862 22.643C25.1207 22.3903 23.6468 23.4545 23.3941 25.02C23.1414 26.5854 24.2056 28.0594 25.771 28.3121C27.3365 28.5648 28.8104 27.5006 29.0631 25.9351Z" fill="#92E3A9"/>
<path d="M36.173 23.9785C36.338 22.9654 35.6505 22.0104 34.6374 21.8454C33.6243 21.6804 32.6693 22.3679 32.5043 23.381C32.3393 24.3941 33.0268 25.3491 34.0399 25.5141C35.053 25.6791 36.008 24.9916 36.173 23.9785Z" fill="#92E3A9"/>
<path d="M32.8169 29.2534C34.3715 29.2534 35.6318 27.9931 35.6318 26.4385C35.6318 24.8838 34.3715 23.6235 32.8169 23.6235C31.2622 23.6235 30.002 24.8838 30.002 26.4385C30.002 27.9931 31.2622 29.2534 32.8169 29.2534Z" fill="#92E3A9"/>
<path d="M29.3833 30.7157C31.2797 30.7157 32.8171 29.1784 32.8171 27.2819C32.8171 25.3855 31.2797 23.8481 29.3833 23.8481C27.4868 23.8481 25.9495 25.3855 25.9495 27.2819C25.9495 29.1784 27.4868 30.7157 29.3833 30.7157Z" fill="#92E3A9"/>
<path d="M34.1109 32.6286C35.2606 32.6286 36.1925 31.6966 36.1925 30.547C36.1925 29.3973 35.2606 28.4653 34.1109 28.4653C32.9613 28.4653 32.0293 29.3973 32.0293 30.547C32.0293 31.6966 32.9613 32.6286 34.1109 32.6286Z" fill="#92E3A9"/>
<path d="M23.4721 32.9681C24.6539 32.9681 25.6119 32.0101 25.6119 30.8283C25.6119 29.6465 24.6539 28.6885 23.4721 28.6885C22.2903 28.6885 21.3323 29.6465 21.3323 30.8283C21.3323 32.0101 22.2903 32.9681 23.4721 32.9681Z" fill="#92E3A9"/>
<path d="M34.1262 23.3112C34.327 22.4636 33.8027 21.6137 32.9551 21.4128C32.1075 21.212 31.2576 21.7363 31.0568 22.5839C30.8559 23.4315 31.3802 24.2815 32.2278 24.4823C33.0754 24.6831 33.9254 24.1588 34.1262 23.3112Z" fill="#92E3A9"/>
<path d="M35.0131 31.5037C36.5367 31.5037 37.7718 30.2686 37.7718 28.745C37.7718 27.2214 36.5367 25.9863 35.0131 25.9863C33.4895 25.9863 32.2544 27.2214 32.2544 28.745C32.2544 30.2686 33.4895 31.5037 35.0131 31.5037Z" fill="#92E3A9"/>
<path d="M36.4486 43.7412C35.4321 37.0152 36.1945 31.9712 36.1945 31.9712H20.4591C20.4591 31.9712 21.2351 37.0152 20.1992 43.7412C19.1632 50.4671 15.2852 61.0712 15.2852 61.0712H41.2812C41.2812 61.0712 37.4652 50.4671 36.4486 43.7412Z" fill="white" stroke="#263238" stroke-linecap="round" stroke-linejoin="round"/>
<path d="M30.3591 45.5897C29.2358 46.3929 27.1756 46.3948 26.0232 45.5897C26.5179 44.7322 27.0126 43.8689 27.5209 42.9862C27.726 43.0982 27.9563 43.1557 28.19 43.1533C28.4237 43.1509 28.6528 43.0887 28.8556 42.9727C29.3678 43.8728 29.8644 44.7361 30.3591 45.5897Z" fill="#263238"/>
<path d="M29.5054 41.8633C29.4084 41.2813 29.3502 41.1785 28.8303 40.6857C29.0786 40.2628 29.3328 39.836 29.583 39.4053C29.8333 38.9747 30.0797 38.542 30.3241 38.1152C31.5463 38.6041 32.6793 40.579 32.4853 41.8633H29.5054Z" fill="#263238"/>
<path d="M26.0444 38.1191C26.5449 38.9727 27.0493 39.8302 27.5634 40.7032C27.3814 40.8164 27.227 40.9689 27.1116 41.1495C26.9961 41.3301 26.9225 41.5342 26.8961 41.7469C26.883 41.7796 26.862 41.8084 26.8348 41.8308C26.8077 41.8532 26.7754 41.8684 26.7409 41.875C25.7922 41.875 24.8455 41.875 23.9046 41.875C23.6951 40.6023 24.8125 38.6429 26.0444 38.1191Z" fill="#263238"/>
<path d="M28.2075 42.7305C28.0925 42.7338 27.9779 42.7143 27.8706 42.6729C27.7632 42.6316 27.6651 42.5693 27.5821 42.4897C27.499 42.41 27.4326 42.3147 27.3868 42.2091C27.3409 42.1036 27.3166 41.99 27.3151 41.8749C27.313 41.7595 27.3338 41.6449 27.376 41.5375C27.4183 41.43 27.4813 41.332 27.5615 41.249C27.6417 41.1659 27.7374 41.0995 27.8433 41.0534C27.9491 41.0074 28.063 40.9826 28.1784 40.9806C28.2938 40.9786 28.4085 40.9993 28.5159 41.0416C28.6233 41.0838 28.7213 41.1469 28.8043 41.227C28.8874 41.3072 28.9538 41.4029 28.9999 41.5088C29.0459 41.6146 29.0707 41.7285 29.0727 41.8439C29.0748 42.076 28.985 42.2995 28.8229 42.4656C28.6608 42.6317 28.4395 42.7269 28.2075 42.7305Z" fill="#263238"/>
<path d="M17.2039 56.3589H22.8124" stroke="#263238" stroke-linecap="round" stroke-linejoin="round"/>
<path d="M29.2474 54.2134H27.0203" stroke="#263238" stroke-linecap="round" stroke-linejoin="round"/>
<path d="M20.5039 51.9863H26.9369" stroke="#263238" stroke-linecap="round" stroke-linejoin="round"/>
<path d="M35.3505 46.2959H32.7102" stroke="#263238" stroke-linecap="round" stroke-linejoin="round"/>
<path d="M35.0208 36.0664H33.042" stroke="#263238" stroke-linecap="round" stroke-linejoin="round"/>
<path d="M21.3284 38.2119H23.8853" stroke="#263238" stroke-linecap="round" stroke-linejoin="round"/>
<path d="M31.9692 46.3774H31.3096" stroke="#263238" stroke-linecap="round" stroke-linejoin="round"/>
<path d="M27.7612 51.9863H28.5042" stroke="#263238" stroke-linecap="round" stroke-linejoin="round"/>
<path d="M20.8335 47.2856H23.6368" stroke="#263238" stroke-linecap="round" stroke-linejoin="round"/>
<path d="M24.3799 47.3672H25.4527" stroke="#263238" stroke-linecap="round" stroke-linejoin="round"/>
<path d="M31.6394 58.2563H27.8447" stroke="#263238" stroke-linecap="round" stroke-linejoin="round"/>
<path d="M28.0096 34.6641H23.2256" stroke="#263238" stroke-linecap="round" stroke-linejoin="round"/>
<path d="M57.5443 32.7995C57.5447 32.8798 57.5212 32.9584 57.4769 33.0253C57.4326 33.0922 57.3694 33.1445 57.2954 33.1755C57.2213 33.2065 57.1397 33.2148 57.0609 33.1994C56.9822 33.1839 56.9097 33.1455 56.8528 33.0888C56.7959 33.0322 56.7571 32.96 56.7413 32.8813C56.7255 32.8026 56.7334 32.7209 56.7641 32.6467C56.7947 32.5725 56.8467 32.5091 56.9134 32.4645C56.9801 32.4198 57.0586 32.396 57.1389 32.396C57.2461 32.396 57.3489 32.4384 57.4249 32.5141C57.5009 32.5897 57.5438 32.6923 57.5443 32.7995Z" fill="#92E3A9"/>
<path d="M55.5636 35.4455C55.8743 35.4455 56.1262 35.1936 56.1262 34.8829C56.1262 34.5722 55.8743 34.3203 55.5636 34.3203C55.2529 34.3203 55.001 34.5722 55.001 34.8829C55.001 35.1936 55.2529 35.4455 55.5636 35.4455Z" fill="#92E3A9"/>
<path d="M56.2948 33.6434C56.7609 33.6434 57.1387 33.2655 57.1387 32.7995C57.1387 32.3334 56.7609 31.9556 56.2948 31.9556C55.8288 31.9556 55.4509 32.3334 55.4509 32.7995C55.4509 33.2655 55.8288 33.6434 56.2948 33.6434Z" fill="#92E3A9"/>
<path d="M56.8129 34.7258C56.8129 34.8061 56.789 34.8845 56.7444 34.9512C56.6998 35.018 56.6363 35.0699 56.5621 35.1006C56.4879 35.1312 56.4063 35.1391 56.3276 35.1233C56.2489 35.1075 56.1766 35.0687 56.12 35.0118C56.0634 34.9549 56.0249 34.8825 56.0095 34.8037C55.9941 34.7249 56.0024 34.6433 56.0334 34.5693C56.0644 34.4952 56.1166 34.432 56.1836 34.3877C56.2505 34.3434 56.3291 34.3199 56.4094 34.3203C56.4625 34.3203 56.5151 34.3308 56.5642 34.3512C56.6133 34.3716 56.6579 34.4015 56.6954 34.4392C56.7329 34.4769 56.7626 34.5216 56.7827 34.5708C56.8029 34.6199 56.8131 34.6726 56.8129 34.7258Z" fill="#92E3A9"/>
<path d="M55.6217 33.812C55.6221 33.8711 55.6049 33.9291 55.5723 33.9785C55.5397 34.0279 55.4932 34.0664 55.4386 34.0894C55.384 34.1123 55.3239 34.1185 55.2658 34.1072C55.2078 34.0958 55.1543 34.0675 55.1124 34.0258C55.0704 33.9841 55.0417 33.9309 55.0301 33.8729C55.0184 33.8149 55.0242 33.7547 55.0467 33.7C55.0693 33.6453 55.1076 33.5985 55.1567 33.5656C55.2059 33.5327 55.2638 33.5151 55.3229 33.5151C55.4018 33.5151 55.4775 33.5463 55.5335 33.602C55.5895 33.6576 55.6212 33.7331 55.6217 33.812Z" fill="#92E3A9"/>
<path d="M57.3658 31.7712C57.3658 31.8805 57.3334 31.9874 57.2726 32.0783C57.2119 32.1693 57.1255 32.2401 57.0245 32.282C56.9235 32.3238 56.8123 32.3348 56.705 32.3134C56.5978 32.2921 56.4993 32.2394 56.422 32.1621C56.3446 32.0848 56.292 31.9863 56.2706 31.879C56.2493 31.7718 56.2603 31.6606 56.3021 31.5596C56.3439 31.4585 56.4148 31.3722 56.5057 31.3114C56.5967 31.2507 56.7036 31.2183 56.8129 31.2183C56.9594 31.2188 57.0997 31.2772 57.2033 31.3808C57.3069 31.4843 57.3653 31.6247 57.3658 31.7712Z" fill="#92E3A9"/>
<path d="M57.8759 29.835C57.8759 29.89 57.8596 29.9437 57.829 29.9894C57.7984 30.035 57.755 30.0706 57.7042 30.0915C57.6534 30.1125 57.5975 30.1178 57.5436 30.107C57.4898 30.0961 57.4403 30.0695 57.4016 30.0305C57.3629 29.9915 57.3366 29.9419 57.3261 29.888C57.3157 29.834 57.3214 29.7782 57.3427 29.7275C57.364 29.6769 57.3999 29.6337 57.4458 29.6034C57.4916 29.5732 57.5455 29.5572 57.6004 29.5576C57.6736 29.5581 57.7437 29.5876 57.7953 29.6396C57.8469 29.6915 57.8759 29.7618 57.8759 29.835Z" fill="#92E3A9"/>
<path d="M56.5141 30.5163C56.5141 30.5961 56.4904 30.6741 56.4461 30.7405C56.4017 30.8069 56.3387 30.8586 56.265 30.8891C56.1912 30.9197 56.1101 30.9276 56.0318 30.9121C55.9536 30.8965 55.8817 30.8581 55.8252 30.8016C55.7688 30.7452 55.7304 30.6733 55.7148 30.595C55.6992 30.5168 55.7072 30.4356 55.7377 30.3619C55.7683 30.2882 55.82 30.2251 55.8864 30.1808C55.9527 30.1365 56.0307 30.1128 56.1106 30.1128C56.2176 30.1128 56.3202 30.1553 56.3959 30.231C56.4716 30.3067 56.5141 30.4093 56.5141 30.5163Z" fill="#92E3A9"/>
<path d="M57.3231 33.6863C57.3231 33.821 57.2831 33.9526 57.2083 34.0646C57.1335 34.1766 57.0271 34.2639 56.9027 34.3154C56.7783 34.367 56.6414 34.3804 56.5093 34.3542C56.3772 34.3279 56.2559 34.263 56.1606 34.1678C56.0654 34.0726 56.0005 33.9512 55.9743 33.8192C55.948 33.6871 55.9615 33.5502 56.013 33.4257C56.0646 33.3013 56.1518 33.195 56.2638 33.1201C56.3758 33.0453 56.5074 33.0054 56.6421 33.0054C56.8227 33.0054 56.9959 33.0771 57.1236 33.2048C57.2513 33.3325 57.3231 33.5057 57.3231 33.6863Z" fill="#92E3A9"/>
<path d="M56.4094 34.2273C56.4098 34.3348 56.3782 34.44 56.3188 34.5296C56.2593 34.6192 56.1746 34.6891 56.0754 34.7305C55.9762 34.7719 55.8669 34.783 55.7614 34.7622C55.6559 34.7415 55.5589 34.6899 55.4828 34.614C55.4066 34.5381 55.3547 34.4413 55.3336 34.3359C55.3125 34.2305 55.3231 34.1212 55.3642 34.0218C55.4052 33.9224 55.4748 33.8375 55.5642 33.7777C55.6536 33.7179 55.7587 33.686 55.8662 33.686C56.0099 33.686 56.1478 33.743 56.2496 33.8444C56.3514 33.9459 56.4089 34.0836 56.4094 34.2273Z" fill="#92E3A9"/>
<path d="M60.2524 32.2447C60.2524 32.356 60.2194 32.4648 60.1576 32.5573C60.0958 32.6498 60.0079 32.7219 59.9051 32.7645C59.8023 32.8071 59.6892 32.8182 59.58 32.7965C59.4709 32.7748 59.3707 32.7212 59.292 32.6425C59.2133 32.5639 59.1597 32.4636 59.138 32.3545C59.1163 32.2454 59.1274 32.1322 59.17 32.0294C59.2126 31.9266 59.2847 31.8388 59.3772 31.7769C59.4698 31.7151 59.5785 31.6821 59.6898 31.6821C59.839 31.6821 59.9821 31.7414 60.0876 31.8469C60.1931 31.9524 60.2524 32.0955 60.2524 32.2447Z" fill="#92E3A9"/>
<path d="M61.2652 30.1613C61.2652 30.3282 61.2157 30.4914 61.123 30.6301C61.0302 30.7689 60.8984 30.8771 60.7442 30.9409C60.59 31.0048 60.4204 31.0215 60.2567 30.989C60.093 30.9564 59.9426 30.876 59.8246 30.758C59.7065 30.64 59.6262 30.4896 59.5936 30.3259C59.561 30.1622 59.5778 29.9925 59.6416 29.8383C59.7055 29.6841 59.8137 29.5523 59.9524 29.4596C60.0912 29.3669 60.2544 29.3174 60.4213 29.3174C60.6451 29.3174 60.8598 29.4063 61.018 29.5646C61.1763 29.7228 61.2652 29.9375 61.2652 30.1613Z" fill="#92E3A9"/>
<path d="M60.9391 32.0896C60.9395 32.1699 60.916 32.2486 60.8716 32.3155C60.8272 32.3825 60.7639 32.4348 60.6897 32.4657C60.6155 32.4966 60.5338 32.5048 60.455 32.4893C60.3762 32.4737 60.3038 32.435 60.2469 32.3782C60.1901 32.3214 60.1515 32.249 60.1359 32.1701C60.1203 32.0913 60.1285 32.0096 60.1594 31.9354C60.1903 31.8613 60.2426 31.798 60.3096 31.7536C60.3766 31.7092 60.4552 31.6857 60.5356 31.686C60.6424 31.6865 60.7448 31.7292 60.8203 31.8048C60.8959 31.8804 60.9386 31.9827 60.9391 32.0896Z" fill="#92E3A9"/>
<path d="M59.7518 31.1757C59.7518 31.2349 59.7342 31.2927 59.7013 31.3419C59.6684 31.3911 59.6216 31.4294 59.5669 31.4519C59.5122 31.4745 59.4521 31.4803 59.394 31.4686C59.336 31.4569 59.2828 31.4283 59.2411 31.3863C59.1994 31.3443 59.1711 31.2909 59.1598 31.2328C59.1485 31.1747 59.1547 31.1146 59.1776 31.06C59.2005 31.0055 59.2391 30.959 59.2885 30.9264C59.3379 30.8938 59.3958 30.8766 59.455 30.877C59.4941 30.877 59.5329 30.8847 59.569 30.8997C59.6052 30.9148 59.638 30.9368 59.6656 30.9646C59.6932 30.9923 59.715 31.0253 59.7298 31.0615C59.7446 31.0978 59.7521 31.1366 59.7518 31.1757Z" fill="#92E3A9"/>
<path d="M61.4979 29.133C61.4979 29.2423 61.4655 29.3492 61.4047 29.4402C61.344 29.5311 61.2576 29.6019 61.1566 29.6438C61.0555 29.6856 60.9444 29.6966 60.8371 29.6753C60.7299 29.6539 60.6314 29.6013 60.554 29.5239C60.4767 29.4466 60.424 29.3481 60.4027 29.2408C60.3814 29.1336 60.3923 29.0224 60.4342 28.9214C60.476 28.8204 60.5469 28.734 60.6378 28.6733C60.7287 28.6125 60.8356 28.5801 60.945 28.5801C61.0916 28.5801 61.2323 28.6383 61.3359 28.742C61.4396 28.8457 61.4979 28.9863 61.4979 29.133Z" fill="#92E3A9"/>
<path d="M61.8199 30.7936C61.9731 30.7936 62.0973 30.6694 62.0973 30.5162C62.0973 30.363 61.9731 30.2388 61.8199 30.2388C61.6667 30.2388 61.5425 30.363 61.5425 30.5162C61.5425 30.6694 61.6667 30.7936 61.8199 30.7936Z" fill="#92E3A9"/>
<path d="M61.6239 27.003C61.6239 27.058 61.6076 27.1117 61.577 27.1573C61.5465 27.203 61.503 27.2386 61.4522 27.2595C61.4014 27.2804 61.3455 27.2858 61.2917 27.275C61.2378 27.2641 61.1884 27.2375 61.1497 27.1985C61.1109 27.1595 61.0847 27.1099 61.0742 27.0559C61.0637 27.002 61.0695 26.9462 61.0908 26.8955C61.1121 26.8448 61.1479 26.8017 61.1938 26.7714C61.2397 26.7412 61.2935 26.7252 61.3485 26.7256C61.3848 26.7256 61.4208 26.7328 61.4543 26.7467C61.4879 26.7607 61.5183 26.7812 61.5439 26.807C61.5695 26.8328 61.5898 26.8634 61.6035 26.897C61.6173 26.9306 61.6242 26.9667 61.6239 27.003Z" fill="#92E3A9"/>
<path d="M61.2575 27.6837C61.2579 27.7386 61.2419 27.7925 61.2117 27.8383C61.1814 27.8842 61.1382 27.9201 61.0876 27.9414C61.0369 27.9627 60.9811 27.9684 60.9271 27.9579C60.8732 27.9475 60.8236 27.9212 60.7846 27.8825C60.7456 27.8438 60.719 27.7943 60.7081 27.7405C60.6972 27.6866 60.7026 27.6307 60.7236 27.5799C60.7445 27.5291 60.7801 27.4857 60.8257 27.4551C60.8714 27.4245 60.9251 27.4082 60.98 27.4082C61.0533 27.4082 61.1236 27.4372 61.1755 27.4888C61.2275 27.5404 61.257 27.6104 61.2575 27.6837Z" fill="#92E3A9"/>
<path d="M60.6425 27.8776C60.6428 27.9579 60.6194 28.0365 60.5751 28.1034C60.5308 28.1704 60.4676 28.2226 60.3935 28.2536C60.3195 28.2846 60.2379 28.2929 60.1591 28.2775C60.0803 28.2621 60.0079 28.2236 59.951 28.167C59.8941 28.1103 59.8553 28.0381 59.8395 27.9594C59.8237 27.8807 59.8316 27.7991 59.8622 27.7249C59.8928 27.6507 59.9448 27.5872 60.0115 27.5426C60.0783 27.498 60.1567 27.4741 60.237 27.4741C60.344 27.4746 60.4466 27.5172 60.5225 27.5928C60.5983 27.6683 60.6414 27.7706 60.6425 27.8776Z" fill="#92E3A9"/>
<path d="M61.4495 31.0398C61.4495 31.1745 61.4096 31.3062 61.3348 31.4181C61.2599 31.5301 61.1536 31.6174 61.0292 31.6689C60.9047 31.7205 60.7678 31.734 60.6357 31.7077C60.5037 31.6814 60.3823 31.6166 60.2871 31.5213C60.1919 31.4261 60.127 31.3048 60.1007 31.1727C60.0745 31.0406 60.0879 30.9037 60.1395 30.7792C60.191 30.6548 60.2783 30.5485 60.3903 30.4736C60.5023 30.3988 60.6339 30.3589 60.7686 30.3589C60.9492 30.3589 61.1224 30.4306 61.2501 30.5583C61.3778 30.686 61.4495 30.8592 61.4495 31.0398Z" fill="#92E3A9"/>
<path d="M60.5278 31.5911C60.5278 31.6985 60.4959 31.8035 60.4363 31.8928C60.3766 31.9822 60.2917 32.0518 60.1925 32.0929C60.0932 32.134 59.984 32.1448 59.8786 32.1238C59.7733 32.1029 59.6765 32.0511 59.6005 31.9752C59.5245 31.8992 59.4728 31.8024 59.4518 31.697C59.4309 31.5917 59.4416 31.4824 59.4828 31.3832C59.5239 31.2839 59.5935 31.1991 59.6828 31.1394C59.7722 31.0797 59.8772 31.0479 59.9846 31.0479C60.056 31.0476 60.1268 31.0615 60.1928 31.0887C60.2588 31.1159 60.3188 31.1559 60.3693 31.2064C60.4198 31.2569 60.4598 31.3169 60.487 31.3829C60.5142 31.4489 60.5281 31.5196 60.5278 31.5911Z" fill="#92E3A9"/>
<path d="M64.5068 29.7345C64.5068 29.8457 64.4738 29.9545 64.412 30.047C64.3502 30.1396 64.2623 30.2117 64.1595 30.2543C64.0567 30.2968 63.9436 30.308 63.8344 30.2863C63.7253 30.2646 63.6251 30.211 63.5464 30.1323C63.4677 30.0536 63.4141 29.9534 63.3924 29.8442C63.3707 29.7351 63.3818 29.622 63.4244 29.5192C63.467 29.4164 63.5391 29.3285 63.6316 29.2667C63.7241 29.2049 63.8329 29.1719 63.9442 29.1719C64.0934 29.1719 64.2365 29.2311 64.342 29.3367C64.4475 29.4422 64.5068 29.5853 64.5068 29.7345Z" fill="#92E3A9"/>
<path d="M65.5196 27.6505C65.5196 27.8174 65.4701 27.9806 65.3774 28.1194C65.2846 28.2582 65.1528 28.3663 64.9986 28.4302C64.8444 28.4941 64.6748 28.5108 64.5111 28.4782C64.3474 28.4457 64.197 28.3653 64.079 28.2473C63.9609 28.1292 63.8806 27.9789 63.848 27.8152C63.8154 27.6515 63.8322 27.4818 63.896 27.3276C63.9599 27.1734 64.0681 27.0416 64.2068 26.9489C64.3456 26.8561 64.5088 26.8066 64.6757 26.8066C64.8993 26.8072 65.1137 26.8962 65.2719 27.0544C65.43 27.2125 65.5191 27.4269 65.5196 27.6505Z" fill="#92E3A9"/>
<path d="M65.1937 29.5793C65.1941 29.6597 65.1706 29.7383 65.1262 29.8053C65.0818 29.8723 65.0185 29.9245 64.9443 29.9555C64.8702 29.9864 64.7885 29.9946 64.7096 29.979C64.6308 29.9634 64.5584 29.9248 64.5016 29.8679C64.4447 29.8111 64.4061 29.7387 64.3905 29.6599C64.3749 29.581 64.3831 29.4994 64.414 29.4252C64.445 29.351 64.4972 29.2877 64.5642 29.2433C64.6312 29.1989 64.7099 29.1754 64.7902 29.1758C64.8971 29.1763 64.9994 29.219 65.075 29.2945C65.1505 29.3701 65.1932 29.4724 65.1937 29.5793Z" fill="#92E3A9"/>
<path d="M64.0026 28.6655C64.0026 28.7246 63.985 28.7823 63.9522 28.8314C63.9194 28.8806 63.8727 28.9189 63.8181 28.9415C63.7635 28.9641 63.7035 28.97 63.6455 28.9585C63.5875 28.947 63.5343 28.9185 63.4925 28.8767C63.4508 28.8349 63.4223 28.7817 63.4108 28.7238C63.3992 28.6658 63.4052 28.6057 63.4278 28.5511C63.4504 28.4965 63.4887 28.4499 63.5378 28.4171C63.5869 28.3842 63.6447 28.3667 63.7038 28.3667C63.7431 28.3664 63.7821 28.374 63.8184 28.3889C63.8548 28.4038 63.8878 28.4258 63.9156 28.4536C63.9434 28.4814 63.9654 28.5145 63.9803 28.5508C63.9953 28.5872 64.0028 28.6262 64.0026 28.6655Z" fill="#92E3A9"/>
<path d="M65.7464 26.6227C65.7464 26.7321 65.714 26.839 65.6532 26.9299C65.5925 27.0208 65.5061 27.0917 65.4051 27.1335C65.3041 27.1754 65.1929 27.1863 65.0857 27.165C64.9784 27.1437 64.8799 27.091 64.8026 27.0137C64.7252 26.9364 64.6726 26.8378 64.6512 26.7306C64.6299 26.6233 64.6409 26.5122 64.6827 26.4111C64.7246 26.3101 64.7954 26.2238 64.8863 26.163C64.9773 26.1022 65.0842 26.0698 65.1935 26.0698C65.3402 26.0698 65.4808 26.1281 65.5845 26.2318C65.6882 26.3355 65.7464 26.4761 65.7464 26.6227Z" fill="#92E3A9"/>
<path d="M66.2567 24.6886C66.2567 24.7435 66.2404 24.7972 66.2099 24.8429C66.1793 24.8885 66.1358 24.9241 66.085 24.945C66.0342 24.966 65.9784 24.9714 65.9245 24.9605C65.8706 24.9496 65.8212 24.923 65.7825 24.884C65.7438 24.845 65.7175 24.7954 65.707 24.7415C65.6965 24.6875 65.7023 24.6317 65.7236 24.581C65.7449 24.5304 65.7807 24.4872 65.8266 24.4569C65.8725 24.4267 65.9263 24.4108 65.9813 24.4111C66.0545 24.4117 66.1246 24.4411 66.1762 24.4931C66.2278 24.545 66.2567 24.6153 66.2567 24.6886Z" fill="#92E3A9"/>
<path d="M66.119 29.2726C66.1187 29.3524 66.0947 29.4302 66.0501 29.4963C66.0055 29.5624 65.9424 29.6138 65.8686 29.6441C65.7948 29.6743 65.7138 29.682 65.6356 29.6662C65.5575 29.6504 65.4858 29.6119 65.4295 29.5554C65.3733 29.4988 65.335 29.4269 65.3196 29.3487C65.3042 29.2705 65.3123 29.1895 65.3429 29.1158C65.3735 29.0422 65.4252 28.9793 65.4915 28.9351C65.5579 28.8908 65.6358 28.8672 65.7155 28.8672C65.7687 28.8672 65.8213 28.8777 65.8704 28.8981C65.9195 28.9185 65.964 28.9484 66.0015 28.9861C66.039 29.0237 66.0687 29.0684 66.0889 29.1176C66.1091 29.1668 66.1193 29.2195 66.119 29.2726Z" fill="#92E3A9"/>
<path d="M65.7039 28.5374C65.7039 28.6721 65.664 28.8037 65.5892 28.9157C65.5143 29.0277 65.408 29.115 65.2836 29.1665C65.1591 29.218 65.0222 29.2315 64.8901 29.2052C64.758 29.179 64.6367 29.1141 64.5415 29.0189C64.4463 28.9237 64.3814 28.8023 64.3551 28.6702C64.3289 28.5381 64.3423 28.4012 64.3939 28.2768C64.4454 28.1524 64.5327 28.046 64.6447 27.9712C64.7566 27.8964 64.8883 27.8564 65.023 27.8564C65.2036 27.8564 65.3768 27.9282 65.5045 28.0559C65.6322 28.1836 65.7039 28.3568 65.7039 28.5374Z" fill="#92E3A9"/>
<path d="M64.2468 29.6235C64.5468 29.6235 64.79 29.3803 64.79 29.0803C64.79 28.7803 64.5468 28.5371 64.2468 28.5371C63.9468 28.5371 63.7036 28.7803 63.7036 29.0803C63.7036 29.3803 63.9468 29.6235 64.2468 29.6235Z" fill="#92E3A9"/>
<path d="M67.1103 26.1649C67.1103 26.2693 67.0793 26.3713 67.0214 26.4581C66.9634 26.5448 66.881 26.6125 66.7845 26.6524C66.6881 26.6923 66.582 26.7028 66.4797 26.6824C66.3773 26.6621 66.2833 26.6118 66.2095 26.538C66.1357 26.4642 66.0854 26.3702 66.0651 26.2678C66.0447 26.1655 66.0552 26.0594 66.0951 25.963C66.135 25.8665 66.2027 25.7841 66.2894 25.7261C66.3762 25.6682 66.4782 25.6372 66.5826 25.6372C66.7226 25.6372 66.8568 25.6928 66.9557 25.7918C67.0547 25.8907 67.1103 26.0249 67.1103 26.1649Z" fill="#92E3A9"/>
<path d="M66.5497 28.6654C66.7137 28.6654 66.8466 28.5325 66.8466 28.3686C66.8466 28.2047 66.7137 28.0718 66.5497 28.0718C66.3858 28.0718 66.2529 28.2047 66.2529 28.3686C66.2529 28.5325 66.3858 28.6654 66.5497 28.6654Z" fill="#92E3A9"/>
<path d="M67.7679 23.992C67.7679 24.0687 67.7452 24.1438 67.7026 24.2076C67.6599 24.2714 67.5993 24.3211 67.5284 24.3505C67.4575 24.3798 67.3795 24.3875 67.3042 24.3725C67.229 24.3576 67.1599 24.3206 67.1056 24.2664C67.0513 24.2121 67.0144 24.143 66.9994 24.0677C66.9844 23.9924 66.9921 23.9144 67.0215 23.8435C67.0508 23.7726 67.1006 23.712 67.1644 23.6694C67.2282 23.6268 67.3032 23.604 67.3799 23.604C67.4828 23.604 67.5815 23.6449 67.6543 23.7176C67.7271 23.7904 67.7679 23.8891 67.7679 23.992Z" fill="#92E3A9"/>
<path d="M69.5431 22.6765C69.5431 22.7418 69.5238 22.8056 69.4874 22.8599C69.4511 22.9142 69.3995 22.9565 69.3391 22.9814C69.2787 23.0063 69.2123 23.0127 69.1483 22.9998C69.0843 22.9869 69.0255 22.9553 68.9795 22.909C68.9334 22.8627 68.9022 22.8037 68.8896 22.7396C68.8771 22.6755 68.884 22.6092 68.9092 22.5489C68.9345 22.4887 68.977 22.4373 69.0315 22.4013C69.086 22.3653 69.15 22.3463 69.2153 22.3467C69.2585 22.3467 69.3013 22.3552 69.3412 22.3718C69.3811 22.3884 69.4173 22.4127 69.4478 22.4434C69.4783 22.474 69.5024 22.5104 69.5187 22.5504C69.5351 22.5904 69.5434 22.6333 69.5431 22.6765Z" fill="#92E3A9"/>
<path d="M68.1619 25.0121C68.1619 25.0579 68.1483 25.1026 68.1229 25.1406C68.0974 25.1786 68.0612 25.2082 68.0189 25.2256C67.9767 25.243 67.9301 25.2475 67.8853 25.2384C67.8405 25.2293 67.7993 25.2071 67.7671 25.1747C67.7349 25.1422 67.7131 25.1009 67.7044 25.056C67.6957 25.011 67.7006 24.9646 67.7183 24.9224C67.7361 24.8803 67.766 24.8444 67.8042 24.8192C67.8424 24.7941 67.8873 24.7809 67.933 24.7813C67.9632 24.7813 67.9931 24.7872 68.0211 24.7989C68.049 24.8105 68.0743 24.8275 68.0956 24.849C68.1168 24.8705 68.1337 24.8959 68.145 24.9239C68.1564 24.9519 68.1622 24.9819 68.1619 25.0121Z" fill="#92E3A9"/>
<path d="M63.1371 30.291H64.9045L65.4923 50.8104H62.5474L63.1371 30.291Z" fill="#263238" stroke="#263238" stroke-linecap="round" stroke-linejoin="round"/>
<path d="M59.0517 32.9507H60.819L61.4068 53.472H58.4619L59.0517 32.9507Z" fill="#263238" stroke="#263238" stroke-linecap="round" stroke-linejoin="round"/>
<path d="M54.966 35.6104H56.7333L57.3231 56.1317H54.3782L54.966 35.6104Z" fill="#263238" stroke="#263238" stroke-linecap="round" stroke-linejoin="round"/>
<path d="M66.9086 43.3979H44.0476V61.0694H66.9086V43.3979Z" fill="white" stroke="#263238" stroke-linecap="round" stroke-linejoin="round"/>
<path d="M66.9086 43.3979H44.0476V45.7104H66.9086V43.3979Z" fill="#263238" stroke="#263238" stroke-linecap="round" stroke-linejoin="round"/>
<path d="M67.6789 43.3979H43.2737V45.1575H67.6789V43.3979Z" fill="white" stroke="#263238" stroke-linecap="round" stroke-linejoin="round"/>
<path d="M46.9072 49.8403H32.0022V61.071H46.9072V49.8403Z" fill="white" stroke="#263238" stroke-linecap="round" stroke-linejoin="round"/>
<path d="M47.3223 49.4932H31.5869V50.9482H47.3223V49.4932Z" fill="white" stroke="#263238" stroke-linecap="round" stroke-linejoin="round"/>
<path d="M34.4292 51.4624H32.5571V53.3345H34.4292V51.4624Z" fill="#263238" stroke="#263238" stroke-linecap="round" stroke-linejoin="round"/>
<path d="M37.4109 51.4624H35.5388V53.3345H37.4109V51.4624Z" fill="#263238" stroke="#263238" stroke-linecap="round" stroke-linejoin="round"/>
<path d="M40.3907 51.4624H38.5186V53.3345H40.3907V51.4624Z" fill="#263238" stroke="#263238" stroke-linecap="round" stroke-linejoin="round"/>
<path d="M43.3726 51.4624H41.5005V53.3345H43.3726V51.4624Z" fill="#263238" stroke="#263238" stroke-linecap="round" stroke-linejoin="round"/>
<path d="M46.3523 51.4624H44.4802V53.3345H46.3523V51.4624Z" fill="#263238" stroke="#263238" stroke-linecap="round" stroke-linejoin="round"/>
<path d="M34.4292 54.2344H32.5571V56.1065H34.4292V54.2344Z" fill="#263238" stroke="#263238" stroke-linecap="round" stroke-linejoin="round"/>
<path d="M37.4109 54.2344H35.5388V56.1065H37.4109V54.2344Z" fill="#263238" stroke="#263238" stroke-linecap="round" stroke-linejoin="round"/>
<path d="M40.3907 54.2344H38.5186V56.1065H40.3907V54.2344Z" fill="#263238" stroke="#263238" stroke-linecap="round" stroke-linejoin="round"/>
<path d="M43.3726 54.2344H41.5005V56.1065H43.3726V54.2344Z" fill="#263238" stroke="#263238" stroke-linecap="round" stroke-linejoin="round"/>
<path d="M34.4292 56.8691H32.5571V58.7412H34.4292V56.8691Z" fill="#263238" stroke="#263238" stroke-linecap="round" stroke-linejoin="round"/>
<path d="M37.4109 56.8691H35.5388V58.7412H37.4109V56.8691Z" fill="#263238" stroke="#263238" stroke-linecap="round" stroke-linejoin="round"/>
<path d="M40.3907 56.8691H38.5186V58.7412H40.3907V56.8691Z" fill="#263238" stroke="#263238" stroke-linecap="round" stroke-linejoin="round"/>
<path d="M43.3726 56.8691H41.5005V58.7412H43.3726V56.8691Z" fill="#263238" stroke="#263238" stroke-linecap="round" stroke-linejoin="round"/>
<path d="M78.7949 49.8403H63.8899V61.071H78.7949V49.8403Z" fill="white" stroke="#263238" stroke-linecap="round" stroke-linejoin="round"/>
<path d="M79.2102 49.4932H63.4749V50.9482H79.2102V49.4932Z" fill="white" stroke="#263238" stroke-linecap="round" stroke-linejoin="round"/>
<path d="M66.3169 51.4624H64.4448V53.3345H66.3169V51.4624Z" fill="#263238" stroke="#263238" stroke-linecap="round" stroke-linejoin="round"/>
<path d="M69.2986 51.4624H67.4265V53.3345H69.2986V51.4624Z" fill="#263238" stroke="#263238" stroke-linecap="round" stroke-linejoin="round"/>
<path d="M72.2786 51.4624H70.4065V53.3345H72.2786V51.4624Z" fill="#263238" stroke="#263238" stroke-linecap="round" stroke-linejoin="round"/>
<path d="M75.2603 51.4624H73.3882V53.3345H75.2603V51.4624Z" fill="#263238" stroke="#263238" stroke-linecap="round" stroke-linejoin="round"/>
<path d="M78.24 51.4624H76.3679V53.3345H78.24V51.4624Z" fill="#263238" stroke="#263238" stroke-linecap="round" stroke-linejoin="round"/>
<path d="M69.2986 54.2344H67.4265V56.1065H69.2986V54.2344Z" fill="#263238" stroke="#263238" stroke-linecap="round" stroke-linejoin="round"/>
<path d="M72.2786 54.2344H70.4065V56.1065H72.2786V54.2344Z" fill="#263238" stroke="#263238" stroke-linecap="round" stroke-linejoin="round"/>
<path d="M75.2603 54.2344H73.3882V56.1065H75.2603V54.2344Z" fill="#263238" stroke="#263238" stroke-linecap="round" stroke-linejoin="round"/>
<path d="M78.24 54.2344H76.3679V56.1065H78.24V54.2344Z" fill="#263238" stroke="#263238" stroke-linecap="round" stroke-linejoin="round"/>
<path d="M69.2986 56.8691H67.4265V58.7412H69.2986V56.8691Z" fill="#263238" stroke="#263238" stroke-linecap="round" stroke-linejoin="round"/>
<path d="M72.2786 56.8691H70.4065V58.7412H72.2786V56.8691Z" fill="#263238" stroke="#263238" stroke-linecap="round" stroke-linejoin="round"/>
<path d="M75.2603 56.8691H73.3882V58.7412H75.2603V56.8691Z" fill="#263238" stroke="#263238" stroke-linecap="round" stroke-linejoin="round"/>
<path d="M78.24 56.8691H76.3679V58.7412H78.24V56.8691Z" fill="#263238" stroke="#263238" stroke-linecap="round" stroke-linejoin="round"/>
<path d="M64.8618 56.0098H46.3523V61.0712H64.8618V56.0098Z" fill="white" stroke="#263238" stroke-linecap="round" stroke-linejoin="round"/>
<path d="M64.8618 56.0098H46.3523V57.3115H64.8618V56.0098Z" fill="#263238" stroke="#263238" stroke-linecap="round" stroke-linejoin="round"/>
<path d="M65.4847 54.2075H45.7278V56.842H65.4847V54.2075Z" fill="white" stroke="#263238" stroke-linecap="round" stroke-linejoin="round"/>
<path d="M55.0163 57.397H47.3223V61.0713H55.0163V57.397Z" fill="white" stroke="#263238" stroke-linecap="round" stroke-linejoin="round"/>
<path d="M63.8898 57.397H56.1958V61.0713H63.8898V57.397Z" fill="white" stroke="#263238" stroke-linecap="round" stroke-linejoin="round"/>
<path d="M47.334 57.8389H54.9834" stroke="#263238" stroke-linecap="round" stroke-linejoin="round"/>
<path d="M47.334 58.2524H54.9834" stroke="#263238" stroke-linecap="round" stroke-linejoin="round"/>
<path d="M47.334 58.6636H54.9834" stroke="#263238" stroke-linecap="round" stroke-linejoin="round"/>
<path d="M47.334 59.0767H54.9834" stroke="#263238" stroke-linecap="round" stroke-linejoin="round"/>
<path d="M47.334 59.4883H54.9834" stroke="#263238" stroke-linecap="round" stroke-linejoin="round"/>
<path d="M47.334 59.9014H54.9834" stroke="#263238" stroke-linecap="round" stroke-linejoin="round"/>
<path d="M47.334 60.3125H54.9834" stroke="#263238" stroke-linecap="round" stroke-linejoin="round"/>
<path d="M47.334 60.7256H54.9834" stroke="#263238" stroke-linecap="round" stroke-linejoin="round"/>
<path d="M56.2095 57.8389H63.8589" stroke="#263238" stroke-linecap="round" stroke-linejoin="round"/>
<path d="M56.2095 58.2524H63.8589" stroke="#263238" stroke-linecap="round" stroke-linejoin="round"/>
<path d="M56.2095 58.6636H63.8589" stroke="#263238" stroke-linecap="round" stroke-linejoin="round"/>
<path d="M56.2095 59.0767H63.8589" stroke="#263238" stroke-linecap="round" stroke-linejoin="round"/>
<path d="M56.2095 59.4883H63.8589" stroke="#263238" stroke-linecap="round" stroke-linejoin="round"/>
<path d="M56.2095 59.9014H63.8589" stroke="#263238" stroke-linecap="round" stroke-linejoin="round"/>
<path d="M56.2095 60.3125H63.8589" stroke="#263238" stroke-linecap="round" stroke-linejoin="round"/>
<path d="M56.2095 60.7256H63.8589" stroke="#263238" stroke-linecap="round" stroke-linejoin="round"/>
<path d="M52.6962 47.2329H49.9802V53.0529H52.6962V47.2329Z" fill="#263238" stroke="#263238" stroke-linecap="round" stroke-linejoin="round"/>
<path d="M56.8342 47.2329H54.1182V53.0529H56.8342V47.2329Z" fill="#263238" stroke="#263238" stroke-linecap="round" stroke-linejoin="round"/>
<path d="M60.9741 47.2329H58.2581V53.0529H60.9741V47.2329Z" fill="#263238" stroke="#263238" stroke-linecap="round" stroke-linejoin="round"/>
<path d="M88.2195 61.0713H88.9703" stroke="#263238" stroke-linecap="round" stroke-linejoin="round"/>
<path d="M9.58936 61.0713H87.4338" stroke="#263238" stroke-linecap="round" stroke-linejoin="round"/>
<path d="M6.62891 62.2524H90.92" stroke="#263238" stroke-linecap="round" stroke-linejoin="round"/>
<path d="M7.34082 61.0713H8.27978" stroke="#263238" stroke-linecap="round" stroke-linejoin="round"/>
</svg>
