<svg width="99" height="99" viewBox="0 0 99 99" fill="none" xmlns="http://www.w3.org/2000/svg">
<path d="M76.4279 25.5776C75.7993 24.3318 75.106 23.1197 74.3509 21.9463C65.538 8.49217 41.9027 1.16815 30.1949 15.0757C27.4051 18.3882 26.4329 22.4017 24.5539 26.1954C20.2831 34.848 12.3017 40.0098 7.29625 48.0149C3.41743 54.2203 3.93025 62.1739 6.09835 68.8822C8.45059 76.1706 12.5888 81.2611 19.2059 85.14C26.627 89.4781 34.5648 88.2743 42.5858 86.7635C46.1933 86.0844 49.9118 85.3914 53.6005 85.6508C58.2199 85.9755 62.7798 87.2823 67.3615 87.9179C72.1254 88.5792 77.0635 88.7356 81.6591 87.2962C96.3606 82.6848 99.8415 61.077 93.7965 48.6981C91.6581 44.3163 88.0307 40.9364 84.6628 37.5071C81.0314 33.7966 78.8039 30.1732 76.4279 25.5776Z" fill="#92E3A9"/>
<path opacity="0.8" d="M76.4279 25.5776C75.7993 24.3318 75.106 23.1197 74.3509 21.9463C65.538 8.49217 41.9027 1.16815 30.1949 15.0757C27.4051 18.3882 26.4329 22.4017 24.5539 26.1954C20.2831 34.848 12.3017 40.0098 7.29625 48.0149C3.41743 54.2203 3.93025 62.1739 6.09835 68.8822C8.45059 76.1706 12.5888 81.2611 19.2059 85.14C26.627 89.4781 34.5648 88.2743 42.5858 86.7635C46.1933 86.0844 49.9118 85.3914 53.6005 85.6508C58.2199 85.9755 62.7798 87.2823 67.3615 87.9179C72.1254 88.5792 77.0635 88.7356 81.6591 87.2962C96.3606 82.6848 99.8415 61.077 93.7965 48.6981C91.6581 44.3163 88.0307 40.9364 84.6628 37.5071C81.0314 33.7966 78.8039 30.1732 76.4279 25.5776Z" fill="white"/>
<path d="M92.5847 51.0364C91.8046 50.9057 90.3413 49.8998 90.3394 49.8998C90.3374 49.8998 91.2957 49.1356 91.361 49.096C92.1332 48.6267 93.8994 48.1753 94.6637 48.8366C94.7874 48.9502 94.8859 49.0885 94.9528 49.2426C95.0197 49.3967 95.0535 49.5631 95.052 49.7311C95.0505 49.8991 95.0138 50.0649 94.9442 50.2178C94.8745 50.3706 94.7736 50.5072 94.6478 50.6186C94.1271 51.1076 93.2579 51.1492 92.5847 51.0364Z" fill="#92E3A9"/>
<path d="M89.2582 55.0043C88.5692 54.6835 87.494 53.4321 87.4089 53.3331C86.6946 53.9484 85.9406 54.5159 85.1517 55.032C84.6923 55.3349 84.2211 55.626 83.7459 55.9111C83.9815 55.8121 84.1954 55.727 84.2251 55.7131C85.0943 55.4656 86.9179 55.4973 87.4782 56.3368C87.5691 56.4784 87.629 56.6378 87.6537 56.8042C87.6784 56.9707 87.6675 57.1405 87.6216 57.3025C87.5757 57.4644 87.496 57.6147 87.3876 57.7435C87.2793 57.8723 87.1448 57.9766 86.9931 58.0495C86.3635 58.3841 85.5041 58.194 84.8923 57.9089C84.2805 57.6238 83.336 56.5724 83.0905 56.2913L82.5401 56.6279C81.657 57.1407 80.7739 57.6495 79.9206 58.1742C79.6216 58.3604 79.3265 58.5524 79.0414 58.7445C79.2533 58.6574 79.4374 58.5861 79.4592 58.5782C80.3264 58.3307 82.15 58.3623 82.7123 59.2019C82.8032 59.3436 82.8629 59.503 82.8875 59.6696C82.9121 59.8362 82.901 60.0061 82.8549 60.168C82.8089 60.33 82.7289 60.4803 82.6204 60.609C82.5118 60.7377 82.3771 60.8419 82.2253 60.9146C81.5956 61.2492 80.7383 61.0591 80.1265 60.774C79.5146 60.4889 78.6593 59.5404 78.3682 59.2078C78.0772 59.4058 77.7861 59.6196 77.5129 59.8315C77.3307 59.98 77.1446 60.1107 76.9684 60.2711L76.4437 60.7324C76.1209 61.0373 75.7843 61.3502 75.4774 61.6551C75.2616 61.865 75.0596 62.0709 74.8557 62.2748C75.1527 62.0887 75.7408 61.7323 75.7942 61.7085C76.6139 61.3323 78.4217 61.0868 79.1048 61.8313C79.2148 61.9583 79.2969 62.1071 79.3457 62.2679C79.3945 62.4287 79.409 62.598 79.388 62.7648C79.3671 62.9316 79.3113 63.0921 79.2243 63.2359C79.1373 63.3797 79.021 63.5035 78.883 63.5994C78.3108 64.0251 77.4337 63.9657 76.7862 63.7776C76.0734 63.5796 74.8656 62.5441 74.7171 62.4154C74.3805 62.7579 74.0578 63.0926 73.7568 63.4054C73.4928 63.6918 73.2394 63.9677 72.9965 64.233L72.4678 63.8865C72.7351 63.6014 73.0202 63.3044 73.3271 62.9916C73.6657 62.6431 74.036 62.2788 74.4201 61.9065C74.1268 61.4895 73.859 61.0551 73.6182 60.6057C72.8777 60.7918 71.4085 60.6156 71.2204 60.5898C71.1274 61.0611 71.0442 61.5185 70.9709 61.9521C70.9195 62.2511 70.8739 62.5461 70.8304 62.8154L70.2681 62.4471C70.3037 62.2491 70.3413 62.0511 70.3809 61.8531C70.472 61.3759 70.5789 60.8631 70.6937 60.3463C70.5136 60.275 69.0385 59.687 68.5157 59.1583C68.0485 58.6732 67.5852 57.9267 67.6941 57.2199C67.713 57.0527 67.7672 56.8914 67.8531 56.7468C67.9391 56.6021 68.0548 56.4773 68.1925 56.3808C68.3303 56.2842 68.487 56.2179 68.6523 56.1865C68.8176 56.155 68.9877 56.159 69.1513 56.1982C70.1294 56.4536 70.7591 58.1643 70.8086 59.0652C70.8086 59.1187 70.7809 59.7008 70.7551 60.0651C70.8026 59.8533 70.8462 59.6454 70.8997 59.4276C70.9987 58.994 71.1115 58.5663 71.2323 58.1049C71.2976 57.8832 71.363 57.6594 71.4303 57.4337C71.4976 57.208 71.5847 56.9803 71.662 56.7506C71.86 56.22 72.0718 55.6933 72.3035 55.1666C71.9253 55.0795 70.5848 54.7449 70.0463 54.335C69.5077 53.9252 68.9375 53.2579 68.9395 52.553C68.9327 52.3847 68.9618 52.2169 69.0248 52.0606C69.0879 51.9044 69.1834 51.7634 69.3052 51.6469C69.4269 51.5305 69.572 51.4412 69.7308 51.3851C69.8896 51.329 70.0586 51.3073 70.2265 51.3215C71.2303 51.4244 72.1114 53.0223 72.2995 53.8955C72.3114 53.9509 72.3728 54.5984 72.4005 54.9567C72.5431 54.6419 72.6836 54.3251 72.8381 54.0123C73.2816 53.1054 73.7608 52.2006 74.2241 51.2957C74.3706 51.0185 74.5112 50.7413 74.6537 50.4641C74.5191 50.4344 72.9173 50.0681 72.3134 49.6127C71.7768 49.2048 71.2046 48.5356 71.2066 47.8307C71.1998 47.6626 71.2289 47.4949 71.2918 47.3389C71.3547 47.1828 71.4501 47.0419 71.5716 46.9254C71.6931 46.809 71.8379 46.7197 71.9965 46.6634C72.1551 46.6072 72.3239 46.5853 72.4916 46.5992C73.4974 46.7021 74.3785 48.3 74.5646 49.1831C74.5805 49.2484 74.6696 50.183 74.6795 50.4206C74.9923 49.8107 75.2992 49.1989 75.5784 48.5831C75.9578 47.7538 76.2826 46.9006 76.5506 46.0289C76.4892 46.0151 74.8161 45.6448 74.1964 45.1755C73.6598 44.7677 73.0876 44.0984 73.0896 43.3935C73.0847 43.2257 73.1151 43.0587 73.1788 42.9034C73.2425 42.7481 73.3381 42.6078 73.4594 42.4918C73.5807 42.3757 73.725 42.2863 73.883 42.2295C74.0409 42.1727 74.2091 42.1497 74.3766 42.162C75.3824 42.2669 76.2615 43.8628 76.4496 44.736C76.4635 44.8053 76.5585 45.8111 76.5625 45.9933C76.5783 45.9438 76.6001 45.8923 76.6139 45.8428C76.8599 44.9611 77.0269 44.0593 77.1129 43.148C77.1664 42.6471 77.1901 42.158 77.202 41.6927C76.8832 41.6551 75.42 41.469 74.826 41.1086C74.232 40.7483 73.6063 40.1602 73.5311 39.4494C73.5061 39.283 73.5167 39.1133 73.5622 38.9513C73.6077 38.7894 73.6871 38.6389 73.7951 38.51C73.9031 38.381 74.0372 38.2764 74.1887 38.2032C74.3401 38.13 74.5054 38.0897 74.6736 38.0852C75.6833 38.0852 76.7347 39.5682 77.0179 40.4255C77.0317 40.4711 77.1367 40.9641 77.2159 41.3225C77.2159 41.1086 77.2159 40.8908 77.2159 40.6869C77.2159 39.9226 77.1584 39.2217 77.107 38.6039C77.0753 38.2515 77.0396 37.9327 77.002 37.6357C76.709 37.4377 75.5348 36.618 75.1725 36.0299C74.8102 35.4419 74.527 34.6261 74.7864 33.9608C74.8395 33.8007 74.9262 33.6537 75.0405 33.5297C75.1549 33.4057 75.2944 33.3074 75.4496 33.2415C75.6049 33.1755 75.7725 33.1434 75.9411 33.1473C76.1098 33.1511 76.2757 33.1909 76.4278 33.2639C77.3287 33.7232 77.5742 35.531 77.4297 36.422C77.4178 36.4992 77.0852 37.6812 77.0693 37.6713L77.0515 37.6595C77.0931 37.9426 77.1327 38.2535 77.1703 38.5841C77.2357 39.2039 77.303 39.9048 77.3248 40.671C77.3571 41.4982 77.3419 42.3266 77.2792 43.152C77.2117 44.0761 77.0626 44.9925 76.8337 45.8903C76.8326 45.9009 76.8326 45.9115 76.8337 45.922C76.9901 45.6705 77.4554 44.9835 77.497 44.932C78.091 44.2469 79.6216 43.2648 80.5541 43.6569C80.7081 43.725 80.8458 43.825 80.9581 43.9504C81.0705 44.0757 81.1549 44.2235 81.2059 44.3839C81.2568 44.5444 81.273 44.7138 81.2535 44.881C81.234 45.0482 81.1792 45.2093 81.0927 45.3537C80.7521 45.9814 79.9324 46.2942 79.2652 46.3952C78.5128 46.5081 76.9268 46.0566 76.8001 46.021C76.5441 46.9288 76.228 47.8184 75.8536 48.6841C75.6378 49.189 75.4061 49.6919 75.1666 50.1929C75.3091 49.979 75.4398 49.7969 75.4616 49.7672C76.0556 49.0801 77.5861 48.102 78.5187 48.492C78.6726 48.5601 78.8104 48.6602 78.9227 48.7855C79.0351 48.9109 79.1195 49.0587 79.1704 49.2191C79.2213 49.3795 79.2376 49.549 79.2181 49.7162C79.1986 49.8834 79.1438 50.0445 79.0573 50.1889C78.7167 50.8166 77.895 51.1294 77.2277 51.2304C76.5605 51.3314 75.1923 50.975 74.8339 50.876C74.7389 51.074 74.6478 51.2581 74.5528 51.4482C74.0993 52.3649 73.642 53.2757 73.2222 54.1845C73.0737 54.5033 72.9391 54.8241 72.8024 55.1448C72.9311 54.9567 73.04 54.7983 73.0579 54.7766C73.6519 54.0895 75.1844 53.1114 76.117 53.5014C76.2709 53.5695 76.4086 53.6696 76.521 53.7949C76.6333 53.9203 76.7178 54.0681 76.7687 54.2285C76.8196 54.3889 76.8358 54.5584 76.8163 54.7256C76.7968 54.8928 76.742 55.0539 76.6555 55.1983C76.315 55.826 75.4933 56.1388 74.826 56.2398C74.1587 56.3408 72.9232 56.018 72.4956 55.9012C72.3669 56.2338 72.2362 56.5665 72.1273 56.8912C72.056 57.1169 71.9748 57.3288 71.9154 57.5604C71.856 57.7921 71.7926 58.0119 71.7313 58.2336C71.6303 58.6653 71.5333 59.1108 71.4343 59.5365C71.3709 59.8315 71.3155 60.1127 71.26 60.3958C71.4026 60.077 71.6996 59.4553 71.7293 59.4058C72.1735 58.7474 72.7787 58.2137 73.4875 57.8555C73.5334 57.7799 73.5864 57.709 73.6459 57.6436C73.754 57.5142 73.8884 57.4092 74.0402 57.3357C74.1919 57.2622 74.3576 57.2219 74.5262 57.2174C74.6948 57.2129 74.8624 57.2444 75.0178 57.3097C75.1733 57.3749 75.3131 57.4726 75.4279 57.5961C76.1031 58.3485 75.6833 60.1226 75.2299 60.9027C75.2042 60.9482 74.8577 61.4155 74.6359 61.7046C74.7923 61.5541 74.9448 61.4056 75.1072 61.2531C75.4299 60.9482 75.7606 60.6591 76.115 60.3324L76.6496 59.883C76.8258 59.7305 77.0317 59.5899 77.2218 59.4414C77.6732 59.1048 78.1465 58.7861 78.6296 58.4752C78.3623 58.1921 77.4297 57.1743 77.206 56.5348C76.9822 55.8953 76.8753 55.026 77.2713 54.432C77.3584 54.2882 77.4751 54.1644 77.6136 54.069C77.7521 53.9736 77.9092 53.9087 78.0747 53.8786C78.2402 53.8484 78.4101 53.8538 78.5734 53.8942C78.7366 53.9347 78.8894 54.0093 79.0216 54.1133C79.8037 54.7548 79.6572 56.5724 79.3265 57.4119C79.3048 57.4654 78.9998 58.0396 78.8256 58.3544C79.1186 58.1683 79.4097 57.9842 79.7107 57.806C80.5819 57.2951 81.4808 56.8041 82.3738 56.3111C82.647 56.1606 82.9183 56.0061 83.1895 55.8537C83.0945 55.7547 81.958 54.5687 81.7065 53.8519C81.4847 53.2163 81.3778 52.3431 81.7718 51.7491C81.8589 51.605 81.9757 51.481 82.1143 51.3854C82.253 51.2897 82.4104 51.2247 82.5761 51.1946C82.7418 51.1644 82.912 51.1698 83.0755 51.2105C83.2389 51.2512 83.3919 51.3261 83.5241 51.4304C84.3062 52.0719 84.1597 53.8895 83.8271 54.729C83.8033 54.7924 83.3618 55.622 83.2331 55.826C83.8271 55.4894 84.4211 55.1488 84.9973 54.7884C85.7701 54.3082 86.5114 53.7791 87.2168 53.2044C87.1733 53.1569 85.9813 51.9254 85.7259 51.1908C85.5022 50.5552 85.3952 49.682 85.7893 49.088C85.8764 48.9439 85.9931 48.8199 86.1317 48.7242C86.2704 48.6286 86.4278 48.5636 86.5935 48.5334C86.7592 48.5033 86.9295 48.5087 87.0929 48.5494C87.2564 48.59 87.4093 48.665 87.5416 48.7692C88.3237 49.4108 88.1771 51.2284 87.8445 52.0679C87.8188 52.1352 87.3436 53.0262 87.2505 53.1807C87.2921 53.147 87.3376 53.1153 87.3772 53.0817C88.0689 52.48 88.7051 51.8174 89.278 51.1017C89.6008 50.7057 89.8859 50.3235 90.1571 49.9374C89.9116 49.7295 88.8008 48.7732 88.4959 48.1376C88.191 47.502 88.0029 46.6744 88.3296 46.0408C88.4012 45.8895 88.504 45.755 88.6312 45.6462C88.7584 45.5374 88.9072 45.4566 89.0678 45.4093C89.2284 45.362 89.3972 45.3492 89.5631 45.3717C89.729 45.3942 89.8882 45.4515 90.0304 45.5399C90.8779 46.0923 90.9313 47.9159 90.6937 48.7851C90.6818 48.8326 90.4957 49.2999 90.3571 49.6385C90.4759 49.4622 90.6026 49.2821 90.7135 49.1118C91.1313 48.4703 91.4738 47.8584 91.7728 47.3139C91.9411 47.0031 92.0857 46.7199 92.2183 46.4507C92.0837 46.122 91.557 44.7914 91.5788 44.1004C91.6006 43.4094 91.8144 42.5738 92.3985 42.162C92.5317 42.0591 92.6852 41.9857 92.8489 41.9466C93.0126 41.9075 93.1828 41.9037 93.3481 41.9353C93.5134 41.967 93.6701 42.0334 93.8078 42.1301C93.9455 42.2269 94.0611 42.3518 94.1468 42.4966C94.6438 43.3777 93.8518 45.0191 93.24 45.6844C93.1885 45.7398 92.25 46.5437 92.25 46.5259V46.5061C92.1272 46.7655 91.9926 47.0447 91.8382 47.3436C91.5511 47.8961 91.2204 48.5178 90.8165 49.1712C90.3874 49.8785 89.9173 50.5601 89.4087 51.2126C88.8434 51.9468 88.2139 52.6293 87.5277 53.252L87.502 53.2718C87.7712 53.149 88.5375 52.8342 88.5989 52.8164C89.4681 52.5689 91.2897 52.5986 91.852 53.4381C91.9417 53.5802 92.0005 53.7396 92.0246 53.906C92.0486 54.0723 92.0374 54.2418 91.9917 54.4036C91.9459 54.5653 91.8667 54.7156 91.759 54.8446C91.6514 54.9737 91.5178 55.0787 91.3669 55.1528C90.7274 55.4795 89.87 55.2874 89.2582 55.0043Z" fill="#92E3A9"/>
<path d="M77.3485 41.5381C77.3307 41.5381 77.7247 40.3758 77.7583 40.3045C78.1425 39.4888 79.3661 38.1364 80.37 38.2671C80.5365 38.2921 80.6959 38.3521 80.8375 38.4433C80.9791 38.5346 81.0997 38.6548 81.1912 38.7962C81.2828 38.9376 81.3432 39.0968 81.3686 39.2633C81.3939 39.4298 81.3836 39.5998 81.3382 39.762C81.1738 40.457 80.465 40.9758 79.8492 41.249C79.1245 41.5797 77.3505 41.5381 77.3485 41.5381Z" fill="#92E3A9"/>
<path d="M85.0489 75.8456C84.841 75.5228 84.7202 74.6694 84.7202 74.6694C84.7202 74.6694 85.3142 74.7605 85.3419 74.7704C85.7637 74.8932 86.5042 75.3763 86.5181 75.8673C86.5179 75.9487 86.5007 76.0292 86.4676 76.1035C86.4345 76.1778 86.3861 76.2444 86.3256 76.2988C86.2652 76.3533 86.194 76.3945 86.1166 76.4198C86.0393 76.445 85.9575 76.4538 85.8765 76.4455C85.536 76.4277 85.2271 76.1188 85.0489 75.8456Z" fill="#92E3A9"/>
<path d="M82.54 75.9563C82.4292 75.6039 82.5242 74.8099 82.54 74.7466C82.0855 74.6927 81.6351 74.6087 81.1917 74.4951C80.9343 74.4297 80.6749 74.3565 80.4175 74.2813C80.5284 74.3327 80.6293 74.3802 80.6432 74.3901C81.0154 74.6178 81.6035 75.2811 81.4867 75.7563C81.4662 75.8358 81.4292 75.9099 81.378 75.974C81.3268 76.038 81.2626 76.0905 81.1896 76.1279C81.1166 76.1653 81.0366 76.1869 80.9547 76.1911C80.8728 76.1953 80.7909 76.1821 80.7145 76.1523C80.3878 76.0375 80.1759 75.6672 80.0769 75.3603C79.9779 75.0534 80.0433 74.3704 80.065 74.1842L79.768 74.0951C79.2948 73.9466 78.8236 73.7961 78.3563 73.6655C78.192 73.6179 78.0276 73.5783 77.8633 73.5368C77.9643 73.5843 78.0474 73.6239 78.0613 73.6318C78.4355 73.8615 79.0216 74.5228 78.9048 75C78.8834 75.0785 78.8458 75.1515 78.7943 75.2145C78.7428 75.2774 78.6786 75.3287 78.606 75.3652C78.5333 75.4016 78.4537 75.4223 78.3725 75.4259C78.2912 75.4295 78.2102 75.4159 78.1345 75.3861C77.8078 75.2712 77.594 74.901 77.495 74.5941C77.396 74.2872 77.4574 73.6655 77.4792 73.4516C77.3109 73.414 77.1406 73.3784 76.9762 73.3506C76.8634 73.3328 76.7545 73.3091 76.6396 73.2992L76.303 73.2635C76.0892 73.2477 75.8674 73.2299 75.6576 73.22L75.2299 73.2021C75.3942 73.2457 75.715 73.3407 75.7407 73.3506C76.1367 73.5209 76.8238 74.0872 76.7822 74.5763C76.7728 74.6572 76.7465 74.7352 76.705 74.8053C76.6634 74.8754 76.6076 74.936 76.5411 74.983C76.4746 75.0301 76.3989 75.0626 76.319 75.0785C76.2391 75.0944 76.1568 75.0933 76.0773 75.0752C75.7368 75.0099 75.4714 74.6792 75.3269 74.3842C75.1665 74.0615 75.1388 73.2932 75.1289 73.1962C74.8972 73.1962 74.6715 73.1824 74.4577 73.1804H73.9132L73.8538 72.8636C74.0518 72.8636 74.2498 72.8636 74.4478 72.8774C74.6458 72.8913 74.9349 72.8972 75.1942 72.9131C75.247 72.6713 75.3131 72.4327 75.3922 72.1983C75.0937 71.9486 74.8311 71.6588 74.6121 71.337C74.4141 71.4578 74.2161 71.5785 74.0439 71.6934C73.9191 71.7726 73.8023 71.8498 73.6895 71.927L73.636 71.6043L73.8894 71.4479C74.0874 71.3231 74.3072 71.1944 74.531 71.0657C74.4973 70.9766 74.2221 70.2579 74.2438 69.8975C74.2636 69.5708 74.3785 69.161 74.6676 68.9689C74.7338 68.9214 74.8092 68.8884 74.8891 68.872C74.9689 68.8556 75.0513 68.8561 75.1308 68.8737C75.2104 68.8913 75.2854 68.9254 75.3509 68.9739C75.4164 69.0223 75.471 69.0841 75.511 69.155C75.7407 69.5886 75.3348 70.3727 75.0279 70.6876C75.0101 70.7054 74.7923 70.8856 74.6537 70.9964L74.9289 70.838C75.117 70.7311 75.3071 70.64 75.511 70.5232L75.816 70.3747C75.9169 70.3232 76.0298 70.2817 76.1367 70.2341C76.3882 70.1272 76.6495 70.0361 76.9129 69.9431C76.8198 69.7787 76.501 69.1907 76.4713 68.864C76.4416 68.5373 76.4931 68.1135 76.7485 67.874C76.8069 67.8171 76.8765 67.7732 76.9529 67.7451C77.0293 67.717 77.1108 67.7052 77.192 67.7106C77.2732 67.716 77.3524 67.7385 77.4244 67.7765C77.4964 67.8146 77.5596 67.8673 77.6098 67.9314C77.9029 68.3274 77.6197 69.1629 77.3663 69.5154C77.3505 69.5372 77.1386 69.7728 77.0198 69.8995C77.1782 69.848 77.3366 69.7946 77.501 69.7471C77.9702 69.6085 78.4513 69.4817 78.9285 69.3511L79.3681 69.2323C79.3344 69.1729 78.9384 68.4818 78.9048 68.1155C78.8751 67.7908 78.9265 67.3671 79.182 67.1255C79.2402 67.0686 79.3097 67.0245 79.386 66.9962C79.4623 66.9679 79.5437 66.956 79.625 66.9612C79.7062 66.9665 79.7854 66.9887 79.8575 67.0266C79.9296 67.0644 79.9929 67.117 80.0433 67.181C80.3363 67.577 80.0532 68.4125 79.7997 68.765C79.7799 68.7927 79.475 69.1313 79.3938 69.2124C79.7146 69.1253 80.0353 69.0343 80.3462 68.9313C80.7669 68.7953 81.1783 68.6319 81.5778 68.4422C81.5619 68.4165 81.1461 67.6958 81.1125 67.3196C81.0808 66.9948 81.1342 66.5711 81.3897 66.3296C81.4478 66.2726 81.5174 66.2286 81.5937 66.2003C81.67 66.172 81.7514 66.16 81.8327 66.1653C81.9139 66.1705 81.9931 66.1928 82.0652 66.2306C82.1373 66.2685 82.2006 66.3211 82.251 66.385C82.544 66.781 82.2609 67.6185 82.0074 67.969C81.9876 67.9967 81.6589 68.365 81.5956 68.4204L81.6669 68.3908C82.0612 68.1884 82.4375 67.9525 82.7915 67.6859C82.9895 67.5394 83.1697 67.3889 83.342 67.2404C83.2509 67.1137 82.841 66.5315 82.7717 66.1969C82.7024 65.8623 82.7123 65.4504 82.94 65.1911C82.9916 65.1279 83.0559 65.0763 83.1287 65.0397C83.2016 65.0031 83.2813 64.9822 83.3628 64.9784C83.4443 64.9747 83.5256 64.9882 83.6015 65.018C83.6774 65.0478 83.7461 65.0933 83.8033 65.1515C84.1379 65.5118 83.9478 66.3751 83.734 66.7573C83.7221 66.779 83.5815 66.977 83.4766 67.1196L83.7063 66.9216C83.9775 66.6681 84.2112 66.4206 84.4151 66.1989C84.5299 66.0722 84.6329 65.9553 84.726 65.8445C84.7022 65.6742 84.6091 64.9871 84.7022 64.6565C84.7953 64.3258 84.9913 63.9654 85.314 63.8407C85.3892 63.8068 85.4708 63.7893 85.5533 63.7896C85.6358 63.7898 85.7173 63.8076 85.7923 63.842C85.8674 63.8763 85.9342 63.9263 85.9883 63.9885C86.0424 64.0508 86.0825 64.124 86.106 64.2031C86.2367 64.6763 85.6724 65.3554 85.314 65.5891C85.2823 65.6089 84.7497 65.8781 84.7477 65.8682C84.6586 65.9771 84.5616 66.092 84.4547 66.2147C84.2567 66.4405 84.025 66.6939 83.7577 66.9533C83.4737 67.2352 83.1728 67.4997 82.8568 67.7453C82.5043 68.0239 82.128 68.2711 81.7322 68.4838H81.7164C81.8589 68.4581 82.2569 68.3987 82.2866 68.3987C82.7242 68.3828 83.5795 68.6125 83.7459 69.0738C83.7713 69.1512 83.7801 69.233 83.7719 69.314C83.7636 69.3949 83.7384 69.4733 83.6979 69.5438C83.6573 69.6144 83.6024 69.6757 83.5367 69.7237C83.4709 69.7716 83.3958 69.8053 83.3162 69.8223C82.9796 69.9055 82.5975 69.7154 82.344 69.5094C82.0569 69.2778 81.6985 68.563 81.6688 68.5056C81.261 68.712 80.8396 68.8906 80.4076 69.0402C80.1561 69.1293 79.8987 69.2105 79.6413 69.2897C79.7641 69.2699 79.875 69.256 79.8908 69.254C80.3284 69.2402 81.1818 69.4679 81.3481 69.9312C81.3735 70.0085 81.3824 70.0903 81.3741 70.1713C81.3658 70.2523 81.3406 70.3306 81.3001 70.4012C81.2596 70.4718 81.2046 70.533 81.1389 70.581C81.0731 70.629 80.998 70.6626 80.9184 70.6796C80.5818 70.7628 80.2017 70.5727 79.9462 70.3668C79.6908 70.1609 79.3701 69.555 79.2889 69.3946L78.9919 69.4817C78.5147 69.6203 78.0395 69.755 77.5762 69.9015C77.4138 69.953 77.2554 70.0104 77.095 70.0678L77.3109 70.0381C77.7484 70.0223 78.6038 70.252 78.7701 70.7133C78.7955 70.7908 78.8043 70.8727 78.7959 70.9538C78.7875 71.0349 78.7621 71.1133 78.7214 71.1839C78.6807 71.2545 78.6255 71.3157 78.5596 71.3636C78.4936 71.4115 78.4183 71.4449 78.3385 71.4617C78.0039 71.5469 77.6217 71.3548 77.3683 71.1489C77.1148 70.943 76.8218 70.3965 76.7248 70.2064C76.5624 70.2678 76.402 70.3311 76.2476 70.4044C76.1446 70.4539 76.0496 70.4935 75.9407 70.5489L75.6397 70.7034C75.4516 70.8083 75.2556 70.9172 75.0755 71.0241C74.9487 71.0974 74.8299 71.1707 74.7111 71.2439C74.8715 71.1905 75.1903 71.0915 75.218 71.0875C75.599 71.0297 75.9884 71.0713 76.3486 71.2083C76.3908 71.1988 76.434 71.1942 76.4773 71.1944C76.5582 71.1926 76.6386 71.2076 76.7133 71.2386C76.7881 71.2696 76.8555 71.3158 76.9114 71.3743C76.9673 71.4328 77.0104 71.5023 77.0379 71.5784C77.0655 71.6544 77.0768 71.7354 77.0713 71.8161C77.0218 72.3032 76.2496 72.7349 75.8219 72.8279C75.7962 72.8279 75.517 72.8616 75.3388 72.8774C75.4457 72.8774 75.5368 72.8893 75.6556 72.8992C75.8714 72.9131 76.0852 72.9349 76.3149 72.9566L76.6515 73.0022C76.7644 73.0141 76.8812 73.0418 76.998 73.0616C77.2653 73.1111 77.5346 73.1764 77.8039 73.2477C77.8177 73.0596 77.8752 72.3923 78.0316 72.1013C78.188 71.8102 78.4632 71.4895 78.8038 71.436C78.8839 71.4204 78.9664 71.4219 79.0459 71.4404C79.1255 71.4589 79.2002 71.4939 79.2652 71.5433C79.3302 71.5926 79.3841 71.6551 79.4234 71.7267C79.4626 71.7983 79.4863 71.8773 79.4928 71.9587C79.5186 72.4478 78.8216 72.9903 78.4117 73.1467C78.386 73.1566 78.0811 73.2358 77.9128 73.2754C78.0732 73.319 78.2355 73.3625 78.3979 73.414C78.8652 73.5566 79.3364 73.7169 79.8057 73.8753L80.2353 74.0179C80.2353 73.9506 80.2927 73.1546 80.467 72.8299C80.6214 72.5428 80.8966 72.2181 81.2392 72.1646C81.3193 72.149 81.4018 72.1505 81.4813 72.169C81.5609 72.1875 81.6356 72.2226 81.7006 72.2719C81.7656 72.3212 81.8195 72.3837 81.8588 72.4553C81.898 72.5269 81.9216 72.606 81.9282 72.6873C81.954 73.1764 81.257 73.7209 80.8471 73.8753C80.8174 73.8872 80.3759 74.0001 80.263 74.0238C80.5798 74.1268 80.8966 74.2218 81.2115 74.3149C81.6376 74.4327 82.0708 74.5233 82.5084 74.5862C82.5084 74.5545 82.5618 73.7249 82.74 73.3982C82.8945 73.1111 83.1717 72.7863 83.5142 72.7329C83.5942 72.7173 83.6766 72.7188 83.756 72.7373C83.8354 72.7558 83.91 72.7909 83.9749 72.8402C84.0398 72.8896 84.0935 72.9521 84.1325 73.0237C84.1715 73.0953 84.195 73.1743 84.2013 73.2556C84.227 73.7447 83.53 74.2872 83.1202 74.4436C83.0885 74.4555 82.6153 74.5782 82.5262 74.5941C82.5499 74.5941 82.5757 74.604 82.6014 74.606C83.0424 74.6564 83.487 74.6676 83.93 74.6396C84.1755 74.6278 84.4092 74.602 84.6349 74.5723C84.6349 74.4159 84.6072 73.7051 84.7339 73.3843C84.8606 73.0636 85.0962 72.7269 85.4289 72.6378C85.5068 72.6135 85.589 72.6059 85.67 72.6155C85.7511 72.6251 85.8292 72.6517 85.8993 72.6936C85.9694 72.7354 86.0298 72.7916 86.0767 72.8584C86.1236 72.9253 86.1559 73.0012 86.1714 73.0814C86.2506 73.5645 85.617 74.1823 85.2289 74.3822L84.8131 74.5406L85.118 74.4971C85.4843 74.4357 85.815 74.3565 86.108 74.2852C86.2743 74.2436 86.4228 74.202 86.5634 74.1624C86.6367 74.006 86.9396 73.3823 87.193 73.1626C87.4465 72.9428 87.8167 72.7467 88.1553 72.82C88.2355 72.8345 88.3116 72.8657 88.3789 72.9115C88.4462 72.9574 88.5031 73.0169 88.5458 73.0862C88.5886 73.1555 88.6163 73.233 88.6272 73.3137C88.638 73.3944 88.6317 73.4765 88.6087 73.5546C88.4563 74.0219 87.6187 74.2773 87.1713 74.2753C87.1336 74.2753 86.5416 74.206 86.5456 74.1981V74.1882C86.4129 74.2298 86.2704 74.2733 86.112 74.3169C85.8209 74.3941 85.4902 74.4793 85.122 74.5486C84.7296 74.6273 84.3329 74.6828 83.934 74.7149C83.486 74.7544 83.0355 74.7544 82.5876 74.7149H82.5717C82.7044 74.7703 83.0687 74.9406 83.0944 74.9564C83.4687 75.1861 84.0547 75.8494 83.9379 76.3246C83.9175 76.404 83.8804 76.4782 83.8292 76.5422C83.778 76.6063 83.7138 76.6588 83.6408 76.6962C83.5679 76.7336 83.4878 76.7551 83.4059 76.7593C83.324 76.7635 83.2421 76.7503 83.1657 76.7206C82.8529 76.6375 82.639 76.2672 82.54 75.9563Z" fill="#92E3A9"/>
<path d="M83.4509 67.2822C83.4509 67.2822 83.9915 67.0347 84.0271 67.0228C84.4449 66.8941 85.3299 66.8882 85.6111 67.2901C85.6557 67.3582 85.6856 67.4348 85.6988 67.5151C85.712 67.5954 85.7082 67.6775 85.6877 67.7562C85.6671 67.835 85.6303 67.9085 85.5796 67.9722C85.5289 68.0358 85.4655 68.0881 85.3933 68.1257C85.0904 68.296 84.6726 68.2128 84.3736 68.0821C84.0231 67.9277 83.4529 67.2822 83.4509 67.2822Z" fill="#92E3A9"/>
<path d="M5.43894 51.0363C6.21906 50.9056 7.68228 49.8958 7.68426 49.8958C7.68624 49.8958 6.73188 49.1355 6.66258 49.1038C5.89038 48.6345 4.12422 48.1831 3.35994 48.8444C3.23451 48.957 3.13448 49.095 3.0665 49.2492C2.99851 49.4035 2.96412 49.5704 2.96562 49.739C2.96712 49.9075 3.00447 50.0738 3.07519 50.2268C3.1459 50.3798 3.24837 50.516 3.37578 50.6264C3.89454 51.1075 4.77366 51.1491 5.43894 51.0363Z" fill="#92E3A9"/>
<path d="M8.76535 55.0042C9.45439 54.6834 10.5275 53.4321 10.6127 53.3331C11.3274 53.9478 12.0814 54.5152 12.8699 55.0319C13.3292 55.3349 13.8005 55.6259 14.2757 55.911C14.0381 55.812 13.8262 55.7269 13.7945 55.713C12.9273 55.4655 11.1037 55.4972 10.5414 56.3367C10.4505 56.4785 10.3908 56.6379 10.3662 56.8045C10.3417 56.971 10.3528 57.1409 10.3988 57.3029C10.4449 57.4648 10.5248 57.6152 10.6334 57.7439C10.742 57.8726 10.8766 57.9767 11.0285 58.0494C11.6581 58.3841 12.5174 58.194 13.1273 57.9089C13.7371 57.6237 14.6855 56.5723 14.9311 56.2912L15.4835 56.6278C16.3666 57.1406 17.2496 57.6495 18.101 58.1742C18.402 58.3603 18.695 58.5524 18.9802 58.7444C18.7703 58.6573 18.5842 58.586 18.5644 58.5781C17.6971 58.3306 15.8735 58.3623 15.3112 59.2018C15.2203 59.3434 15.1605 59.5027 15.1358 59.6692C15.111 59.8357 15.122 60.0055 15.1678 60.1675C15.2137 60.3294 15.2935 60.4797 15.4018 60.6085C15.5102 60.7373 15.6446 60.8416 15.7963 60.9145C16.4279 61.2491 17.2853 61.059 17.8971 60.7739C18.5089 60.4888 19.3623 59.5404 19.6553 59.2077C19.9464 59.4057 20.2375 59.6196 20.5107 59.8314C20.6929 59.9799 20.879 60.1106 21.0552 60.271L21.5799 60.7323C21.9026 61.0373 22.2373 61.3501 22.5461 61.655C22.762 61.8649 22.9639 62.0708 23.1679 62.2747C22.8709 62.0886 22.2808 61.7322 22.2293 61.7085C21.4096 61.3323 19.6019 61.0868 18.9188 61.8312C18.8072 61.9576 18.7238 62.1062 18.6742 62.2673C18.6245 62.4283 18.6096 62.5981 18.6306 62.7654C18.6516 62.9326 18.7079 63.0935 18.7958 63.2373C18.8837 63.381 19.0012 63.5045 19.1405 63.5994C19.7128 64.0251 20.5899 63.9657 21.2374 63.7776C21.9502 63.5796 23.156 62.544 23.3065 62.4153C23.6431 62.7579 23.9658 63.0925 24.2668 63.4053C24.536 63.6924 24.7875 63.9677 25.0271 64.233L25.5577 63.8865C25.2884 63.6014 25.0053 63.3044 24.6984 62.9915C24.3598 62.643 23.9896 62.2787 23.6054 61.9065C23.8954 61.4892 24.1599 61.0548 24.3974 60.6056C25.138 60.7917 26.6051 60.6155 26.7952 60.5898C26.8863 61.061 26.9714 61.5184 27.0447 61.952C27.0962 62.251 27.1417 62.546 27.1853 62.8153L27.7476 62.447C27.71 62.249 27.6743 62.051 27.6347 61.853C27.5437 61.3758 27.4367 60.863 27.3219 60.3462C27.5021 60.275 28.9772 59.6869 29.4999 59.1582C29.9692 58.6731 30.4325 57.9267 30.3236 57.2198C30.3047 57.0526 30.2504 56.8914 30.1645 56.7467C30.0786 56.602 29.9629 56.4773 29.8251 56.3807C29.6873 56.2841 29.5306 56.2179 29.3653 56.1864C29.2 56.1549 29.0299 56.1589 28.8663 56.1981C27.8882 56.4536 27.2585 58.1643 27.2071 59.0652C27.2071 59.1186 27.2368 59.7008 27.2625 60.0651C27.215 59.8532 27.1694 59.6453 27.118 59.4275C27.019 58.9939 26.9061 58.5662 26.7853 58.1049C26.72 57.8831 26.6546 57.6594 26.5873 57.4337C26.52 57.2079 26.4309 56.9802 26.3537 56.7506C26.1557 56.2199 25.9458 55.6932 25.7122 55.1666C26.0923 55.0794 27.4308 54.7448 27.9713 54.335C28.5119 53.9251 29.0782 53.2578 29.0782 52.553C29.0849 52.3846 29.0558 52.2168 28.9928 52.0606C28.9297 51.9043 28.8342 51.7633 28.7125 51.6469C28.5908 51.5304 28.4457 51.4411 28.2868 51.385C28.128 51.3289 27.959 51.3072 27.7912 51.3214C26.7853 51.4244 25.9062 53.0222 25.7181 53.8954C25.7062 53.9508 25.6448 54.5983 25.6171 54.9567C25.4746 54.6419 25.334 54.3251 25.1795 54.0122C24.736 53.1054 24.2569 52.2005 23.7935 51.2957C23.649 51.0185 23.5084 50.7413 23.3659 50.4641C23.5005 50.4344 25.1023 50.0681 25.7062 49.6127C26.2428 49.2048 26.815 48.5355 26.813 47.8307C26.8198 47.6623 26.7907 47.4945 26.7277 47.3383C26.6646 47.182 26.5691 47.041 26.4474 46.9246C26.3256 46.8081 26.1806 46.7188 26.0217 46.6627C25.8629 46.6066 25.6939 46.5849 25.526 46.5991C24.5202 46.7021 23.6411 48.2999 23.453 49.183C23.4391 49.2483 23.35 50.1829 23.3401 50.4205C23.0253 49.8107 22.7184 49.1988 22.4412 48.5831C22.062 47.7534 21.7366 46.9003 21.467 46.0289C21.5304 46.015 23.2035 45.6447 23.8232 45.1755C24.3598 44.7676 24.9301 44.0984 24.9301 43.3935C24.9349 43.2257 24.9046 43.0587 24.8409 42.9033C24.7772 42.748 24.6816 42.6078 24.5603 42.4917C24.439 42.3756 24.2946 42.2863 24.1367 42.2295C23.9787 42.1727 23.8105 42.1497 23.6431 42.1619C22.6372 42.2669 21.7581 43.8627 21.57 44.7359C21.5561 44.8052 21.4591 45.8111 21.4552 45.9932C21.4413 45.9437 21.4195 45.8922 21.4037 45.8427C21.1593 44.9608 20.993 44.0591 20.9067 43.148C20.8532 42.647 20.8295 42.158 20.8176 41.6927C21.1364 41.655 22.5996 41.4689 23.1936 41.1086C23.7876 40.7482 24.4133 40.1601 24.4905 39.4493C24.5155 39.283 24.5049 39.1132 24.4594 38.9513C24.4139 38.7893 24.3345 38.6389 24.2265 38.5099C24.1185 38.3809 23.9844 38.2764 23.8329 38.2031C23.6815 38.1299 23.5162 38.0897 23.348 38.0851C22.3363 38.0851 21.2869 39.5681 21.0037 40.4255C20.9879 40.471 20.8849 40.964 20.8057 41.3224C20.8057 41.1086 20.8057 40.8908 20.8057 40.6868C20.8057 39.9225 20.8631 39.2216 20.9146 38.6039C20.9463 38.2514 20.9819 37.9326 21.0176 37.6356C21.3126 37.4376 22.4848 36.6179 22.8491 36.0299C23.2134 35.4418 23.4926 34.626 23.2451 33.9608C23.1925 33.7977 23.1052 33.648 22.9893 33.5219C22.8734 33.3958 22.7317 33.2962 22.5737 33.23C22.4157 33.1638 22.2453 33.1326 22.0741 33.1384C21.9029 33.1442 21.735 33.187 21.5819 33.2638C20.681 33.7232 20.4355 35.5309 20.58 36.4219C20.5919 36.4991 20.9245 37.6812 20.9404 37.6713L20.9582 37.6594C20.9166 37.9425 20.877 38.2534 20.8394 38.5841C20.774 39.2038 20.7067 39.9047 20.6849 40.671C20.6526 41.4981 20.6678 42.3265 20.7305 43.1519C20.8006 44.0745 20.9531 44.9889 21.1859 45.8843C21.1859 45.8843 21.1859 45.9041 21.1859 45.916C21.0275 45.6645 20.5642 44.9775 20.5226 44.926C19.9286 44.2409 18.398 43.2588 17.4635 43.6509C17.3095 43.719 17.1718 43.819 17.0595 43.9444C16.9471 44.0697 16.8627 44.2175 16.8118 44.3779C16.7608 44.5384 16.7446 44.7078 16.7641 44.875C16.7836 45.0422 16.8384 45.2033 16.9249 45.3477C17.2655 45.9754 18.0872 46.2882 18.7544 46.3892C19.5068 46.5021 21.0928 46.0506 21.2176 46.015C21.4772 46.9244 21.7974 47.8154 22.1759 48.6821C22.3897 49.187 22.6234 49.6899 22.8629 50.1908C22.7184 49.977 22.5897 49.7948 22.5679 49.7651C21.9739 49.0781 20.4434 48.0999 19.5108 48.49C19.3569 48.5581 19.2192 48.6581 19.1068 48.7835C18.9944 48.9088 18.91 49.0566 18.8591 49.217C18.8082 49.3775 18.7919 49.5469 18.8114 49.7141C18.8309 49.8813 18.8858 50.0424 18.9722 50.1869C19.3128 50.8145 20.1345 51.1274 20.7998 51.2283C21.4651 51.3293 22.8372 50.9729 23.1956 50.8739C23.2886 51.0719 23.3817 51.2561 23.4767 51.4461C23.9302 52.3629 24.3875 53.2737 24.8073 54.1825C24.9558 54.5013 25.0904 54.822 25.2251 55.1428C25.0984 54.9547 24.9895 54.7963 24.9697 54.7745C24.3757 54.0875 22.8451 53.1093 21.9125 53.4994C21.7586 53.5675 21.6209 53.6675 21.5085 53.7929C21.3962 53.9182 21.3118 54.066 21.2608 54.2264C21.2099 54.3869 21.1937 54.5563 21.2132 54.7235C21.2327 54.8907 21.2875 55.0518 21.374 55.1963C21.7145 55.8239 22.5362 56.1368 23.2035 56.2377C23.8708 56.3387 25.1063 56.016 25.534 55.8992C25.6627 56.2318 25.7914 56.5644 25.9022 56.8892C25.9715 57.1149 26.0547 57.3267 26.1121 57.5584C26.1695 57.7901 26.2369 58.0098 26.2982 58.2316C26.3992 58.6632 26.4962 59.1087 26.5952 59.5344C26.6586 59.8295 26.714 60.1106 26.7695 60.3938C26.6249 60.075 26.3299 59.4533 26.3002 59.4038C25.8555 58.7459 25.2504 58.2123 24.542 57.8534C24.4955 57.7783 24.4425 57.7074 24.3836 57.6416C24.2755 57.5121 24.1411 57.4072 23.9893 57.3337C23.8376 57.2602 23.6719 57.2199 23.5033 57.2154C23.3347 57.2109 23.1672 57.2423 23.0117 57.3076C22.8562 57.3729 22.7164 57.4705 22.6016 57.594C21.9264 58.3464 22.3462 60.1205 22.7996 60.9006C22.8273 60.9462 23.1738 61.4135 23.3936 61.7025C23.2352 61.5521 23.0847 61.4036 22.9204 61.2511C22.5996 60.9462 22.2689 60.6571 21.9145 60.3304L21.3839 59.8829C21.2096 59.7305 21.0037 59.5899 20.8136 59.4414C20.3622 59.1048 19.889 58.786 19.4039 58.4751C19.6712 58.192 20.6057 57.1743 20.8295 56.5347C21.0532 55.8952 21.1601 55.026 20.7641 54.432C20.6771 54.2872 20.5602 54.1626 20.4212 54.0666C20.2822 53.9706 20.1244 53.9054 19.9581 53.8752C19.7919 53.845 19.6212 53.8506 19.4573 53.8917C19.2935 53.9327 19.1403 54.0082 19.0079 54.1132C18.2278 54.7547 18.3743 56.5724 18.7049 57.4119C18.7247 57.4653 19.0316 58.0395 19.2039 58.3544C18.9128 58.1682 18.6218 57.9841 18.3188 57.8059C17.4476 57.2951 16.5507 56.804 15.6577 56.311C15.3845 56.1605 15.1132 56.0061 14.84 55.8536C14.937 55.7546 16.0715 54.5686 16.323 53.8518C16.5467 53.2163 16.6537 52.3431 16.2596 51.7491C16.1715 51.6061 16.0542 51.4833 15.9155 51.3886C15.7768 51.2939 15.6197 51.2294 15.4545 51.1994C15.2893 51.1693 15.1195 51.1743 14.9564 51.2141C14.7932 51.2539 14.6402 51.3276 14.5073 51.4303C13.7153 52.0718 13.8718 53.8895 14.2024 54.729C14.2282 54.7923 14.6697 55.622 14.7964 55.8259C14.2024 55.4893 13.6084 55.1487 13.0342 54.7884C12.2611 54.3076 11.5191 53.7786 10.8127 53.2044C10.8582 53.1569 12.0482 51.9253 12.3056 51.1907C12.5293 50.5551 12.6362 49.682 12.2422 49.088C12.1547 48.945 12.0381 48.822 11.9 48.7269C11.762 48.6318 11.6055 48.5668 11.4407 48.536C11.2759 48.5052 11.1065 48.5093 10.9434 48.5481C10.7803 48.5869 10.6272 48.6595 10.4939 48.7613C9.70189 49.4028 9.85831 51.2204 10.189 52.0599C10.2167 52.1273 10.6899 53.0182 10.783 53.1727C10.7414 53.139 10.6958 53.1073 10.6562 53.0737C9.96445 52.4715 9.32768 51.8089 8.75347 51.0937C8.43271 50.6977 8.14561 50.3156 7.87633 49.9295C8.12185 49.7216 9.23263 48.7652 9.53755 48.1296C9.84247 47.4941 10.0306 46.6664 9.70387 46.0328C9.63168 45.8807 9.528 45.7457 9.39969 45.6368C9.27138 45.5278 9.12138 45.4473 8.95963 45.4007C8.79788 45.3541 8.62806 45.3424 8.46144 45.3664C8.29482 45.3903 8.13519 45.4495 7.99315 45.5398C7.14571 46.0922 7.09225 47.9158 7.32985 48.785C7.34173 48.8325 7.52785 49.2998 7.66447 49.6384C7.54567 49.4622 7.42093 49.282 7.31005 49.1117C6.89227 48.4702 6.54973 47.8584 6.25075 47.3139C6.08245 47.003 5.93791 46.7199 5.80525 46.4506C5.93989 46.1219 6.46657 44.7914 6.44479 44.1003C6.42301 43.4093 6.20719 42.5738 5.62507 42.1619C5.49188 42.059 5.33834 41.9856 5.17464 41.9465C5.01093 41.9075 4.8408 41.9036 4.67549 41.9353C4.51019 41.9669 4.3535 42.0333 4.21579 42.1301C4.07809 42.2268 3.96251 42.3517 3.87673 42.4965C3.37975 43.3776 4.17175 45.0191 4.78159 45.6843C4.83505 45.7398 5.77159 46.5437 5.77159 46.5258V46.506C5.89435 46.7654 6.02899 47.0446 6.18145 47.3436C6.47053 47.896 6.80119 48.5177 7.20511 49.1711C7.63417 49.878 8.10355 50.5596 8.61091 51.2125C9.17746 51.9463 9.80756 52.6287 10.4939 53.2519L10.5196 53.2717C10.2503 53.1489 9.48409 52.8341 9.42271 52.8163C8.55349 52.5688 6.72991 52.5985 6.16759 53.438C6.07826 53.5804 6.01983 53.7399 5.99607 53.9062C5.97232 54.0726 5.98377 54.2421 6.02969 54.4037C6.07561 54.5654 6.15497 54.7156 6.26263 54.8446C6.37029 54.9736 6.50385 55.0786 6.65467 55.1527C7.29421 55.4794 8.15353 55.2873 8.76535 55.0042Z" fill="#92E3A9"/>
<path d="M20.675 41.5381C20.6928 41.5381 20.2988 40.3758 20.2651 40.3045C19.881 39.4888 18.6554 38.1364 17.6535 38.2671C17.4869 38.2921 17.3275 38.3521 17.186 38.4433C17.0444 38.5346 16.9238 38.6548 16.8322 38.7962C16.7407 38.9376 16.6802 39.0968 16.6549 39.2633C16.6295 39.4298 16.6399 39.5998 16.6853 39.762C16.8476 40.457 17.5584 40.9758 18.1742 41.249C18.8989 41.5797 20.673 41.5381 20.675 41.5381Z" fill="#92E3A9"/>
<path d="M12.9728 75.8456C13.1827 75.5228 13.3035 74.6694 13.3035 74.6694C13.3035 74.6694 12.7095 74.7605 12.6798 74.7704C12.26 74.8932 11.5195 75.3763 11.5056 75.8673C11.5054 75.9488 11.5224 76.0294 11.5555 76.1039C11.5885 76.1783 11.6368 76.245 11.6974 76.2996C11.7579 76.3541 11.8292 76.3953 11.9067 76.4204C11.9842 76.4456 12.0661 76.4541 12.1471 76.4455C12.4936 76.4277 12.7966 76.1188 12.9728 75.8456Z" fill="#92E3A9"/>
<path d="M15.4834 75.9567C15.5943 75.6043 15.4993 74.8103 15.4834 74.7469C15.9379 74.6929 16.3884 74.6089 16.8318 74.4955C17.0892 74.4301 17.3486 74.3569 17.606 74.2816C17.4931 74.3331 17.3941 74.3806 17.3803 74.3905C17.0061 74.6182 16.42 75.2815 16.5368 75.7567C16.5572 75.8361 16.5943 75.9103 16.6455 75.9744C16.6967 76.0384 16.7609 76.0909 16.8339 76.1283C16.9069 76.1657 16.9869 76.1872 17.0688 76.1914C17.1507 76.1957 17.2326 76.1825 17.309 76.1527C17.6357 76.0379 17.8476 75.6676 17.9466 75.3607C18.0456 75.0538 17.9802 74.3707 17.9584 74.1846L18.2554 74.0955C18.7287 73.947 19.1999 73.7965 19.6672 73.6658C19.8315 73.6183 19.9959 73.5787 20.1582 73.5371L19.9602 73.6322C19.6018 73.8539 19.0078 74.5113 19.1266 74.9885C19.1485 75.0668 19.1865 75.1398 19.2382 75.2025C19.29 75.2653 19.3543 75.3165 19.4271 75.3529C19.4998 75.3893 19.5794 75.41 19.6606 75.4137C19.7419 75.4175 19.823 75.4041 19.8988 75.3746C20.2255 75.2597 20.4394 74.8895 20.5384 74.5826C20.6374 74.2757 20.576 73.654 20.5542 73.4401C20.7225 73.4025 20.8908 73.3669 21.0571 73.3391C21.17 73.3213 21.2789 73.2976 21.3937 73.2877L21.7303 73.252C21.9442 73.2362 22.1659 73.2184 22.3758 73.2085L22.8015 73.1906C22.6372 73.2342 22.3184 73.3292 22.2927 73.3391C21.8967 73.5094 21.2076 74.0757 21.2512 74.5648C21.2606 74.6457 21.2869 74.7237 21.3284 74.7938C21.3699 74.8639 21.4258 74.9245 21.4923 74.9715C21.5588 75.0186 21.6344 75.0511 21.7143 75.067C21.7943 75.0829 21.8766 75.0818 21.9561 75.0637C22.2946 74.9984 22.5619 74.6677 22.7065 74.3727C22.8669 74.05 22.8946 73.2817 22.9045 73.1847C23.1361 73.1847 23.3619 73.1708 23.5757 73.1689H24.1202L24.1558 72.8639C23.9578 72.8639 23.7598 72.8639 23.5618 72.8778C23.3638 72.8917 23.0728 72.8976 22.8154 72.9134C22.7633 72.6715 22.6972 72.4329 22.6174 72.1987C22.92 71.9496 23.1865 71.6597 23.4094 71.3374C23.6074 71.4581 23.8054 71.5789 23.9776 71.6938C24.1004 71.773 24.2192 71.8502 24.3321 71.9274L24.3855 71.6047L24.1321 71.4482C23.9341 71.3235 23.7143 71.1948 23.4906 71.0661C23.5242 70.977 23.7975 70.2583 23.7777 69.8979C23.7579 69.5712 23.641 69.1613 23.3539 68.9693C23.2877 68.9218 23.2123 68.8887 23.1324 68.8723C23.0526 68.8559 22.9702 68.8565 22.8907 68.8741C22.8111 68.8916 22.7361 68.9258 22.6706 68.9742C22.6051 69.0227 22.5505 69.0844 22.5105 69.1554C22.2808 69.589 22.6867 70.3731 22.9916 70.6879C23.0114 70.7057 23.2292 70.8859 23.3678 70.9968L23.0926 70.8384C22.8946 70.7315 22.7144 70.6404 22.5105 70.5236L22.2055 70.3751C22.1046 70.3236 21.9917 70.282 21.8848 70.2345C21.6333 70.1276 21.372 70.0365 21.1086 69.9434C21.1997 69.7791 21.5205 69.191 21.5502 68.8643C21.5799 68.5376 21.5284 68.1139 21.273 67.8743C21.2146 67.8175 21.145 67.7736 21.0686 67.7455C20.9922 67.7173 20.9107 67.7056 20.8295 67.711C20.7483 67.7164 20.6691 67.7389 20.5971 67.7769C20.5251 67.8149 20.4619 67.8677 20.4117 67.9318C20.1186 68.3278 20.4117 69.1633 20.6552 69.5158C20.671 69.5375 20.8829 69.7732 21.0017 69.8999C20.8413 69.8484 20.6829 69.7949 20.5206 69.7474C20.0513 69.6088 19.5702 69.4821 19.091 69.3514C18.9445 69.3138 18.7999 69.2722 18.6534 69.2326C18.6871 69.1732 19.0831 68.4822 19.1167 68.1159C19.1464 67.7912 19.095 67.3675 18.8395 67.1259C18.7812 67.0689 18.7115 67.0248 18.635 66.9965C18.5585 66.9682 18.477 66.9563 18.3956 66.9615C18.3142 66.9667 18.2348 66.989 18.1625 67.0269C18.0903 67.0647 18.0268 67.1174 17.9763 67.1813C17.6852 67.5773 17.9763 68.4129 18.2218 68.7653C18.2416 68.7931 18.5445 69.1316 18.6277 69.2128C18.3049 69.1257 17.9862 69.0346 17.6753 68.9317C17.2518 68.8038 16.8371 68.6483 16.4338 68.4664C16.4477 68.4406 16.8635 67.7199 16.8991 67.3437C16.9288 67.019 16.8774 66.5953 16.6219 66.3537C16.5636 66.2967 16.4939 66.2526 16.4174 66.2243C16.3409 66.196 16.2593 66.1841 16.178 66.1893C16.0966 66.1945 16.0172 66.2168 15.9449 66.2547C15.8727 66.2925 15.8092 66.3452 15.7587 66.4091C15.4676 66.8051 15.7587 67.6427 16.0042 67.9931C16.024 68.0209 16.3527 68.3891 16.416 68.4446L16.3447 68.4149C15.9489 68.2141 15.5707 67.9803 15.2142 67.7159C15.0162 67.5694 14.836 67.4189 14.6637 67.2704C14.7568 67.1437 15.1666 66.5616 15.234 66.227C15.3013 65.8924 15.2953 65.4805 15.0676 65.2211C15.0161 65.158 14.9518 65.1064 14.8789 65.0698C14.8061 65.0331 14.7263 65.0122 14.6448 65.0085C14.5634 65.0048 14.4821 65.0183 14.4062 65.0481C14.3303 65.0779 14.2615 65.1234 14.2044 65.1815C13.8697 65.5419 14.0578 66.4052 14.2717 66.7873C14.2836 66.8091 14.4261 67.0071 14.5311 67.1497L14.3014 66.9517C14.0301 66.6982 13.7965 66.4507 13.5925 66.229C13.4757 66.1022 13.3747 65.9854 13.2797 65.8745C13.3054 65.7043 13.3965 65.0172 13.3054 64.6865C13.2144 64.3559 13.0144 63.9955 12.6916 63.8708C12.617 63.8382 12.5363 63.8219 12.4548 63.8228C12.3734 63.8237 12.293 63.8419 12.2191 63.8761C12.1452 63.9104 12.0794 63.9599 12.0261 64.0214C11.9727 64.083 11.933 64.1551 11.9095 64.2331C11.7789 64.7063 12.3432 65.3855 12.7015 65.6191C12.7332 65.6389 13.2658 65.9082 13.2658 65.8983C13.3549 66.0072 13.45 66.122 13.5589 66.2448C13.7569 66.4705 13.9866 66.724 14.2539 66.9833C14.5391 67.2648 14.8406 67.5292 15.1567 67.7753C15.5093 68.054 15.8856 68.3011 16.2814 68.5139H16.2952C16.1547 68.4881 15.7567 68.4287 15.727 68.4287C15.2874 68.4129 14.434 68.6426 14.2677 69.1039C14.242 69.1812 14.2329 69.2631 14.241 69.3442C14.2491 69.4253 14.2743 69.5037 14.3149 69.5744C14.3554 69.6451 14.4105 69.7064 14.4764 69.7543C14.5423 69.8022 14.6176 69.8356 14.6974 69.8524C15.034 69.9355 15.4161 69.7454 15.6696 69.5395C15.9567 69.3079 16.315 68.5931 16.3447 68.5357C16.7526 68.7421 17.174 68.9207 17.606 69.0703C17.8575 69.1594 18.1129 69.2405 18.3723 69.3197L18.1327 69.2999C17.6951 69.2861 16.8397 69.5138 16.6734 69.9771C16.6483 70.0546 16.6398 70.1364 16.6483 70.2174C16.6569 70.2984 16.6823 70.3767 16.723 70.4472C16.7637 70.5177 16.8187 70.579 16.8845 70.6269C16.9503 70.6748 17.0254 70.7084 17.1051 70.7255C17.4397 70.8087 17.8218 70.6186 18.0772 70.4127C18.3327 70.2068 18.6534 69.6009 18.7346 69.4405L19.0316 69.5276C19.5088 69.6662 19.984 69.8009 20.4473 69.9474C20.6097 69.9989 20.7681 70.0563 20.9265 70.1137L20.7126 70.084C20.2731 70.0682 19.4197 70.2979 19.2534 70.7592C19.2279 70.8365 19.2191 70.9183 19.2273 70.9993C19.2356 71.0803 19.2608 71.1586 19.3014 71.2292C19.3419 71.2998 19.3968 71.3611 19.4626 71.409C19.5283 71.457 19.6034 71.4906 19.683 71.5076C20.0196 71.5928 20.4018 71.4007 20.6552 71.1948C20.9086 70.9889 21.1997 70.4424 21.2987 70.2523C21.4591 70.3137 21.6214 70.3771 21.7739 70.4503C21.8788 70.4998 21.9719 70.5394 22.0828 70.5949L22.3837 70.7493C22.5817 70.8542 22.7659 70.9631 22.948 71.0701C23.0728 71.1433 23.1916 71.2166 23.3124 71.2898C23.15 71.2364 22.8312 71.1374 22.8055 71.1334C22.4238 71.0758 22.0338 71.1173 21.6729 71.2542C21.6314 71.2447 21.5888 71.24 21.5462 71.2403C21.4653 71.2385 21.3849 71.2535 21.3102 71.2845C21.2354 71.3155 21.168 71.3617 21.1121 71.4202C21.0562 71.4787 21.0131 71.5482 20.9856 71.6243C20.958 71.7004 20.9467 71.7813 20.9522 71.8621C20.9997 72.3491 21.7719 72.7808 22.2016 72.8738C22.2253 72.8738 22.5065 72.9075 22.6847 72.9233C22.5778 72.9233 22.4748 72.9352 22.3679 72.9451C22.1521 72.959 21.9382 72.9808 21.7086 73.0025L21.372 73.0481C21.2591 73.06 21.1423 73.0877 21.0255 73.1075C20.7582 73.157 20.4889 73.2223 20.2196 73.2936C20.2057 73.1055 20.1463 72.4382 19.9919 72.1472C19.8375 71.8561 19.5523 71.5314 19.2058 71.4779C19.1258 71.4623 19.0434 71.4638 18.964 71.4823C18.8846 71.5008 18.81 71.5359 18.7451 71.5853C18.6802 71.6346 18.6265 71.6972 18.5875 71.7688C18.5485 71.8403 18.5251 71.9194 18.5188 72.0007C18.4911 72.4897 19.19 73.0322 19.5979 73.1887C19.6236 73.1986 19.9305 73.2778 20.0988 73.3174C19.9384 73.3609 19.7761 73.4045 19.6137 73.456C19.1445 73.5985 18.6752 73.7589 18.2059 73.9173L17.7743 74.0599C17.7743 73.9925 17.7189 73.1966 17.5446 72.8719C17.3902 72.5848 17.113 72.26 16.7704 72.2066C16.6904 72.191 16.608 72.1925 16.5286 72.211C16.4492 72.2295 16.3746 72.2646 16.3097 72.3139C16.2448 72.3633 16.1911 72.4258 16.1521 72.4974C16.1131 72.569 16.0897 72.648 16.0834 72.7293C16.0576 73.2184 16.7546 73.7629 17.1645 73.9173C17.1942 73.9292 17.6357 74.042 17.7585 74.0658C17.4417 74.1688 17.1249 74.2638 16.81 74.3569C16.3833 74.4747 15.9494 74.5653 15.5112 74.6281C15.5112 74.5964 15.4597 73.7668 15.2815 73.4401C15.127 73.153 14.8498 72.8283 14.5073 72.7748C14.4273 72.7592 14.3449 72.7607 14.2655 72.7792C14.1861 72.7977 14.1115 72.8328 14.0466 72.8822C13.9817 72.9315 13.928 72.9941 13.889 73.0657C13.85 73.1372 13.8265 73.2163 13.8202 73.2976C13.7925 73.7866 14.4915 74.3291 14.8993 74.4856C14.933 74.4974 15.4062 74.6202 15.4933 74.636L15.4161 74.6479C14.9758 74.6983 14.5318 74.7095 14.0895 74.6816C13.844 74.6697 13.6104 74.644 13.3846 74.6143C13.3846 74.4578 13.4124 73.747 13.2856 73.4263C13.1589 73.1055 12.9233 72.7689 12.5887 72.6798C12.5109 72.6558 12.4289 72.6484 12.3481 72.6582C12.2672 72.6679 12.1894 72.6946 12.1195 72.7364C12.0497 72.7783 11.9894 72.8343 11.9427 72.901C11.8959 72.9677 11.8637 73.0434 11.8482 73.1233C11.767 73.6064 12.4026 74.2242 12.7906 74.4242L13.2064 74.5826L12.9015 74.539C12.5352 74.4776 12.2046 74.3984 11.9115 74.3272C11.7452 74.2856 11.5947 74.244 11.4561 74.2044C11.3829 74.048 11.0799 73.4243 10.8245 73.2045C10.5691 72.9847 10.2028 72.7887 9.8642 72.862C9.78407 72.8764 9.70789 72.9076 9.6406 72.9535C9.57332 72.9993 9.51645 73.0589 9.47368 73.1281C9.43091 73.1974 9.40321 73.2749 9.39237 73.3556C9.38153 73.4363 9.3878 73.5184 9.41078 73.5965C9.56126 74.0638 10.4008 74.3192 10.8463 74.3173C10.8839 74.3173 11.4759 74.248 11.4739 74.24V74.2301C11.6086 74.2717 11.7511 74.3153 11.9095 74.3588C12.2006 74.4361 12.5313 74.5212 12.8995 74.5905C13.2919 74.6694 13.6886 74.7249 14.0875 74.7568C14.5348 74.7964 14.9847 74.7964 15.432 74.7568H15.4438C15.3112 74.8123 14.9469 74.9825 14.9211 74.9984C14.5469 75.2281 13.9608 75.8914 14.0757 76.3666C14.0961 76.446 14.1332 76.5201 14.1844 76.5842C14.2356 76.6482 14.2998 76.7007 14.3727 76.7381C14.4457 76.7755 14.5258 76.7971 14.6077 76.8013C14.6896 76.8055 14.7714 76.7923 14.8479 76.7626C15.1706 76.6378 15.3844 76.2676 15.4834 75.9567Z" fill="#92E3A9"/>
<path d="M14.5707 67.2822C14.5707 67.2822 14.0322 67.0347 13.9965 67.0228C13.5768 66.8941 12.6937 66.8882 12.4125 67.2901C12.3679 67.3582 12.338 67.4348 12.3248 67.5151C12.3116 67.5954 12.3154 67.6775 12.336 67.7562C12.3565 67.835 12.3933 67.9085 12.444 67.9722C12.4947 68.0358 12.5582 68.0881 12.6303 68.1257C12.9313 68.296 13.351 68.2128 13.65 68.0821C14.0005 67.9277 14.5707 67.2822 14.5707 67.2822Z" fill="#92E3A9"/>
<path d="M50.2625 58.2037C63.4827 57.6265 73.7318 46.4416 73.1546 33.2214C72.5774 20.0013 61.3924 9.75219 48.1723 10.3294C34.9521 10.9066 24.703 22.0915 25.2802 35.3117C25.8574 48.5318 37.0424 58.7809 50.2625 58.2037Z" stroke="#263238" stroke-linecap="round" stroke-linejoin="round"/>
<path d="M44.4055 56.4302C45.6906 56.7109 46.9977 56.8792 48.3121 56.9331" stroke="#263238" stroke-linecap="round" stroke-linejoin="round"/>
<path d="M41.4673 55.5825C42.1167 55.8201 42.7767 56.0274 43.4473 56.2042" stroke="#263238" stroke-linecap="round" stroke-linejoin="round"/>
<path d="M27.3994 28.0586C25.8742 33.4291 26.3823 39.1734 28.8264 44.1928C31.2706 49.2123 35.4793 53.1546 40.6476 55.2658" stroke="#263238" stroke-linecap="round" stroke-linejoin="round"/>
<path d="M30.4486 21.5347C29.6294 22.7425 28.9279 24.0262 28.3538 25.3679" stroke="#263238" stroke-linecap="round" stroke-linejoin="round"/>
<path d="M45.9699 23.6235L48.4132 24.1304L49.2468 24.9937L50.3318 25.16L50.6763 26.1896L50.4229 26.8866L49.6843 27.2271L47.8707 26.9301L47.8212 26.7084L48.6785 26.1104L48.0865 25.0175L46.4629 24.7957L45.5996 24.0552L45.9699 23.6235Z" stroke="#263238" stroke-linecap="round" stroke-linejoin="round"/>
<path d="M65.657 46.1658L63.7186 45.8371L61.3802 45.5401L59.6596 45.9222L57.9746 45.946L56.2857 46.738L55.2957 47.0152L54.6858 47.1498L53.6681 48.0745L52.6682 48.7596L50.9595 48.1497L51.003 46.5083L49.9714 46.3301L48.8626 46.5756L48.5854 46.1123L48.4746 45.0887L47.9617 44.6194L47.2093 44.9045L47.1103 45.5084L46.1797 45.7737L45.1244 44.96L44.4948 43.7007L44.9838 41.9622L46.6173 41.7147L47.148 42.0058L47.8132 41.8573L48.5359 41.1722L49.3062 41.2336L50.6922 42.7325L51.0684 42.5919L50.6724 41.3385L50.1912 40.7445L50.0685 39.6654L51.9237 38.321L51.7455 36.2064L52.4742 35.2857L52.9117 33.8502L53.4424 33.6146L54.5353 32.4998L54.4918 32.0424L53.6146 32.2959L53.3513 31.888L52.7395 32.0246L51.8445 32.4563L52.1296 31.6346L53.9493 30.6446L54.2819 30.0506L55.3313 31.098L55.9411 31.494L56.6698 31.098L56.1748 30.4505L54.8244 29.8763L53.1592 28.6745L51.5614 28.0389L50.1754 28.1121L49.3596 27.5934L48.4231 27.5696L48.3617 27.8171L48.6072 29.4506L48.9537 29.9575L48.8488 31.8444L47.54 31.2029V30.3872L46.2411 30.0961L45.6055 29.5971L45.5758 28.1458L46.9262 26.6232L46.7421 25.2669L46.1481 25.4649L45.6491 25.0511L45.2986 24.2591L44.9026 24.2888L44.8789 25.2273L44.2849 25.4728L43.576 23.5918L43.0692 23.4136L42.2178 23.2532L41.4258 23.8947L42.7722 24.7026L43.2038 25.5956L40.8714 24.5422L39.1507 23.3542L38.7072 21.8811L37.1648 21.7563L36.2144 22.7246C35.9815 22.948 35.7363 23.1582 35.4798 23.3542C35.0653 23.558 34.6365 23.7314 34.1968 23.873L34.1849 24.863L32.9197 25.2015L33.1672 25.7955L35.2957 25.6728L36.6084 26.6054L37.0401 28.5477L36.8124 30.405L37.3291 32.2107L36.3768 35.2441L36.945 39.3704L37.9627 41.59L39.0775 43.2077L39.9348 43.1324L39.4596 42.3068L38.8656 41.7385L38.3191 40.5901L38.7943 40.3684L40.016 42.1959L40.9664 43.8492L41.2852 45.2906L42.6237 46.3341L44.8195 47.3023L47.8786 47.4389L48.9517 48.0745L49.815 48.815L50.9515 49.211L52.2465 49.2724L53.4543 48.9457C53.4543 48.9457 53.5236 49.514 53.5849 49.7912C53.6463 50.0684 53.0781 51.1772 53.0781 51.1772L52.7137 52.4226L53.4305 53.5472L54.763 53.7749L56.8777 55.1609L57.7291 55.3213L57.9132 56.1549L58.0974 56.5212C62.2609 54.8629 65.8741 52.0669 68.524 48.4527L68.4627 48.0448L69.3576 44.9916L68.524 44.6531L65.657 46.1658Z" stroke="#263238" stroke-linecap="round" stroke-linejoin="round"/>
<path d="M66.5599 22.9543L65.7145 22.0355L64.667 20.9881L64.073 19.3724L65.1086 19.317L65.0412 18.7487L64.3067 18.8537L64.8571 18.4418L65.4353 17.9053L65.3125 17.3489L64.4492 16.6084L64.0433 15.4441C59.9404 12.2126 54.8943 10.4097 49.6725 10.3096C44.4508 10.2095 39.3392 11.8178 35.1155 14.8897L36.5966 15.5114L36.0362 16.6836L35.0462 17.139L35.268 18.6636L34.8482 18.9289L34.4285 19.6615L34.7057 20.6515L35.6739 20.5525L35.4957 21.5821L36.4401 21.3722L37.5925 18.9606L37.5628 18.0359L39.0914 17.5805L39.3329 16.8281L40.905 16.3034L40.8635 15.3134L42.0158 14.9986C42.0158 14.9986 42.7504 14.369 42.9167 14.3314C43.2532 14.3307 43.5893 14.3538 43.9226 14.4007L44.9027 14.8818L46.0689 14.6224L46.9322 13.7908L48.233 13.6166C48.4433 13.698 48.6701 13.7279 48.8943 13.7037C49.1715 13.6423 49.918 13.0681 49.918 13.0681L51.7495 13.7096L52.5276 14.0621L52.7118 14.8957L53.5691 14.8204L53.7355 14.2601L54.5275 14.4323L54.571 14.8897L53.0028 15.7035L54.2186 16.7153L56.4639 17.3806L57.543 18.3072L58.7884 18.1468L58.9428 17.5291L59.3626 17.3192L57.6737 16.5272L56.7668 16.6321L57.438 16.2361L56.5629 15.4441L57.4935 15.1788L58.8636 15.5748L59.4359 16.844L60.2081 17.438L61.0654 18.9368L62.4831 19.5546L62.891 21.3861L64.3522 21.9365L64.4314 22.5583V23.3186L64.9878 24.2433L65.2095 24.7184L66.1896 24.6749L66.4233 23.6334L66.5599 22.9543Z" stroke="#263238" stroke-linecap="round" stroke-linejoin="round"/>
<path d="M66.0392 17.2002L66.1105 17.519L66.0312 18.4694L66.3698 19.2059L67.0292 19.2931L67.2628 20.3464L66.5362 20.2177L67.0351 23.2531L66.6391 24.6212L67.4311 26.0785L68.3003 26.5834L68.9676 29.5811L70.2071 31.7591L71.3772 33.3629L72.7296 33.4124L72.9276 32.2027L73.0781 32.0205C72.543 26.409 70.0529 21.164 66.0431 17.2022L66.0392 17.2002Z" stroke="#263238" stroke-linecap="round" stroke-linejoin="round"/>
<path d="M53.1393 19.7012L49.1159 18.9053L47.52 19.3191L47.3656 20.4596L46.5379 19.8854L45.3796 20.4338L45.6747 22.2911L46.8349 22.792L47.322 21.5763L48.3397 22.2238L50.393 23.3405L51.084 24.877L52.9333 26.3877L55.1787 25.4809L54.9391 24.6611L54.2302 23.8276L53.6244 21.6317L53.9709 20.5645L53.1393 19.7012Z" stroke="#263238" stroke-linecap="round" stroke-linejoin="round"/>
<path d="M56.4084 20.2573L55.5253 20.2197L54.9392 20.9919L55.6857 22.5145L56.4064 22.3542L56.4084 20.2573Z" stroke="#263238" stroke-linecap="round" stroke-linejoin="round"/>
<path d="M61.8039 20.1661L59.6952 19.586L59.1586 19.0059L58.7507 19.2712L59.3863 20.2948L60.0397 21.665L60.9466 21.8115L61.0634 21.5541L60.3803 20.8314L61.9464 21.0651L61.8039 20.1661Z" stroke="#263238" stroke-linecap="round" stroke-linejoin="round"/>
<path d="M50.0446 43.8057L49.8723 44.0789L51.6484 44.2076L52.4879 44.8372L53.567 44.7145L53.8204 44.0175L52.4938 44.0789L50.0446 43.8057Z" stroke="#263238" stroke-linecap="round" stroke-linejoin="round"/>
<path d="M55.2204 43.7642L54.1274 44.3562L54.3928 44.7641L55.8362 44.4433L56.0164 43.9364L55.5273 44.1027L55.2204 43.7642Z" stroke="#263238" stroke-linecap="round" stroke-linejoin="round"/>
<path d="M57.8001 86.4647L57.317 88.9357C57.317 88.9357 57.2576 89.6604 57.5586 89.9C57.8595 90.1396 63.1026 90.1416 63.1026 89.9C63.1026 89.6584 63.2234 88.815 63.0432 88.3338C62.863 87.8527 62.4393 86.2231 62.4393 86.2231L57.8001 86.4647Z" fill="white" stroke="#263238" stroke-miterlimit="10"/>
<path d="M57.3606 89.5396C57.3864 89.6778 57.4558 89.8041 57.5586 89.8999C57.8596 90.1415 63.1026 90.1415 63.1026 89.8999C63.1026 89.8267 63.1145 89.7019 63.1244 89.5396H57.3606Z" fill="white" stroke="#263238" stroke-miterlimit="10"/>
<path d="M59.3662 86.4033C59.3662 86.4033 58.8237 87.5498 59.3068 87.7893C59.7899 88.0289 61.1145 88.1497 61.3561 87.728C61.5976 87.3062 61.0551 86.4014 61.0551 86.4014L59.3662 86.4033Z" fill="white" stroke="#263238" stroke-miterlimit="10"/>
<path d="M48.7556 85.9321L47.4903 87.3181C47.4903 87.3181 45.3123 89.308 45.441 89.5496C45.5329 89.7428 45.6136 89.9411 45.6826 90.1436H52.7354C52.7354 90.1436 53.1571 89.7812 53.1571 89.6011C53.1571 89.4209 53.0363 87.0686 53.0363 87.0686L48.7556 85.9321Z" fill="white" stroke="#263238" stroke-miterlimit="10"/>
<path d="M45.4707 89.603C45.5816 89.8406 45.6826 90.1416 45.6826 90.1416H52.7353C52.9013 90.0041 53.0403 89.8369 53.1452 89.6486L45.4707 89.603Z" fill="white" stroke="#263238" stroke-miterlimit="10"/>
<path d="M48.9971 86.4033L48.0328 87.3676C47.6111 87.7913 47.9121 88.2724 48.7555 88.0923C49.599 87.9121 50.4445 86.7063 50.4445 86.7063L48.9971 86.4033Z" stroke="#263238" stroke-miterlimit="10"/>
<path d="M50.2404 60.7585C50.2404 60.7585 48.9355 70.0645 48.9355 71.1258C48.9355 72.1871 50.0028 84.7442 50.0028 84.7442L49.0543 85.3957L49.1137 86.5837C49.1137 86.5837 53.0242 87.2351 53.3212 87.2351C53.4869 87.2392 53.6505 87.1982 53.7945 87.1163L53.6757 85.3976C53.6757 85.3976 54.0895 83.4434 54.0895 82.9702C54.0895 82.4969 53.6163 71.5357 53.6163 71.5357L55.2161 64.9601L55.7487 64.6057L55.8081 71.6545L58.1188 84.5106L57.7644 85.9916L58.297 86.8787C58.297 86.8787 59.6592 86.7619 61.0215 86.7619C62.3837 86.7619 63.0351 86.2867 63.0351 86.2867L62.7995 83.5622L60.7245 71.003C60.7245 71.003 62.0293 60.6358 62.0293 60.3407C62.0293 60.0457 61.7323 59.6279 61.7323 59.6279L50.2404 60.7585Z" fill="#263238" stroke="#263238" stroke-miterlimit="10"/>
<path d="M49.5138 41.889L49.7118 42.7641C49.7118 42.7641 46.5973 44.857 46.3062 45.4391C46.0152 46.0212 48.3971 52.2008 49.2248 54.6818C50.0524 57.1627 50.1969 58.4259 50.1969 58.4259L49.9534 61.3445C49.9534 61.3445 51.8522 62.1226 54.6717 62.1721C57.4913 62.2216 59.5366 61.5385 60.3147 61.3445C61.0929 61.1504 62.2116 60.3723 62.2116 60.3723C62.2116 60.3723 62.1146 59.6912 61.3839 56.6756C60.9536 54.9119 60.6126 53.1277 60.3623 51.3296C60.3623 51.3296 59.099 44.9085 58.4179 43.9838C57.7368 43.0592 57.3467 41.9424 56.5686 41.7464C55.7904 41.5504 52.9709 41.6494 52.9709 41.6494L51.8978 39.9961L49.5138 41.889Z" fill="white" stroke="#263238" stroke-miterlimit="10"/>
<path d="M52.0442 45.3916C53.4995 44.9758 53.5966 42.8295 53.5332 41.6296C53.1926 41.6296 52.9689 41.6435 52.9689 41.6435L51.8977 39.9961L49.5217 41.8929L49.7197 42.7681C49.7197 42.7681 49.4128 42.9661 48.9832 43.275C49.3376 44.0254 50.4107 45.8569 52.0442 45.3916Z" fill="white" stroke="#263238" stroke-miterlimit="10"/>
<path d="M49.7097 42.7682C49.8454 42.9318 50.025 43.0532 50.2275 43.1181C50.4299 43.183 50.6466 43.1887 50.8522 43.1345C51.5412 42.9365 52.6084 39.8477 52.6084 39.8477L49.7097 42.7682Z" fill="#263238" stroke="#263238" stroke-miterlimit="10"/>
<path d="M46.6229 45.0708C46.6229 45.0708 46.0784 45.1718 45.8309 46.8528C45.5834 48.5338 44.9379 53.9016 45.1854 54.6956C45.4329 55.4896 46.7259 55.6381 47.2209 55.0916C47.7159 54.5451 47.9158 50.1851 47.9158 50.1851L47.7178 49.0922" fill="white"/>
<path d="M46.6229 45.0708C46.6229 45.0708 46.0784 45.1718 45.8309 46.8528C45.5834 48.5338 44.9379 53.9016 45.1854 54.6956C45.4329 55.4896 46.7259 55.6381 47.2209 55.0916C47.7159 54.5451 47.9158 50.1851 47.9158 50.1851L47.7178 49.0922" stroke="#263238" stroke-miterlimit="10"/>
<path d="M45.3835 50.4902C45.1855 52.3594 45.045 54.2522 45.1855 54.6977C45.435 55.4897 46.726 55.6402 47.221 55.0937C47.5279 54.7571 47.7219 52.9534 47.8249 51.6307L45.3835 50.4902Z" fill="white" stroke="#263238" stroke-miterlimit="10"/>
<path d="M57.7921 46.6113C57.7921 46.6113 60.8196 50.6802 61.6135 51.1772C62.4075 51.6742 64.344 50.7812 64.047 49.5397C63.75 48.2983 58.3386 42.7384 57.6931 42.0434C57.0477 41.3485 54.9211 41.6474 54.9211 41.6474" fill="white"/>
<path d="M57.7921 46.6113C57.7921 46.6113 60.8196 50.6802 61.6135 51.1772C62.4075 51.6742 64.344 50.7812 64.047 49.5397C63.75 48.2983 58.3386 42.7384 57.6931 42.0434C57.0477 41.3485 54.9211 41.6474 54.9211 41.6474" stroke="#263238" stroke-miterlimit="10"/>
<path d="M61.3324 45.958L59.2178 48.4706C60.1167 49.6131 61.1879 50.91 61.6136 51.1773C62.4056 51.6743 64.344 50.7813 64.047 49.5398C63.9084 48.9656 62.6788 47.4687 61.3324 45.958Z" fill="white" stroke="#263238" stroke-miterlimit="10"/>
<path d="M53.8556 49.3545L52.2727 50.1816L52.8935 51.3697L54.4764 50.5425L53.8556 49.3545Z" fill="white" stroke="#263238" stroke-miterlimit="10"/>
<path d="M57.3941 51.0842C57.3941 51.0842 56.3032 50.0942 55.2161 50.1913C54.1291 50.2883 52.1887 51.0842 51.9412 51.9733C51.6937 52.8623 52.7332 58.0796 54.2737 58.5746C55.8141 59.0696 58.6415 57.6816 59.089 56.2421C59.5365 54.8027 58.7841 52.5178 57.3941 51.0842ZM58.5366 55.4402C58.2891 56.1352 55.6082 52.6682 55.6577 51.6782C55.7072 50.6882 56.4022 51.3793 56.4022 51.3793C57.6931 52.7158 58.7841 54.7512 58.5366 55.4402Z" fill="#92E3A9" stroke="#263238" stroke-miterlimit="10"/>
<path d="M55.7864 54.066C56.1962 55.3867 55.8596 56.6658 55.034 56.9212C54.2083 57.1766 53.2084 56.3133 52.7986 54.9907C52.3887 53.6681 52.7253 52.389 53.5509 52.1336C54.3766 51.8781 55.3765 52.7434 55.7864 54.066Z" fill="white" stroke="#263238" stroke-miterlimit="10"/>
<path d="M62.4591 49.0924C62.4591 49.0924 61.1682 49.9853 61.0197 50.2348C60.8712 50.4843 60.2752 50.7298 60.2752 50.7298C59.7823 50.6034 59.3003 50.4379 58.8338 50.2348C58.1903 49.9358 58.0418 49.6883 57.8438 49.8388C57.6458 49.9893 56.2598 51.5772 56.2598 51.8188C56.2598 52.0604 57.5507 53.4028 57.6992 53.5058C57.8477 53.6087 58.8397 53.2088 59.1387 53.0603C59.4377 52.9118 59.8337 52.7613 59.8337 52.7613C59.8337 52.7613 61.7206 52.8603 62.7621 52.6128C63.8036 52.3653 64.847 51.7198 64.847 50.7259C64.847 49.7319 63.3086 48.5479 63.3086 48.5479" fill="white"/>
<path d="M62.4591 49.0924C62.4591 49.0924 61.1682 49.9853 61.0197 50.2348C60.8712 50.4843 60.2752 50.7298 60.2752 50.7298C59.7823 50.6034 59.3003 50.4379 58.8338 50.2348C58.1903 49.9358 58.0418 49.6883 57.8438 49.8388C57.6458 49.9893 56.2598 51.5772 56.2598 51.8188C56.2598 52.0604 57.5507 53.4028 57.6992 53.5058C57.8477 53.6087 58.8397 53.2088 59.1387 53.0603C59.4377 52.9118 59.8337 52.7613 59.8337 52.7613C59.8337 52.7613 61.7206 52.8603 62.7621 52.6128C63.8036 52.3653 64.847 51.7198 64.847 50.7259C64.847 49.7319 63.3086 48.5479 63.3086 48.5479" stroke="#263238" stroke-miterlimit="10"/>
<path d="M56.6497 52.2703L58.0891 50.6309" stroke="#263238" stroke-miterlimit="10"/>
<path d="M57.0972 52.8643L58.4871 51.2764" stroke="#263238" stroke-miterlimit="10"/>
<path d="M57.5447 53.2126L58.9346 51.9712" stroke="#263238" stroke-miterlimit="10"/>
<path d="M51.4677 60.1938L51.5139 61.7771C51.518 61.9178 51.466 62.0544 51.3694 62.1567C51.2729 62.2591 51.1396 62.3189 50.9989 62.323L46.1302 62.465C45.9827 62.4693 45.8395 62.4148 45.7322 62.3135C45.6248 62.2123 45.5621 62.0725 45.5578 61.925L45.5136 60.407C45.5093 60.2595 45.5637 60.1164 45.665 60.009C45.7662 59.9017 45.906 59.839 46.0535 59.8347L50.9222 59.6927C51.0605 59.6886 51.195 59.7387 51.2969 59.8323C51.3988 59.9259 51.4601 60.0557 51.4677 60.1938Z" fill="white" stroke="#263238" stroke-miterlimit="10"/>
<path d="M52.2982 61.4087L52.2722 60.5161L51.4786 60.5393L51.5046 61.4318L52.2982 61.4087Z" fill="white" stroke="#263238" stroke-miterlimit="10"/>
<path d="M47.425 54.4028C47.425 54.4028 47.8705 54.9968 47.7556 56.9768C47.7572 57.2748 47.7777 57.5724 47.817 57.8678C48.2173 58.1806 48.6417 58.4613 49.0862 58.7073C49.7158 59.0379 50.0049 59.0043 50.0069 59.2518C50.0089 59.4993 49.597 61.5704 49.401 61.7228C49.205 61.8753 47.3557 61.6674 47.1854 61.61C47.0151 61.5525 46.726 60.5229 46.6627 60.1962C46.6143 59.7245 46.5899 59.2507 46.5894 58.7766C46.0879 58.1788 45.6604 57.5226 45.3163 56.8223C44.8767 55.8442 44.5124 54.6324 45.3004 54.0265C45.4266 53.9399 45.5691 53.88 45.7192 53.8504C45.8694 53.8207 46.024 53.8221 46.1736 53.8543" fill="white"/>
<path d="M47.425 54.4028C47.425 54.4028 47.8705 54.9968 47.7556 56.9768C47.7572 57.2748 47.7777 57.5724 47.817 57.8678C48.2173 58.1806 48.6417 58.4613 49.0862 58.7073C49.7158 59.0379 50.0049 59.0043 50.0069 59.2518C50.0089 59.4993 49.597 61.5704 49.401 61.7228C49.205 61.8753 47.3557 61.6674 47.1854 61.61C47.0151 61.5525 46.726 60.5229 46.6627 60.1962C46.6143 59.7245 46.5899 59.2507 46.5894 58.7766C46.0879 58.1788 45.6604 57.5226 45.3163 56.8223C44.8767 55.8442 44.5124 54.6324 45.3004 54.0265C45.4266 53.9399 45.5691 53.88 45.7192 53.8504C45.8694 53.8207 46.024 53.8221 46.1736 53.8543" stroke="#263238" stroke-miterlimit="10"/>
<path d="M48.8049 61.679L49.2267 59.5386" stroke="#263238" stroke-miterlimit="10"/>
<path d="M48.0605 61.6892L48.4724 59.6182" stroke="#263238" stroke-miterlimit="10"/>
<path d="M47.512 61.5462L47.6486 59.687" stroke="#263238" stroke-miterlimit="10"/>
<path d="M53.345 34.7548C53.345 34.7548 53.8796 34.4182 53.939 35.4914C53.9984 36.5646 52.9351 37.7664 52.9351 37.7664C52.8832 38.467 52.7712 39.1619 52.6005 39.8434C52.3332 40.8473 51.0937 42.6511 50.1572 42.7184C49.2206 42.7857 47.11 41.1146 46.708 40.2454C46.3061 39.3762 46.51 37.8337 45.7695 36.8299C45.029 35.826 46.5734 34.4182 47.7792 33.6817C48.985 32.9451 50.9927 32.5452 51.5293 32.7451C52.0659 32.9451 53.345 34.7548 53.345 34.7548Z" fill="white" stroke="#263238" stroke-miterlimit="10"/>
<path d="M48.2843 38.8638C48.2347 38.9585 48.2087 39.0638 48.2087 39.1707C48.2087 39.2776 48.2347 39.3829 48.2843 39.4776C48.4486 39.8439 49.0208 39.7211 49.1436 39.436" stroke="#263238" stroke-miterlimit="10"/>
<path d="M48.4485 40.2538C48.4485 40.2538 50.0028 40.2953 50.6166 39.1489" stroke="#263238" stroke-miterlimit="10"/>
<path d="M49.9495 37.6896C50.0425 37.943 50.0326 38.1806 49.9257 38.2202C49.8188 38.2598 49.6584 38.0836 49.5654 37.8242C49.4723 37.5648 49.4822 37.3312 49.5891 37.2936C49.696 37.256 49.8564 37.4342 49.9495 37.6896Z" fill="#263238"/>
<path d="M47.7397 38.2282C47.8288 38.4836 47.8149 38.7212 47.708 38.7588C47.6011 38.7964 47.4427 38.6182 47.3536 38.3628C47.2645 38.1074 47.2783 37.8698 47.3853 37.8322C47.4922 37.7945 47.6506 37.9727 47.7397 38.2282Z" fill="#263238"/>
<path d="M46.7715 37.513C46.7715 37.513 46.7715 37.022 47.5892 37.0635" stroke="#263238" stroke-miterlimit="10"/>
<path d="M48.9812 36.8279C48.9812 36.8279 49.4703 36.3369 50.0029 36.7468" stroke="#263238" stroke-miterlimit="10"/>
<path d="M44.9083 33.5492C44.9083 33.5492 42.7659 33.0127 42.6313 34.0185C42.4967 35.0243 44.1044 35.4243 44.1044 35.4243C44.1044 35.4243 42.0947 35.357 43.3005 36.4282C44.5064 37.4993 47.9872 36.5628 49.2603 35.8916C50.07 35.4371 50.7586 34.7947 51.2681 34.0185C51.2681 34.0185 50.7335 34.8877 51.4661 35.4916L52.2026 36.0856L52.2699 36.9568L52.8639 36.8895L52.6659 35.6164C52.6659 35.6164 53.1332 34.7471 53.3352 34.7471C53.5371 34.7471 54.2717 34.4779 53.1372 32.2009C52.0026 29.9239 49.789 29.7912 47.7912 30.5951C45.7934 31.399 44.9083 33.5492 44.9083 33.5492Z" fill="#263238" stroke="#263238" stroke-miterlimit="10"/>
<path d="M63.1897 90.1376C63.1214 90.1378 63.0537 90.1246 62.9906 90.0987C62.9274 90.0727 62.87 90.0345 62.8216 89.9863C62.7732 89.9381 62.7348 89.8809 62.7086 89.8178C62.6824 89.7547 62.6689 89.6871 62.6689 89.6188V87.6091C62.6689 87.471 62.7238 87.3386 62.8215 87.2409C62.9191 87.1432 63.0516 87.0884 63.1897 87.0884C63.258 87.0884 63.3256 87.1019 63.3887 87.1281C63.4517 87.1542 63.509 87.1926 63.5572 87.241C63.6054 87.2894 63.6436 87.3468 63.6695 87.41C63.6955 87.4732 63.7087 87.5408 63.7084 87.6091V89.6188C63.7084 89.7564 63.6538 89.8884 63.5565 89.9856C63.4592 90.0829 63.3273 90.1376 63.1897 90.1376Z" fill="#263238" stroke="#263238" stroke-miterlimit="10"/>
<path d="M75.8339 90.1376C75.6964 90.1376 75.5644 90.0829 75.4671 89.9856C75.3698 89.8884 75.3152 89.7564 75.3152 89.6188V87.6091C75.3149 87.5408 75.3282 87.4732 75.3541 87.41C75.3801 87.3468 75.4182 87.2894 75.4664 87.241C75.5146 87.1926 75.5719 87.1542 75.635 87.1281C75.698 87.1019 75.7657 87.0884 75.8339 87.0884C75.9721 87.0884 76.1045 87.1432 76.2022 87.2409C76.2998 87.3386 76.3547 87.471 76.3547 87.6091V89.6188C76.3547 89.6871 76.3412 89.7547 76.315 89.8178C76.2888 89.8809 76.2504 89.9381 76.2021 89.9863C76.1537 90.0345 76.0962 90.0727 76.0331 90.0987C75.9699 90.1246 75.9022 90.1378 75.8339 90.1376Z" fill="#263238" stroke="#263238" stroke-miterlimit="10"/>
<path d="M63.847 87.9554V89.0741C63.847 89.3435 63.954 89.6019 64.1445 89.7924C64.335 89.9828 64.5933 90.0899 64.8627 90.0899H74.2618C74.3952 90.0901 74.5274 90.064 74.6508 90.0131C74.7741 89.9621 74.8862 89.8873 74.9806 89.7929C75.075 89.6986 75.1498 89.5865 75.2007 89.4631C75.2517 89.3398 75.2778 89.2076 75.2775 89.0741V87.9554C75.2775 87.7454 75.361 87.5439 75.5095 87.3954C75.658 87.2469 75.8595 87.1634 76.0695 87.1634H76.3428C76.5048 87.1634 76.6609 87.1022 76.7799 86.9921C76.8988 86.882 76.9718 86.731 76.9843 86.5694L78.8039 64.1519H60.5879L62.4055 86.5694C62.4171 86.731 62.4895 86.8822 62.6082 86.9925C62.7269 87.1027 62.8831 87.1638 63.0451 87.1634C63.1499 87.1621 63.254 87.1816 63.3512 87.2208C63.4484 87.2601 63.5369 87.3182 63.6115 87.3919C63.6861 87.4655 63.7453 87.5533 63.7858 87.65C63.8262 87.7468 63.847 87.8506 63.847 87.9554Z" fill="#81888C" stroke="#263238" stroke-miterlimit="10"/>
<path d="M78.3961 63.3955H61.3542V64.1578H78.3961V63.3955Z" fill="#81888C" stroke="#263238" stroke-miterlimit="10"/>
<path d="M79.3939 63.9834H60.0671V65.7991H79.3939V63.9834Z" fill="#81888C" stroke="#263238" stroke-miterlimit="10"/>
<path d="M71.3137 68.4941C71.4932 68.5389 71.6594 68.6258 71.7987 68.7476C71.905 68.8532 71.9968 68.9724 72.072 69.102C72.2343 69.3772 72.3809 69.6643 72.5393 69.9554L73.1847 69.6227L73.1947 69.6326C73.0937 69.8029 72.9966 69.9732 72.8877 70.1435C72.6323 70.5652 72.3769 70.983 72.1235 71.4047C72.113 71.4281 72.0956 71.4476 72.0736 71.4607C72.0517 71.4738 72.0262 71.4798 72.0007 71.478C71.3434 71.4681 70.686 71.4641 70.0207 71.4562H69.9554L70.5355 71.08L70.2543 70.5632C70.0563 70.189 69.8584 69.8128 69.6366 69.4445C69.4181 69.0272 69.0579 68.7015 68.6208 68.5258H69.0743C69.1436 68.5258 69.2129 68.5159 69.2822 68.51L71.3137 68.4941Z" fill="white"/>
<path d="M65.0767 73.357L65.74 72.0344L65.142 71.5572H65.2351L67.2467 71.5433C67.2737 71.5401 67.301 71.546 67.3243 71.56C67.3476 71.574 67.3655 71.5953 67.3754 71.6205C67.7041 72.2363 68.0387 72.8501 68.3654 73.4639C68.3782 73.489 68.3894 73.5148 68.3991 73.5411L67.7833 73.2085L67.4388 73.7708L67.0032 74.4836C66.9933 74.5076 66.9755 74.5274 66.9529 74.54C66.9303 74.5526 66.904 74.5571 66.8785 74.5529C66.5955 74.5422 66.3132 74.5164 66.033 74.4757C65.8135 74.4371 65.6093 74.3376 65.4437 74.1884C65.278 74.0392 65.1577 73.8465 65.0965 73.6322C65.0934 73.6235 65.0887 73.6154 65.0826 73.6085L65.0767 73.357Z" fill="white"/>
<path d="M74.3568 73.6358C74.1845 74.1942 73.7232 74.3665 73.2222 74.4635C72.9844 74.5005 72.7442 74.5197 72.5035 74.5209C72.4818 74.5205 72.4606 74.5151 72.4413 74.5052C72.4221 74.4952 72.4054 74.481 72.3926 74.4635C72.0837 73.9012 71.7808 73.3349 71.4759 72.7686C71.4676 72.7526 71.4603 72.736 71.4541 72.7191L73.4341 71.5054L73.5945 71.8222C73.8123 72.2498 74.0301 72.6755 74.2459 73.1032C74.2855 73.1804 74.3152 73.2596 74.3489 73.3388L74.3568 73.6358Z" fill="white"/>
<path d="M71.0065 74.0104C71.0164 74.2084 71.0283 74.3905 71.0343 74.5826C71.0343 74.6578 71.0521 74.6895 71.1392 74.6895C71.6659 74.6895 72.1945 74.6895 72.7232 74.6895C73.0548 74.7011 73.3848 74.6389 73.6894 74.5074C73.8518 74.4282 74.0003 74.3212 74.1488 74.2302C74.1112 74.3054 74.0637 74.3965 74.0161 74.4856C73.6677 75.139 73.3172 75.7944 72.9667 76.4458C72.8777 76.6221 72.7402 76.7693 72.5705 76.8703C72.4008 76.9713 72.2058 77.0218 72.0084 77.016C71.6857 77.016 71.3649 77.016 71.0184 77.016V77.7447H70.9848L70.7412 77.3012C70.4917 76.8438 70.2403 76.3864 69.9928 75.927C69.9845 75.9076 69.9802 75.8867 69.9802 75.8657C69.9802 75.8446 69.9845 75.8237 69.9928 75.8043C70.3155 75.2103 70.6442 74.6262 70.9709 74.0361C70.9781 74.0238 70.9861 74.0119 70.9946 74.0005L71.0065 74.0104Z" fill="white"/>
<path d="M65.2468 74.1943C65.4233 74.3582 65.6311 74.4846 65.8577 74.566C66.0844 74.6473 66.3251 74.6819 66.5655 74.6676C67.4169 74.6676 68.2663 74.6676 69.1177 74.6794C69.1628 74.6808 69.2078 74.6848 69.2524 74.6913V77.0218H69.1969C68.6366 77.0218 68.0782 77.0218 67.5179 77.0218C67.1926 77.0333 66.8753 76.9199 66.6308 76.705C66.5882 76.6646 66.5521 76.6179 66.5239 76.5664C66.1061 75.8001 65.6903 75.0299 65.2726 74.2617C65.2627 74.232 65.2547 74.2122 65.2468 74.1943Z" fill="white"/>
<path d="M68.6602 71.6523L66.6584 70.4643L66.8406 70.1811C67.1218 69.7475 67.4009 69.3139 67.6841 68.8823C67.7728 68.7619 67.8963 68.6716 68.0379 68.6235C68.1795 68.5753 68.3324 68.5717 68.4761 68.613C68.6869 68.6771 68.8792 68.7912 69.0364 68.9456C69.3112 69.2058 69.5355 69.5146 69.6977 69.8564C69.7046 69.872 69.7082 69.8889 69.7082 69.9059C69.7082 69.923 69.7046 69.9398 69.6977 69.9554C69.3625 70.5059 69.0252 71.0563 68.686 71.6067L68.6602 71.6523Z" fill="white"/>
<path d="M67.9693 79.6867V79.851H67.7713V79.6748C67.7713 79.5026 67.702 79.3976 67.5456 79.3976C67.3892 79.3976 67.3199 79.5026 67.3199 79.6748V80.6965C67.3199 80.8688 67.3912 80.9737 67.5456 80.9737C67.7 80.9737 67.7713 80.8688 67.7713 80.6965V80.3104H67.5733V80.1124H67.9693V80.6807C67.9693 80.9737 67.8307 81.1658 67.5337 81.1658C67.2367 81.1658 67.1001 80.9678 67.1001 80.6807V79.6907C67.1001 79.3976 67.2387 79.2056 67.5337 79.2056C67.8287 79.2056 67.9693 79.3976 67.9693 79.6867Z" fill="white"/>
<path d="M68.1733 81.1502V79.2197H68.3892V80.9562H68.9416V81.1542L68.1733 81.1502Z" fill="white"/>
<path d="M69.3216 80.762L69.2463 81.158H69.0483L69.4186 79.2275H69.7295L70.0997 81.158H69.8938L69.8186 80.762H69.3216ZM69.3493 80.5779H69.779L69.5612 79.4632L69.3493 80.5779Z" fill="white"/>
<path d="M71.1037 79.6832V79.7366H70.9057V79.6733C70.9057 79.499 70.8384 79.3981 70.684 79.3981C70.5295 79.3981 70.4642 79.499 70.4642 79.6693C70.4642 80.1029 71.1116 80.1445 71.1116 80.687C71.1116 80.9801 70.9711 81.1702 70.6761 81.1702C70.381 81.1702 70.2424 80.9722 70.2424 80.687V80.5861H70.4404V80.7068C70.4404 80.8811 70.5117 80.9821 70.6661 80.9821C70.8206 80.9821 70.8938 80.8811 70.8938 80.7068C70.8938 80.2772 70.2484 80.2356 70.2484 79.6911C70.2484 79.3941 70.385 79.21 70.6761 79.21C70.9671 79.21 71.1037 79.3981 71.1037 79.6832Z" fill="white"/>
<path d="M72.1293 79.6832V79.7366H71.9313V79.6733C71.9313 79.499 71.866 79.3981 71.7116 79.3981C71.5571 79.3981 71.4898 79.499 71.4898 79.6693C71.4898 80.1029 72.1392 80.1445 72.1392 80.687C72.1392 80.9801 71.9967 81.1702 71.7017 81.1702C71.4066 81.1702 71.27 80.9722 71.27 80.687V80.5861H71.468V80.7068C71.468 80.8811 71.5413 80.9821 71.6957 80.9821C71.8502 80.9821 71.9214 80.8811 71.9214 80.7068C71.9214 80.2772 71.276 80.2356 71.276 79.6911C71.276 79.3941 71.4146 79.21 71.7036 79.21C71.9927 79.21 72.1293 79.3981 72.1293 79.6832Z" fill="white"/>
<path d="M42.6968 90.1376C42.6285 90.1378 42.5608 90.1246 42.4976 90.0987C42.4345 90.0727 42.377 90.0345 42.3287 89.9863C42.2803 89.9381 42.2419 89.8809 42.2157 89.8178C42.1895 89.7547 42.176 89.6871 42.176 89.6188V87.6091C42.176 87.471 42.2309 87.3386 42.3285 87.2409C42.4262 87.1432 42.5587 87.0884 42.6968 87.0884C42.8345 87.0889 42.9665 87.144 43.0637 87.2416C43.1609 87.3392 43.2155 87.4714 43.2155 87.6091V89.6188C43.2155 89.7564 43.1609 89.8884 43.0636 89.9856C42.9663 90.0829 42.8344 90.1376 42.6968 90.1376Z" fill="#263238" stroke="#263238" stroke-miterlimit="10"/>
<path d="M55.3391 90.1376C55.2015 90.1376 55.0695 90.0829 54.9723 89.9856C54.875 89.8884 54.8203 89.7564 54.8203 89.6188V87.6091C54.8201 87.5408 54.8333 87.4732 54.8592 87.41C54.8852 87.3468 54.9234 87.2894 54.9716 87.241C55.0198 87.1926 55.077 87.1542 55.1401 87.1281C55.2032 87.1019 55.2708 87.0884 55.3391 87.0884C55.4074 87.0884 55.475 87.1019 55.5381 87.1281C55.6011 87.1542 55.6584 87.1926 55.7066 87.241C55.7548 87.2894 55.793 87.3468 55.8189 87.41C55.8449 87.4732 55.8581 87.5408 55.8578 87.6091V89.6188C55.8578 89.7564 55.8032 89.8884 55.7059 89.9856C55.6086 90.0829 55.4767 90.1376 55.3391 90.1376Z" fill="#263238" stroke="#263238" stroke-miterlimit="10"/>
<path d="M43.362 87.9554V89.0741C43.362 89.3435 43.469 89.6019 43.6595 89.7924C43.85 89.9828 44.1083 90.0899 44.3777 90.0899H53.7768C54.0462 90.0899 54.3045 89.9828 54.495 89.7924C54.6855 89.6019 54.7925 89.3435 54.7925 89.0741V87.9554C54.7925 87.7454 54.876 87.5439 55.0245 87.3954C55.173 87.2469 55.3745 87.1634 55.5845 87.1634H55.8597C56.0217 87.1638 56.1779 87.1027 56.2966 86.9925C56.4153 86.8822 56.4877 86.731 56.4993 86.5694L58.311 64.1519H40.095L41.9106 86.5694C41.9231 86.731 41.9961 86.882 42.115 86.9921C42.234 87.1022 42.3901 87.1634 42.5522 87.1634C42.6576 87.161 42.7626 87.1798 42.8607 87.2185C42.9589 87.2572 43.0483 87.3152 43.1237 87.389C43.1992 87.4628 43.2591 87.5509 43.3 87.6482C43.3409 87.7454 43.362 87.8499 43.362 87.9554Z" fill="#92E3A9" stroke="#263238" stroke-miterlimit="10"/>
<path d="M57.9012 63.3955H40.8594V64.1578H57.9012V63.3955Z" fill="#92E3A9" stroke="#263238" stroke-miterlimit="10"/>
<path d="M58.899 63.9834H39.5723V65.7991H58.899V63.9834Z" fill="#92E3A9" stroke="#263238" stroke-miterlimit="10"/>
<path d="M50.8207 68.4942C50.9999 68.5397 51.166 68.6265 51.3057 68.7476C51.4114 68.8506 51.5038 68.9663 51.581 69.0921C51.7433 69.3673 51.8898 69.6544 52.0482 69.9455L52.6937 69.6129L52.7036 69.6228L52.3947 70.1336C52.1413 70.5553 51.8859 70.9731 51.6324 71.3949C51.622 71.4182 51.6046 71.4377 51.5826 71.4508C51.5606 71.4639 51.5352 71.47 51.5097 71.4681C50.8523 71.4582 50.193 71.4543 49.5297 71.4463H49.4643L50.0445 71.0701C49.9475 70.8939 49.8564 70.7236 49.7633 70.5534C49.5653 70.1791 49.3673 69.8029 49.1456 69.4347C48.9295 69.0151 48.5707 68.6865 48.1338 68.508H48.5892C48.6585 68.508 48.7278 68.4981 48.7872 68.4922L50.8207 68.4942Z" fill="white"/>
<path d="M44.5836 73.357L45.2449 72.0344L44.637 71.5572H44.7321L46.7437 71.5433C46.7707 71.5401 46.798 71.546 46.8213 71.56C46.8445 71.574 46.8625 71.5953 46.8724 71.6205C47.2011 72.2357 47.5311 72.8501 47.8624 73.4639C47.8723 73.4817 47.8783 73.5015 47.8961 73.5411L47.2803 73.2085L46.9358 73.7708C46.7893 74.0084 46.6428 74.246 46.5002 74.4836C46.4903 74.5076 46.4725 74.5274 46.4499 74.54C46.4272 74.5526 46.401 74.5571 46.3755 74.5529C46.0918 74.5422 45.8089 74.5164 45.528 74.4757C45.3089 74.4368 45.1051 74.3371 44.9398 74.1879C44.7746 74.0388 44.6546 73.8463 44.5935 73.6322C44.5904 73.6235 44.5857 73.6154 44.5796 73.6085L44.5836 73.357Z" fill="white"/>
<path d="M53.8561 73.6358C53.6838 74.1942 53.2225 74.3665 52.7196 74.4635C52.4818 74.5006 52.2415 74.5198 52.0008 74.5209C51.9795 74.5202 51.9586 74.5147 51.9397 74.5048C51.9209 74.4948 51.9045 74.4807 51.8919 74.4635C51.583 73.9012 51.2768 73.3362 50.9732 72.7686L50.9514 72.7191L52.9314 71.5054L53.0938 71.8222C53.3116 72.2498 53.5294 72.6755 53.7452 73.1032C53.7828 73.1804 53.8145 73.2596 53.8482 73.3388L53.8561 73.6358Z" fill="white"/>
<path d="M50.5117 74.0104C50.5117 74.2084 50.5354 74.3905 50.5414 74.5826C50.5414 74.6578 50.5592 74.6895 50.6443 74.6895C51.173 74.6895 51.7017 74.6895 52.2283 74.6895C52.5599 74.7011 52.89 74.6389 53.1946 74.5074C53.3569 74.4282 53.5054 74.3212 53.6539 74.2302C53.6143 74.3054 53.5688 74.3965 53.5213 74.4856C53.1708 75.139 52.8223 75.7944 52.4719 76.4458C52.3823 76.6221 52.2445 76.7692 52.0744 76.8702C51.9044 76.9712 51.7092 77.0217 51.5116 77.016C51.1908 77.016 50.8701 77.016 50.5216 77.016V77.7447H50.4879L50.2444 77.3012C49.9949 76.8438 49.7434 76.3864 49.4959 75.927C49.4872 75.9078 49.4827 75.8868 49.4827 75.8657C49.4827 75.8445 49.4872 75.8236 49.4959 75.8043C49.818 75.2142 50.1434 74.6249 50.4721 74.0361L50.4978 74.0005L50.5117 74.0104Z" fill="white"/>
<path d="M44.748 74.1943C44.9247 74.3585 45.1328 74.485 45.3599 74.5664C45.5869 74.6477 45.828 74.6821 46.0687 74.6676C46.9201 74.6676 47.7695 74.6676 48.6189 74.6794C48.664 74.6806 48.709 74.6846 48.7536 74.6913V77.0218H48.7001C48.1398 77.0218 47.5794 77.0218 47.0211 77.0218C46.6958 77.0333 46.3785 76.9199 46.134 76.705C46.0914 76.6646 46.0553 76.6179 46.0271 76.5664C45.6093 75.8001 45.1935 75.0299 44.7758 74.2617L44.748 74.1943Z" fill="white"/>
<path d="M48.1676 71.6523L46.1658 70.4643C46.2291 70.3673 46.2866 70.2663 46.3479 70.1811C46.6291 69.7475 46.9083 69.3139 47.1914 68.8823C47.2802 68.7619 47.4036 68.6716 47.5452 68.6235C47.6868 68.5753 47.8397 68.5717 47.9834 68.613C48.1943 68.6771 48.3865 68.7912 48.5438 68.9456C48.8186 69.2058 49.0428 69.5146 49.2051 69.8564C49.2119 69.872 49.2155 69.8889 49.2155 69.9059C49.2155 69.923 49.2119 69.9398 49.2051 69.9554L48.1933 71.6067L48.1676 71.6523Z" fill="white"/>
<path d="M46.6091 79.2197C46.914 79.2197 47.0427 79.3999 47.0427 79.6929V79.9246C47.0427 80.2295 46.9002 80.3899 46.5933 80.3899H46.3953V81.1502H46.1794V79.2197H46.6091ZM46.5933 80.1978C46.7536 80.1978 46.8309 80.1226 46.8309 79.9385V79.6811C46.8309 79.5048 46.7675 79.4157 46.6091 79.4157H46.4111V80.2077L46.5933 80.1978Z" fill="white"/>
<path d="M47.2112 81.1502V79.2197H47.427V80.9562H47.9774V81.1542L47.2112 81.1502Z" fill="white"/>
<path d="M48.3594 80.762L48.2842 81.158H48.0862L48.4564 79.2275H48.7673L49.1376 81.158H48.9217L48.8465 80.762H48.3594ZM48.3871 80.5779H48.8168L48.599 79.4632L48.3871 80.5779Z" fill="white"/>
<path d="M50.1416 79.6832V79.7366H49.9436V79.6733C49.9436 79.499 49.8763 79.3981 49.7218 79.3981C49.5674 79.3981 49.502 79.499 49.502 79.6693C49.502 80.1029 50.1495 80.1445 50.1495 80.687C50.1495 80.9801 50.0089 81.1702 49.7139 81.1702C49.4189 81.1702 49.2803 80.9722 49.2803 80.687V80.5861H49.4783V80.7068C49.4783 80.8811 49.5496 80.9821 49.704 80.9821C49.8584 80.9821 49.9297 80.8811 49.9297 80.7068C49.9297 80.2772 49.2862 80.2356 49.2862 79.6911C49.2862 79.3941 49.4228 79.21 49.7119 79.21C50.001 79.21 50.1416 79.3981 50.1416 79.6832Z" fill="white"/>
<path d="M50.6108 81.1503V79.4158H50.2544V79.2178H51.1791V79.4158H50.8227V81.1503H50.6108Z" fill="white"/>
<path d="M51.5393 79.2197V81.1502H51.3235V79.2197H51.5393Z" fill="white"/>
<path d="M52.6126 79.6871V79.8614H52.4146V79.6753C52.4146 79.503 52.3453 79.3981 52.1889 79.3981C52.0325 79.3981 51.9632 79.503 51.9632 79.6753V80.6969C51.9632 80.8692 52.0345 80.9741 52.1889 80.9741C52.3433 80.9741 52.4146 80.8692 52.4146 80.6969V80.4455H52.6126V80.6851C52.6126 80.9781 52.474 81.1702 52.177 81.1702C51.88 81.1702 51.7434 80.9722 51.7434 80.6851V79.6951C51.7434 79.402 51.882 79.21 52.177 79.21C52.472 79.21 52.6126 79.3981 52.6126 79.6871Z" fill="white"/>
<path d="M21.8137 90.1376C21.7454 90.1378 21.6777 90.1246 21.6146 90.0987C21.5514 90.0727 21.494 90.0345 21.4456 89.9863C21.3972 89.9381 21.3588 89.8809 21.3326 89.8178C21.3065 89.7547 21.293 89.6871 21.293 89.6188V87.6091C21.293 87.471 21.3478 87.3386 21.4455 87.2409C21.5431 87.1432 21.6756 87.0884 21.8137 87.0884C21.882 87.0884 21.9496 87.1019 22.0127 87.1281C22.0758 87.1542 22.133 87.1926 22.1812 87.241C22.2294 87.2894 22.2676 87.3468 22.2936 87.41C22.3195 87.4732 22.3327 87.5408 22.3325 87.6091V89.6188C22.3325 89.7564 22.2778 89.8884 22.1805 89.9856C22.0832 90.0829 21.9513 90.1376 21.8137 90.1376Z" fill="#263238" stroke="#263238" stroke-miterlimit="10"/>
<path d="M34.4519 90.1376C34.3143 90.1376 34.1823 90.0829 34.0851 89.9856C33.9878 89.8884 33.9331 89.7564 33.9331 89.6188V87.6091C33.9328 87.5408 33.9461 87.4732 33.972 87.41C33.998 87.3468 34.0361 87.2894 34.0843 87.241C34.1325 87.1926 34.1898 87.1542 34.2529 87.1281C34.316 87.1019 34.3836 87.0884 34.4519 87.0884C34.59 87.0884 34.7224 87.1432 34.8201 87.2409C34.9177 87.3386 34.9726 87.471 34.9726 87.6091V89.6188C34.9726 89.6871 34.9591 89.7547 34.9329 89.8178C34.9067 89.8809 34.8683 89.9381 34.82 89.9863C34.7716 90.0345 34.7142 90.0727 34.651 90.0987C34.5878 90.1246 34.5202 90.1378 34.4519 90.1376Z" fill="#263238" stroke="#263238" stroke-miterlimit="10"/>
<path d="M22.4711 87.9554V89.0741C22.4711 89.3435 22.5781 89.6019 22.7686 89.7924C22.9591 89.9828 23.2174 90.0899 23.4868 90.0899H32.8859C33.0193 90.0901 33.1515 90.064 33.2749 90.0131C33.3982 89.9621 33.5103 89.8873 33.6047 89.7929C33.6991 89.6986 33.7739 89.5865 33.8248 89.4631C33.8758 89.3398 33.9019 89.2076 33.9016 89.0741V87.9554C33.9016 87.7454 33.9851 87.5439 34.1336 87.3954C34.2821 87.2469 34.4836 87.1634 34.6936 87.1634H34.9669C35.1289 87.1634 35.285 87.1022 35.404 86.9921C35.5229 86.882 35.5959 86.731 35.6084 86.5694L37.4221 64.1519H19.2061L21.0237 86.5694C21.0352 86.731 21.1077 86.8822 21.2264 86.9925C21.3451 87.1027 21.5012 87.1638 21.6632 87.1634C21.7686 87.1613 21.8733 87.1802 21.9712 87.2191C22.0691 87.258 22.1583 87.316 22.2335 87.3897C22.3088 87.4635 22.3685 87.5515 22.4093 87.6486C22.4501 87.7458 22.4711 87.8501 22.4711 87.9554Z" fill="#263238" stroke="#263238" stroke-miterlimit="10"/>
<path d="M37.0201 63.3955H19.9783V64.1578H37.0201V63.3955Z" fill="#263238" stroke="#263238" stroke-miterlimit="10"/>
<path d="M38.0179 63.9834H18.6912V65.7991H38.0179V63.9834Z" fill="#263238" stroke="#263238" stroke-miterlimit="10"/>
<path d="M29.9375 68.4941C30.117 68.5389 30.2833 68.6258 30.4226 68.7476C30.5267 68.8536 30.6166 68.9728 30.6899 69.102C30.8523 69.3772 30.9988 69.6643 31.1572 69.9554L31.8027 69.6227L31.8126 69.6326L31.5057 70.1435C31.2502 70.5652 30.9948 70.983 30.7414 71.4047C30.7309 71.4281 30.7135 71.4476 30.6915 71.4607C30.6696 71.4738 30.6441 71.4798 30.6186 71.478C29.9613 71.4681 29.3019 71.4641 28.6386 71.4562H28.5733L29.1534 71.08L28.8723 70.5632C28.6743 70.189 28.4763 69.8128 28.2545 69.4445C28.036 69.0272 27.6759 68.7015 27.2388 68.5258H27.6922C27.7615 68.5258 27.8308 68.5159 27.8902 68.51L29.9375 68.4941Z" fill="white"/>
<path d="M23.7004 73.357L24.3637 72.0344L23.7598 71.5572H23.8529L25.8646 71.5433C25.8916 71.5401 25.9188 71.546 25.9421 71.56C25.9654 71.574 25.9834 71.5953 25.9933 71.6205C26.322 72.2363 26.6566 72.8501 26.9833 73.4639C26.996 73.489 27.0073 73.5148 27.0169 73.5411L26.4012 73.2085L26.0566 73.7708L25.621 74.4836C25.6111 74.5076 25.5934 74.5274 25.5707 74.54C25.5481 74.5526 25.5219 74.5571 25.4963 74.5529C25.2127 74.5421 24.9298 74.5163 24.6489 74.4757C24.4297 74.4368 24.2259 74.3371 24.0607 74.1879C23.8954 74.0388 23.7754 73.8463 23.7143 73.6322C23.7112 73.6235 23.7065 73.6154 23.7004 73.6085V73.357Z" fill="white"/>
<path d="M32.9808 73.6358C32.8085 74.1942 32.3472 74.3665 31.8463 74.4635C31.6084 74.5005 31.3682 74.5197 31.1275 74.5209C31.1059 74.5205 31.0846 74.5151 31.0654 74.5052C31.0461 74.4952 31.0295 74.481 31.0166 74.4635C30.7078 73.9012 30.4048 73.3349 30.0999 72.7686C30.0916 72.7526 30.0844 72.736 30.0781 72.7191L32.0581 71.5054L32.2185 71.8222C32.4363 72.2498 32.6541 72.6755 32.8699 73.1032C32.9095 73.1804 32.9392 73.2596 32.9729 73.3388L32.9808 73.6358Z" fill="white"/>
<path d="M29.6306 74.0104C29.6306 74.2084 29.6524 74.3905 29.6583 74.5826C29.6583 74.6578 29.6761 74.6895 29.7613 74.6895C30.2899 74.6895 30.8186 74.6895 31.3453 74.6895C31.6769 74.7011 32.0069 74.6389 32.3115 74.5074C32.4739 74.4282 32.6224 74.3212 32.7709 74.2302C32.7313 74.3054 32.6857 74.3965 32.6382 74.4856C32.2897 75.139 31.9393 75.7944 31.5888 76.4458C31.4997 76.6221 31.3623 76.7693 31.1926 76.8703C31.0229 76.9713 30.8279 77.0218 30.6305 77.016C30.3077 77.016 29.987 77.016 29.6405 77.016V77.7447H29.6068L29.3633 77.3012C29.1138 76.8438 28.8623 76.3864 28.6148 75.927C28.6066 75.9076 28.6023 75.8867 28.6023 75.8657C28.6023 75.8446 28.6066 75.8237 28.6148 75.8043C28.9376 75.2103 29.2663 74.6262 29.593 74.0361C29.6002 74.0238 29.6081 74.0119 29.6167 74.0005L29.6306 74.0104Z" fill="white"/>
<path d="M23.8708 74.1943C24.0473 74.3582 24.2551 74.4846 24.4817 74.566C24.7084 74.6473 24.9492 74.6819 25.1895 74.6676C26.0409 74.6676 26.8904 74.6676 27.7418 74.6794C27.7868 74.6808 27.8318 74.6848 27.8764 74.6913V77.0218H27.8209C27.2606 77.0218 26.7023 77.0218 26.1419 77.0218C25.8166 77.0333 25.4993 76.9199 25.2549 76.705C25.2122 76.6646 25.1762 76.6179 25.148 76.5664C24.7302 75.8001 24.3144 75.0299 23.8966 74.2617C23.8867 74.232 23.8788 74.2122 23.8708 74.1943Z" fill="white"/>
<path d="M27.2843 71.6523L25.2825 70.4643L25.4646 70.1811C25.7458 69.7475 26.025 69.3139 26.3081 68.8823C26.3969 68.7619 26.5203 68.6716 26.6619 68.6235C26.8035 68.5753 26.9564 68.5717 27.1001 68.613C27.311 68.6771 27.5032 68.7912 27.6604 68.9456C27.9353 69.2058 28.1595 69.5146 28.3218 69.8564C28.3286 69.872 28.3322 69.8889 28.3322 69.9059C28.3322 69.923 28.3286 69.9398 28.3218 69.9554C27.9865 70.5059 27.6492 71.0563 27.31 71.6067L27.2843 71.6523Z" fill="white"/>
<path d="M26.3083 79.2197C26.6113 79.2197 26.7419 79.3999 26.7419 79.6929V79.9246C26.7419 80.2295 26.5974 80.3899 26.2925 80.3899H26.0945V81.1502H25.8787V79.2197H26.3083ZM26.2925 80.1978C26.4529 80.1978 26.5301 80.1226 26.5301 79.9385V79.6811C26.5301 79.5048 26.4667 79.4157 26.3083 79.4157H26.1103V80.2077L26.2925 80.1978Z" fill="white"/>
<path d="M27.0923 80.762L27.0171 81.158H26.8191L27.1894 79.2275H27.5002L27.8705 81.158H27.6547L27.5794 80.762H27.0923ZM27.126 80.5858H27.5557L27.3379 79.4711L27.126 80.5858Z" fill="white"/>
<path d="M28.4604 79.2197C28.7633 79.2197 28.894 79.3999 28.894 79.6929V79.9246C28.894 80.2295 28.7495 80.3899 28.4446 80.3899H28.2466V81.1502H28.0327V79.2197H28.4604ZM28.4446 80.1978C28.603 80.1978 28.6802 80.1226 28.6802 79.9385V79.6811C28.6802 79.5048 28.6168 79.4157 28.4604 79.4157H28.2525V80.2077L28.4446 80.1978Z" fill="white"/>
<path d="M29.7476 80.0751V80.2731H29.2763V80.9601H29.8565V81.1581H29.0645V79.2197H29.8565V79.4177H29.2763V80.0771L29.7476 80.0751Z" fill="white"/>
<path d="M30.4919 79.2197C30.7968 79.2197 30.9236 79.3742 30.9236 79.6613V79.8197C30.9236 80.0315 30.8483 80.1642 30.684 80.2157C30.8602 80.2691 30.9255 80.4137 30.9255 80.6117V80.9106C30.9194 80.99 30.933 81.0695 30.9651 81.1423H30.7473C30.7165 81.0685 30.7043 80.9883 30.7117 80.9087V80.6057C30.7117 80.3879 30.6087 80.3186 30.4286 80.3186H30.2781V81.1423H30.0623V79.2197H30.4919ZM30.4385 80.1305C30.6087 80.1305 30.7117 80.0751 30.7117 79.8652V79.6811C30.7117 79.5068 30.6464 79.4157 30.488 79.4157H30.2781V80.1305H30.4385Z" fill="white"/>
<path d="M91.4758 90.1377H96.2278" stroke="#263238" stroke-linecap="round" stroke-linejoin="round"/>
<path d="M5.34595 90.1377H90.0899" stroke="#263238" stroke-linecap="round" stroke-linejoin="round"/>
</svg>
