<svg width="135" height="71" viewBox="0 0 135 71" fill="none" xmlns="http://www.w3.org/2000/svg">
<path opacity="0.15" d="M50.6392 15.8126C50.427 13.5564 50.1603 10.5125 51.7312 8.63462C53.7052 6.26588 58.6906 7.4939 61.4899 7.30572C61.7722 7.28632 62.0408 7.26692 62.3016 7.24558C62.5547 7.2126 62.8117 7.18932 63.0803 7.1738C64.1276 7.06904 64.9997 6.941 65.7395 6.7858H65.7842L66.1502 6.7082L66.2281 6.69074L66.5512 6.6112L66.6388 6.58792L66.9308 6.50644L67.0165 6.48122C67.1099 6.45406 67.2111 6.42496 67.289 6.39586L67.3669 6.37064L67.6199 6.2814L67.692 6.25424C67.7737 6.2232 67.8535 6.19216 67.9295 6.15918L67.9898 6.13396C68.0677 6.10098 68.1455 6.068 68.2195 6.03308L68.2623 6.01368C68.3402 5.97682 68.4161 5.93996 68.4901 5.90116L68.5115 5.88952C69.4712 5.39288 70.0922 4.7973 70.9059 4.12412H70.9176L71.1123 3.9631L71.1687 3.91848L71.342 3.78074L71.4218 3.71866L71.5892 3.59062L71.6846 3.51884L71.8559 3.39468L71.963 3.31902L72.144 3.19486L72.2608 3.11532L72.4749 2.97758C72.508 2.95624 72.5411 2.93296 72.5781 2.91162C72.6871 2.84178 72.8 2.77388 72.9188 2.7021C73.1407 2.57212 73.3684 2.4499 73.5982 2.33156L73.822 2.22292C73.9817 2.14532 74.1413 2.0716 74.3029 1.99982L74.5676 1.8873C74.7253 1.82134 74.8849 1.7612 75.0445 1.6933C75.1321 1.66226 75.2158 1.62734 75.3034 1.59824C75.5292 1.52064 75.7551 1.44886 75.9848 1.38484C76.0977 1.3538 76.2106 1.32664 76.3235 1.29948C76.4364 1.27232 76.5707 1.23546 76.6934 1.21024C76.816 1.18502 76.9678 1.15398 77.1061 1.12876L77.3844 1.08026C77.5382 1.05698 77.6901 1.0337 77.8438 1.01624L77.9937 1.00266C78.5595 0.942129 79.1297 0.933687 79.6971 0.977443H79.7282C79.9229 0.992963 80.1175 1.01624 80.3005 1.04534C81.0352 1.15117 81.7435 1.39262 82.3893 1.75732C84.9862 0.762103 87.8302 0.618542 89.8003 1.69136C93.3257 0.397382 97.2599 0.667043 98.8172 3.41214C100.698 6.72954 99.8295 7.59478 101.71 7.59478C103.59 7.59478 104.461 6.58404 105.763 7.16216C107.065 7.74028 107.787 8.74714 108.222 8.74714C108.656 8.74714 109.814 7.44928 110.97 8.16514C112.127 8.881 112.853 10.7609 112.853 10.7609C112.853 10.7609 113.437 13.0675 110.682 12.6349C109.395 12.4409 108.825 11.4709 107.743 11.0829C106.575 10.6697 105.907 11.37 105.138 12.0936C105.304 11.9404 105.463 11.7852 105.625 11.6436C105.529 12.0723 105.235 12.5127 104.513 12.6388C104.41 12.7183 104.305 12.7959 104.194 12.8658C102.65 13.8358 100.598 13.4206 98.9574 12.6233C98.607 12.4545 98.2644 12.2663 97.9237 12.0742C97.8729 12.1524 97.8128 12.224 97.7446 12.2876L97.7193 12.3109C97.644 12.3794 97.5603 12.438 97.4701 12.4855C97.3089 12.623 97.1385 12.7494 96.9601 12.8638C95.4145 13.8338 93.3646 13.4187 91.7216 12.6213C91.3109 12.4273 90.9099 12.1984 90.5108 11.9695L90.4972 11.9811L90.2889 12.1751L90.2188 12.2411L90.0494 12.3924L89.9618 12.4661C89.9054 12.5146 89.847 12.5612 89.7886 12.6077L89.7049 12.6737C89.6406 12.7222 89.5725 12.7688 89.5102 12.8134C89.3973 12.9259 89.2786 13.0384 89.154 13.1432C87.3436 14.6583 84.8187 15.4712 82.4672 15.446C81.3528 15.4102 80.2565 15.155 79.2415 14.6952C77.9692 15.2075 76.6095 15.4697 75.2372 15.4673C74.0731 15.4283 72.9291 15.153 71.8754 14.6583C71.5743 14.7799 71.2673 14.8892 70.9546 14.9862L70.7074 15.058C70.5127 15.1123 70.318 15.1627 70.1234 15.2054C69.9715 15.2403 69.8216 15.2714 69.6698 15.2985L69.3739 15.349C69.1403 15.3839 68.9067 15.413 68.6731 15.4324L68.494 15.444C68.2312 15.4615 67.9703 15.4712 67.7153 15.4673C67.5771 15.4673 67.4389 15.4576 67.3046 15.4479C67.0807 18.1038 66.999 20.8586 66.999 20.8586H65.3657C65.3657 20.8586 65.8407 20.4279 65.4066 15.8146C65.3832 15.5662 65.3599 15.3082 65.3384 15.0386L65.1438 14.9707L65.0056 14.9202C64.8343 14.8581 64.6668 14.7902 64.4994 14.7262L64.441 14.701C64.2464 14.6156 64.0517 14.5264 63.8473 14.4313H63.8278C63.6332 14.3363 63.4385 14.2373 63.2438 14.1365H63.2341C62.2861 13.6437 61.3575 13.0869 60.4095 12.5845C60.3881 12.697 60.3667 12.8134 60.3491 12.9395C59.915 15.9678 59.7651 20.8683 59.7651 20.8683H58.1319C58.1319 20.8683 58.6069 20.4376 58.1728 15.8243C58.0521 14.5536 57.9158 13.0307 58.1007 11.6086C57.98 11.5718 57.8613 11.531 57.7387 11.4981C54.99 10.7783 53.2613 9.91308 52.8194 12.9414C52.3775 15.9698 52.2354 20.8702 52.2354 20.8702H50.6022C50.6022 20.8702 51.0733 20.4279 50.6392 15.8126Z" fill="black"/>
<path d="M119.345 28.2793H98.4453V69.4054H119.345V28.2793Z" fill="#263238" stroke="#263238" stroke-linecap="round" stroke-linejoin="round"/>
<path d="M104.441 32.6772H98.5505" stroke="white" stroke-linecap="round" stroke-linejoin="round"/>
<path d="M104.441 39.667H98.5505" stroke="white" stroke-linecap="round" stroke-linejoin="round"/>
<path d="M104.441 46.9263H98.5505" stroke="white" stroke-linecap="round" stroke-linejoin="round"/>
<path d="M104.441 54.4575H98.5505" stroke="white" stroke-linecap="round" stroke-linejoin="round"/>
<path d="M104.441 61.4473H98.5505" stroke="white" stroke-linecap="round" stroke-linejoin="round"/>
<path d="M119.345 28.2793H104.424V69.4054H119.345V28.2793Z" fill="white" stroke="#263238" stroke-linecap="round" stroke-linejoin="round"/>
<path d="M119.345 28.2793H104.424V30.5918H119.345V28.2793Z" fill="#263238" stroke="#263238" stroke-linecap="round" stroke-linejoin="round"/>
<path d="M119.345 35.4785H104.424V37.791H119.345V35.4785Z" fill="#263238" stroke="#263238" stroke-linecap="round" stroke-linejoin="round"/>
<path d="M119.345 42.8564H104.424V45.1689H119.345V42.8564Z" fill="#263238" stroke="#263238" stroke-linecap="round" stroke-linejoin="round"/>
<path d="M119.345 50.0557H104.424V52.3681H119.345V50.0557Z" fill="#263238" stroke="#263238" stroke-linecap="round" stroke-linejoin="round"/>
<path d="M119.345 64.7861H104.424V66.7649H119.345V64.7861Z" fill="#263238" stroke="#263238" stroke-linecap="round" stroke-linejoin="round"/>
<path d="M119.345 57.2529H104.424V59.5654H119.345V57.2529Z" fill="#263238" stroke="#263238" stroke-linecap="round" stroke-linejoin="round"/>
<path d="M114.517 65.3604H108.553V69.4053H114.517V65.3604Z" fill="#263238" stroke="#263238" stroke-linecap="round" stroke-linejoin="round"/>
<path d="M107.176 29.542V65.1313" stroke="#263238" stroke-linecap="round" stroke-linejoin="round"/>
<path d="M111.765 29.542V65.1313" stroke="#263238" stroke-linecap="round" stroke-linejoin="round"/>
<path d="M116.353 29.542V65.1313" stroke="#263238" stroke-linecap="round" stroke-linejoin="round"/>
<path d="M100.065 29.542V65.1313" stroke="white" stroke-linecap="round" stroke-linejoin="round"/>
<path d="M101.517 29.542V65.1313" stroke="white" stroke-linecap="round" stroke-linejoin="round"/>
<path d="M102.971 29.542V65.1313" stroke="white" stroke-linecap="round" stroke-linejoin="round"/>
<path d="M120.024 27.8057H97.6455V29.7709H120.024V27.8057Z" fill="#263238" stroke="#263238" stroke-linecap="round" stroke-linejoin="round"/>
<path d="M120.022 27.8057H103.735V29.7709H120.022V27.8057Z" fill="#BDBDBD" stroke="#263238" stroke-miterlimit="10"/>
<path d="M120.024 35.1216H97.6455V37.0868H120.024V35.1216Z" fill="#263238" stroke="#263238" stroke-linecap="round" stroke-linejoin="round"/>
<path d="M120.022 35.1216H103.735V37.0868H120.022V35.1216Z" fill="#BDBDBD" stroke="#263238" stroke-miterlimit="10"/>
<path d="M120.024 42.437H97.6455V44.4022H120.024V42.437Z" fill="#263238" stroke="#263238" stroke-linecap="round" stroke-linejoin="round"/>
<path d="M120.022 42.437H103.735V44.4022H120.022V42.437Z" fill="#BDBDBD" stroke="#263238" stroke-miterlimit="10"/>
<path d="M120.024 49.7549H97.6455V51.7201H120.024V49.7549Z" fill="#263238" stroke="#263238" stroke-linecap="round" stroke-linejoin="round"/>
<path d="M120.022 49.7549H103.735V51.7201H120.022V49.7549Z" fill="#BDBDBD" stroke="#263238" stroke-miterlimit="10"/>
<path d="M120.024 57.0708H97.6455V59.036H120.024V57.0708Z" fill="#263238" stroke="#263238" stroke-linecap="round" stroke-linejoin="round"/>
<path d="M120.022 57.0708H103.735V59.036H120.022V57.0708Z" fill="#BDBDBD" stroke="#263238" stroke-miterlimit="10"/>
<path d="M120.024 64.3862H97.6455V66.3515H120.024V64.3862Z" fill="#263238" stroke="#263238" stroke-linecap="round" stroke-linejoin="round"/>
<path d="M120.022 64.3862H103.735V66.3515H120.022V64.3862Z" fill="#BDBDBD" stroke="#263238" stroke-miterlimit="10"/>
<path d="M104.441 32.6772H119.218" stroke="#263238" stroke-linecap="round" stroke-linejoin="round"/>
<path d="M104.441 39.667H119.218" stroke="#263238" stroke-linecap="round" stroke-linejoin="round"/>
<path d="M104.441 46.9263H119.218" stroke="#263238" stroke-linecap="round" stroke-linejoin="round"/>
<path d="M104.441 54.4575H119.218" stroke="#263238" stroke-linecap="round" stroke-linejoin="round"/>
<path d="M104.441 61.4473H119.218" stroke="#263238" stroke-linecap="round" stroke-linejoin="round"/>
<path d="M118.315 68.3496H104.482V68.8346H118.315V68.3496Z" fill="white" stroke="#263238" stroke-linecap="round" stroke-linejoin="round"/>
<path d="M122.397 68.835H104.482V69.5644H122.397V68.835Z" fill="white" stroke="#263238" stroke-linecap="round" stroke-linejoin="round"/>
<path d="M99.0235 20.4746H72.3989V69.3975H99.0235V20.4746Z" fill="#263238" stroke="#263238" stroke-linecap="round" stroke-linejoin="round"/>
<path d="M99.0236 20.4746H79.4343V69.3975H99.0236V20.4746Z" fill="#BDBDBD" stroke="#263238" stroke-miterlimit="10"/>
<path d="M99.0217 64.7222H84.0791V69.3976H99.0217V64.7222Z" fill="#263238" stroke="#263238" stroke-linecap="round" stroke-linejoin="round"/>
<path d="M88.3501 64.7222H87.5364V69.3976H88.3501V64.7222Z" fill="white" stroke="#263238" stroke-linecap="round" stroke-linejoin="round"/>
<path d="M92.5452 64.7222H91.7314V69.3976H92.5452V64.7222Z" fill="white" stroke="#263238" stroke-linecap="round" stroke-linejoin="round"/>
<path d="M96.7422 64.7222H95.9285V69.3976H96.7422V64.7222Z" fill="white" stroke="#263238" stroke-linecap="round" stroke-linejoin="round"/>
<path d="M86.8921 64.7219V20.5869" stroke="#263238" stroke-linecap="round" stroke-linejoin="round"/>
<path d="M76.896 69.5641V20.5869" stroke="white" stroke-linecap="round" stroke-linejoin="round"/>
<path d="M74.4722 69.5641V20.5869" stroke="white" stroke-linecap="round" stroke-linejoin="round"/>
<path d="M94.3301 64.7219V20.5869" stroke="#263238" stroke-linecap="round" stroke-linejoin="round"/>
<path d="M79.5356 25.606H98.9089" stroke="#263238" stroke-linecap="round" stroke-linejoin="round"/>
<path d="M79.5356 32.1064H98.9089" stroke="#263238" stroke-linecap="round" stroke-linejoin="round"/>
<path d="M79.5356 38.6055H98.9089" stroke="#263238" stroke-linecap="round" stroke-linejoin="round"/>
<path d="M79.5356 45.1064H98.9089" stroke="#263238" stroke-linecap="round" stroke-linejoin="round"/>
<path d="M79.5356 51.6074H98.9089" stroke="#263238" stroke-linecap="round" stroke-linejoin="round"/>
<path d="M79.5356 58.1064H98.9089" stroke="#263238" stroke-linecap="round" stroke-linejoin="round"/>
<path d="M79.5355 25.606H72.366" stroke="white" stroke-linecap="round" stroke-linejoin="round"/>
<path d="M79.5355 32.1064H72.366" stroke="white" stroke-linecap="round" stroke-linejoin="round"/>
<path d="M79.5355 38.6055H72.366" stroke="white" stroke-linecap="round" stroke-linejoin="round"/>
<path d="M79.5355 45.1064H72.366" stroke="white" stroke-linecap="round" stroke-linejoin="round"/>
<path d="M79.5355 51.6074H72.366" stroke="white" stroke-linecap="round" stroke-linejoin="round"/>
<path d="M79.5355 58.1064H72.366" stroke="white" stroke-linecap="round" stroke-linejoin="round"/>
<path d="M72.4731 64.6074H98.9089" stroke="#263238" stroke-linecap="round" stroke-linejoin="round"/>
<path d="M53.0705 20.5635H50.3529L48.9941 54.2807H54.4292L53.0705 20.5635Z" fill="#92E3A9" stroke="#263238" stroke-miterlimit="10"/>
<path d="M53.0453 20.8603H50.3706C50.2932 20.8603 50.2189 20.8297 50.1641 20.7751C50.1094 20.7205 50.0786 20.6465 50.0786 20.5693C50.0786 20.4921 50.1094 20.4181 50.1641 20.3636C50.2189 20.309 50.2932 20.2783 50.3706 20.2783H53.0453C53.1228 20.2783 53.197 20.309 53.2518 20.3636C53.3066 20.4181 53.3373 20.4921 53.3373 20.5693C53.3373 20.6465 53.3066 20.7205 53.2518 20.7751C53.197 20.8297 53.1228 20.8603 53.0453 20.8603Z" fill="white" stroke="#263238" stroke-miterlimit="10"/>
<path d="M50.2908 22.1118L50.2402 23.3282H53.1817L53.133 22.1118H50.2908Z" fill="white" stroke="#263238" stroke-miterlimit="10"/>
<path d="M54.2425 49.6383L54.1919 48.4219H49.2298L49.1812 49.6383H54.2425Z" fill="white" stroke="#263238" stroke-miterlimit="10"/>
<path d="M49.5316 40.9048L49.4829 42.1212H53.9388L53.8902 40.9048H49.5316Z" fill="white" stroke="#263238" stroke-miterlimit="10"/>
<path d="M49.3817 44.6641L49.333 45.8804H54.0907L54.042 44.6641H49.3817Z" fill="white" stroke="#263238" stroke-miterlimit="10"/>
<path d="M49.6834 37.147L49.6348 38.3634H53.787L53.7383 37.147H49.6834Z" fill="white" stroke="#263238" stroke-miterlimit="10"/>
<path d="M50.139 25.8716L50.0884 27.086H53.3335L53.2848 25.8716H50.139Z" fill="white" stroke="#263238" stroke-miterlimit="10"/>
<path d="M49.8353 33.3892L49.7866 34.6036H53.6352L53.5865 33.3892H49.8353Z" fill="white" stroke="#263238" stroke-miterlimit="10"/>
<path d="M49.9871 29.6294L49.9385 30.8458H53.4834L53.4347 29.6294H49.9871Z" fill="white" stroke="#263238" stroke-miterlimit="10"/>
<path d="M60.392 20.5635H57.6725L56.3157 54.2807H61.7508L60.392 20.5635Z" fill="#92E3A9" stroke="#263238" stroke-miterlimit="10"/>
<path d="M60.3744 20.8603H57.69C57.6128 20.8598 57.5391 20.8289 57.4847 20.7744C57.4304 20.7199 57.3999 20.6462 57.3999 20.5693C57.3999 20.4925 57.4304 20.4188 57.4847 20.3642C57.5391 20.3097 57.6128 20.2788 57.69 20.2783H60.3744C60.4519 20.2783 60.5261 20.309 60.5809 20.3636C60.6356 20.4181 60.6664 20.4921 60.6664 20.5693C60.6664 20.6075 60.6589 20.6454 60.6442 20.6807C60.6295 20.716 60.608 20.7481 60.5809 20.7751C60.5538 20.8021 60.5216 20.8235 60.4862 20.8382C60.4507 20.8528 60.4128 20.8603 60.3744 20.8603Z" fill="white" stroke="#263238" stroke-miterlimit="10"/>
<path d="M57.6102 22.1118L57.5615 23.3282H60.5029L60.4543 22.1118H57.6102Z" fill="white" stroke="#263238" stroke-miterlimit="10"/>
<path d="M61.5638 49.6383L61.5132 48.4219H56.5511L56.5024 49.6383H61.5638Z" fill="white" stroke="#263238" stroke-miterlimit="10"/>
<path d="M56.8529 40.9048L56.8042 42.1212H61.2601L61.2115 40.9048H56.8529Z" fill="white" stroke="#263238" stroke-miterlimit="10"/>
<path d="M56.703 44.6641L56.6523 45.8804H61.4119L61.3633 44.6641H56.703Z" fill="white" stroke="#263238" stroke-miterlimit="10"/>
<path d="M57.0047 37.147L56.9561 38.3634H61.1083L61.0596 37.147H57.0047Z" fill="white" stroke="#263238" stroke-miterlimit="10"/>
<path d="M57.4603 25.8716L57.4116 27.086H60.6548L60.6042 25.8716H57.4603Z" fill="white" stroke="#263238" stroke-miterlimit="10"/>
<path d="M57.1566 33.3892L57.1079 34.6036H60.9565L60.9078 33.3892H57.1566Z" fill="white" stroke="#263238" stroke-miterlimit="10"/>
<path d="M57.3084 29.6294L57.2598 30.8458H60.8066L60.756 29.6294H57.3084Z" fill="white" stroke="#263238" stroke-miterlimit="10"/>
<path d="M67.7135 20.5635H64.994L63.6353 54.2807H69.0723L67.7135 20.5635Z" fill="#92E3A9" stroke="#263238" stroke-miterlimit="10"/>
<path d="M67.6959 20.8603H65.0115C64.9344 20.8598 64.8606 20.8289 64.8063 20.7744C64.7519 20.7199 64.7214 20.6462 64.7214 20.5693C64.7214 20.4925 64.7519 20.4188 64.8063 20.3642C64.8606 20.3097 64.9344 20.2788 65.0115 20.2783H67.6959C67.773 20.2788 67.8468 20.3097 67.9012 20.3642C67.9555 20.4188 67.986 20.4925 67.986 20.5693C67.986 20.6462 67.9555 20.7199 67.9012 20.7744C67.8468 20.8289 67.773 20.8598 67.6959 20.8603Z" fill="white" stroke="#263238" stroke-miterlimit="10"/>
<path d="M64.9317 22.1118L64.8831 23.3282H67.8245L67.7758 22.1118H64.9317Z" fill="white" stroke="#263238" stroke-miterlimit="10"/>
<path d="M68.8853 49.6383L68.8347 48.4219H63.8726L63.824 49.6383H68.8853Z" fill="white" stroke="#263238" stroke-miterlimit="10"/>
<path d="M64.1744 40.9048L64.1257 42.1212H68.5816L68.533 40.9048H64.1744Z" fill="white" stroke="#263238" stroke-miterlimit="10"/>
<path d="M64.0225 44.6641L63.9739 45.8804H68.7335L68.6829 44.6641H64.0225Z" fill="white" stroke="#263238" stroke-miterlimit="10"/>
<path d="M64.3263 37.147L64.2776 38.3634H68.4298L68.3812 37.147H64.3263Z" fill="white" stroke="#263238" stroke-miterlimit="10"/>
<path d="M64.7818 25.8716L64.7312 27.086H67.9763L67.9257 25.8716H64.7818Z" fill="white" stroke="#263238" stroke-miterlimit="10"/>
<path d="M64.4781 33.3892L64.4294 34.6036H68.278L68.2293 33.3892H64.4781Z" fill="white" stroke="#263238" stroke-miterlimit="10"/>
<path d="M64.63 29.6294L64.5813 30.8458H68.1262L68.0775 29.6294H64.63Z" fill="white" stroke="#263238" stroke-miterlimit="10"/>
<path d="M68.6245 50.1431H33.6565V69.5644H68.6245V50.1431Z" fill="#263238" stroke="#263238" stroke-linecap="round" stroke-linejoin="round"/>
<path d="M86.0647 50.1431H49.0449V69.5644H86.0647V50.1431Z" fill="#BDBDBD" stroke="#263238" stroke-miterlimit="10"/>
<path d="M59.8821 57.5845H53.7812V69.564H59.8821V57.5845Z" fill="#696969" stroke="#263238" stroke-miterlimit="10"/>
<path d="M58.8815 57.5845H53.7812V69.564H58.8815V57.5845Z" fill="#263238" stroke="#263238" stroke-linecap="round" stroke-linejoin="round"/>
<path d="M70.8086 57.5845H64.7078V69.564H70.8086V57.5845Z" fill="#696969" stroke="#263238" stroke-miterlimit="10"/>
<path d="M69.808 57.5845H64.7078V69.564H69.808V57.5845Z" fill="#263238" stroke="#263238" stroke-linecap="round" stroke-linejoin="round"/>
<path d="M81.7371 57.5845H75.6362V69.564H81.7371V57.5845Z" fill="#696969" stroke="#263238" stroke-miterlimit="10"/>
<path d="M80.7365 57.5845H75.6362V69.564H80.7365V57.5845Z" fill="#263238" stroke="#263238" stroke-linecap="round" stroke-linejoin="round"/>
<path d="M38.3889 52.3662H35.0601V55.4081H38.3889V52.3662Z" fill="#D6D6D6" stroke="#263238" stroke-miterlimit="10"/>
<path d="M42.8876 52.3662H39.5588V55.4081H42.8876V52.3662Z" fill="#D6D6D6" stroke="#263238" stroke-miterlimit="10"/>
<path d="M47.3864 52.3662H44.0576V55.4081H47.3864V52.3662Z" fill="#D6D6D6" stroke="#263238" stroke-miterlimit="10"/>
<path d="M59.2435 52.3662H54.2717V55.4081H59.2435V52.3662Z" fill="#263238" stroke="#263238" stroke-linecap="round" stroke-linejoin="round"/>
<path d="M58.9613 52.3662H53.9895V55.4081H58.9613V52.3662Z" fill="#D6D6D6" stroke="#263238" stroke-miterlimit="10"/>
<path d="M70.1603 52.3662H65.1885V55.4081H70.1603V52.3662Z" fill="#263238" stroke="#263238" stroke-linecap="round" stroke-linejoin="round"/>
<path d="M69.878 52.3662H64.9062V55.4081H69.878V52.3662Z" fill="#D6D6D6" stroke="#263238" stroke-miterlimit="10"/>
<path d="M81.0792 52.3662H76.1074V55.4081H81.0792V52.3662Z" fill="#263238" stroke="#263238" stroke-linecap="round" stroke-linejoin="round"/>
<path d="M80.795 52.3662H75.8232V55.4081H80.795V52.3662Z" fill="#D6D6D6" stroke="#263238" stroke-miterlimit="10"/>
<path d="M33.1699 55.375H28.7412V57.93H33.1699V55.375Z" fill="#D6D6D6" stroke="#263238" stroke-miterlimit="10"/>
<path d="M34.5656 55.375H30.137V57.93H34.5656V55.375Z" fill="#D6D6D6" stroke="#263238" stroke-miterlimit="10"/>
<path d="M38.5815 56.8105H27.6646V69.5622H38.5815V56.8105Z" fill="#263238" stroke="#263238" stroke-linecap="round" stroke-linejoin="round"/>
<path d="M46.6816 56.8105H35.7646V69.5622H46.6816V56.8105Z" fill="#BDBDBD" stroke="#263238" stroke-miterlimit="10"/>
<path d="M42.6909 64.8848H39.7554V69.564H42.6909V64.8848Z" fill="#263238" stroke="#263238" stroke-linecap="round" stroke-linejoin="round"/>
<path d="M34.7078 58.3315H32.8916V66.9898H34.7078V58.3315Z" fill="#9E9E9E"/>
<path d="M32.3873 58.3315H30.571V66.9898H32.3873V58.3315Z" fill="#9E9E9E"/>
<path d="M30.0667 58.3315H28.2505V66.9898H30.0667V58.3315Z" fill="#9E9E9E"/>
<path d="M52.8761 52.1255H50.2637V69.4846H52.8761V52.1255Z" fill="#263238" stroke="#263238" stroke-linecap="round" stroke-linejoin="round"/>
<path d="M53.2867 52.1255H50.6743V69.4846H53.2867V52.1255Z" fill="#92E3A9" stroke="#263238" stroke-miterlimit="10"/>
<path d="M63.5338 52.1255H60.9214V69.4846H63.5338V52.1255Z" fill="#263238" stroke="#263238" stroke-linecap="round" stroke-linejoin="round"/>
<path d="M63.9428 52.1255H61.3303V69.4846H63.9428V52.1255Z" fill="#92E3A9" stroke="#263238" stroke-miterlimit="10"/>
<path d="M74.4449 52.1255H71.8325V69.4846H74.4449V52.1255Z" fill="#263238" stroke="#263238" stroke-linecap="round" stroke-linejoin="round"/>
<path d="M74.8558 52.1255H72.2434V69.4846H74.8558V52.1255Z" fill="#92E3A9" stroke="#263238" stroke-miterlimit="10"/>
<path d="M85.3717 52.1255H82.7593V69.4846H85.3717V52.1255Z" fill="#263238" stroke="#263238" stroke-linecap="round" stroke-linejoin="round"/>
<path d="M85.7824 52.1255H83.1699V69.4846H85.7824V52.1255Z" fill="#92E3A9" stroke="#263238" stroke-miterlimit="10"/>
<path opacity="0.7" d="M131.959 37.4299L134.079 37.3697L117.649 35.9593C117.649 35.9593 113.688 32.8553 109.16 32.576C104.632 32.2966 104.35 35.9593 102.652 35.3948C100.955 34.8303 100.672 32.576 96.4229 32.8573C92.1733 33.1386 91.0521 35.6761 88.2216 35.1135C85.3912 34.5509 83.4133 28.6281 74.9239 28.3448C66.4345 28.0616 55.9653 35.9593 55.9653 35.9593C55.1507 36.5199 54.2905 37.0118 53.3938 37.4299H131.959Z" fill="white"/>
<path opacity="0.7" d="M76.452 44.3618L78.278 44.3094L56.1035 43.095C56.1035 43.095 52.693 40.4236 48.7938 40.185C44.8946 39.9463 44.6513 43.095 43.1893 42.6138C41.7274 42.1327 41.4841 40.185 37.8282 40.4275C34.1724 40.67 33.1991 42.8563 30.7618 42.3675C28.3246 41.8786 26.6213 36.7822 19.3096 36.5475C11.9979 36.3127 2.98484 43.1027 2.98484 43.1027C2.28359 43.5865 1.54251 44.0103 0.769531 44.3695L76.452 44.3618Z" fill="white"/>
</svg>
